<?xml version="1.0" encoding="utf-8"?>
<!-- Generator: Adobe Illustrator 24.3.0, SVG Export Plug-In . SVG Version: 6.00 Build 0)  -->
<svg version="1.1" id="Layer_1" xmlns:v="https://vecta.io/nano"
	 xmlns="http://www.w3.org/2000/svg" xmlns:xlink="http://www.w3.org/1999/xlink" x="0px" y="0px" viewBox="0 0 64 64"
	 style="enable-background:new 0 0 64 64;" xml:space="preserve">
<style type="text/css">
	.st0{fill:#EE3D33;}
	.st1{fill:#4E151A;}
	.st2{fill:#BBBDBF;}
	.st3{fill:#F3DFAE;}
	.st4{fill:#F5B779;}
	.st5{fill:#321328;}
	.st6{fill:#E73D49;}
	.st7{opacity:0.55;}
	.st8{fill:#FFFFFF;}
	.st9{opacity:0.16;}
	.st10{fill:#6B184E;}
	.st11{fill:#D93541;}
	.st12{opacity:0.25;}
	.st13{fill:#6D1837;}
	.st14{fill:#FFC92B;}
	.st15{fill:none;}
	.st16{fill:#D6662E;}
	.st17{fill:#611840;}
	.st18{opacity:0.3;}
	.st19{opacity:0.65;}
	.st20{fill:#72A78D;}
	.st21{fill:#84BD54;}
	.st22{fill:#E56E5F;}
	.st23{fill:#F8B517;}
	.st24{fill:#E7327B;}
	.st25{fill:none;stroke:#4E151A;stroke-width:9.3675;stroke-linecap:round;stroke-linejoin:round;stroke-miterlimit:10;}
	.st26{fill:none;stroke:#4E151A;stroke-width:8.4522;stroke-linecap:round;stroke-linejoin:round;stroke-miterlimit:10;}
</style>
<g>
	<g>
		<g>
			<g>
				<path class="st0" d="M32.1,50.1c-6.9,0-13.3-1.1-18.2-3.2c-5-2.1-7.7-4.9-7.7-8c0-3.1,2.7-5.9,7.7-8c4.9-2.1,11.3-3.2,18.2-3.2
					c6.9,0,13.3,1.1,18.2,3.2c5,2.1,7.7,4.9,7.7,8c0,3.1-2.7,5.9-7.7,8C45.5,49,39,50.1,32.1,50.1z"/>
				<path class="st1" d="M32.1,28.2c14.1,0,25.5,4.8,25.5,10.7c0,5.9-11.4,10.7-25.5,10.7C18,49.7,6.6,44.9,6.6,38.9
					C6.6,33,18,28.2,32.1,28.2 M32.1,27.3c-6.9,0-13.5,1.1-18.4,3.2c-5.2,2.2-8,5.2-8,8.4c0,3.2,2.8,6.2,8,8.4
					c4.9,2.1,11.5,3.2,18.4,3.2c6.9,0,13.5-1.1,18.4-3.2c5.2-2.2,8-5.2,8-8.4c0-3.2-2.8-6.2-8-8.4C45.6,28.4,39,27.3,32.1,27.3
					L32.1,27.3z"/>
			</g>
			<g>
				<path class="st0" d="M32.1,46.5c-8.4,0-16.3-1.1-22.2-3.2c-6.1-2.1-9.4-5-9.4-8.1c0-3.1,3.4-6,9.4-8.1c5.9-2,13.8-3.2,22.2-3.2
					c8.4,0,16.3,1.1,22.2,3.2c6.1,2.1,9.4,5,9.4,8.1c0,3.1-3.4,6-9.4,8.1C48.4,45.4,40.5,46.5,32.1,46.5z"/>
				<path class="st1" d="M32.1,24.6c17.2,0,31.2,4.8,31.2,10.7c0,5.9-13.9,10.7-31.2,10.7C14.9,46.1,1,41.2,1,35.3
					C1,29.4,14.9,24.6,32.1,24.6 M32.1,23.6c-8.4,0-16.4,1.1-22.3,3.2c-3,1-5.3,2.2-7,3.6C0.9,31.9,0,33.6,0,35.3
					c0,1.8,0.9,3.4,2.8,4.9c1.7,1.4,4,2.6,7,3.6c6,2.1,13.9,3.2,22.3,3.2c8.4,0,16.4-1.1,22.3-3.2c3-1,5.3-2.2,7-3.6
					c1.9-1.5,2.8-3.2,2.8-4.9c0-1.8-0.9-3.4-2.8-4.9c-1.7-1.4-4-2.6-7-3.6C48.5,24.7,40.5,23.6,32.1,23.6L32.1,23.6z"/>
			</g>
			<g>
				<path class="st2" d="M55.4,28.2c3.1,1.7,4.9,3.7,4.9,5.8c0,5.9-13.9,10.7-31.2,10.7c-9.3,0-17.6-1.4-23.3-3.6
					c5.5,3,15.2,4.9,26.2,4.9c17.2,0,31.2-4.8,31.2-10.7C63.3,32.6,60.3,30.1,55.4,28.2z"/>
			</g>
			<g>
				<path class="st3" d="M32.1,43.5c-6.2,0-12-0.8-16.4-2.3c-4.5-1.5-6.9-3.6-6.9-5.9c0-2.3,2.5-4.3,6.9-5.9
					c4.4-1.5,10.2-2.3,16.4-2.3c6.2,0,12,0.8,16.4,2.3c4.5,1.5,6.9,3.6,6.9,5.9c0,2.3-2.5,4.3-6.9,5.9
					C44.1,42.7,38.3,43.5,32.1,43.5z M32.1,29.1c-11,0-20.2,2.9-20.2,6.2c0,3.4,9.3,6.2,20.2,6.2c11,0,20.2-2.9,20.2-6.2
					C52.3,31.9,43.1,29.1,32.1,29.1z"/>
				<path class="st1" d="M32.1,27.4c12.7,0,23,3.6,23,7.9c0,4.4-10.3,7.9-23,7.9c-12.7,0-23-3.6-23-7.9
					C9.1,30.9,19.4,27.4,32.1,27.4 M32.1,41.8c11.3,0,20.5-2.9,20.5-6.5c0-3.6-9.2-6.5-20.5-6.5c-11.3,0-20.5,2.9-20.5,6.5
					C11.6,38.9,20.8,41.8,32.1,41.8 M32.1,26.8c-6.2,0-12.1,0.8-16.5,2.4c-4.6,1.6-7.1,3.8-7.1,6.2c0,2.4,2.5,4.6,7.1,6.2
					c4.4,1.5,10.3,2.4,16.5,2.4c6.2,0,12.1-0.8,16.5-2.4c4.6-1.6,7.1-3.8,7.1-6.2c0-2.4-2.5-4.6-7.1-6.2
					C44.2,27.6,38.3,26.8,32.1,26.8L32.1,26.8z M32.1,41.3c-5.4,0-10.5-0.7-14.3-1.9c-3.5-1.1-5.6-2.6-5.6-4.1
					c0-1.4,2.1-2.9,5.6-4.1c3.8-1.2,8.9-1.9,14.3-1.9c5.4,0,10.5,0.7,14.3,1.9c3.5,1.1,5.6,2.6,5.6,4.1c0,1.4-2.1,2.9-5.6,4.1
					C42.6,40.6,37.5,41.3,32.1,41.3L32.1,41.3z"/>
			</g>
		</g>
		<g>
			<g>
				<g>
					<g>
						<path class="st4" d="M29.2,32.2C30.2,24.7,35.4,19,41.7,19s11.6,5.7,12.5,13.3c0.2,1.3-0.6,2.4-1.7,2.4H30.9
							C29.8,34.7,29.1,33.5,29.2,32.2z"/>
					</g>
				</g>
				<g>
					<g>
						<path class="st5" d="M29.5,34.3c-0.5-0.5-0.7-1.3-0.6-2.1c0.5-3.7,2-7.1,4.3-9.6c2.3-2.5,5.4-3.9,8.5-3.9
							c3.1,0,6.1,1.4,8.5,3.9c2.3,2.5,3.8,5.9,4.3,9.6c0.1,0.8-0.1,1.6-0.6,2.1c-0.4,0.4-0.8,0.7-1.4,0.7H30.9
							C30.4,35,29.9,34.7,29.5,34.3z M29.5,32.3c-0.1,0.6,0.1,1.3,0.5,1.7c0.3,0.3,0.6,0.5,0.9,0.5h21.6c0.3,0,0.7-0.2,0.9-0.5
							c0.4-0.4,0.5-1,0.5-1.7c-1-7.5-6.1-13-12.2-13S30.4,24.7,29.5,32.3z"/>
					</g>
				</g>
				<g>
					<g>
						<ellipse class="st6" cx="34.7" cy="20" rx="3" ry="3.1"/>
					</g>
				</g>
				<g class="st7">
					<g>
						<path class="st8" d="M31.7,19.6c0.2-1.7,1.7-2.9,3.4-2.7c1.6,0.2,2.7,1.5,2.7,3.1c-0.3-1.2-1.3-2.2-2.6-2.4
							c-1.7-0.2-3.2,1-3.4,2.7c0,0.1,0,0.2,0,0.3C31.7,20.3,31.6,19.9,31.7,19.6z"/>
					</g>
				</g>
				<g>
					<g>
						<path class="st5" d="M34.3,23.3c-0.9-0.1-1.7-0.6-2.2-1.3c-0.5-0.7-0.8-1.6-0.7-2.5c0.1-0.9,0.6-1.7,1.3-2.2s1.6-0.8,2.5-0.7
							c0.9,0.1,1.7,0.6,2.2,1.3s0.8,1.6,0.7,2.5c-0.1,0.9-0.6,1.7-1.3,2.2c-0.6,0.5-1.3,0.7-2,0.7C34.6,23.3,34.4,23.3,34.3,23.3z
							 M33,17.8c-0.6,0.5-1,1.1-1.1,1.9c-0.1,0.7,0.1,1.5,0.6,2.1c0.5,0.6,1.1,1,1.8,1.1c0.7,0.1,1.5-0.1,2-0.6
							c0.6-0.5,1-1.1,1.1-1.9c0.1-0.7-0.1-1.5-0.6-2.1s-1.1-1-1.8-1.1c-0.1,0-0.2,0-0.4,0C34.1,17.2,33.5,17.4,33,17.8z"/>
					</g>
				</g>
				<g class="st9">
					<g>
						<path class="st10" d="M29.2,32.2C30.2,24.7,35.4,19,41.7,19s11.6,5.7,12.5,13.3c0.2,1.3-0.6,2.4-1.7,2.4H30.9
							C29.8,34.7,29.1,33.5,29.2,32.2z"/>
					</g>
				</g>
				<g>
					<g>
						<ellipse class="st11" cx="49.2" cy="26.4" rx="3.8" ry="3.8"/>
					</g>
				</g>
				<g>
					<g>
						<ellipse class="st6" cx="49.2" cy="26.4" rx="3.8" ry="3.8"/>
					</g>
				</g>
				<g class="st12">
					<g>
						<path class="st13" d="M45.6,25.3c0.5,1.5,1.9,2.6,3.6,2.6c1.7,0,3.1-1.1,3.6-2.7C53,25.7,53,26,53,26.5c0,2.1-1.7,3.8-3.8,3.8
							c-2.1,0-3.8-1.7-3.8-3.8C45.5,26.1,45.5,25.7,45.6,25.3z"/>
					</g>
				</g>
				<g class="st7">
					<g>
						<path class="st8" d="M45.5,26.4c0-2.1,1.7-3.8,3.8-3.8c1.9,0,3.5,1.5,3.8,3.4c-0.5-1.5-1.9-2.6-3.6-2.6
							c-2.1,0-3.8,1.7-3.8,3.8c0,0.1,0,0.3,0,0.4C45.5,27.3,45.5,26.9,45.5,26.4z"/>
					</g>
				</g>
				<g>
					<g>
						<path class="st5" d="M45.2,26.4c0-2.3,1.8-4.1,4.1-4.1s4.1,1.8,4.1,4.1s-1.8,4.1-4.1,4.1C47,30.5,45.2,28.7,45.2,26.4z
							 M45.7,26.4c0,1.9,1.6,3.5,3.5,3.5s3.5-1.6,3.5-3.5s-1.6-3.5-3.5-3.5S45.7,24.5,45.7,26.4z"/>
					</g>
				</g>
				<g>
					<g>
						<path class="st14" d="M37.2,23.5l-1-4.5c-0.2-0.7,0.3-1.3,0.9-1.5l3.6-0.8c0.7-0.2,1.3,0.3,1.5,1l1,4.5
							c0.2,0.7-0.3,1.3-0.9,1.5l-3.6,0.8C38,24.7,37.3,24.2,37.2,23.5z"/>
					</g>
				</g>
				<g class="st7">
					<g>
						<path class="st8" d="M40.7,16.8c0.7-0.2,1.3,0.3,1.5,1l1,4.5c0.2,0.7-0.3,1.3-0.9,1.5l-0.6,0.1c0.7-0.2,1.1-0.8,0.9-1.5
							l-1-4.5c-0.2-0.7-0.8-1.1-1.5-1L40.7,16.8z"/>
					</g>
				</g>
				<g>
					<g>
						<path class="st15" d="M37.2,23.5l-1-4.5c-0.2-0.7,0.3-1.3,0.9-1.5l3.6-0.8c0.7-0.2,1.3,0.3,1.5,1l1,4.5
							c0.2,0.7-0.3,1.3-0.9,1.5l-3.6,0.8C38,24.7,37.3,24.2,37.2,23.5z"/>
					</g>
				</g>
				<g>
					<g>
						<path class="st5" d="M36.9,23.6l-1-4.5c-0.2-0.8,0.3-1.6,1.2-1.8l3.6-0.8c0.8-0.2,1.6,0.3,1.8,1.2l1,4.5
							c0.2,0.8-0.3,1.6-1.2,1.8l-3.6,0.8l0,0c-0.1,0-0.2,0-0.3,0C37.7,24.8,37.1,24.3,36.9,23.6z M42.2,23.4
							c0.5-0.1,0.9-0.6,0.7-1.2l-1-4.5c-0.1-0.3-0.2-0.5-0.4-0.6C41.3,17,41,17,40.7,17l-3.6,0.8c-0.5,0.1-0.9,0.6-0.7,1.2l1,4.5
							c0.1,0.3,0.2,0.5,0.4,0.6c0.2,0.1,0.5,0.2,0.7,0.1L42.2,23.4z"/>
					</g>
				</g>
				<g class="st12">
					<g>
						<path class="st10" d="M47.3,27l0.2,0c-0.1,0.4-0.2,0.7-0.2,1.1L47.3,27z"/>
					</g>
				</g>
				<g>
					<g>
						<g>
							<path class="st16" d="M46.3,27l-0.2,4.8l2.8,2.9l2.8,0c3.6,0,4.3-4.9,0.2-5.3c0.1-0.3,0-0.6-0.2-0.8
								c-0.2-0.2-0.6-0.3-0.8-0.2c-0.1-0.9-1.1-1.4-1.8-1.1L46.3,27z"/>
						</g>
						<g>
							<path class="st17" d="M48.8,34.7L46,31.8c0,0,0,0,0,0l0.2-4.8c0,0,0,0,0,0c0,0,0,0,0,0l2.7,0.3c0.4-0.2,0.8-0.1,1.2,0.1
								c0.4,0.2,0.6,0.6,0.6,1c0.3-0.1,0.6,0,0.8,0.2c0.2,0.2,0.3,0.5,0.2,0.8c2.1,0.2,2.8,1.6,2.7,2.7c-0.1,1.3-1.1,2.7-3,2.7
								L48.8,34.7L48.8,34.7C48.9,34.7,48.9,34.7,48.8,34.7z M50.9,28.4C50.9,28.4,50.9,28.4,50.9,28.4
								C50.8,28.4,50.8,28.4,50.9,28.4c-0.1-0.4-0.3-0.8-0.7-1c-0.4-0.2-0.8-0.3-1.2-0.1c0,0,0,0,0,0L46.4,27l-0.2,4.7l2.8,2.9
								l2.8,0c1.8,0,2.9-1.3,2.9-2.6c0-1.1-0.6-2.4-2.7-2.6c0,0,0,0,0,0c0,0,0,0,0,0c0.1-0.3,0-0.6-0.2-0.8
								c-0.1-0.1-0.3-0.2-0.5-0.2C51.1,28.4,51,28.4,50.9,28.4z"/>
						</g>
					</g>
					<g class="st12">
						<g>
							<path class="st13" d="M46.4,28.4C46.4,28.5,46.4,28.5,46.4,28.4c0,2.7,2,4.8,4.5,4.8c1.5,0,2.8-0.7,3.6-1.9
								c0.4,1.5-0.7,3.4-2.8,3.4l-2.7,0l-2.7-2.9L46.4,28.4z"/>
						</g>
					</g>
					<g class="st7">
						<g>
							<path class="st8" d="M49,27.4c0.7-0.3,1.7,0.2,1.8,1.1c0.3-0.1,0.6-0.1,0.8,0.2c0.2,0.2,0.3,0.5,0.2,0.8c3.5,0.3,3.4,4,1.1,5
								c1.7-1.3,1.6-4.2-1.3-4.7c-0.1,0-0.3-0.1-0.3-0.3c0-0.2-0.1-0.4-0.3-0.6c-0.2-0.1-0.4-0.2-0.6-0.2c-0.1,0-0.3-0.1-0.3-0.2
								c-0.2-0.6-0.8-1-1.4-0.9c-0.1-0.1-0.1-0.2-0.2-0.3L49,27.4z"/>
						</g>
					</g>
					<g>
						<g>
							<path class="st5" d="M48.7,34.9L45.9,32c-0.1-0.1-0.1-0.1-0.1-0.2l0.2-4.8c0-0.1,0-0.1,0.1-0.2c0.1-0.1,0.1-0.1,0.2-0.1
								L49,27c0.4-0.2,0.9-0.1,1.4,0.2c0.3,0.2,0.6,0.5,0.7,0.9c0.3,0,0.6,0.1,0.8,0.3c0.2,0.2,0.3,0.5,0.3,0.8
								c1.9,0.3,2.8,1.6,2.7,2.9c-0.1,1.4-1.2,2.9-3.3,2.9l-2.8,0h0C48.8,35,48.7,34.9,48.7,34.9z M51,28.7c-0.1,0-0.2,0-0.3,0
								c-0.1,0-0.1-0.1-0.1-0.2c0-0.4-0.3-0.7-0.5-0.8c-0.3-0.2-0.7-0.2-0.9-0.1c0,0-0.1,0-0.1,0l-2.4-0.3l-0.2,4.4l2.6,2.7l2.7,0
								c1.7,0,2.7-1.2,2.7-2.4c0-1-0.6-2.2-2.5-2.3c-0.1,0-0.2-0.1-0.2-0.1c0-0.1-0.1-0.2,0-0.2c0.1-0.2,0-0.4-0.1-0.5
								c-0.1-0.1-0.2-0.1-0.4-0.1C51.1,28.6,51,28.6,51,28.7z"/>
						</g>
					</g>
				</g>
				<g class="st18">
					<g>
						<ellipse class="st10" cx="48.5" cy="29.6" rx="0.1" ry="0.1"/>
					</g>
				</g>
				<g class="st12">
					<g>
						<path class="st10" d="M47.2,28.1l0,0.3C47.2,28.3,47.2,28.2,47.2,28.1z"/>
					</g>
				</g>
				<g class="st19">
					<g>
						<path class="st8" d="M26.4,23.3c0,0,0-0.1,0-0.1c0.2,0.5,0.7,0.9,0.8,1.3c0,0.1,0,0.3,0,0.4C26.9,24.4,26.3,23.9,26.4,23.3z"
							/>
					</g>
				</g>
				<g>
					<g>
						<g>
							<path class="st20" d="M25.1,25.2c0.1-0.7-0.5-1.6-0.2-2.2c0.3-0.6,1.4-0.7,1.8-1.2c0.5-0.5,0.5-1.6,1.1-1.9
								c0.6-0.3,1.5,0.3,2.2,0.1c0.7-0.1,1.3-1,2-0.9c0.7,0.1,1.1,1.1,1.7,1.4c0.6,0.3,1.6,0,2.1,0.5c0.5,0.5,0.2,1.5,0.5,2.1
								c0.3,0.6,1.3,1,1.4,1.6c0.1,0.7-0.7,1.4-0.8,2c-0.1,0.7,0.5,1.6,0.2,2.2c-0.3,0.6-1.4,0.7-1.8,1.2c-0.5,0.5-0.5,1.6-1.1,1.9
								c-0.6,0.3-1.5-0.3-2.2-0.1c-0.7,0.1-1.3,1-2,0.9c-0.7-0.1-1.1-1.1-1.7-1.4c-0.6-0.3-1.6,0-2.1-0.5c-0.5-0.5-0.2-1.5-0.5-2.1
								c-0.3-0.6-1.3-1-1.4-1.6C24.2,26.6,25.1,25.9,25.1,25.2z"/>
						</g>
					</g>
					<g>
						<g>
							<path class="st10" d="M30,33.2c-0.5-0.1-0.8-0.5-1.2-0.8c-0.2-0.2-0.4-0.5-0.6-0.6c-0.2-0.1-0.5-0.1-0.8-0.1
								c-0.5,0-1-0.1-1.4-0.4c-0.4-0.3-0.4-0.9-0.4-1.3c0-0.3-0.1-0.6-0.2-0.8c-0.1-0.2-0.3-0.4-0.6-0.6c-0.4-0.3-0.8-0.6-0.9-1.2
								c-0.1-0.5,0.2-1,0.4-1.4c0.2-0.3,0.3-0.5,0.3-0.7c0-0.2,0-0.5-0.1-0.8c-0.1-0.5-0.3-1,0-1.4c0.2-0.4,0.7-0.7,1.1-0.8
								c0.3-0.1,0.6-0.2,0.7-0.4c0.2-0.2,0.3-0.4,0.4-0.7c0.2-0.4,0.4-1,0.8-1.2c0.4-0.2,0.9-0.1,1.4,0c0.3,0.1,0.6,0.1,0.9,0.1
								c0.2,0,0.5-0.2,0.8-0.4c0.4-0.3,0.8-0.5,1.3-0.5c0.5,0.1,0.8,0.5,1.2,0.8c0.2,0.2,0.4,0.5,0.6,0.6c0.2,0.1,0.5,0.1,0.8,0.1
								c0.5,0,1,0.1,1.4,0.4c0.4,0.3,0.4,0.9,0.4,1.3c0,0.3,0.1,0.6,0.2,0.8c0.1,0.2,0.3,0.4,0.6,0.6c0.4,0.3,0.8,0.6,0.9,1.2
								c0.1,0.5-0.2,1-0.4,1.4c-0.2,0.3-0.3,0.5-0.3,0.7c0,0.2,0,0.5,0.1,0.8c0.1,0.5,0.3,1,0,1.4c-0.2,0.4-0.7,0.7-1.1,0.8
								c-0.3,0.1-0.6,0.2-0.7,0.4c-0.2,0.2-0.3,0.4-0.4,0.7c-0.2,0.4-0.4,1-0.8,1.2c-0.4,0.2-0.9,0.1-1.4,0
								c-0.3-0.1-0.6-0.1-0.9-0.1c-0.2,0-0.5,0.2-0.8,0.4c-0.4,0.2-0.7,0.5-1.2,0.5C30.1,33.2,30.1,33.2,30,33.2z M33.1,31.8
								c0.4,0.1,0.7,0.2,1,0.1c0.2-0.1,0.4-0.5,0.5-0.9c0.1-0.3,0.3-0.7,0.5-1c0.2-0.3,0.6-0.4,0.9-0.6c0.4-0.2,0.7-0.3,0.8-0.5
								c0.1-0.2,0-0.6-0.1-1c-0.1-0.4-0.2-0.7-0.1-1.1c0-0.3,0.2-0.7,0.4-1c0.2-0.3,0.4-0.7,0.4-1c0-0.3-0.3-0.5-0.7-0.8
								c-0.3-0.2-0.6-0.5-0.7-0.8c-0.2-0.3-0.2-0.7-0.2-1.1c0-0.4-0.1-0.8-0.3-1c-0.2-0.2-0.6-0.2-1-0.2c-0.4,0-0.7,0-1.1-0.2
								c-0.3-0.2-0.6-0.4-0.8-0.7c-0.3-0.3-0.5-0.6-0.8-0.6c-0.2,0-0.6,0.2-0.9,0.4c-0.3,0.2-0.6,0.4-1,0.5c-0.4,0.1-0.7,0-1.1-0.1
								c-0.4-0.1-0.7-0.2-1-0.1c-0.2,0.1-0.4,0.5-0.5,0.9c-0.1,0.3-0.3,0.7-0.5,1c-0.2,0.3-0.6,0.4-0.9,0.6
								c-0.4,0.2-0.7,0.3-0.8,0.5c-0.1,0.2,0,0.6,0.1,1c0.1,0.4,0.2,0.7,0.1,1.1c0,0.3-0.2,0.7-0.4,1c-0.2,0.3-0.4,0.7-0.4,1
								c0,0.3,0.3,0.5,0.7,0.8c0.3,0.2,0.6,0.5,0.7,0.8c0.2,0.3,0.2,0.7,0.2,1.1c0,0.4,0.1,0.8,0.3,1c0.2,0.2,0.6,0.2,1,0.2
								c0.4,0,0.7,0,1.1,0.2c0.3,0.2,0.6,0.4,0.8,0.7c0.3,0.3,0.5,0.6,0.8,0.6c0.2,0,0.6-0.2,0.9-0.4c0.3-0.2,0.6-0.4,1-0.5
								c0.1,0,0.2,0,0.3,0C32.6,31.7,32.8,31.7,33.1,31.8z"/>
						</g>
					</g>
				</g>
				<g>
					<g>
						<path class="st21" d="M25.1,25.2c0.1-0.7-0.5-1.6-0.2-2.2c0.3-0.6,1.4-0.7,1.8-1.2c0.5-0.5,0.5-1.6,1.1-1.9
							c0.6-0.3,1.5,0.3,2.2,0.1c0.7-0.1,1.3-1,2-0.9c0.7,0.1,1.1,1.1,1.7,1.4c0.6,0.3,1.6,0,2.1,0.5c0.5,0.5,0.2,1.5,0.5,2.1
							c0.3,0.6,1.3,1,1.4,1.6c0.1,0.7-0.7,1.4-0.8,2c-0.1,0.7,0.5,1.6,0.2,2.2c-0.3,0.6-1.4,0.7-1.8,1.2c-0.5,0.5-0.5,1.6-1.1,1.9
							c-0.6,0.3-1.5-0.3-2.2-0.1c-0.7,0.1-1.3,1-2,0.9c-0.7-0.1-1.1-1.1-1.7-1.4c-0.6-0.3-1.6,0-2.1-0.5c-0.5-0.5-0.2-1.5-0.5-2.1
							c-0.3-0.6-1.3-1-1.4-1.6C24.2,26.6,25.1,25.9,25.1,25.2z"/>
					</g>
				</g>
				<g class="st7">
					<g>
						<path class="st8" d="M24.4,27.2c-0.1-0.7,0.7-1.4,0.8-2c0.1-0.7-0.5-1.6-0.2-2.2c0.3-0.6,1.4-0.7,1.8-1.2
							c0.5-0.5,0.5-1.6,1.1-1.9c0.6-0.3,1.5,0.3,2.2,0.1c0.7-0.1,1.3-1,2-0.9c0.7,0.1,1.1,1.1,1.7,1.4c0.6,0.3,1.6,0,2.1,0.5
							c0.2,0.2,0.2,0.4,0.3,0.6c-0.5-0.4-1.5-0.2-2.1-0.4c-0.6-0.3-1-1.3-1.7-1.4c-0.6-0.1-1.3,0.7-2,0.9c-0.7,0.1-1.6-0.4-2.2-0.1
							c-0.6,0.3-0.6,1.4-1.1,1.9c-0.5,0.5-1.5,0.6-1.8,1.2c-0.3,0.6,0.3,1.5,0.2,2.2c-0.1,0.6-0.8,1.3-0.8,1.9
							C24.5,27.6,24.4,27.4,24.4,27.2z"/>
					</g>
				</g>
				<g>
					<g>
						<path class="st5" d="M30,33.1c-0.5-0.1-0.8-0.5-1.1-0.8c-0.2-0.2-0.4-0.5-0.6-0.6c-0.2-0.1-0.5-0.1-0.8-0.1
							c-0.5,0-1-0.1-1.3-0.4c-0.3-0.3-0.4-0.8-0.4-1.3c0-0.3-0.1-0.6-0.2-0.9c-0.1-0.2-0.3-0.4-0.6-0.6c-0.4-0.3-0.8-0.6-0.9-1.1
							c-0.1-0.5,0.2-1,0.4-1.4c0.2-0.3,0.3-0.5,0.4-0.8c0-0.2,0-0.6-0.1-0.9c-0.1-0.5-0.2-1,0-1.4c0.2-0.4,0.7-0.6,1.1-0.8
							c0.3-0.1,0.6-0.2,0.7-0.4c0.2-0.2,0.3-0.5,0.4-0.8c0.2-0.5,0.4-0.9,0.8-1.2c0.4-0.2,0.9-0.1,1.4,0c0.3,0.1,0.6,0.1,0.9,0.1
							c0.2,0,0.5-0.2,0.8-0.4c0.4-0.3,0.8-0.5,1.3-0.5c0.5,0.1,0.8,0.5,1.1,0.8c0.2,0.2,0.4,0.5,0.6,0.6c0.2,0.1,0.5,0.1,0.8,0.1
							c0.5,0,1,0.1,1.3,0.4c0.3,0.3,0.4,0.8,0.4,1.3c0,0.3,0.1,0.6,0.2,0.9c0.1,0.2,0.3,0.4,0.6,0.6c0.4,0.3,0.8,0.6,0.9,1.1
							c0.1,0.5-0.2,1-0.4,1.4c-0.2,0.3-0.3,0.5-0.4,0.8c0,0.2,0,0.6,0.1,0.9c0.1,0.5,0.2,1,0,1.4c-0.2,0.4-0.7,0.6-1.1,0.8
							c-0.3,0.1-0.6,0.2-0.7,0.4c-0.2,0.2-0.3,0.5-0.4,0.8c-0.2,0.5-0.4,0.9-0.8,1.2c-0.4,0.2-0.9,0.1-1.4,0
							c-0.3-0.1-0.6-0.1-0.9-0.1c-0.2,0-0.5,0.2-0.8,0.4c-0.4,0.2-0.7,0.5-1.1,0.5C30.1,33.1,30.1,33.1,30,33.1z M33.1,31.8
							c0.4,0.1,0.8,0.2,1,0.1c0.2-0.1,0.4-0.5,0.5-0.9c0.1-0.3,0.3-0.7,0.5-0.9c0.2-0.3,0.6-0.4,0.9-0.5c0.4-0.2,0.7-0.3,0.8-0.6
							c0.1-0.2,0-0.6-0.1-1c-0.1-0.4-0.2-0.7-0.1-1.1c0-0.3,0.2-0.7,0.4-1c0.2-0.4,0.4-0.7,0.4-1c0-0.3-0.4-0.5-0.7-0.8
							c-0.3-0.2-0.6-0.5-0.7-0.8c-0.2-0.3-0.2-0.7-0.2-1.1c0-0.4-0.1-0.8-0.3-1c-0.2-0.2-0.6-0.2-1-0.2c-0.4,0-0.7,0-1.1-0.2
							c-0.3-0.2-0.6-0.4-0.8-0.7c-0.3-0.3-0.5-0.6-0.8-0.6c-0.3,0-0.6,0.2-0.9,0.4c-0.3,0.2-0.6,0.4-1,0.5c-0.4,0.1-0.7,0-1.1-0.1
							c-0.4-0.1-0.8-0.2-1-0.1c-0.2,0.1-0.4,0.5-0.5,0.9c-0.1,0.3-0.3,0.7-0.5,0.9c-0.2,0.3-0.6,0.4-0.9,0.5
							c-0.4,0.2-0.7,0.3-0.8,0.6c-0.1,0.2,0,0.6,0.1,1c0.1,0.4,0.2,0.7,0.1,1.1c0,0.3-0.2,0.7-0.4,1c-0.2,0.4-0.4,0.7-0.4,1
							c0,0.3,0.4,0.5,0.7,0.8c0.3,0.2,0.6,0.5,0.7,0.8c0.2,0.3,0.2,0.7,0.2,1.1c0,0.4,0.1,0.8,0.3,1c0.2,0.2,0.6,0.2,1,0.2
							c0.4,0,0.7,0,1.1,0.2c0.3,0.2,0.6,0.4,0.8,0.7c0.3,0.3,0.5,0.6,0.8,0.6c0.3,0,0.6-0.2,0.9-0.4c0.3-0.2,0.6-0.4,1-0.5
							c0.1,0,0.2,0,0.3,0C32.6,31.7,32.8,31.8,33.1,31.8z"/>
					</g>
				</g>
				<g>
					<g>
						<g>
							<path class="st20" d="M49.9,24.5c-0.1-0.7,0.6-1.5,0.3-2.2c-0.3-0.6-1.3-0.7-1.8-1.3c-0.4-0.5-0.4-1.6-1-1.9
								c-0.6-0.3-1.5,0.2-2.2,0c-0.7-0.1-1.3-1-1.9-0.9c-0.7,0.1-1.1,1-1.7,1.3c-0.6,0.3-1.6-0.1-2.1,0.4c-0.5,0.4-0.3,1.5-0.6,2.1
								c-0.3,0.6-1.3,0.9-1.5,1.6C37.2,24.3,38,25,38,25.7c0.1,0.7-0.6,1.5-0.3,2.2c0.3,0.6,1.3,0.7,1.8,1.3c0.4,0.5,0.4,1.6,1,1.9
								c0.6,0.3,1.5-0.2,2.2,0c0.7,0.1,1.3,1,1.9,0.9c0.7-0.1,1.1-1,1.7-1.3c0.6-0.3,1.6,0.1,2.1-0.4c0.5-0.4,0.3-1.5,0.6-2.1
								c0.3-0.6,1.3-0.9,1.5-1.6C50.8,25.9,50,25.2,49.9,24.5z"/>
						</g>
					</g>
					<g>
						<g>
							<path class="st10" d="M43.4,31.7c-0.3-0.2-0.5-0.4-0.8-0.4c-0.2-0.1-0.6,0-0.9,0.1c-0.5,0.1-1,0.2-1.4-0.1
								c-0.4-0.3-0.6-0.8-0.8-1.2c-0.1-0.3-0.2-0.6-0.3-0.8c-0.2-0.2-0.4-0.3-0.7-0.4c-0.4-0.2-0.9-0.4-1.1-0.9
								c-0.2-0.5,0-0.9,0.1-1.4c0.1-0.3,0.2-0.6,0.2-0.8c0-0.2-0.2-0.5-0.3-0.8c-0.2-0.4-0.5-0.9-0.4-1.4c0.1-0.5,0.5-0.8,0.9-1.1
								c0.3-0.2,0.5-0.4,0.6-0.6c0.1-0.2,0.2-0.5,0.2-0.8c0.1-0.5,0.1-1,0.5-1.3c0.4-0.3,0.9-0.3,1.4-0.3c0.3,0,0.6,0,0.8-0.1
								c0.2-0.1,0.4-0.3,0.6-0.5c0.3-0.3,0.7-0.7,1.2-0.8c0.5,0,0.9,0.2,1.3,0.5c0.3,0.2,0.5,0.4,0.8,0.4c0.2,0.1,0.6,0,0.9-0.1
								c0.5-0.1,1-0.2,1.4,0.1c0.4,0.3,0.6,0.8,0.8,1.2c0.1,0.3,0.2,0.6,0.3,0.8c0.2,0.2,0.4,0.3,0.7,0.4c0.4,0.2,0.9,0.4,1.1,0.9
								c0.2,0.5,0,0.9-0.1,1.4c-0.1,0.3-0.2,0.6-0.2,0.8c0,0.2,0.2,0.5,0.3,0.8c0.2,0.4,0.5,0.9,0.4,1.4l0,0
								c-0.1,0.5-0.5,0.8-0.9,1.1c-0.3,0.2-0.5,0.4-0.6,0.6c-0.1,0.2-0.2,0.5-0.2,0.8c-0.1,0.5-0.1,1-0.5,1.3
								c-0.4,0.3-0.9,0.3-1.4,0.3c-0.3,0-0.6,0-0.8,0.1c-0.2,0.1-0.4,0.3-0.6,0.5c-0.3,0.3-0.7,0.7-1.2,0.8c0,0-0.1,0-0.1,0
								C44.1,32.2,43.7,32,43.4,31.7z M50.3,26.5c0.1-0.3-0.1-0.6-0.3-1c-0.2-0.3-0.4-0.6-0.4-1c0-0.4,0.1-0.7,0.2-1.1
								c0.1-0.4,0.2-0.7,0.1-1c-0.1-0.2-0.4-0.4-0.8-0.6c-0.3-0.2-0.7-0.3-0.9-0.6c-0.2-0.3-0.4-0.6-0.5-1c-0.1-0.4-0.2-0.7-0.5-0.9
								c-0.2-0.1-0.6-0.1-1,0c-0.4,0.1-0.8,0.1-1.1,0.1c-0.4-0.1-0.7-0.3-1-0.5c-0.3-0.2-0.6-0.4-0.9-0.4c-0.3,0-0.5,0.3-0.8,0.6
								c-0.3,0.3-0.5,0.5-0.8,0.7C41.4,20,41,20,40.6,20c-0.4,0-0.8,0-1,0.2c-0.2,0.2-0.2,0.5-0.3,0.9c0,0.4-0.1,0.8-0.3,1.1
								c-0.2,0.3-0.5,0.5-0.8,0.7c-0.3,0.2-0.6,0.5-0.7,0.7c-0.1,0.3,0.1,0.6,0.3,1c0.2,0.3,0.4,0.6,0.4,1c0,0.4-0.1,0.7-0.2,1.1
								c-0.1,0.4-0.2,0.7-0.1,1c0.1,0.2,0.4,0.4,0.8,0.6c0.3,0.2,0.7,0.3,0.9,0.6c0.2,0.3,0.4,0.6,0.5,1c0.1,0.4,0.2,0.7,0.5,0.9
								c0.2,0.1,0.6,0.1,1,0c0.4-0.1,0.8-0.1,1.1-0.1c0.4,0.1,0.7,0.3,1,0.5c0.3,0.2,0.6,0.4,0.9,0.4c0.3,0,0.5-0.3,0.8-0.6
								c0.3-0.3,0.5-0.5,0.8-0.7c0.3-0.1,0.7-0.1,1.1-0.2c0.4,0,0.8,0,1-0.2c0.2-0.2,0.2-0.5,0.3-0.9c0-0.4,0.1-0.8,0.3-1.1
								c0.2-0.3,0.5-0.5,0.8-0.7C49.9,27,50.2,26.8,50.3,26.5L50.3,26.5z"/>
						</g>
					</g>
				</g>
				<g>
					<g>
						<path class="st21" d="M49.9,24.5c-0.1-0.7,0.6-1.5,0.3-2.2c-0.3-0.6-1.3-0.7-1.8-1.3c-0.4-0.5-0.4-1.6-1-1.9
							c-0.6-0.3-1.5,0.2-2.2,0c-0.7-0.1-1.3-1-1.9-0.9c-0.7,0.1-1.1,1-1.7,1.3c-0.6,0.3-1.6-0.1-2.1,0.4c-0.5,0.4-0.3,1.5-0.6,2.1
							c-0.3,0.6-1.3,0.9-1.5,1.6C37.2,24.3,38,25,38,25.7c0.1,0.7-0.6,1.5-0.3,2.2c0.3,0.6,1.3,0.7,1.8,1.3c0.4,0.5,0.4,1.6,1,1.9
							c0.6,0.3,1.5-0.2,2.2,0c0.7,0.1,1.3,1,1.9,0.9c0.7-0.1,1.1-1,1.7-1.3c0.6-0.3,1.6,0.1,2.1-0.4c0.5-0.4,0.3-1.5,0.6-2.1
							c0.3-0.6,1.3-0.9,1.5-1.6C50.8,25.9,50,25.2,49.9,24.5z"/>
					</g>
				</g>
				<g class="st7">
					<g>
						<path class="st8" d="M50.6,26.6c0.1-0.7-0.6-1.4-0.7-2.1c-0.1-0.7,0.6-1.5,0.3-2.2c-0.3-0.6-1.3-0.7-1.8-1.3
							c-0.4-0.5-0.4-1.6-1-1.9c-0.6-0.3-1.5,0.2-2.2,0c-0.7-0.1-1.3-1-1.9-0.9c-0.7,0.1-1.1,1-1.7,1.3c-0.6,0.3-1.6-0.1-2.1,0.4
							c-0.2,0.2-0.3,0.4-0.3,0.6c0.5-0.4,1.5-0.1,2.1-0.4c0.6-0.3,1.1-1.2,1.7-1.3c0.7-0.1,1.3,0.8,1.9,0.9c0.7,0.1,1.6-0.4,2.2,0
							c0.6,0.3,0.6,1.4,1,1.9c0.4,0.5,1.5,0.6,1.8,1.3c0.3,0.6-0.4,1.5-0.3,2.2c0.1,0.6,0.8,1.3,0.7,1.9
							C50.4,27,50.5,26.8,50.6,26.6z"/>
					</g>
				</g>
				<g>
					<g>
						<path class="st5" d="M43.4,31.7c-0.3-0.2-0.5-0.4-0.8-0.4c-0.2-0.1-0.6,0-0.9,0.1c-0.5,0.1-1,0.2-1.4-0.1
							c-0.4-0.2-0.6-0.7-0.7-1.2c-0.1-0.3-0.2-0.6-0.4-0.8c-0.2-0.2-0.4-0.3-0.7-0.5c-0.4-0.2-0.9-0.4-1.1-0.9
							c-0.2-0.4,0-0.9,0.1-1.4c0.1-0.3,0.2-0.6,0.2-0.9c0-0.2-0.2-0.5-0.3-0.8c-0.2-0.4-0.5-0.9-0.4-1.4c0.1-0.5,0.5-0.8,0.9-1.1
							c0.3-0.2,0.5-0.4,0.6-0.6c0.1-0.2,0.2-0.5,0.2-0.8c0.1-0.5,0.1-1,0.5-1.3c0.4-0.3,0.9-0.3,1.4-0.3c0.3,0,0.6,0,0.8-0.1
							c0.2-0.1,0.4-0.3,0.6-0.6c0.3-0.4,0.7-0.7,1.2-0.8c0.5,0,0.9,0.2,1.3,0.5c0.3,0.2,0.5,0.4,0.8,0.4c0.2,0.1,0.6,0,0.9-0.1
							c0.5-0.1,1-0.2,1.4,0.1c0.4,0.2,0.6,0.7,0.7,1.2c0.1,0.3,0.2,0.6,0.4,0.8c0.2,0.2,0.4,0.3,0.7,0.5c0.4,0.2,0.9,0.4,1.1,0.9
							c0.2,0.4,0,0.9-0.1,1.4c-0.1,0.3-0.2,0.6-0.2,0.9c0,0.2,0.2,0.5,0.3,0.8c0.2,0.4,0.5,0.9,0.4,1.4l0,0
							c-0.1,0.5-0.5,0.8-0.9,1.1c-0.3,0.2-0.5,0.4-0.6,0.6c-0.1,0.2-0.2,0.5-0.2,0.8c-0.1,0.5-0.1,1-0.5,1.3
							c-0.4,0.3-0.9,0.3-1.4,0.3c-0.3,0-0.6,0-0.8,0.1c-0.2,0.1-0.4,0.3-0.6,0.6c-0.3,0.4-0.7,0.7-1.2,0.8c0,0-0.1,0-0.1,0
							C44.1,32.2,43.8,31.9,43.4,31.7z M50.3,26.5c0.1-0.3-0.1-0.6-0.3-1c-0.2-0.3-0.3-0.6-0.4-1c0-0.4,0.1-0.7,0.2-1.1
							c0.1-0.4,0.2-0.8,0.1-1c-0.1-0.3-0.5-0.4-0.8-0.6c-0.3-0.2-0.7-0.3-0.9-0.6c-0.2-0.3-0.3-0.6-0.5-1c-0.1-0.4-0.3-0.8-0.5-0.9
							c-0.2-0.1-0.6-0.1-1,0c-0.4,0.1-0.7,0.1-1.1,0.1c-0.4-0.1-0.7-0.3-1-0.5c-0.3-0.2-0.6-0.4-0.9-0.4c-0.3,0-0.5,0.3-0.8,0.6
							c-0.2,0.3-0.5,0.5-0.8,0.7C41.4,20,41,20,40.6,20c-0.4,0-0.8,0-1,0.2c-0.2,0.2-0.3,0.6-0.3,1c0,0.4-0.1,0.7-0.3,1.1
							c-0.2,0.3-0.5,0.5-0.8,0.7c-0.3,0.2-0.6,0.5-0.7,0.8c-0.1,0.3,0.1,0.6,0.3,1c0.2,0.3,0.3,0.6,0.4,1c0,0.4-0.1,0.7-0.2,1.1
							c-0.1,0.4-0.2,0.8-0.1,1c0.1,0.3,0.5,0.4,0.8,0.6c0.3,0.2,0.7,0.3,0.9,0.6c0.2,0.3,0.3,0.6,0.5,1c0.1,0.4,0.3,0.8,0.5,0.9
							c0.2,0.1,0.6,0.1,1,0c0.4-0.1,0.7-0.1,1.1-0.1s0.7,0.3,1,0.5c0.3,0.2,0.6,0.4,0.9,0.4c0.3,0,0.5-0.3,0.8-0.6
							c0.2-0.3,0.5-0.5,0.8-0.7c0.3-0.1,0.7-0.1,1.1-0.1c0.4,0,0.8,0,1-0.2c0.2-0.2,0.3-0.6,0.3-1c0-0.4,0.1-0.7,0.3-1.1
							c0.2-0.3,0.5-0.5,0.8-0.7C50,27,50.3,26.8,50.3,26.5L50.3,26.5z"/>
					</g>
				</g>
				<g class="st18">
					<g>
						<ellipse class="st22" cx="34.9" cy="29.8" rx="0.5" ry="0.4"/>
					</g>
				</g>
				<g>
					<g>
						<path class="st23" d="M24.7,30.4L24.7,30.4c0-0.1,0-0.2,0-0.3c0-0.3,0.1-0.7,0.2-1C27,23.3,31.4,19,36.8,19
							c4.9,0,9.2,3.5,11.3,8.5l0,0c0.5,1.2,0.9,2.4,1.1,3.7v0c0,0.1,0,0.2,0,0.3c0,0,0,0,0,0c0,0.2,0.1,0.4,0.2,0.6c0,0,0,0,0,0
							c0,0,0,0.1,0,0.1c0,0,0,0,0,0.1c0,0,0,0.1,0,0.1c0,0,0,0,0,0c0,0,0,0.1,0,0.1c0,0,0,0,0,0c0,0,0,0,0,0.1c0,0,0,0,0,0.1
							c0,0,0,0.1,0,0.1c0.1,0.2,0.2,0.4,0.3,0.5c0,0,0,0.1,0.1,0.1c0,0,0,0,0,0.1c0,0,0,0,0,0.1c0,0,0,0,0,0.1c0,0,0,0,0.1,0.1
							c0,0,0,0,0,0c0,0,0,0,0,0c0,0,0,0,0.1,0.1c0,0,0.1,0.1,0.1,0.1c0,0,0,0,0,0c0,0,0.1,0.1,0.1,0.1c0,0,0,0,0,0c0,0,0,0,0.1,0
							c0,0,0,0,0.1,0c0,0,0,0,0.1,0c0,0,0,0,0.1,0c0.2,0.1,0.3,0.2,0.5,0.3c0,0,0,0,0.1,0c0.1,0,0.2,0.1,0.3,0.1c0,0,0,0,0.1,0
							c0,0,0.1,0,0.1,0c0,0,0,0,0.1,0c0,0,0,0,0,0c0,0,0,0,0.1,0c0,0,0,0,0.1,0c0.1,0,0.2,0,0.3,0c0,0,0,0,0.1,0c0,0,0.1,0,0.1,0
							h-4.2l0,0H28.1c-0.1,0-0.2,0-0.3,0c-0.1,0-0.1,0-0.2,0c-0.3-0.1-0.6-0.1-0.8-0.3c0,0-0.1,0-0.1-0.1c-0.1,0-0.2-0.1-0.2-0.1
							c0,0-0.1-0.1-0.1-0.1c-0.1-0.1-0.2-0.1-0.3-0.2c0,0-0.1-0.1-0.1-0.1c0,0,0,0,0,0c0,0-0.1-0.1-0.1-0.1c0,0-0.1-0.1-0.1-0.1
							c0,0-0.1-0.1-0.1-0.1c-0.1-0.2-0.3-0.4-0.4-0.6c0-0.1-0.1-0.1-0.1-0.2c-0.1-0.1-0.1-0.3-0.2-0.4c-0.2-0.5-0.2-1-0.2-1.5
							C24.7,30.6,24.7,30.5,24.7,30.4z"/>
					</g>
				</g>
				<g class="st7">
					<g>
						<path class="st8" d="M24.7,30.4L24.7,30.4c0-0.1,0-0.2,0-0.3c0-0.3,0.1-0.7,0.2-1C27,23.3,31.4,19,36.8,19
							c4.9,0,9.2,3.5,11.3,8.5l0,0c0.5,1.2,0.9,2.4,1.1,3.7v0c0,0.1,0,0.2,0,0.3c0,0,0,0,0,0c0,0,0,0.1,0,0.1c0,0-0.1,0-0.1,0
							c-0.2-1.2-0.6-2.3-1-3.3l0,0c-2.1-5.1-6.4-8.5-11.3-8.5c-5.4,0-9.8,4.4-11.8,10.1c-0.1,0.4-0.2,0.7-0.2,1c0,0.1,0,0.1,0,0.2
							c0-0.2,0-0.3,0-0.5C24.7,30.6,24.7,30.5,24.7,30.4z"/>
					</g>
				</g>
				<g class="st12">
					<g>
						<path class="st13" d="M25,29.1c0.1-0.3,0.1,0,0,0.3C25,29.3,25,29.2,25,29.1z"/>
					</g>
				</g>
				<g>
					<g>
						<path class="st5" d="M48.2,35H28.1c-1.1,0-2.2-0.6-2.9-1.6c-0.9-1.2-1.1-2.9-0.5-4.4c1-3,2.6-5.5,4.7-7.3c2.2-1.9,4.7-3,7.4-3
							c3,0,5.9,1.3,8.2,3.6c2.3,2.3,3.8,5.4,4.5,8.9c0,0,0,0,0,0c0,0.1,0,0.2,0,0.2c0,0,0,0,0,0v0c0.3,1.7,1.6,2.9,3,2.9
							c0.2,0,0.3,0.1,0.3,0.3S52.6,35,52.5,35L48.2,35C48.2,35,48.2,35,48.2,35z M48.9,31.6C48.9,31.6,48.9,31.6,48.9,31.6
							c0-0.1,0-0.2,0-0.3c0,0,0,0,0,0c-1.3-7-6.3-12-12.1-12c-5,0-9.5,3.9-11.6,9.9c-0.5,1.4-0.3,2.8,0.5,3.9
							c0.6,0.8,1.5,1.3,2.4,1.3h20.1c0,0,0,0,0,0h2.4C49.8,33.8,49.2,32.8,48.9,31.6z M49.5,31.5L49.5,31.5L49.5,31.5z M49.5,31.5
							C49.5,31.5,49.5,31.5,49.5,31.5C49.5,31.5,49.5,31.5,49.5,31.5z"/>
					</g>
				</g>
				<g class="st12">
					<g>
						<path class="st8" d="M44,24.3c0.9,1.1,1.1,2.4,0.6,2.9c-0.6,0.5-1-0.7-1.9-1.8c-0.9-1.1-1.9-1.8-1.3-2.3
							C41.9,22.6,43.1,23.2,44,24.3z"/>
					</g>
				</g>
				<g class="st12">
					<g>
						<circle class="st13" cx="30" cy="25.3" r="0.2"/>
					</g>
				</g>
				<g class="st12">
					<g>
						<circle class="st13" cx="46.1" cy="29.4" r="0.2"/>
					</g>
				</g>
				<g class="st12">
					<g>
						<circle class="st13" cx="31.4" cy="29.6" r="0.2"/>
					</g>
				</g>
				<g class="st12">
					<g>
						<circle class="st13" cx="43.5" cy="32.6" r="0.2"/>
					</g>
				</g>
				<g class="st12">
					<g>
						<circle class="st13" cx="39.3" cy="21.1" r="0.2"/>
					</g>
				</g>
				<g class="st12">
					<g>
						<circle class="st13" cx="36.8" cy="24.5" r="0.2"/>
					</g>
				</g>
				<g class="st12">
					<g>
						<circle class="st13" cx="39.9" cy="31.5" r="0.2"/>
					</g>
				</g>
				<g class="st12">
					<g>
						<circle class="st13" cx="34.5" cy="22.6" r="0.2"/>
					</g>
				</g>
				<g class="st12">
					<g>
						<ellipse class="st13" cx="31.1" cy="24.4" rx="0.3" ry="0.3"/>
					</g>
				</g>
				<g class="st12">
					<g>
						<ellipse class="st13" cx="26.8" cy="31.9" rx="0.3" ry="0.3"/>
					</g>
				</g>
				<g class="st12">
					<g>
						<ellipse class="st13" cx="34.4" cy="33.2" rx="0.3" ry="0.3"/>
					</g>
				</g>
				<g>
					<g>
						<g>
							<g>
								<path class="st5" d="M32.4,28.6c0.6,0,1.1-0.8,1.1-1.7c0-0.9-0.6-1.7-1.2-1.6c-0.6,0-1.1,0.8-1.1,1.7
									C31.2,27.9,31.8,28.6,32.4,28.6z"/>
							</g>
						</g>
					</g>
					<g>
						<g>
							<path class="st8" d="M32.6,27.1c0.2,0,0.4-0.3,0.4-0.6c0-0.3-0.2-0.6-0.4-0.6c-0.2,0-0.4,0.3-0.4,0.6
								C32.2,26.9,32.4,27.2,32.6,27.1z"/>
						</g>
						<g>
							<path class="st5" d="M32.1,26.5L32.1,26.5c0-0.4,0.2-0.7,0.4-0.7c0.1,0,0.2,0.1,0.3,0.2c0.1,0.1,0.1,0.3,0.1,0.5
								c0,0.4-0.2,0.7-0.4,0.7c0,0,0,0,0,0C32.4,27.2,32.2,26.9,32.1,26.5z M32.6,25.9c-0.2,0-0.4,0.3-0.3,0.6l0,0
								c0,0.3,0.2,0.6,0.4,0.6c0.2,0,0.4-0.3,0.3-0.6c0-0.2-0.1-0.3-0.1-0.4C32.8,26,32.7,25.9,32.6,25.9
								C32.6,25.9,32.6,25.9,32.6,25.9z"/>
						</g>
					</g>
					<g>
						<g>
							<g>
								<path class="st5" d="M37.4,27.6c0,1.1-0.7,2.3-1.5,2.3c-0.8,0-1.3-1.2-1.3-2.4L37.4,27.6z"/>
							</g>
						</g>
						<g>
							<g>
								<path class="st24" d="M35.9,29.9c0.4,0,0.8-0.4,1.1-0.9c-0.3-0.3-0.7-0.5-1.1-0.5c-0.4,0-0.8,0.1-1.1,0.4
									C35.1,29.5,35.5,29.9,35.9,29.9z"/>
							</g>
						</g>
						<g>
							<g>
								<path class="st5" d="M35.9,30.2c-0.5,0-0.9-0.3-1.3-0.9c-0.3-0.5-0.4-1.1-0.4-1.8c0-0.2,0.2-0.3,0.3-0.3c0,0,0,0,0,0l2.8,0
									c0.1,0,0.2,0,0.2,0.1s0.1,0.2,0.1,0.2C37.7,28.8,37,30.2,35.9,30.2C35.9,30.2,35.9,30.2,35.9,30.2z M35,27.9
									c0,0.4,0.2,0.8,0.3,1.1c0.2,0.4,0.4,0.6,0.7,0.6c0,0,0,0,0,0c0.5,0,1-0.8,1.1-1.7L35,27.9z"/>
							</g>
						</g>
					</g>
					<g>
						<g>
							<g>
								<path class="st5" d="M39.8,28.7c-0.6,0-1.1-0.8-1.1-1.7c0-0.9,0.6-1.7,1.2-1.6c0.6,0,1.1,0.8,1.1,1.7
									C41,28,40.5,28.8,39.8,28.7z"/>
							</g>
						</g>
					</g>
					<g>
						<g>
							<path class="st8" d="M39.6,27.3c-0.2,0-0.4-0.3-0.4-0.6c0-0.3,0.2-0.6,0.4-0.6c0.2,0,0.4,0.3,0.4,0.6
								C40,27.1,39.8,27.3,39.6,27.3z"/>
						</g>
						<g>
							<path class="st5" d="M39.6,27.4c-0.2,0-0.4-0.3-0.4-0.7c0-0.2,0.1-0.3,0.1-0.5c0.1-0.1,0.2-0.2,0.3-0.2
								c0.2,0,0.4,0.3,0.4,0.7l0,0C40.1,27.1,39.9,27.4,39.6,27.4C39.6,27.4,39.6,27.4,39.6,27.4z M40,26.7c0-0.3-0.1-0.6-0.3-0.6
								c-0.1,0-0.2,0.1-0.3,0.2c-0.1,0.1-0.1,0.3-0.1,0.4c0,0.3,0.1,0.6,0.3,0.6C39.8,27.3,40,27,40,26.7L40,26.7z"/>
						</g>
					</g>
				</g>
			</g>
		</g>
		<g>
			<g>
				<g>
					<g>
						<path class="st4" d="M23.2,34.8c0.9-7.5,6.2-13.3,12.5-13.3s11.6,5.7,12.5,13.3c0.2,1.3-0.6,2.4-1.7,2.4H24.9
							C23.8,37.3,23,36.1,23.2,34.8z"/>
					</g>
				</g>
				<g>
					<g>
						<path class="st5" d="M23.5,36.9c-0.5-0.5-0.7-1.3-0.6-2.1c0.5-3.7,2-7.1,4.3-9.6c2.3-2.5,5.4-3.9,8.5-3.9
							c3.1,0,6.1,1.4,8.5,3.9c2.3,2.5,3.8,5.9,4.3,9.6c0.1,0.8-0.1,1.6-0.6,2.1c-0.4,0.4-0.8,0.7-1.4,0.7H24.9
							C24.4,37.6,23.9,37.3,23.5,36.9z M23.5,34.9c-0.1,0.6,0.1,1.3,0.5,1.7c0.3,0.3,0.6,0.5,0.9,0.5h21.6c0.3,0,0.7-0.2,0.9-0.5
							c0.4-0.4,0.5-1,0.5-1.7c-1-7.5-6.1-13-12.2-13S24.4,27.3,23.5,34.9z"/>
					</g>
				</g>
				<g>
					<g>
						<ellipse class="st6" cx="28.7" cy="22.6" rx="3" ry="3.1"/>
					</g>
				</g>
				<g class="st7">
					<g>
						<path class="st8" d="M25.7,22.2c0.2-1.7,1.7-2.9,3.4-2.7c1.6,0.2,2.7,1.5,2.7,3.1c-0.3-1.2-1.3-2.2-2.6-2.4
							c-1.7-0.2-3.2,1-3.4,2.7c0,0.1,0,0.2,0,0.3C25.7,22.9,25.6,22.5,25.7,22.2z"/>
					</g>
				</g>
				<g>
					<g>
						<path class="st5" d="M28.3,25.9c-0.9-0.1-1.7-0.6-2.2-1.3c-0.5-0.7-0.8-1.6-0.7-2.5c0.1-0.9,0.6-1.7,1.3-2.2
							c0.7-0.5,1.6-0.8,2.5-0.7c0.9,0.1,1.7,0.6,2.2,1.3s0.8,1.6,0.7,2.5s-0.6,1.7-1.3,2.2c-0.6,0.5-1.3,0.7-2,0.7
							C28.6,25.9,28.4,25.9,28.3,25.9z M27,20.3c-0.6,0.5-1,1.1-1.1,1.9c-0.1,0.7,0.1,1.5,0.6,2.1s1.1,1,1.8,1.1
							c0.7,0.1,1.5-0.1,2-0.6c0.6-0.5,1-1.1,1.1-1.9c0.1-0.7-0.1-1.5-0.6-2.1c-0.5-0.6-1.1-1-1.8-1.1c-0.1,0-0.2,0-0.4,0
							C28.1,19.8,27.5,20,27,20.3z"/>
					</g>
				</g>
				<g class="st9">
					<g>
						<path class="st10" d="M23.2,34.8c0.9-7.5,6.2-13.3,12.5-13.3s11.6,5.7,12.5,13.3c0.2,1.3-0.6,2.4-1.7,2.4H24.9
							C23.8,37.3,23,36.1,23.2,34.8z"/>
					</g>
				</g>
				<g>
					<g>
						<ellipse class="st11" cx="43.2" cy="29" rx="3.8" ry="3.8"/>
					</g>
				</g>
				<g>
					<g>
						<ellipse class="st6" cx="43.2" cy="29" rx="3.8" ry="3.8"/>
					</g>
				</g>
				<g class="st12">
					<g>
						<path class="st13" d="M39.6,27.9c0.5,1.5,1.9,2.6,3.6,2.6c1.7,0,3.1-1.1,3.6-2.7c0.1,0.4,0.2,0.8,0.2,1.2
							c0,2.1-1.7,3.8-3.8,3.8c-2.1,0-3.8-1.7-3.8-3.8C39.5,28.7,39.5,28.3,39.6,27.9z"/>
					</g>
				</g>
				<g class="st7">
					<g>
						<path class="st8" d="M39.5,29c0-2.1,1.7-3.8,3.8-3.8c1.9,0,3.5,1.5,3.8,3.4c-0.5-1.5-1.9-2.6-3.6-2.6c-2.1,0-3.8,1.7-3.8,3.8
							c0,0.1,0,0.3,0,0.4C39.5,29.9,39.5,29.5,39.5,29z"/>
					</g>
				</g>
				<g>
					<g>
						<path class="st5" d="M39.2,29c0-2.3,1.8-4.1,4.1-4.1c2.2,0,4.1,1.8,4.1,4.1s-1.8,4.1-4.1,4.1C41,33.1,39.2,31.3,39.2,29z
							 M39.7,29c0,1.9,1.6,3.5,3.5,3.5c1.9,0,3.5-1.6,3.5-3.5s-1.6-3.5-3.5-3.5C41.3,25.5,39.7,27.1,39.7,29z"/>
					</g>
				</g>
				<g>
					<g>
						<path class="st14" d="M31.2,26.1l-1-4.5c-0.2-0.7,0.3-1.3,0.9-1.5l3.6-0.8c0.7-0.2,1.3,0.3,1.5,1l1,4.5
							c0.2,0.7-0.3,1.3-0.9,1.5l-3.6,0.8C32,27.2,31.3,26.8,31.2,26.1z"/>
					</g>
				</g>
				<g class="st7">
					<g>
						<path class="st8" d="M34.7,19.3c0.7-0.2,1.3,0.3,1.5,1l1,4.5c0.2,0.7-0.3,1.3-0.9,1.5l-0.6,0.1c0.7-0.2,1.1-0.8,0.9-1.5
							l-1-4.5c-0.2-0.7-0.8-1.1-1.5-1L34.7,19.3z"/>
					</g>
				</g>
				<g>
					<g>
						<path class="st15" d="M31.2,26.1l-1-4.5c-0.2-0.7,0.3-1.3,0.9-1.5l3.6-0.8c0.7-0.2,1.3,0.3,1.5,1l1,4.5
							c0.2,0.7-0.3,1.3-0.9,1.5l-3.6,0.8C32,27.2,31.3,26.8,31.2,26.1z"/>
					</g>
				</g>
				<g>
					<g>
						<path class="st5" d="M30.9,26.2l-1-4.5c-0.2-0.8,0.3-1.6,1.2-1.8l3.6-0.8c0.8-0.2,1.6,0.3,1.8,1.2l1,4.5
							c0.2,0.8-0.3,1.6-1.2,1.8l-3.6,0.8l0,0c-0.1,0-0.2,0-0.3,0C31.7,27.4,31,26.9,30.9,26.2z M36.2,26c0.5-0.1,0.9-0.6,0.7-1.2
							l-1-4.5c-0.1-0.3-0.2-0.5-0.4-0.6s-0.5-0.2-0.7-0.1l-3.6,0.8c-0.5,0.1-0.9,0.6-0.7,1.2l1,4.5c0.1,0.3,0.2,0.5,0.4,0.6
							c0.2,0.1,0.5,0.2,0.7,0.1L36.2,26z"/>
					</g>
				</g>
				<g class="st12">
					<g>
						<path class="st10" d="M41.3,29.6l0.2,0c-0.1,0.4-0.2,0.7-0.2,1.1L41.3,29.6z"/>
					</g>
				</g>
				<g>
					<g>
						<g>
							<path class="st16" d="M40.3,29.6l-0.2,4.8l2.8,2.9l2.8,0c3.6,0,4.3-4.9,0.2-5.3c0.1-0.3,0-0.6-0.2-0.8
								c-0.2-0.2-0.6-0.3-0.8-0.2c-0.1-0.9-1.1-1.4-1.8-1.1L40.3,29.6z"/>
						</g>
						<g>
							<path class="st17" d="M42.8,37.3L40,34.4c0,0,0,0,0,0l0.2-4.8c0,0,0,0,0,0c0,0,0,0,0,0l2.7,0.3c0.4-0.2,0.8-0.1,1.2,0.1
								c0.4,0.2,0.6,0.6,0.6,1c0.3-0.1,0.6,0,0.8,0.2C46,31.3,46,31.7,46,32c2.1,0.2,2.8,1.6,2.7,2.7c-0.1,1.3-1.1,2.7-3,2.7
								L42.8,37.3L42.8,37.3C42.9,37.3,42.9,37.3,42.8,37.3z M44.9,31C44.9,31,44.9,31,44.9,31C44.8,31,44.8,31,44.9,31
								c-0.1-0.4-0.3-0.8-0.7-1c-0.4-0.2-0.8-0.3-1.2-0.1c0,0,0,0,0,0l-2.7-0.3l-0.2,4.7l2.8,2.9l2.8,0c1.8,0,2.9-1.3,2.9-2.6
								c0-1.1-0.6-2.4-2.7-2.6c0,0,0,0,0,0c0,0,0,0,0,0c0.1-0.3,0-0.6-0.2-0.8c-0.1-0.1-0.3-0.2-0.5-0.2C45.1,31,45,31,44.9,31z"/>
						</g>
					</g>
					<g class="st12">
						<g>
							<path class="st13" d="M40.4,31C40.4,31.1,40.4,31.1,40.4,31c0,2.7,2,4.8,4.5,4.8c1.5,0,2.8-0.7,3.6-1.9
								c0.4,1.5-0.7,3.4-2.8,3.4l-2.7,0l-2.7-2.9L40.4,31z"/>
						</g>
					</g>
					<g class="st7">
						<g>
							<path class="st8" d="M43,30c0.7-0.3,1.7,0.2,1.8,1.1c0.3-0.1,0.6-0.1,0.8,0.2c0.2,0.2,0.3,0.5,0.2,0.8c3.5,0.3,3.4,4,1.1,5
								c1.7-1.3,1.6-4.2-1.3-4.7c-0.1,0-0.3-0.1-0.3-0.3c0-0.2-0.1-0.4-0.3-0.6c-0.2-0.1-0.4-0.2-0.6-0.2c-0.1,0-0.3-0.1-0.3-0.2
								c-0.2-0.6-0.8-1-1.4-0.9c-0.1-0.1-0.1-0.2-0.2-0.3L43,30z"/>
						</g>
					</g>
					<g>
						<g>
							<path class="st5" d="M42.7,37.5l-2.8-2.9c-0.1-0.1-0.1-0.1-0.1-0.2l0.2-4.8c0-0.1,0-0.1,0.1-0.2c0.1-0.1,0.1-0.1,0.2-0.1
								l2.7,0.3c0.4-0.2,0.9-0.1,1.4,0.2c0.3,0.2,0.6,0.5,0.7,0.9c0.3,0,0.6,0.1,0.8,0.3c0.2,0.2,0.3,0.5,0.3,0.8
								c1.9,0.3,2.8,1.6,2.7,2.9c-0.1,1.4-1.2,2.9-3.3,2.9l-2.8,0h0C42.8,37.5,42.7,37.5,42.7,37.5z M45,31.3c-0.1,0-0.2,0-0.3,0
								c-0.1,0-0.1-0.1-0.1-0.2c0-0.4-0.3-0.7-0.5-0.8c-0.3-0.2-0.7-0.2-0.9-0.1c0,0-0.1,0-0.1,0l-2.4-0.3l-0.2,4.4L43,37l2.7,0
								c1.7,0,2.7-1.2,2.7-2.4c0-1-0.6-2.2-2.5-2.3c-0.1,0-0.2-0.1-0.2-0.1c0-0.1-0.1-0.2,0-0.2c0.1-0.2,0-0.4-0.1-0.5
								c-0.1-0.1-0.2-0.1-0.4-0.1C45.1,31.2,45,31.2,45,31.3z"/>
						</g>
					</g>
				</g>
				<g class="st18">
					<g>
						<ellipse class="st10" cx="42.5" cy="32.2" rx="0.1" ry="0.1"/>
					</g>
				</g>
				<g class="st12">
					<g>
						<path class="st10" d="M41.2,30.7l0,0.3C41.2,30.9,41.2,30.8,41.2,30.7z"/>
					</g>
				</g>
				<g class="st19">
					<g>
						<path class="st8" d="M20.4,25.9c0,0,0-0.1,0-0.1c0.2,0.5,0.7,0.9,0.8,1.3c0,0.1,0,0.3,0,0.4C20.9,27,20.3,26.5,20.4,25.9z"/>
					</g>
				</g>
				<g>
					<g>
						<g>
							<path class="st20" d="M19.1,27.8c0.1-0.7-0.5-1.6-0.2-2.2c0.3-0.6,1.4-0.7,1.8-1.2c0.5-0.5,0.5-1.6,1.1-1.9
								c0.6-0.3,1.5,0.3,2.2,0.1c0.7-0.1,1.3-1,2-0.9c0.7,0.1,1.1,1.1,1.7,1.4c0.6,0.3,1.6,0,2.1,0.5c0.5,0.5,0.2,1.5,0.5,2.1
								c0.3,0.6,1.3,1,1.4,1.6c0.1,0.7-0.7,1.4-0.8,2c-0.1,0.7,0.5,1.6,0.2,2.2c-0.3,0.6-1.4,0.7-1.8,1.2c-0.5,0.5-0.5,1.6-1.1,1.9
								c-0.6,0.3-1.5-0.3-2.2-0.1c-0.7,0.1-1.3,1-2,0.9c-0.7-0.1-1.1-1.1-1.7-1.4c-0.6-0.3-1.6,0-2.1-0.5c-0.5-0.5-0.2-1.5-0.5-2.1
								c-0.3-0.6-1.3-1-1.4-1.6C18.2,29.1,19,28.5,19.1,27.8z"/>
						</g>
					</g>
					<g>
						<g>
							<path class="st10" d="M24,35.8c-0.5-0.1-0.8-0.5-1.2-0.8c-0.2-0.2-0.4-0.5-0.6-0.6c-0.2-0.1-0.5-0.1-0.8-0.1
								c-0.5,0-1-0.1-1.4-0.4c-0.4-0.3-0.4-0.9-0.4-1.3c0-0.3-0.1-0.6-0.2-0.8c-0.1-0.2-0.3-0.4-0.6-0.6c-0.4-0.3-0.8-0.6-0.9-1.2
								c-0.1-0.5,0.2-1,0.4-1.4c0.2-0.3,0.3-0.5,0.3-0.7c0-0.2,0-0.5-0.1-0.8c-0.1-0.5-0.3-1,0-1.4c0.2-0.4,0.7-0.7,1.1-0.8
								c0.3-0.1,0.6-0.2,0.7-0.4c0.2-0.2,0.3-0.4,0.4-0.7c0.2-0.4,0.4-1,0.8-1.2c0.4-0.2,0.9-0.1,1.4,0c0.3,0.1,0.6,0.1,0.9,0.1
								c0.2,0,0.5-0.2,0.8-0.4c0.4-0.3,0.8-0.5,1.3-0.5c0.5,0.1,0.8,0.5,1.2,0.8c0.2,0.2,0.4,0.5,0.6,0.6c0.2,0.1,0.5,0.1,0.8,0.1
								c0.5,0,1,0.1,1.4,0.4c0.4,0.3,0.4,0.9,0.4,1.3c0,0.3,0.1,0.6,0.2,0.8c0.1,0.2,0.3,0.4,0.6,0.6c0.4,0.3,0.8,0.6,0.9,1.2
								c0.1,0.5-0.2,1-0.4,1.4c-0.2,0.3-0.3,0.5-0.3,0.7c0,0.2,0,0.5,0.1,0.8c0.1,0.5,0.3,1,0,1.4c-0.2,0.4-0.7,0.7-1.1,0.8
								c-0.3,0.1-0.6,0.2-0.7,0.4c-0.2,0.2-0.3,0.4-0.4,0.7c-0.2,0.4-0.4,1-0.8,1.2c-0.4,0.2-0.9,0.1-1.4,0
								c-0.3-0.1-0.6-0.1-0.9-0.1c-0.2,0-0.5,0.2-0.8,0.4c-0.4,0.2-0.7,0.5-1.2,0.5C24.1,35.8,24.1,35.8,24,35.8z M27.1,34.4
								c0.4,0.1,0.7,0.2,1,0.1c0.2-0.1,0.4-0.5,0.5-0.9c0.1-0.3,0.3-0.7,0.5-1c0.2-0.3,0.6-0.4,0.9-0.6c0.4-0.2,0.7-0.3,0.8-0.5
								c0.1-0.2,0-0.6-0.1-1c-0.1-0.4-0.2-0.7-0.1-1.1c0-0.3,0.2-0.7,0.4-1c0.2-0.3,0.4-0.7,0.4-1c0-0.3-0.3-0.5-0.7-0.8
								c-0.3-0.2-0.6-0.5-0.7-0.8c-0.2-0.3-0.2-0.7-0.2-1.1c0-0.4-0.1-0.8-0.3-1c-0.2-0.2-0.6-0.2-1-0.2c-0.4,0-0.7,0-1.1-0.2
								c-0.3-0.2-0.6-0.4-0.8-0.7c-0.3-0.3-0.5-0.6-0.8-0.6c-0.2,0-0.6,0.2-0.9,0.4c-0.3,0.2-0.6,0.4-1,0.5c-0.4,0.1-0.7,0-1.1-0.1
								c-0.4-0.1-0.7-0.2-1-0.1c-0.2,0.1-0.4,0.5-0.5,0.9c-0.1,0.3-0.3,0.7-0.5,1c-0.2,0.3-0.6,0.4-0.9,0.6
								c-0.4,0.2-0.7,0.3-0.8,0.5c-0.1,0.2,0,0.6,0.1,1c0.1,0.4,0.2,0.7,0.1,1.1c0,0.3-0.2,0.7-0.4,1c-0.2,0.3-0.4,0.7-0.4,1
								c0,0.3,0.3,0.5,0.7,0.8c0.3,0.2,0.6,0.5,0.7,0.8c0.2,0.3,0.2,0.7,0.2,1.1c0,0.4,0.1,0.8,0.3,1c0.2,0.2,0.6,0.2,1,0.2
								c0.4,0,0.7,0,1.1,0.2c0.3,0.2,0.6,0.4,0.8,0.7c0.3,0.3,0.5,0.6,0.8,0.6c0.2,0,0.6-0.2,0.9-0.4c0.3-0.2,0.6-0.4,1-0.5
								c0.1,0,0.2,0,0.3,0C26.6,34.3,26.8,34.3,27.1,34.4z"/>
						</g>
					</g>
				</g>
				<g>
					<g>
						<path class="st21" d="M19.1,27.8c0.1-0.7-0.5-1.6-0.2-2.2c0.3-0.6,1.4-0.7,1.8-1.2c0.5-0.5,0.5-1.6,1.1-1.9
							c0.6-0.3,1.5,0.3,2.2,0.1c0.7-0.1,1.3-1,2-0.9c0.7,0.1,1.1,1.1,1.7,1.4c0.6,0.3,1.6,0,2.1,0.5c0.5,0.5,0.2,1.5,0.5,2.1
							c0.3,0.6,1.3,1,1.4,1.6c0.1,0.7-0.7,1.4-0.8,2c-0.1,0.7,0.5,1.6,0.2,2.2c-0.3,0.6-1.4,0.7-1.8,1.2c-0.5,0.5-0.5,1.6-1.1,1.9
							c-0.6,0.3-1.5-0.3-2.2-0.1c-0.7,0.1-1.3,1-2,0.9c-0.7-0.1-1.1-1.1-1.7-1.4c-0.6-0.3-1.6,0-2.1-0.5c-0.5-0.5-0.2-1.5-0.5-2.1
							c-0.3-0.6-1.3-1-1.4-1.6C18.2,29.1,19,28.5,19.1,27.8z"/>
					</g>
				</g>
				<g class="st7">
					<g>
						<path class="st8" d="M18.3,29.8c-0.1-0.7,0.7-1.4,0.8-2c0.1-0.7-0.5-1.6-0.2-2.2c0.3-0.6,1.4-0.7,1.8-1.2
							c0.5-0.5,0.5-1.6,1.1-1.9c0.6-0.3,1.5,0.3,2.2,0.1c0.7-0.1,1.3-1,2-0.9c0.7,0.1,1.1,1.1,1.7,1.4c0.6,0.3,1.6,0,2.1,0.5
							c0.2,0.2,0.2,0.4,0.3,0.6C29.6,24,28.6,24.2,28,24c-0.6-0.3-1-1.3-1.7-1.4c-0.6-0.1-1.3,0.7-2,0.9c-0.7,0.1-1.6-0.4-2.2-0.1
							c-0.6,0.3-0.6,1.4-1.1,1.9c-0.5,0.5-1.5,0.6-1.8,1.2c-0.3,0.6,0.3,1.5,0.2,2.2c-0.1,0.6-0.8,1.3-0.8,1.9
							C18.5,30.2,18.4,30,18.3,29.8z"/>
					</g>
				</g>
				<g>
					<g>
						<path class="st5" d="M24,35.7c-0.5-0.1-0.8-0.5-1.1-0.8c-0.2-0.2-0.4-0.5-0.6-0.6c-0.2-0.1-0.5-0.1-0.8-0.1
							c-0.5,0-1-0.1-1.3-0.4c-0.3-0.3-0.4-0.8-0.4-1.3c0-0.3-0.1-0.6-0.2-0.9c-0.1-0.2-0.3-0.4-0.6-0.6c-0.4-0.3-0.8-0.6-0.9-1.1
							c-0.1-0.5,0.2-1,0.4-1.4c0.2-0.3,0.3-0.5,0.4-0.8c0-0.2,0-0.6-0.1-0.9c-0.1-0.5-0.2-1,0-1.4c0.2-0.4,0.7-0.6,1.1-0.8
							c0.3-0.1,0.6-0.2,0.7-0.4c0.2-0.2,0.3-0.5,0.4-0.8c0.2-0.5,0.4-0.9,0.8-1.2c0.4-0.2,0.9-0.1,1.4,0c0.3,0.1,0.6,0.1,0.9,0.1
							c0.2,0,0.5-0.2,0.8-0.4c0.4-0.3,0.8-0.5,1.3-0.5c0.5,0.1,0.8,0.5,1.1,0.8c0.2,0.2,0.4,0.5,0.6,0.6c0.2,0.1,0.5,0.1,0.8,0.1
							c0.5,0,1,0.1,1.3,0.4c0.3,0.3,0.4,0.8,0.4,1.3c0,0.3,0.1,0.6,0.2,0.9c0.1,0.2,0.3,0.4,0.6,0.6c0.4,0.3,0.8,0.6,0.9,1.1
							c0.1,0.5-0.2,1-0.4,1.4c-0.2,0.3-0.3,0.5-0.4,0.8c0,0.2,0,0.6,0.1,0.9c0.1,0.5,0.2,1,0,1.4c-0.2,0.4-0.7,0.6-1.1,0.8
							c-0.3,0.1-0.6,0.2-0.7,0.4c-0.2,0.2-0.3,0.5-0.4,0.8c-0.2,0.5-0.4,0.9-0.8,1.2c-0.4,0.2-0.9,0.1-1.4,0
							c-0.3-0.1-0.6-0.1-0.9-0.1c-0.2,0-0.5,0.2-0.8,0.4c-0.4,0.2-0.7,0.5-1.1,0.5C24.1,35.7,24.1,35.7,24,35.7z M27.1,34.4
							c0.4,0.1,0.8,0.2,1,0.1c0.2-0.1,0.4-0.5,0.5-0.9c0.1-0.3,0.3-0.7,0.5-0.9c0.2-0.3,0.6-0.4,0.9-0.5c0.4-0.2,0.7-0.3,0.8-0.6
							c0.1-0.2,0-0.6-0.1-1c-0.1-0.4-0.2-0.7-0.1-1.1c0-0.3,0.2-0.7,0.4-1c0.2-0.4,0.4-0.7,0.4-1c0-0.3-0.4-0.5-0.7-0.8
							c-0.3-0.2-0.6-0.5-0.7-0.8c-0.2-0.3-0.2-0.7-0.2-1.1c0-0.4-0.1-0.8-0.3-1c-0.2-0.2-0.6-0.2-1-0.2c-0.4,0-0.7,0-1.1-0.2
							c-0.3-0.2-0.6-0.4-0.8-0.7c-0.3-0.3-0.5-0.6-0.8-0.6c-0.3,0-0.6,0.2-0.9,0.4c-0.3,0.2-0.6,0.4-1,0.5c-0.4,0.1-0.7,0-1.1-0.1
							c-0.4-0.1-0.8-0.2-1-0.1c-0.2,0.1-0.4,0.5-0.5,0.9c-0.1,0.3-0.3,0.7-0.5,0.9c-0.2,0.3-0.6,0.4-0.9,0.5
							c-0.4,0.2-0.7,0.3-0.8,0.6c-0.1,0.2,0,0.6,0.1,1c0.1,0.4,0.2,0.7,0.1,1.1c0,0.3-0.2,0.7-0.4,1c-0.2,0.4-0.4,0.7-0.4,1
							c0,0.3,0.4,0.5,0.7,0.8c0.3,0.2,0.6,0.5,0.7,0.8c0.2,0.3,0.2,0.7,0.2,1.1c0,0.4,0.1,0.8,0.3,1c0.2,0.2,0.6,0.2,1,0.2
							c0.4,0,0.7,0,1.1,0.2c0.3,0.2,0.6,0.4,0.8,0.7c0.3,0.3,0.5,0.6,0.8,0.6c0.3,0,0.6-0.2,0.9-0.4c0.3-0.2,0.6-0.4,1-0.5
							c0.1,0,0.2,0,0.3,0C26.6,34.3,26.8,34.4,27.1,34.4z"/>
					</g>
				</g>
				<g>
					<g>
						<g>
							<path class="st20" d="M43.9,27.1c-0.1-0.7,0.6-1.5,0.3-2.2c-0.3-0.6-1.3-0.7-1.8-1.3c-0.4-0.5-0.4-1.6-1-1.9
								c-0.6-0.3-1.5,0.2-2.2,0c-0.7-0.1-1.3-1-1.9-0.9c-0.7,0.1-1.1,1-1.7,1.3c-0.6,0.3-1.6-0.1-2.1,0.4c-0.5,0.4-0.3,1.5-0.6,2.1
								c-0.3,0.6-1.3,0.9-1.5,1.6c-0.1,0.7,0.6,1.4,0.7,2.1c0.1,0.7-0.6,1.5-0.3,2.2c0.3,0.6,1.3,0.7,1.8,1.3c0.4,0.5,0.4,1.6,1,1.9
								c0.6,0.3,1.5-0.2,2.2,0c0.7,0.1,1.3,1,1.9,0.9c0.7-0.1,1.1-1,1.7-1.3c0.6-0.3,1.6,0.1,2.1-0.4c0.5-0.4,0.3-1.5,0.6-2.1
								c0.3-0.6,1.3-0.9,1.5-1.6C44.8,28.5,44,27.8,43.9,27.1z"/>
						</g>
					</g>
					<g>
						<g>
							<path class="st10" d="M37.4,34.3c-0.3-0.2-0.5-0.4-0.8-0.4c-0.2-0.1-0.6,0-0.9,0.1c-0.5,0.1-1,0.2-1.4-0.1
								c-0.4-0.3-0.6-0.8-0.8-1.2c-0.1-0.3-0.2-0.6-0.3-0.8c-0.2-0.2-0.4-0.3-0.7-0.4c-0.4-0.2-0.9-0.4-1.1-0.9
								c-0.2-0.5,0-0.9,0.1-1.4c0.1-0.3,0.2-0.6,0.2-0.8c0-0.2-0.2-0.5-0.3-0.8c-0.2-0.4-0.5-0.9-0.4-1.4c0.1-0.5,0.5-0.8,0.9-1.1
								c0.3-0.2,0.5-0.4,0.6-0.6c0.1-0.2,0.2-0.5,0.2-0.8c0.1-0.5,0.1-1,0.5-1.3c0.4-0.3,0.9-0.3,1.4-0.3c0.3,0,0.6,0,0.8-0.1
								c0.2-0.1,0.4-0.3,0.6-0.5c0.3-0.3,0.7-0.7,1.2-0.8c0.5,0,0.9,0.2,1.3,0.5c0.3,0.2,0.5,0.4,0.8,0.4c0.2,0.1,0.6,0,0.9-0.1
								c0.5-0.1,1-0.2,1.4,0.1c0.4,0.3,0.6,0.8,0.8,1.2c0.1,0.3,0.2,0.6,0.3,0.8c0.2,0.2,0.4,0.3,0.7,0.4c0.4,0.2,0.9,0.4,1.1,0.9
								c0.2,0.5,0,0.9-0.1,1.4c-0.1,0.3-0.2,0.6-0.2,0.8c0,0.2,0.2,0.5,0.3,0.8c0.2,0.4,0.5,0.9,0.4,1.4l0,0
								c-0.1,0.5-0.5,0.8-0.9,1.1c-0.3,0.2-0.5,0.4-0.6,0.6c-0.1,0.2-0.2,0.5-0.2,0.8c-0.1,0.5-0.1,1-0.5,1.3
								c-0.4,0.3-0.9,0.3-1.4,0.3c-0.3,0-0.6,0-0.8,0.1c-0.2,0.1-0.4,0.3-0.6,0.5c-0.3,0.3-0.7,0.7-1.2,0.8c0,0-0.1,0-0.1,0
								C38.1,34.8,37.7,34.6,37.4,34.3z M44.3,29.1c0.1-0.3-0.1-0.6-0.3-1c-0.2-0.3-0.4-0.6-0.4-1c0-0.4,0.1-0.7,0.2-1.1
								c0.1-0.4,0.2-0.7,0.1-1c-0.1-0.2-0.4-0.4-0.8-0.6c-0.3-0.2-0.7-0.3-0.9-0.6c-0.2-0.3-0.4-0.6-0.5-1c-0.1-0.4-0.2-0.7-0.5-0.9
								c-0.2-0.1-0.6-0.1-1,0c-0.4,0.1-0.8,0.1-1.1,0.1c-0.4-0.1-0.7-0.3-1-0.5c-0.3-0.2-0.6-0.4-0.9-0.4c-0.3,0-0.5,0.3-0.8,0.6
								c-0.3,0.3-0.5,0.5-0.8,0.7c-0.3,0.1-0.7,0.1-1.1,0.2c-0.4,0-0.8,0-1,0.2c-0.2,0.2-0.2,0.5-0.3,0.9c0,0.4-0.1,0.8-0.3,1.1
								c-0.2,0.3-0.5,0.5-0.8,0.7c-0.3,0.2-0.6,0.5-0.7,0.7c-0.1,0.3,0.1,0.6,0.3,1c0.2,0.3,0.4,0.6,0.4,1c0,0.4-0.1,0.7-0.2,1.1
								c-0.1,0.4-0.2,0.7-0.1,1c0.1,0.2,0.4,0.4,0.8,0.6c0.3,0.2,0.7,0.3,0.9,0.6c0.2,0.3,0.4,0.6,0.5,1c0.1,0.4,0.2,0.7,0.5,0.9
								c0.2,0.1,0.6,0.1,1,0c0.4-0.1,0.8-0.1,1.1-0.1c0.4,0.1,0.7,0.3,1,0.5c0.3,0.2,0.6,0.4,0.9,0.4c0.3,0,0.5-0.3,0.8-0.6
								c0.3-0.3,0.5-0.5,0.8-0.7c0.3-0.1,0.7-0.1,1.1-0.2c0.4,0,0.8,0,1-0.2c0.2-0.2,0.2-0.5,0.3-0.9c0-0.4,0.1-0.8,0.3-1.1
								c0.2-0.3,0.5-0.5,0.8-0.7C43.9,29.6,44.2,29.4,44.3,29.1L44.3,29.1z"/>
						</g>
					</g>
				</g>
				<g>
					<g>
						<path class="st21" d="M43.9,27.1c-0.1-0.7,0.6-1.5,0.3-2.2c-0.3-0.6-1.3-0.7-1.8-1.3c-0.4-0.5-0.4-1.6-1-1.9
							c-0.6-0.3-1.5,0.2-2.2,0c-0.7-0.1-1.3-1-1.9-0.9c-0.7,0.1-1.1,1-1.7,1.3c-0.6,0.3-1.6-0.1-2.1,0.4c-0.5,0.4-0.3,1.5-0.6,2.1
							c-0.3,0.6-1.3,0.9-1.5,1.6c-0.1,0.7,0.6,1.4,0.7,2.1c0.1,0.7-0.6,1.5-0.3,2.2c0.3,0.6,1.3,0.7,1.8,1.3c0.4,0.5,0.4,1.6,1,1.9
							c0.6,0.3,1.5-0.2,2.2,0c0.7,0.1,1.3,1,1.9,0.9c0.7-0.1,1.1-1,1.7-1.3c0.6-0.3,1.6,0.1,2.1-0.4c0.5-0.4,0.3-1.5,0.6-2.1
							c0.3-0.6,1.3-0.9,1.5-1.6C44.8,28.5,44,27.8,43.9,27.1z"/>
					</g>
				</g>
				<g class="st7">
					<g>
						<path class="st8" d="M44.6,29.2c0.1-0.7-0.6-1.4-0.7-2.1c-0.1-0.7,0.6-1.5,0.3-2.2c-0.3-0.6-1.3-0.7-1.8-1.3
							c-0.4-0.5-0.4-1.6-1-1.9c-0.6-0.3-1.5,0.2-2.2,0c-0.7-0.1-1.3-1-1.9-0.9c-0.7,0.1-1.1,1-1.7,1.3c-0.6,0.3-1.6-0.1-2.1,0.4
							c-0.2,0.2-0.3,0.4-0.3,0.6c0.5-0.4,1.5-0.1,2.1-0.4c0.6-0.3,1.1-1.2,1.7-1.3c0.7-0.1,1.3,0.8,1.9,0.9c0.7,0.1,1.6-0.4,2.2,0
							c0.6,0.3,0.6,1.4,1,1.9c0.4,0.5,1.5,0.6,1.8,1.3c0.3,0.6-0.4,1.5-0.3,2.2c0.1,0.6,0.8,1.3,0.7,1.9
							C44.4,29.6,44.5,29.4,44.6,29.2z"/>
					</g>
				</g>
				<g>
					<g>
						<path class="st5" d="M37.4,34.3c-0.3-0.2-0.5-0.4-0.8-0.4c-0.2-0.1-0.6,0-0.9,0.1c-0.5,0.1-1,0.2-1.4-0.1
							c-0.4-0.2-0.6-0.7-0.7-1.2c-0.1-0.3-0.2-0.6-0.4-0.8c-0.2-0.2-0.4-0.3-0.7-0.5c-0.4-0.2-0.9-0.4-1.1-0.9
							c-0.2-0.4,0-0.9,0.1-1.4c0.1-0.3,0.2-0.6,0.2-0.9c0-0.2-0.2-0.5-0.3-0.8c-0.2-0.4-0.5-0.9-0.4-1.4c0.1-0.5,0.5-0.8,0.9-1.1
							c0.3-0.2,0.5-0.4,0.6-0.6c0.1-0.2,0.2-0.5,0.2-0.8c0.1-0.5,0.1-1,0.5-1.3c0.4-0.3,0.9-0.3,1.4-0.3c0.3,0,0.6,0,0.8-0.1
							c0.2-0.1,0.4-0.3,0.6-0.6c0.3-0.4,0.7-0.7,1.2-0.8c0.5,0,0.9,0.2,1.3,0.5c0.3,0.2,0.5,0.4,0.8,0.4c0.2,0.1,0.6,0,0.9-0.1
							c0.5-0.1,1-0.2,1.4,0.1c0.4,0.2,0.6,0.7,0.7,1.2c0.1,0.3,0.2,0.6,0.4,0.8c0.2,0.2,0.4,0.3,0.7,0.5c0.4,0.2,0.9,0.4,1.1,0.9
							c0.2,0.4,0,0.9-0.1,1.4c-0.1,0.3-0.2,0.6-0.2,0.9c0,0.2,0.2,0.5,0.3,0.8c0.2,0.4,0.5,0.9,0.4,1.4l0,0
							c-0.1,0.5-0.5,0.8-0.9,1.1c-0.3,0.2-0.5,0.4-0.6,0.6c-0.1,0.2-0.2,0.5-0.2,0.8c-0.1,0.5-0.1,1-0.5,1.3
							c-0.4,0.3-0.9,0.3-1.4,0.3c-0.3,0-0.6,0-0.8,0.1c-0.2,0.1-0.4,0.3-0.6,0.6c-0.3,0.4-0.7,0.7-1.2,0.8c0,0-0.1,0-0.1,0
							C38.1,34.8,37.8,34.5,37.4,34.3z M44.3,29.1c0.1-0.3-0.1-0.6-0.3-1c-0.2-0.3-0.3-0.6-0.4-1c0-0.4,0.1-0.7,0.2-1.1
							c0.1-0.4,0.2-0.8,0.1-1c-0.1-0.3-0.5-0.4-0.8-0.6c-0.3-0.2-0.7-0.3-0.9-0.6c-0.2-0.3-0.3-0.6-0.5-1c-0.1-0.4-0.3-0.8-0.5-0.9
							c-0.2-0.1-0.6-0.1-1,0c-0.4,0.1-0.7,0.1-1.1,0.1s-0.7-0.3-1-0.5c-0.3-0.2-0.6-0.4-0.9-0.4c-0.3,0-0.5,0.3-0.8,0.6
							c-0.2,0.3-0.5,0.5-0.8,0.7c-0.3,0.1-0.7,0.1-1.1,0.1c-0.4,0-0.8,0-1,0.2c-0.2,0.2-0.3,0.6-0.3,1c0,0.4-0.1,0.7-0.3,1.1
							c-0.2,0.3-0.5,0.5-0.8,0.7c-0.3,0.2-0.6,0.5-0.7,0.8c-0.1,0.3,0.1,0.6,0.3,1c0.2,0.3,0.3,0.6,0.4,1c0,0.4-0.1,0.7-0.2,1.1
							c-0.1,0.4-0.2,0.8-0.1,1c0.1,0.3,0.5,0.4,0.8,0.6c0.3,0.2,0.7,0.3,0.9,0.6c0.2,0.3,0.3,0.6,0.5,1c0.1,0.4,0.3,0.8,0.5,0.9
							c0.2,0.1,0.6,0.1,1,0c0.4-0.1,0.7-0.1,1.1-0.1s0.7,0.3,1,0.5c0.3,0.2,0.6,0.4,0.9,0.4c0.3,0,0.5-0.3,0.8-0.6
							c0.2-0.3,0.5-0.5,0.8-0.7c0.3-0.1,0.7-0.1,1.1-0.1c0.4,0,0.8,0,1-0.2c0.2-0.2,0.3-0.6,0.3-1c0-0.4,0.1-0.7,0.3-1.1
							c0.2-0.3,0.5-0.5,0.8-0.7C44,29.6,44.3,29.4,44.3,29.1L44.3,29.1z"/>
					</g>
				</g>
				<g class="st18">
					<g>
						<ellipse class="st22" cx="28.9" cy="32.4" rx="0.5" ry="0.4"/>
					</g>
				</g>
				<g>
					<g>
						<path class="st23" d="M18.7,33L18.7,33c0-0.1,0-0.2,0-0.3c0-0.3,0.1-0.7,0.2-1c2-5.7,6.4-10.1,11.8-10.1
							c4.9,0,9.2,3.5,11.3,8.5l0,0c0.5,1.2,0.9,2.4,1.1,3.7v0c0,0.1,0,0.2,0,0.3c0,0,0,0,0,0c0,0.2,0.1,0.4,0.2,0.6c0,0,0,0,0,0
							c0,0,0,0.1,0,0.1c0,0,0,0,0,0.1c0,0,0,0.1,0,0.1c0,0,0,0,0,0c0,0,0,0.1,0,0.1c0,0,0,0,0,0c0,0,0,0,0,0.1c0,0,0,0,0,0.1
							c0,0,0,0.1,0,0.1c0.1,0.2,0.2,0.4,0.3,0.5c0,0,0,0.1,0.1,0.1c0,0,0,0,0,0.1c0,0,0,0,0,0.1c0,0,0,0,0,0.1s0,0,0.1,0.1
							c0,0,0,0,0,0c0,0,0,0,0,0c0,0,0,0,0.1,0.1c0,0,0.1,0.1,0.1,0.1c0,0,0,0,0,0c0,0,0.1,0.1,0.1,0.1c0,0,0,0,0,0s0,0,0.1,0
							c0,0,0,0,0.1,0c0,0,0,0,0.1,0c0,0,0,0,0.1,0c0.2,0.1,0.3,0.2,0.5,0.3c0,0,0,0,0.1,0c0.1,0,0.2,0.1,0.3,0.1c0,0,0,0,0.1,0
							c0,0,0.1,0,0.1,0c0,0,0,0,0.1,0c0,0,0,0,0,0c0,0,0,0,0.1,0c0,0,0,0,0.1,0c0.1,0,0.2,0,0.3,0c0,0,0,0,0.1,0c0,0,0.1,0,0.1,0
							h-4.2l0,0H22.1c-0.1,0-0.2,0-0.3,0c-0.1,0-0.1,0-0.2,0c-0.3-0.1-0.6-0.1-0.8-0.3c0,0-0.1,0-0.1-0.1c-0.1,0-0.2-0.1-0.2-0.1
							c0,0-0.1-0.1-0.1-0.1c-0.1-0.1-0.2-0.1-0.3-0.2c0,0-0.1-0.1-0.1-0.1c0,0,0,0,0,0c0,0-0.1-0.1-0.1-0.1c0,0-0.1-0.1-0.1-0.1
							c0,0-0.1-0.1-0.1-0.1c-0.1-0.2-0.3-0.4-0.4-0.6c0-0.1-0.1-0.1-0.1-0.2c-0.1-0.1-0.1-0.3-0.2-0.4c-0.2-0.5-0.2-1-0.2-1.5
							C18.7,33.2,18.7,33.1,18.7,33z"/>
					</g>
				</g>
				<g class="st7">
					<g>
						<path class="st8" d="M18.7,33L18.7,33c0-0.1,0-0.2,0-0.3c0-0.3,0.1-0.7,0.2-1c2-5.7,6.4-10.1,11.8-10.1
							c4.9,0,9.2,3.5,11.3,8.5l0,0c0.5,1.2,0.9,2.4,1.1,3.7v0c0,0.1,0,0.2,0,0.3c0,0,0,0,0,0c0,0,0,0.1,0,0.1c0,0-0.1,0-0.1,0
							c-0.2-1.2-0.6-2.3-1-3.3l0,0c-2.1-5.1-6.4-8.5-11.3-8.5c-5.4,0-9.8,4.4-11.8,10.1c-0.1,0.4-0.2,0.7-0.2,1c0,0.1,0,0.1,0,0.2
							c0-0.2,0-0.3,0-0.5C18.7,33.2,18.7,33.1,18.7,33z"/>
					</g>
				</g>
				<g class="st12">
					<g>
						<path class="st13" d="M19,31.7c0.1-0.3,0.1,0,0,0.3C19,31.9,19,31.8,19,31.7z"/>
					</g>
				</g>
				<g>
					<g>
						<path class="st5" d="M42.2,37.6H22.1c-1.1,0-2.2-0.6-2.9-1.6c-0.9-1.2-1.1-2.9-0.5-4.4c1-3,2.6-5.5,4.7-7.3
							c2.2-1.9,4.7-3,7.4-3c3,0,5.9,1.3,8.2,3.6c2.3,2.3,3.8,5.4,4.5,8.9c0,0,0,0,0,0c0,0.1,0,0.2,0,0.2c0,0,0,0,0,0v0
							c0.3,1.7,1.6,2.9,3,2.9c0.2,0,0.3,0.1,0.3,0.3s-0.1,0.3-0.3,0.3L42.2,37.6C42.2,37.6,42.2,37.6,42.2,37.6z M42.9,34.2
							C42.9,34.2,42.9,34.2,42.9,34.2c0-0.1,0-0.2,0-0.3c0,0,0,0,0,0c-1.3-7-6.3-12-12.1-12c-5,0-9.5,3.9-11.6,9.9
							c-0.5,1.4-0.3,2.8,0.5,3.9c0.6,0.8,1.5,1.3,2.4,1.3h20.1c0,0,0,0,0,0h2.4C43.8,36.4,43.2,35.4,42.9,34.2z M43.5,34.1
							L43.5,34.1L43.5,34.1z M43.5,34.1C43.5,34.1,43.5,34.1,43.5,34.1C43.5,34.1,43.5,34.1,43.5,34.1z"/>
					</g>
				</g>
				<g class="st12">
					<g>
						<path class="st8" d="M38,26.9c0.9,1.1,1.1,2.4,0.6,2.9c-0.6,0.5-1-0.7-1.9-1.8c-0.9-1.1-1.9-1.8-1.3-2.3
							C35.9,25.2,37.1,25.8,38,26.9z"/>
					</g>
				</g>
				<g class="st12">
					<g>
						<circle class="st13" cx="24" cy="27.9" r="0.2"/>
					</g>
				</g>
				<g class="st12">
					<g>
						<circle class="st13" cx="40.1" cy="32" r="0.2"/>
					</g>
				</g>
				<g class="st12">
					<g>
						<circle class="st13" cx="25.4" cy="32.2" r="0.2"/>
					</g>
				</g>
				<g class="st12">
					<g>
						<circle class="st13" cx="37.5" cy="35.2" r="0.2"/>
					</g>
				</g>
				<g class="st12">
					<g>
						<circle class="st13" cx="33.3" cy="23.7" r="0.2"/>
					</g>
				</g>
				<g class="st12">
					<g>
						<circle class="st13" cx="30.8" cy="27.1" r="0.2"/>
					</g>
				</g>
				<g class="st12">
					<g>
						<circle class="st13" cx="33.9" cy="34.1" r="0.2"/>
					</g>
				</g>
				<g class="st12">
					<g>
						<circle class="st13" cx="28.5" cy="25.2" r="0.2"/>
					</g>
				</g>
				<g class="st12">
					<g>
						<ellipse class="st13" cx="25.1" cy="27" rx="0.3" ry="0.3"/>
					</g>
				</g>
				<g class="st12">
					<g>
						<ellipse class="st13" cx="20.8" cy="34.5" rx="0.3" ry="0.3"/>
					</g>
				</g>
				<g class="st12">
					<g>
						<ellipse class="st13" cx="28.4" cy="35.8" rx="0.3" ry="0.3"/>
					</g>
				</g>
				<g>
					<g>
						<g>
							<g>
								<path class="st5" d="M26.4,31.2c0.6,0,1.1-0.8,1.1-1.7c0-0.9-0.6-1.7-1.2-1.6c-0.6,0-1.1,0.8-1.1,1.7
									C25.2,30.4,25.8,31.2,26.4,31.2z"/>
							</g>
						</g>
					</g>
					<g>
						<g>
							<path class="st8" d="M26.6,29.7c0.2,0,0.4-0.3,0.4-0.6c0-0.3-0.2-0.6-0.4-0.6s-0.4,0.3-0.4,0.6
								C26.2,29.5,26.4,29.8,26.6,29.7z"/>
						</g>
						<g>
							<path class="st5" d="M26.1,29.1L26.1,29.1c0-0.4,0.2-0.7,0.4-0.7c0.1,0,0.2,0.1,0.3,0.2c0.1,0.1,0.1,0.3,0.1,0.5
								c0,0.4-0.2,0.7-0.4,0.7c0,0,0,0,0,0C26.4,29.8,26.2,29.5,26.1,29.1z M26.6,28.5c-0.2,0-0.4,0.3-0.3,0.6l0,0
								c0,0.3,0.2,0.6,0.4,0.6c0.2,0,0.4-0.3,0.3-0.6c0-0.2-0.1-0.3-0.1-0.4C26.8,28.6,26.7,28.5,26.6,28.5
								C26.6,28.5,26.6,28.5,26.6,28.5z"/>
						</g>
					</g>
					<g>
						<g>
							<g>
								<path class="st5" d="M31.4,30.2c0,1.1-0.7,2.3-1.5,2.3c-0.8,0-1.3-1.2-1.3-2.4L31.4,30.2z"/>
							</g>
						</g>
						<g>
							<g>
								<path class="st24" d="M29.9,32.5c0.4,0,0.8-0.4,1.1-0.9c-0.3-0.3-0.7-0.5-1.1-0.5c-0.4,0-0.8,0.1-1.1,0.4
									C29.1,32.1,29.5,32.5,29.9,32.5z"/>
							</g>
						</g>
						<g>
							<g>
								<path class="st5" d="M29.9,32.8c-0.5,0-0.9-0.3-1.3-0.9c-0.3-0.5-0.4-1.1-0.4-1.8c0-0.2,0.2-0.3,0.3-0.3c0,0,0,0,0,0l2.8,0
									c0.1,0,0.2,0,0.2,0.1c0.1,0.1,0.1,0.2,0.1,0.2C31.7,31.4,31,32.8,29.9,32.8C29.9,32.8,29.9,32.8,29.9,32.8z M29,30.5
									c0,0.4,0.2,0.8,0.3,1.1c0.2,0.4,0.4,0.6,0.7,0.6c0,0,0,0,0,0c0.5,0,1-0.8,1.1-1.7L29,30.5z"/>
							</g>
						</g>
					</g>
					<g>
						<g>
							<g>
								<path class="st5" d="M33.8,31.3c-0.6,0-1.1-0.8-1.1-1.7c0-0.9,0.6-1.7,1.2-1.6c0.6,0,1.1,0.8,1.1,1.7
									C35,30.6,34.5,31.4,33.8,31.3z"/>
							</g>
						</g>
					</g>
					<g>
						<g>
							<path class="st8" d="M33.6,29.9c-0.2,0-0.4-0.3-0.4-0.6c0-0.3,0.2-0.6,0.4-0.6c0.2,0,0.4,0.3,0.4,0.6
								C34,29.7,33.8,29.9,33.6,29.9z"/>
						</g>
						<g>
							<path class="st5" d="M33.6,30c-0.2,0-0.4-0.3-0.4-0.7c0-0.2,0.1-0.3,0.1-0.5c0.1-0.1,0.2-0.2,0.3-0.2c0.2,0,0.4,0.3,0.4,0.7
								l0,0C34.1,29.7,33.9,30,33.6,30C33.6,30,33.6,30,33.6,30z M34,29.3c0-0.3-0.1-0.6-0.3-0.6c-0.1,0-0.2,0.1-0.3,0.2
								c-0.1,0.1-0.1,0.3-0.1,0.4c0,0.3,0.1,0.6,0.3,0.6C33.8,29.9,34,29.6,34,29.3L34,29.3z"/>
						</g>
					</g>
				</g>
			</g>
		</g>
	</g>
	<g>
		<path class="st25" d="M4.1,38.4"/>
		<path class="st25" d="M2.3,39.6"/>
		<path class="st25" d="M5,41.2"/>
		<path class="st25" d="M1,38.1"/>
		<path class="st26" d="M-1.6,40.7"/>
		<path class="st26" d="M-0.7,39.1"/>
		<path class="st25" d="M6.9,36"/>
		<path class="st25" d="M4.9,36.8"/>
	</g>
</g>
<g>
	<g>
		<g>
			<g>
				<path class="st4" d="M16.5,37.9c0.9-7.5,6.2-13.3,12.5-13.3s11.6,5.7,12.5,13.3c0.2,1.3-0.6,2.4-1.7,2.4H18.2
					C17.2,40.3,16.4,39.1,16.5,37.9z"/>
			</g>
		</g>
		<g>
			<g>
				<path class="st5" d="M16.9,39.9c-0.5-0.5-0.7-1.3-0.6-2.1c0.5-3.7,2-7.1,4.3-9.6c2.3-2.5,5.4-3.9,8.5-3.9s6.1,1.4,8.5,3.9
					c2.3,2.5,3.8,5.9,4.3,9.6c0.1,0.8-0.1,1.6-0.6,2.1c-0.4,0.4-0.8,0.7-1.4,0.7H18.2C17.7,40.6,17.2,40.4,16.9,39.9z M16.8,37.9
					c-0.1,0.6,0.1,1.3,0.5,1.7c0.3,0.3,0.6,0.5,0.9,0.5h21.6c0.3,0,0.7-0.2,0.9-0.5c0.4-0.4,0.5-1,0.5-1.7c-1-7.5-6.1-13-12.2-13
					S17.8,30.4,16.8,37.9z"/>
			</g>
		</g>
		<g>
			<g>
				<ellipse class="st6" cx="22" cy="25.6" rx="3" ry="3.1"/>
			</g>
		</g>
		<g class="st7">
			<g>
				<path class="st8" d="M19,25.2c0.2-1.7,1.7-2.9,3.4-2.7c1.6,0.2,2.7,1.5,2.7,3.1c-0.3-1.2-1.3-2.2-2.6-2.4
					c-1.7-0.2-3.2,1-3.4,2.7c0,0.1,0,0.2,0,0.3C19,25.9,19,25.5,19,25.2z"/>
			</g>
		</g>
		<g>
			<g>
				<path class="st5" d="M21.6,28.9c-0.9-0.1-1.7-0.6-2.2-1.3c-0.5-0.7-0.8-1.6-0.7-2.5s0.6-1.7,1.3-2.2c0.7-0.5,1.6-0.8,2.5-0.7
					c0.9,0.1,1.7,0.6,2.2,1.3s0.8,1.6,0.7,2.5c-0.1,0.9-0.6,1.7-1.3,2.2c-0.6,0.5-1.3,0.7-2,0.7C21.9,28.9,21.8,28.9,21.6,28.9z
					 M20.3,23.4c-0.6,0.5-1,1.1-1.1,1.9c-0.1,0.7,0.1,1.5,0.6,2.1c0.5,0.6,1.1,1,1.8,1.1c0.7,0.1,1.5-0.1,2-0.6
					c0.6-0.5,1-1.1,1.1-1.9c0.1-0.7-0.1-1.5-0.6-2.1c-0.5-0.6-1.1-1-1.8-1.1c-0.1,0-0.2,0-0.4,0C21.4,22.8,20.8,23,20.3,23.4z"/>
			</g>
		</g>
		<g class="st9">
			<g>
				<path class="st10" d="M16.5,37.9c0.9-7.5,6.2-13.3,12.5-13.3s11.6,5.7,12.5,13.3c0.2,1.3-0.6,2.4-1.7,2.4H18.2
					C17.2,40.3,16.4,39.1,16.5,37.9z"/>
			</g>
		</g>
		<g>
			<g>
				<ellipse class="st11" cx="36.6" cy="32.1" rx="3.8" ry="3.8"/>
			</g>
		</g>
		<g>
			<g>
				<ellipse class="st6" cx="36.6" cy="32.1" rx="3.8" ry="3.8"/>
			</g>
		</g>
		<g class="st12">
			<g>
				<path class="st13" d="M32.9,30.9c0.5,1.5,1.9,2.6,3.6,2.6c1.7,0,3.1-1.1,3.6-2.7c0.1,0.4,0.2,0.8,0.2,1.2c0,2.1-1.7,3.8-3.8,3.8
					c-2.1,0-3.8-1.7-3.8-3.8C32.8,31.7,32.8,31.3,32.9,30.9z"/>
			</g>
		</g>
		<g class="st7">
			<g>
				<path class="st8" d="M32.8,32.1c0-2.1,1.7-3.8,3.8-3.8c1.9,0,3.5,1.5,3.8,3.4c-0.5-1.5-1.9-2.6-3.6-2.6c-2.1,0-3.8,1.7-3.8,3.8
					c0,0.1,0,0.3,0,0.4C32.9,32.9,32.8,32.5,32.8,32.1z"/>
			</g>
		</g>
		<g>
			<g>
				<path class="st5" d="M32.5,32.1c0-2.3,1.8-4.1,4.1-4.1s4.1,1.8,4.1,4.1s-1.8,4.1-4.1,4.1C34.3,36.2,32.5,34.3,32.5,32.1z
					 M33.1,32.1c0,1.9,1.6,3.5,3.5,3.5s3.5-1.6,3.5-3.5s-1.6-3.5-3.5-3.5S33.1,30.1,33.1,32.1z"/>
			</g>
		</g>
		<g>
			<g>
				<path class="st14" d="M24.5,29.2l-1-4.5c-0.2-0.7,0.3-1.3,0.9-1.5l3.6-0.8c0.7-0.2,1.3,0.3,1.5,1l1,4.5c0.2,0.7-0.3,1.3-0.9,1.5
					L26,30.1C25.3,30.3,24.6,29.8,24.5,29.2z"/>
			</g>
		</g>
		<g class="st7">
			<g>
				<path class="st8" d="M28,22.4c0.7-0.2,1.3,0.3,1.5,1l1,4.5c0.2,0.7-0.3,1.3-0.9,1.5l-0.6,0.1c0.7-0.2,1.1-0.8,0.9-1.5l-1-4.5
					c-0.2-0.7-0.8-1.1-1.5-1L28,22.4z"/>
			</g>
		</g>
		<g>
			<g>
				<path class="st15" d="M24.5,29.2l-1-4.5c-0.2-0.7,0.3-1.3,0.9-1.5l3.6-0.8c0.7-0.2,1.3,0.3,1.5,1l1,4.5c0.2,0.7-0.3,1.3-0.9,1.5
					L26,30.1C25.3,30.3,24.6,29.8,24.5,29.2z"/>
			</g>
		</g>
		<g>
			<g>
				<path class="st5" d="M24.2,29.2l-1-4.5c-0.2-0.8,0.3-1.6,1.2-1.8l3.6-0.8c0.8-0.2,1.6,0.3,1.8,1.2l1,4.5
					c0.2,0.8-0.3,1.6-1.2,1.8L26,30.4l0,0c-0.1,0-0.2,0-0.3,0C25,30.4,24.4,29.9,24.2,29.2z M29.5,29c0.5-0.1,0.9-0.6,0.7-1.2
					l-1-4.5c-0.1-0.3-0.2-0.5-0.4-0.6c-0.2-0.1-0.5-0.2-0.7-0.1l-3.6,0.8c-0.5,0.1-0.9,0.6-0.7,1.2l1,4.5c0.1,0.3,0.2,0.5,0.4,0.6
					c0.2,0.1,0.5,0.2,0.7,0.1L29.5,29z"/>
			</g>
		</g>
		<g class="st12">
			<g>
				<path class="st10" d="M34.6,32.6l0.2,0c-0.1,0.4-0.2,0.7-0.2,1.1L34.6,32.6z"/>
			</g>
		</g>
		<g>
			<g>
				<g>
					<path class="st16" d="M33.6,32.6l-0.2,4.8l2.8,2.9l2.8,0c3.6,0,4.3-4.9,0.2-5.3c0.1-0.3,0-0.6-0.2-0.8s-0.6-0.3-0.8-0.2
						c-0.1-0.9-1.1-1.4-1.8-1.1L33.6,32.6z"/>
				</g>
				<g>
					<path class="st17" d="M36.2,40.3l-2.8-2.9c0,0,0,0,0,0l0.2-4.8c0,0,0,0,0,0c0,0,0,0,0,0l2.7,0.3c0.4-0.2,0.8-0.1,1.2,0.1
						c0.4,0.2,0.6,0.6,0.6,1c0.3-0.1,0.6,0,0.8,0.2c0.2,0.2,0.3,0.5,0.2,0.8c2.1,0.2,2.8,1.6,2.7,2.7c-0.1,1.3-1.1,2.7-3,2.7
						L36.2,40.3L36.2,40.3C36.2,40.3,36.2,40.3,36.2,40.3z M38.2,34.1C38.2,34.1,38.2,34.1,38.2,34.1C38.2,34.1,38.2,34,38.2,34.1
						c-0.1-0.4-0.3-0.8-0.7-1c-0.4-0.2-0.8-0.3-1.2-0.1c0,0,0,0,0,0l-2.7-0.3l-0.2,4.7l2.8,2.9l2.8,0c1.8,0,2.9-1.3,2.9-2.6
						c0-1.1-0.6-2.4-2.7-2.6c0,0,0,0,0,0c0,0,0,0,0,0c0.1-0.3,0-0.6-0.2-0.8c-0.1-0.1-0.3-0.2-0.5-0.2C38.4,34,38.3,34,38.2,34.1z"
						/>
				</g>
			</g>
			<g class="st12">
				<g>
					<path class="st13" d="M33.7,34C33.7,34.1,33.7,34.1,33.7,34c0,2.7,2,4.8,4.5,4.8c1.5,0,2.8-0.7,3.6-1.9
						c0.4,1.5-0.7,3.4-2.8,3.4l-2.7,0l-2.7-2.9L33.7,34z"/>
				</g>
			</g>
			<g class="st7">
				<g>
					<path class="st8" d="M36.4,33c0.7-0.3,1.7,0.2,1.8,1.1c0.3-0.1,0.6-0.1,0.8,0.2c0.2,0.2,0.3,0.5,0.2,0.8c3.5,0.3,3.4,4,1.1,5
						c1.7-1.3,1.6-4.2-1.3-4.7c-0.1,0-0.3-0.1-0.3-0.3c0-0.2-0.1-0.4-0.3-0.6c-0.2-0.1-0.4-0.2-0.6-0.2c-0.1,0-0.3-0.1-0.3-0.2
						c-0.2-0.6-0.8-1-1.4-0.9c-0.1-0.1-0.1-0.2-0.2-0.3L36.4,33z"/>
				</g>
			</g>
			<g>
				<g>
					<path class="st5" d="M36,40.5l-2.8-2.9c-0.1-0.1-0.1-0.1-0.1-0.2l0.2-4.8c0-0.1,0-0.1,0.1-0.2c0.1-0.1,0.1-0.1,0.2-0.1l2.7,0.3
						c0.4-0.2,0.9-0.1,1.4,0.2c0.3,0.2,0.6,0.5,0.7,0.9c0.3,0,0.6,0.1,0.8,0.3c0.2,0.2,0.3,0.5,0.3,0.8c1.9,0.3,2.8,1.6,2.7,2.9
						c-0.1,1.4-1.2,2.9-3.3,2.9l-2.8,0h0C36.1,40.6,36.1,40.5,36,40.5z M38.3,34.3c-0.1,0-0.2,0-0.3,0c-0.1,0-0.1-0.1-0.1-0.2
						c0-0.4-0.3-0.7-0.5-0.8c-0.3-0.2-0.7-0.2-0.9-0.1c0,0-0.1,0-0.1,0l-2.4-0.3l-0.2,4.4l2.6,2.7l2.7,0c1.7,0,2.7-1.2,2.7-2.4
						c0-1-0.6-2.2-2.5-2.3c-0.1,0-0.2-0.1-0.2-0.1c0-0.1-0.1-0.2,0-0.2c0.1-0.2,0-0.4-0.1-0.5c-0.1-0.1-0.2-0.1-0.4-0.1
						C38.4,34.2,38.4,34.3,38.3,34.3z"/>
				</g>
			</g>
		</g>
		<g class="st18">
			<g>
				<ellipse class="st10" cx="35.8" cy="35.2" rx="0.1" ry="0.1"/>
			</g>
		</g>
		<g class="st12">
			<g>
				<path class="st10" d="M34.5,33.8l0,0.3C34.5,33.9,34.5,33.9,34.5,33.8z"/>
			</g>
		</g>
		<g class="st19">
			<g>
				<path class="st8" d="M13.7,28.9c0,0,0-0.1,0-0.1c0.2,0.5,0.7,0.9,0.8,1.3c0,0.1,0,0.3,0,0.4C14.3,30,13.7,29.5,13.7,28.9z"/>
			</g>
		</g>
		<g>
			<g>
				<g>
					<path class="st20" d="M12.5,30.8c0.1-0.7-0.5-1.6-0.2-2.2c0.3-0.6,1.4-0.7,1.8-1.2c0.5-0.5,0.5-1.6,1.1-1.9
						c0.6-0.3,1.5,0.3,2.2,0.1c0.7-0.1,1.3-1,2-0.9C20,25,20.4,26,21,26.3c0.6,0.3,1.6,0,2.1,0.5c0.5,0.5,0.2,1.5,0.5,2.1
						c0.3,0.6,1.3,1,1.4,1.6c0.1,0.7-0.7,1.4-0.8,2c-0.1,0.7,0.5,1.6,0.2,2.2c-0.3,0.6-1.4,0.7-1.8,1.2c-0.5,0.5-0.5,1.6-1.1,1.9
						c-0.6,0.3-1.5-0.3-2.2-0.1c-0.7,0.1-1.3,1-2,0.9c-0.7-0.1-1.1-1.1-1.7-1.4c-0.6-0.3-1.6,0-2.1-0.5c-0.5-0.5-0.2-1.5-0.5-2.1
						c-0.3-0.6-1.3-1-1.4-1.6C11.6,32.2,12.4,31.5,12.5,30.8z"/>
				</g>
			</g>
			<g>
				<g>
					<path class="st10" d="M17.4,38.8c-0.5-0.1-0.8-0.5-1.2-0.8c-0.2-0.2-0.4-0.5-0.6-0.6c-0.2-0.1-0.5-0.1-0.8-0.1
						c-0.5,0-1-0.1-1.4-0.4C13.1,36.5,13,36,13,35.5c0-0.3-0.1-0.6-0.2-0.8c-0.1-0.2-0.3-0.4-0.6-0.6c-0.4-0.3-0.8-0.6-0.9-1.2
						c-0.1-0.5,0.2-1,0.4-1.4c0.2-0.3,0.3-0.5,0.3-0.7c0-0.2,0-0.5-0.1-0.8c-0.1-0.5-0.3-1,0-1.4c0.2-0.4,0.7-0.7,1.1-0.8
						c0.3-0.1,0.6-0.2,0.7-0.4c0.2-0.2,0.3-0.4,0.4-0.7c0.2-0.4,0.4-1,0.8-1.2c0.4-0.2,0.9-0.1,1.4,0c0.3,0.1,0.6,0.1,0.9,0.1
						c0.2,0,0.5-0.2,0.8-0.4c0.4-0.3,0.8-0.5,1.3-0.5c0.5,0.1,0.8,0.5,1.2,0.8c0.2,0.2,0.4,0.5,0.6,0.6c0.2,0.1,0.5,0.1,0.8,0.1
						c0.5,0,1,0.1,1.4,0.4c0.4,0.3,0.4,0.9,0.4,1.3c0,0.3,0.1,0.6,0.2,0.8c0.1,0.2,0.3,0.4,0.6,0.6c0.4,0.3,0.8,0.6,0.9,1.2
						c0.1,0.5-0.2,1-0.4,1.4c-0.2,0.3-0.3,0.5-0.3,0.7c0,0.2,0,0.5,0.1,0.8c0.1,0.5,0.3,1,0,1.4c-0.2,0.4-0.7,0.7-1.1,0.8
						c-0.3,0.1-0.6,0.2-0.7,0.4c-0.2,0.2-0.3,0.4-0.4,0.7c-0.2,0.4-0.4,1-0.8,1.2c-0.4,0.2-0.9,0.1-1.4,0c-0.3-0.1-0.6-0.1-0.9-0.1
						c-0.2,0-0.5,0.2-0.8,0.4c-0.4,0.2-0.7,0.5-1.2,0.5C17.5,38.8,17.4,38.8,17.4,38.8z M20.5,37.4c0.4,0.1,0.7,0.2,1,0.1
						c0.2-0.1,0.4-0.5,0.5-0.9c0.1-0.3,0.3-0.7,0.5-1c0.2-0.3,0.6-0.4,0.9-0.6c0.4-0.2,0.7-0.3,0.8-0.5c0.1-0.2,0-0.6-0.1-1
						c-0.1-0.4-0.2-0.7-0.1-1.1c0-0.3,0.2-0.7,0.4-1c0.2-0.3,0.4-0.7,0.4-1c0-0.3-0.3-0.5-0.7-0.8c-0.3-0.2-0.6-0.5-0.7-0.8
						c-0.2-0.3-0.2-0.7-0.2-1.1c0-0.4-0.1-0.8-0.3-1c-0.2-0.2-0.6-0.2-1-0.2c-0.4,0-0.7,0-1.1-0.2c-0.3-0.2-0.6-0.4-0.8-0.7
						c-0.3-0.3-0.5-0.6-0.8-0.6c-0.2,0-0.6,0.2-0.9,0.4c-0.3,0.2-0.6,0.4-1,0.5c-0.4,0.1-0.7,0-1.1-0.1c-0.4-0.1-0.7-0.2-1-0.1
						c-0.2,0.1-0.4,0.5-0.5,0.9c-0.1,0.3-0.3,0.7-0.5,1c-0.2,0.3-0.6,0.4-0.9,0.6c-0.4,0.2-0.7,0.3-0.8,0.5c-0.1,0.2,0,0.6,0.1,1
						c0.1,0.4,0.2,0.7,0.1,1.1c0,0.3-0.2,0.7-0.4,1c-0.2,0.3-0.4,0.7-0.4,1c0,0.3,0.3,0.5,0.7,0.8c0.3,0.2,0.6,0.5,0.7,0.8
						c0.2,0.3,0.2,0.7,0.2,1.1c0,0.4,0.1,0.8,0.3,1c0.2,0.2,0.6,0.2,1,0.2c0.4,0,0.7,0,1.1,0.2c0.3,0.2,0.6,0.4,0.8,0.7
						c0.3,0.3,0.5,0.6,0.8,0.6c0.2,0,0.6-0.2,0.9-0.4c0.3-0.2,0.6-0.4,1-0.5c0.1,0,0.2,0,0.3,0C19.9,37.3,20.2,37.4,20.5,37.4z"/>
				</g>
			</g>
		</g>
		<g>
			<g>
				<path class="st21" d="M12.5,30.8c0.1-0.7-0.5-1.6-0.2-2.2c0.3-0.6,1.4-0.7,1.8-1.2c0.5-0.5,0.5-1.6,1.1-1.9
					c0.6-0.3,1.5,0.3,2.2,0.1c0.7-0.1,1.3-1,2-0.9C20,25,20.4,26,21,26.3c0.6,0.3,1.6,0,2.1,0.5c0.5,0.5,0.2,1.5,0.5,2.1
					c0.3,0.6,1.3,1,1.4,1.6c0.1,0.7-0.7,1.4-0.8,2c-0.1,0.7,0.5,1.6,0.2,2.2c-0.3,0.6-1.4,0.7-1.8,1.2c-0.5,0.5-0.5,1.6-1.1,1.9
					c-0.6,0.3-1.5-0.3-2.2-0.1c-0.7,0.1-1.3,1-2,0.9c-0.7-0.1-1.1-1.1-1.7-1.4c-0.6-0.3-1.6,0-2.1-0.5c-0.5-0.5-0.2-1.5-0.5-2.1
					c-0.3-0.6-1.3-1-1.4-1.6C11.6,32.2,12.4,31.5,12.5,30.8z"/>
			</g>
		</g>
		<g class="st7">
			<g>
				<path class="st8" d="M11.7,32.9c-0.1-0.7,0.7-1.4,0.8-2c0.1-0.7-0.5-1.6-0.2-2.2c0.3-0.6,1.4-0.7,1.8-1.2
					c0.5-0.5,0.5-1.6,1.1-1.9c0.6-0.3,1.5,0.3,2.2,0.1c0.7-0.1,1.3-1,2-0.9C20,25,20.4,26,21,26.3c0.6,0.3,1.6,0,2.1,0.5
					c0.2,0.2,0.2,0.4,0.3,0.6c-0.5-0.4-1.5-0.2-2.1-0.4c-0.6-0.3-1-1.3-1.7-1.4c-0.6-0.1-1.3,0.7-2,0.9c-0.7,0.1-1.6-0.4-2.2-0.1
					c-0.6,0.3-0.6,1.4-1.1,1.9c-0.5,0.5-1.5,0.6-1.8,1.2c-0.3,0.6,0.3,1.5,0.2,2.2c-0.1,0.6-0.8,1.3-0.8,1.9
					C11.8,33.2,11.7,33.1,11.7,32.9z"/>
			</g>
		</g>
		<g>
			<g>
				<path class="st5" d="M17.4,38.8c-0.5-0.1-0.8-0.5-1.1-0.8c-0.2-0.2-0.4-0.5-0.6-0.6c-0.2-0.1-0.5-0.1-0.8-0.1
					c-0.5,0-1-0.1-1.3-0.4c-0.3-0.3-0.4-0.8-0.4-1.3c0-0.3-0.1-0.6-0.2-0.9c-0.1-0.2-0.3-0.4-0.6-0.6c-0.4-0.3-0.8-0.6-0.9-1.1
					c-0.1-0.5,0.2-1,0.4-1.4c0.2-0.3,0.3-0.5,0.4-0.8c0-0.2,0-0.6-0.1-0.9c-0.1-0.5-0.2-1,0-1.4c0.2-0.4,0.7-0.6,1.1-0.8
					c0.3-0.1,0.6-0.2,0.7-0.4c0.2-0.2,0.3-0.5,0.4-0.8c0.2-0.5,0.4-0.9,0.8-1.2c0.4-0.2,0.9-0.1,1.4,0c0.3,0.1,0.6,0.1,0.9,0.1
					c0.2,0,0.5-0.2,0.8-0.4c0.4-0.3,0.8-0.5,1.3-0.5c0.5,0.1,0.8,0.5,1.1,0.8c0.2,0.2,0.4,0.5,0.6,0.6c0.2,0.1,0.5,0.1,0.8,0.1
					c0.5,0,1,0.1,1.3,0.4c0.3,0.3,0.4,0.8,0.4,1.3c0,0.3,0.1,0.6,0.2,0.9c0.1,0.2,0.3,0.4,0.6,0.6c0.4,0.3,0.8,0.6,0.9,1.1
					c0.1,0.5-0.2,1-0.4,1.4c-0.2,0.3-0.3,0.5-0.4,0.8c0,0.2,0,0.6,0.1,0.9c0.1,0.5,0.2,1,0,1.4c-0.2,0.4-0.7,0.6-1.1,0.8
					c-0.3,0.1-0.6,0.2-0.7,0.4c-0.2,0.2-0.3,0.5-0.4,0.8c-0.2,0.5-0.4,0.9-0.8,1.2c-0.4,0.2-0.9,0.1-1.4,0c-0.3-0.1-0.6-0.1-0.9-0.1
					c-0.2,0-0.5,0.2-0.8,0.4c-0.4,0.2-0.7,0.5-1.1,0.5C17.5,38.8,17.4,38.8,17.4,38.8z M20.4,37.5c0.4,0.1,0.8,0.2,1,0.1
					c0.2-0.1,0.4-0.5,0.5-0.9c0.1-0.3,0.3-0.7,0.5-0.9c0.2-0.3,0.6-0.4,0.9-0.5c0.4-0.2,0.7-0.3,0.8-0.6c0.1-0.2,0-0.6-0.1-1
					c-0.1-0.4-0.2-0.7-0.1-1.1c0-0.3,0.2-0.7,0.4-1c0.2-0.4,0.4-0.7,0.4-1c0-0.3-0.4-0.5-0.7-0.8c-0.3-0.2-0.6-0.5-0.7-0.8
					c-0.2-0.3-0.2-0.7-0.2-1.1c0-0.4-0.1-0.8-0.3-1c-0.2-0.2-0.6-0.2-1-0.2c-0.4,0-0.7,0-1.1-0.2c-0.3-0.2-0.6-0.4-0.8-0.7
					c-0.3-0.3-0.5-0.6-0.8-0.6c-0.3,0-0.6,0.2-0.9,0.4c-0.3,0.2-0.6,0.4-1,0.5c-0.4,0.1-0.7,0-1.1-0.1c-0.4-0.1-0.8-0.2-1-0.1
					c-0.2,0.1-0.4,0.5-0.5,0.9c-0.1,0.3-0.3,0.7-0.5,0.9c-0.2,0.3-0.6,0.4-0.9,0.5c-0.4,0.2-0.7,0.3-0.8,0.6c-0.1,0.2,0,0.6,0.1,1
					c0.1,0.4,0.2,0.7,0.1,1.1c0,0.3-0.2,0.7-0.4,1c-0.2,0.4-0.4,0.7-0.4,1c0,0.3,0.4,0.5,0.7,0.8c0.3,0.2,0.6,0.5,0.7,0.8
					c0.2,0.3,0.2,0.7,0.2,1.1c0,0.4,0.1,0.8,0.3,1c0.2,0.2,0.6,0.2,1,0.2c0.4,0,0.7,0,1.1,0.2c0.3,0.2,0.6,0.4,0.8,0.7
					c0.3,0.3,0.5,0.6,0.8,0.6c0.3,0,0.6-0.2,0.9-0.4c0.3-0.2,0.6-0.4,1-0.5c0.1,0,0.2,0,0.3,0C19.9,37.3,20.2,37.4,20.4,37.5z"/>
			</g>
		</g>
		<g>
			<g>
				<g>
					<path class="st20" d="M37.2,30.1c-0.1-0.7,0.6-1.5,0.3-2.2c-0.3-0.6-1.3-0.7-1.8-1.3c-0.4-0.5-0.4-1.6-1-1.9
						c-0.6-0.3-1.5,0.2-2.2,0c-0.7-0.1-1.3-1-1.9-0.9c-0.7,0.1-1.1,1-1.7,1.3c-0.6,0.3-1.6-0.1-2.1,0.4c-0.5,0.4-0.3,1.5-0.6,2.1
						c-0.3,0.6-1.3,0.9-1.5,1.6c-0.1,0.7,0.6,1.4,0.7,2.1c0.1,0.7-0.6,1.5-0.3,2.2c0.3,0.6,1.3,0.7,1.8,1.3c0.4,0.5,0.4,1.6,1,1.9
						c0.6,0.3,1.5-0.2,2.2,0c0.7,0.1,1.3,1,1.9,0.9c0.7-0.1,1.1-1,1.7-1.3c0.6-0.3,1.6,0.1,2.1-0.4c0.5-0.4,0.3-1.5,0.6-2.1
						c0.3-0.6,1.3-0.9,1.5-1.6C38.1,31.5,37.3,30.8,37.2,30.1z"/>
				</g>
			</g>
			<g>
				<g>
					<path class="st10" d="M30.7,37.3c-0.3-0.2-0.5-0.4-0.8-0.4c-0.2-0.1-0.6,0-0.9,0.1c-0.5,0.1-1,0.2-1.4-0.1
						c-0.4-0.3-0.6-0.8-0.8-1.2c-0.1-0.3-0.2-0.6-0.3-0.8c-0.2-0.2-0.4-0.3-0.7-0.4c-0.4-0.2-0.9-0.4-1.1-0.9
						c-0.2-0.5,0-0.9,0.1-1.4c0.1-0.3,0.2-0.6,0.2-0.8c0-0.2-0.2-0.5-0.3-0.8c-0.2-0.4-0.5-0.9-0.4-1.4c0.1-0.5,0.5-0.8,0.9-1.1
						c0.3-0.2,0.5-0.4,0.6-0.6c0.1-0.2,0.2-0.5,0.2-0.8c0.1-0.5,0.1-1,0.5-1.3c0.4-0.3,0.9-0.3,1.4-0.3c0.3,0,0.6,0,0.8-0.1
						c0.2-0.1,0.4-0.3,0.6-0.5c0.3-0.3,0.7-0.7,1.2-0.8c0.5,0,0.9,0.2,1.3,0.5c0.3,0.2,0.5,0.4,0.8,0.4c0.2,0.1,0.6,0,0.9-0.1
						c0.5-0.1,1-0.2,1.4,0.1c0.4,0.3,0.6,0.8,0.8,1.2c0.1,0.3,0.2,0.6,0.3,0.8c0.2,0.2,0.4,0.3,0.7,0.4c0.4,0.2,0.9,0.4,1.1,0.9
						c0.2,0.5,0,0.9-0.1,1.4c-0.1,0.3-0.2,0.6-0.2,0.8c0,0.2,0.2,0.5,0.3,0.8c0.2,0.4,0.5,0.9,0.4,1.4l0,0c-0.1,0.5-0.5,0.8-0.9,1.1
						c-0.3,0.2-0.5,0.4-0.6,0.6c-0.1,0.2-0.2,0.5-0.2,0.8c-0.1,0.5-0.1,1-0.5,1.3c-0.4,0.3-0.9,0.3-1.4,0.3c-0.3,0-0.6,0-0.8,0.1
						c-0.2,0.1-0.4,0.3-0.6,0.5c-0.3,0.3-0.7,0.7-1.2,0.8c0,0-0.1,0-0.1,0C31.4,37.9,31.1,37.6,30.7,37.3z M37.6,32.1
						c0.1-0.3-0.1-0.6-0.3-1c-0.2-0.3-0.4-0.6-0.4-1c0-0.4,0.1-0.7,0.2-1.1c0.1-0.4,0.2-0.7,0.1-1c-0.1-0.2-0.4-0.4-0.8-0.6
						c-0.3-0.2-0.7-0.3-0.9-0.6c-0.2-0.3-0.4-0.6-0.5-1c-0.1-0.4-0.2-0.7-0.5-0.9c-0.2-0.1-0.6-0.1-1,0c-0.4,0.1-0.8,0.1-1.1,0.1
						c-0.4-0.1-0.7-0.3-1-0.5c-0.3-0.2-0.6-0.4-0.9-0.4c-0.3,0-0.5,0.3-0.8,0.6c-0.3,0.3-0.5,0.5-0.8,0.7c-0.3,0.1-0.7,0.1-1.1,0.2
						c-0.4,0-0.8,0-1,0.2c-0.2,0.2-0.2,0.5-0.3,0.9c0,0.4-0.1,0.8-0.3,1.1c-0.2,0.3-0.5,0.5-0.8,0.7c-0.3,0.2-0.6,0.5-0.7,0.7
						c-0.1,0.3,0.1,0.6,0.3,1c0.2,0.3,0.4,0.6,0.4,1c0,0.4-0.1,0.7-0.2,1.1c-0.1,0.4-0.2,0.7-0.1,1c0.1,0.2,0.4,0.4,0.8,0.6
						c0.3,0.2,0.7,0.3,0.9,0.6c0.2,0.3,0.4,0.6,0.5,1c0.1,0.4,0.2,0.7,0.5,0.9c0.2,0.1,0.6,0.1,1,0c0.4-0.1,0.8-0.1,1.1-0.1
						c0.4,0.1,0.7,0.3,1,0.5c0.3,0.2,0.6,0.4,0.9,0.4c0.3,0,0.5-0.3,0.8-0.6c0.3-0.3,0.5-0.5,0.8-0.7c0.3-0.1,0.7-0.1,1.1-0.2
						c0.4,0,0.8,0,1-0.2c0.2-0.2,0.2-0.5,0.3-0.9c0-0.4,0.1-0.8,0.3-1.1c0.2-0.3,0.5-0.5,0.8-0.7C37.3,32.6,37.6,32.4,37.6,32.1
						L37.6,32.1z"/>
				</g>
			</g>
		</g>
		<g>
			<g>
				<path class="st21" d="M37.2,30.1c-0.1-0.7,0.6-1.5,0.3-2.2c-0.3-0.6-1.3-0.7-1.8-1.3c-0.4-0.5-0.4-1.6-1-1.9
					c-0.6-0.3-1.5,0.2-2.2,0c-0.7-0.1-1.3-1-1.9-0.9c-0.7,0.1-1.1,1-1.7,1.3c-0.6,0.3-1.6-0.1-2.1,0.4c-0.5,0.4-0.3,1.5-0.6,2.1
					c-0.3,0.6-1.3,0.9-1.5,1.6c-0.1,0.7,0.6,1.4,0.7,2.1c0.1,0.7-0.6,1.5-0.3,2.2c0.3,0.6,1.3,0.7,1.8,1.3c0.4,0.5,0.4,1.6,1,1.9
					c0.6,0.3,1.5-0.2,2.2,0c0.7,0.1,1.3,1,1.9,0.9c0.7-0.1,1.1-1,1.7-1.3c0.6-0.3,1.6,0.1,2.1-0.4c0.5-0.4,0.3-1.5,0.6-2.1
					c0.3-0.6,1.3-0.9,1.5-1.6C38.1,31.5,37.3,30.8,37.2,30.1z"/>
			</g>
		</g>
		<g class="st7">
			<g>
				<path class="st8" d="M37.9,32.3c0.1-0.7-0.6-1.4-0.7-2.1c-0.1-0.7,0.6-1.5,0.3-2.2c-0.3-0.6-1.3-0.7-1.8-1.3
					c-0.4-0.5-0.4-1.6-1-1.9c-0.6-0.3-1.5,0.2-2.2,0c-0.7-0.1-1.3-1-1.9-0.9c-0.7,0.1-1.1,1-1.7,1.3c-0.6,0.3-1.6-0.1-2.1,0.4
					c-0.2,0.2-0.3,0.4-0.3,0.6c0.5-0.4,1.5-0.1,2.1-0.4c0.6-0.3,1.1-1.2,1.7-1.3c0.7-0.1,1.3,0.8,1.9,0.9c0.7,0.1,1.6-0.4,2.2,0
					c0.6,0.3,0.6,1.4,1,1.9c0.4,0.5,1.5,0.6,1.8,1.3c0.3,0.6-0.4,1.5-0.3,2.2c0.1,0.6,0.8,1.3,0.7,1.9
					C37.7,32.6,37.8,32.5,37.9,32.3z"/>
			</g>
		</g>
		<g>
			<g>
				<path class="st5" d="M30.7,37.3c-0.3-0.2-0.5-0.4-0.8-0.4c-0.2-0.1-0.6,0-0.9,0.1c-0.5,0.1-1,0.2-1.4-0.1
					c-0.4-0.2-0.6-0.7-0.7-1.2c-0.1-0.3-0.2-0.6-0.4-0.8c-0.2-0.2-0.4-0.3-0.7-0.5c-0.4-0.2-0.9-0.4-1.1-0.9c-0.2-0.4,0-0.9,0.1-1.4
					c0.1-0.3,0.2-0.6,0.2-0.9c0-0.2-0.2-0.5-0.3-0.8c-0.2-0.4-0.5-0.9-0.4-1.4c0.1-0.5,0.5-0.8,0.9-1.1c0.3-0.2,0.5-0.4,0.6-0.6
					c0.1-0.2,0.2-0.5,0.2-0.8c0.1-0.5,0.1-1,0.5-1.3c0.4-0.3,0.9-0.3,1.4-0.3c0.3,0,0.6,0,0.8-0.1c0.2-0.1,0.4-0.3,0.6-0.6
					c0.3-0.4,0.7-0.7,1.2-0.8c0.5,0,0.9,0.2,1.3,0.5c0.3,0.2,0.5,0.4,0.8,0.4c0.2,0.1,0.6,0,0.9-0.1c0.5-0.1,1-0.2,1.4,0.1
					c0.4,0.2,0.6,0.7,0.7,1.2c0.1,0.3,0.2,0.6,0.4,0.8c0.2,0.2,0.4,0.3,0.7,0.5c0.4,0.2,0.9,0.4,1.1,0.9c0.2,0.4,0,0.9-0.1,1.4
					c-0.1,0.3-0.2,0.6-0.2,0.9c0,0.2,0.2,0.5,0.3,0.8c0.2,0.4,0.5,0.9,0.4,1.4l0,0c-0.1,0.5-0.5,0.8-0.9,1.1
					c-0.3,0.2-0.5,0.4-0.6,0.6c-0.1,0.2-0.2,0.5-0.2,0.8c-0.1,0.5-0.1,1-0.5,1.3c-0.4,0.3-0.9,0.3-1.4,0.3c-0.3,0-0.6,0-0.8,0.1
					c-0.2,0.1-0.4,0.3-0.6,0.6c-0.3,0.4-0.7,0.7-1.2,0.8c0,0-0.1,0-0.1,0C31.5,37.8,31.1,37.6,30.7,37.3z M37.7,32.1
					c0.1-0.3-0.1-0.6-0.3-1c-0.2-0.3-0.3-0.6-0.4-1c0-0.4,0.1-0.7,0.2-1.1c0.1-0.4,0.2-0.8,0.1-1c-0.1-0.3-0.5-0.4-0.8-0.6
					c-0.3-0.2-0.7-0.3-0.9-0.6c-0.2-0.3-0.3-0.6-0.5-1c-0.1-0.4-0.3-0.8-0.5-0.9c-0.2-0.1-0.6-0.1-1,0c-0.4,0.1-0.7,0.1-1.1,0.1
					c-0.4-0.1-0.7-0.3-1-0.5c-0.3-0.2-0.6-0.4-0.9-0.4c-0.3,0-0.5,0.3-0.8,0.6c-0.2,0.3-0.5,0.5-0.8,0.7c-0.3,0.1-0.7,0.1-1.1,0.1
					c-0.4,0-0.8,0-1,0.2c-0.2,0.2-0.3,0.6-0.3,1c0,0.4-0.1,0.7-0.3,1.1c-0.2,0.3-0.5,0.5-0.8,0.7c-0.3,0.2-0.6,0.5-0.7,0.8
					c-0.1,0.3,0.1,0.6,0.3,1c0.2,0.3,0.3,0.6,0.4,1c0,0.4-0.1,0.7-0.2,1.1c-0.1,0.4-0.2,0.8-0.1,1c0.1,0.3,0.5,0.4,0.8,0.6
					c0.3,0.2,0.7,0.3,0.9,0.6c0.2,0.3,0.3,0.6,0.5,1c0.1,0.4,0.3,0.8,0.5,0.9c0.2,0.1,0.6,0.1,1,0c0.4-0.1,0.7-0.1,1.1-0.1
					s0.7,0.3,1,0.5c0.3,0.2,0.6,0.4,0.9,0.4c0.3,0,0.5-0.3,0.8-0.6c0.2-0.3,0.5-0.5,0.8-0.7c0.3-0.1,0.7-0.1,1.1-0.1
					c0.4,0,0.8,0,1-0.2c0.2-0.2,0.3-0.6,0.3-1c0-0.4,0.1-0.7,0.3-1.1c0.2-0.3,0.5-0.5,0.8-0.7C37.3,32.6,37.6,32.4,37.7,32.1
					L37.7,32.1z"/>
			</g>
		</g>
		<g class="st18">
			<g>
				<ellipse class="st22" cx="22.2" cy="35.4" rx="0.5" ry="0.4"/>
			</g>
		</g>
		<g>
			<g>
				<path class="st23" d="M12,36L12,36c0-0.1,0-0.2,0-0.3c0-0.3,0.1-0.7,0.2-1c2-5.7,6.4-10.1,11.8-10.1c4.9,0,9.2,3.5,11.3,8.5l0,0
					c0.5,1.2,0.9,2.4,1.1,3.7v0c0,0.1,0,0.2,0,0.3c0,0,0,0,0,0c0,0.2,0.1,0.4,0.2,0.6c0,0,0,0,0,0c0,0,0,0.1,0,0.1c0,0,0,0,0,0.1
					c0,0,0,0.1,0,0.1c0,0,0,0,0,0c0,0,0,0.1,0,0.1c0,0,0,0,0,0c0,0,0,0,0,0.1c0,0,0,0,0,0.1c0,0,0,0.1,0,0.1
					c0.1,0.2,0.2,0.4,0.3,0.5c0,0,0,0.1,0.1,0.1c0,0,0,0,0,0.1c0,0,0,0,0,0.1c0,0,0,0,0,0.1c0,0,0,0,0.1,0.1c0,0,0,0,0,0
					c0,0,0,0,0,0c0,0,0,0,0.1,0.1c0,0,0.1,0.1,0.1,0.1c0,0,0,0,0,0c0,0,0.1,0.1,0.1,0.1c0,0,0,0,0,0c0,0,0,0,0.1,0c0,0,0,0,0.1,0
					c0,0,0,0,0.1,0c0,0,0,0,0.1,0c0.2,0.1,0.3,0.2,0.5,0.3c0,0,0,0,0.1,0c0.1,0,0.2,0.1,0.3,0.1c0,0,0,0,0.1,0c0,0,0.1,0,0.1,0
					c0,0,0,0,0.1,0c0,0,0,0,0,0c0,0,0,0,0.1,0c0,0,0,0,0.1,0c0.1,0,0.2,0,0.3,0c0,0,0,0,0.1,0c0,0,0.1,0,0.1,0h-4.2l0,0H15.4
					c-0.1,0-0.2,0-0.3,0c-0.1,0-0.1,0-0.2,0c-0.3-0.1-0.6-0.1-0.8-0.3c0,0-0.1,0-0.1-0.1c-0.1,0-0.2-0.1-0.2-0.1
					c0,0-0.1-0.1-0.1-0.1c-0.1-0.1-0.2-0.1-0.3-0.2c0,0-0.1-0.1-0.1-0.1c0,0,0,0,0,0c0,0-0.1-0.1-0.1-0.1c0,0-0.1-0.1-0.1-0.1
					c0,0-0.1-0.1-0.1-0.1c-0.1-0.2-0.3-0.4-0.4-0.6c0-0.1-0.1-0.1-0.1-0.2c-0.1-0.1-0.1-0.3-0.2-0.4c-0.2-0.5-0.2-1-0.2-1.5
					C12,36.2,12,36.1,12,36z"/>
			</g>
		</g>
		<g class="st7">
			<g>
				<path class="st8" d="M12,36L12,36c0-0.1,0-0.2,0-0.3c0-0.3,0.1-0.7,0.2-1c2-5.7,6.4-10.1,11.8-10.1c4.9,0,9.2,3.5,11.3,8.5l0,0
					c0.5,1.2,0.9,2.4,1.1,3.7v0c0,0.1,0,0.2,0,0.3c0,0,0,0,0,0c0,0,0,0.1,0,0.1c0,0-0.1,0-0.1,0c-0.2-1.2-0.6-2.3-1-3.3l0,0
					c-2.1-5.1-6.4-8.5-11.3-8.5c-5.4,0-9.8,4.4-11.8,10.1c-0.1,0.4-0.2,0.7-0.2,1c0,0.1,0,0.1,0,0.2c0-0.2,0-0.3,0-0.5
					C12,36.2,12,36.1,12,36z"/>
			</g>
		</g>
		<g class="st12">
			<g>
				<path class="st13" d="M12.3,34.7c0.1-0.3,0.1,0,0,0.3C12.3,34.9,12.3,34.8,12.3,34.7z"/>
			</g>
		</g>
		<g>
			<g>
				<path class="st5" d="M35.5,40.6H15.4c-1.1,0-2.2-0.6-2.9-1.6c-0.9-1.2-1.1-2.9-0.5-4.4c1-3,2.6-5.5,4.7-7.3c2.2-1.9,4.7-3,7.4-3
					c3,0,5.9,1.3,8.2,3.6c2.3,2.3,3.8,5.4,4.5,8.9c0,0,0,0,0,0c0,0.1,0,0.2,0,0.2c0,0,0,0,0,0v0c0.3,1.7,1.6,2.9,3,2.9
					c0.2,0,0.3,0.1,0.3,0.3s-0.1,0.3-0.3,0.3L35.5,40.6C35.5,40.6,35.5,40.6,35.5,40.6z M36.3,37.2C36.3,37.2,36.3,37.2,36.3,37.2
					c0-0.1,0-0.2,0-0.3c0,0,0,0,0,0c-1.3-7-6.3-12-12.1-12c-5,0-9.5,3.9-11.6,9.9c-0.5,1.4-0.3,2.8,0.5,3.9c0.6,0.8,1.5,1.3,2.4,1.3
					h20.1c0,0,0,0,0,0H38C37.2,39.4,36.5,38.4,36.3,37.2z M36.8,37.1L36.8,37.1L36.8,37.1z M36.8,37.1
					C36.8,37.1,36.8,37.1,36.8,37.1C36.8,37.1,36.8,37.1,36.8,37.1z"/>
			</g>
		</g>
		<g class="st12">
			<g>
				<path class="st8" d="M31.3,29.9c0.9,1.1,1.1,2.4,0.6,2.9c-0.6,0.5-1-0.7-1.9-1.8c-0.9-1.1-1.9-1.8-1.3-2.3
					C29.2,28.2,30.4,28.8,31.3,29.9z"/>
			</g>
		</g>
		<g class="st12">
			<g>
				<circle class="st13" cx="17.3" cy="30.9" r="0.2"/>
			</g>
		</g>
		<g class="st12">
			<g>
				<circle class="st13" cx="33.4" cy="35" r="0.2"/>
			</g>
		</g>
		<g class="st12">
			<g>
				<circle class="st13" cx="18.7" cy="35.2" r="0.2"/>
			</g>
		</g>
		<g class="st12">
			<g>
				<circle class="st13" cx="30.8" cy="38.2" r="0.2"/>
			</g>
		</g>
		<g class="st12">
			<g>
				<circle class="st13" cx="26.6" cy="26.8" r="0.2"/>
			</g>
		</g>
		<g class="st12">
			<g>
				<circle class="st13" cx="24.1" cy="30.2" r="0.2"/>
			</g>
		</g>
		<g class="st12">
			<g>
				<circle class="st13" cx="27.2" cy="37.1" r="0.2"/>
			</g>
		</g>
		<g class="st12">
			<g>
				<circle class="st13" cx="21.8" cy="28.3" r="0.2"/>
			</g>
		</g>
		<g class="st12">
			<g>
				<ellipse class="st13" cx="18.4" cy="30" rx="0.3" ry="0.3"/>
			</g>
		</g>
		<g class="st12">
			<g>
				<ellipse class="st13" cx="14.1" cy="37.5" rx="0.3" ry="0.3"/>
			</g>
		</g>
		<g class="st12">
			<g>
				<ellipse class="st13" cx="21.7" cy="38.8" rx="0.3" ry="0.3"/>
			</g>
		</g>
		<g>
			<g>
				<g>
					<g>
						<path class="st5" d="M19.7,34.2c0.6,0,1.1-0.8,1.1-1.7c0-0.9-0.6-1.7-1.2-1.6c-0.6,0-1.1,0.8-1.1,1.7
							C18.5,33.5,19.1,34.2,19.7,34.2z"/>
					</g>
				</g>
			</g>
			<g>
				<g>
					<path class="st8" d="M19.9,32.8c0.2,0,0.4-0.3,0.4-0.6c0-0.3-0.2-0.6-0.4-0.6c-0.2,0-0.4,0.3-0.4,0.6
						C19.5,32.5,19.7,32.8,19.9,32.8z"/>
				</g>
				<g>
					<path class="st5" d="M19.5,32.2L19.5,32.2c0-0.4,0.2-0.7,0.4-0.7c0.1,0,0.2,0.1,0.3,0.2c0.1,0.1,0.1,0.3,0.1,0.5
						c0,0.4-0.2,0.7-0.4,0.7c0,0,0,0,0,0C19.7,32.8,19.5,32.5,19.5,32.2z M19.9,31.6c-0.2,0-0.4,0.3-0.3,0.6l0,0
						c0,0.3,0.2,0.6,0.4,0.6c0.2,0,0.4-0.3,0.3-0.6c0-0.2-0.1-0.3-0.1-0.4C20.1,31.6,20,31.6,19.9,31.6
						C19.9,31.6,19.9,31.6,19.9,31.6z"/>
				</g>
			</g>
			<g>
				<g>
					<g>
						<path class="st5" d="M24.7,33.2c0,1.1-0.7,2.3-1.5,2.3c-0.8,0-1.3-1.2-1.3-2.4L24.7,33.2z"/>
					</g>
				</g>
				<g>
					<g>
						<path class="st24" d="M23.3,35.5c0.4,0,0.8-0.4,1.1-0.9c-0.3-0.3-0.7-0.5-1.1-0.5c-0.4,0-0.8,0.1-1.1,0.4
							C22.4,35.1,22.8,35.5,23.3,35.5z"/>
					</g>
				</g>
				<g>
					<g>
						<path class="st5" d="M23.3,35.8c-0.5,0-0.9-0.3-1.3-0.9c-0.3-0.5-0.4-1.1-0.4-1.8c0-0.2,0.2-0.3,0.3-0.3c0,0,0,0,0,0l2.8,0
							c0.1,0,0.2,0,0.2,0.1c0.1,0.1,0.1,0.2,0.1,0.2C25.1,34.4,24.3,35.8,23.3,35.8C23.3,35.8,23.3,35.8,23.3,35.8z M22.3,33.5
							c0,0.4,0.2,0.8,0.3,1.1c0.2,0.4,0.4,0.6,0.7,0.6c0,0,0,0,0,0c0.5,0,1-0.8,1.1-1.7L22.3,33.5z"/>
					</g>
				</g>
			</g>
			<g>
				<g>
					<g>
						<path class="st5" d="M27.2,34.4c-0.6,0-1.1-0.8-1.1-1.7c0-0.9,0.6-1.7,1.2-1.6c0.6,0,1.1,0.8,1.1,1.7
							C28.3,33.7,27.8,34.4,27.2,34.4z"/>
					</g>
				</g>
			</g>
			<g>
				<g>
					<path class="st8" d="M26.9,33c-0.2,0-0.4-0.3-0.4-0.6c0-0.3,0.2-0.6,0.4-0.6c0.2,0,0.4,0.3,0.4,0.6C27.3,32.7,27.2,33,26.9,33z
						"/>
				</g>
				<g>
					<path class="st5" d="M26.9,33c-0.2,0-0.4-0.3-0.4-0.7c0-0.2,0.1-0.3,0.1-0.5c0.1-0.1,0.2-0.2,0.3-0.2c0.2,0,0.4,0.3,0.4,0.7
						l0,0C27.4,32.7,27.2,33,26.9,33C26.9,33,26.9,33,26.9,33z M27.3,32.3c0-0.3-0.1-0.6-0.3-0.6c-0.1,0-0.2,0.1-0.3,0.2
						c-0.1,0.1-0.1,0.3-0.1,0.4c0,0.3,0.1,0.6,0.3,0.6C27.1,32.9,27.3,32.7,27.3,32.3L27.3,32.3z"/>
				</g>
			</g>
		</g>
	</g>
</g>
</svg>
