<?xml version="1.0" encoding="utf-8"?>
<!-- Generator: Adobe Illustrator 24.3.0, SVG Export Plug-In . SVG Version: 6.00 Build 0)  -->
<svg version="1.1" id="Layer_1" xmlns:v="https://vecta.io/nano"
	 xmlns="http://www.w3.org/2000/svg" xmlns:xlink="http://www.w3.org/1999/xlink" x="0px" y="0px" viewBox="0 0 202 134"
	 style="enable-background:new 0 0 202 134;" xml:space="preserve">
<style type="text/css">
	.st0{opacity:0.9;clip-path:url(#SVGID_2_);}
	.st1{opacity:0.5;fill:#D6AEA0;enable-background:new    ;}
	.st2{fill:#EE3D33;}
	.st3{fill:#4E151A;}
	.st4{opacity:0.4;}
	.st5{fill:#7F0000;}
	.st6{fill:#F3DFAE;}
	.st7{fill:#F8B879;}
	.st8{fill:#350E29;}
	.st9{fill:#E83C48;}
	.st10{opacity:0.55;}
	.st11{fill:#FFFFFF;}
	.st12{opacity:0.16;}
	.st13{fill:#6B184E;}
	.st14{fill:#D93541;}
	.st15{opacity:0.25;}
	.st16{fill:#6D1837;}
	.st17{fill:#FEC92B;}
	.st18{fill:none;}
	.st19{fill:#D76630;}
	.st20{fill:#611840;}
	.st21{opacity:0.3;}
	.st22{opacity:0.65;}
	.st23{fill:#72A88E;}
	.st24{fill:#85BE54;}
	.st25{fill:#E66E5F;}
	.st26{fill:#FAB615;}
</style>
<g>
	<defs>
		<rect id="SVGID_1_" y="0" width="202" height="133.7"/>
	</defs>
	<clipPath id="SVGID_2_">
		<use xlink:href="#SVGID_1_"  style="overflow:visible;"/>
	</clipPath>
	<g class="st0">
		<g>
			<path class="st1" d="M48.8,22.1c-0.2-1-1.7-1-1.8,0L46,28.3c-0.1,0.4-0.4,0.7-0.8,0.8L39,30c-1,0.2-1,1.7,0,1.8l6.2,0.9
				c0.4,0.1,0.7,0.4,0.8,0.8l0.9,6.2c0.2,1,1.7,1,1.8,0l0.9-6.2c0.1-0.4,0.4-0.7,0.8-0.8l6.2-0.9c1-0.2,1-1.7,0-1.8l-6.2-0.9
				c-0.4-0.1-0.7-0.4-0.8-0.8C49.7,28.3,48.8,22.1,48.8,22.1z M183.4,85.6c-0.2-1-1.7-1-1.8,0l-0.9,6.2c-0.1,0.4-0.4,0.7-0.8,0.8
				l-6.2,0.9c-1,0.2-1,1.7,0,1.8l6.2,0.9c0.4,0.1,0.7,0.4,0.8,0.8l0.9,6.2c0.2,1,1.7,1,1.8,0l0.9-6.2c0.1-0.4,0.4-0.7,0.8-0.8
				l6.2-0.9c1-0.2,1-1.7,0-1.8l-6.2-0.9c-0.4-0.1-0.7-0.4-0.8-0.8L183.4,85.6L183.4,85.6z M86,7.3c0.2-1,1.7-1,1.8,0l0.3,2
				c0.1,0.4,0.4,0.7,0.8,0.8l2,0.3c1,0.2,1,1.7,0,1.8l-2,0.3c-0.4,0.1-0.7,0.4-0.8,0.8l-0.3,2c-0.2,1-1.7,1-1.8,0l-0.3-2
				c-0.1-0.4-0.4-0.7-0.8-0.8l-2-0.3c-1-0.2-1-1.7,0-1.8l2-0.3c0.4-0.1,0.7-0.4,0.8-0.8C85.7,9.3,86,7.3,86,7.3z"/>
		</g>
	</g>
</g>
<g>
	<g>
		<path class="st2" d="M49.8,115.9c12.1,4.9,24.3,7.5,34.3,7.4c10.3-0.1,17.1-3.1,19.2-8.5c2.2-5.3-0.7-12.2-8-19.5
			c-7.1-7-17.7-13.6-29.8-18.5c-12.1-4.9-24.3-7.5-34.3-7.4C21,69.6,14.2,72.6,12,78c-2.2,5.3,0.7,12.2,8,19.5
			C27.1,104.5,37.7,111,49.8,115.9z"/>
		<path class="st3" d="M65.2,77.6c24.8,10,41.5,26.5,37.3,36.9c-4.2,10.4-27.7,10.6-52.4,0.6c-24.8-10-41.5-26.5-37.3-36.9
			C17,67.9,40.4,67.6,65.2,77.6 M65.8,76.1c-12.2-4.9-24.5-7.6-34.6-7.4c-10.6,0.1-17.7,3.3-20,9C9,83.3,11.9,90.5,19.4,98
			c7.2,7.1,17.9,13.7,30,18.7c12.2,4.9,24.5,7.6,34.6,7.4c10.6-0.1,17.7-3.3,20-9c2.3-5.7-0.6-12.9-8.2-20.3
			C88.7,87.7,78,81.1,65.8,76.1L65.8,76.1z"/>
	</g>
	<g>
		<path class="st2" d="M52.3,109.7c14.7,5.9,29.4,9.6,41.2,10.2c12.2,0.7,20.1-1.9,22.3-7.3c2.2-5.4-1.7-12.8-10.9-20.8
			c-9-7.8-22-15.3-36.8-21.3c-14.7-5.9-29.4-9.6-41.2-10.2c-12.2-0.7-20.1,1.9-22.3,7.3C2.4,73,6.3,80.4,15.5,88.4
			C24.5,96.2,37.6,103.7,52.3,109.7z"/>
		<path class="st3" d="M67.8,71.4c30.2,12.2,51.4,30.5,47.2,40.9c-4.2,10.4-32.1,8.8-62.3-3.4C22.4,96.6,1.2,78.3,5.4,68
			C9.6,57.6,37.5,59.1,67.8,71.4 M68.4,69.7c-14.8-6-29.6-9.6-41.5-10.3C21,59.1,16,59.5,12.1,60.7C7.8,62,5,64.2,3.7,67.3
			C2.5,70.4,3,73.9,5.2,77.9c2,3.5,5.2,7.3,9.7,11.2c9.1,7.8,22.2,15.5,37,21.4c14.8,6,29.6,9.6,41.5,10.3
			c5.9,0.3,10.9-0.1,14.8-1.3c4.3-1.3,7.2-3.5,8.4-6.6c1.2-3.1,0.7-6.6-1.5-10.6c-2-3.5-5.2-7.3-9.7-11.2
			C96.4,83.3,83.2,75.7,68.4,69.7L68.4,69.7z"/>
	</g>
	<g class="st4">
		<path class="st5" d="M24.3,61.1c-6.6,0.7-11.2,2.9-12.7,6.6c-4.2,10.4,16.9,28.7,47.2,40.9c16.3,6.6,31.9,10.1,43.5,10.2
			c-11.8,1.3-30.2-2.2-49.6-10C22.4,96.6,1.2,78.3,5.4,68C7.4,63.2,14.3,61,24.3,61.1z"/>
	</g>
	<g>
		<path class="st6" d="M27.2,88.8c-6.8-5.9-9.6-11.3-8-15.2c1.6-3.9,7.4-5.8,16.3-5.3c8.8,0.5,19.6,3.2,30.4,7.5
			c10.9,4.4,20.5,10,27.1,15.7c6.8,5.9,9.6,11.3,8,15.2c-1.6,3.9-7.4,5.8-16.3,5.3c-8.8-0.5-19.6-3.2-30.4-7.5
			C43.5,100.1,33.9,94.5,27.2,88.8z M24.6,75.8c-2.4,5.9,11.9,17.4,31.2,25.2c19.3,7.8,37.6,9.4,39.9,3.5
			c2.4-5.9-11.9-17.4-31.2-25.2C45.3,71.5,27,69.9,24.6,75.8z"/>
		<path class="st3" d="M65.8,76.2c22.4,9,38,22.6,34.9,30.2c-3.1,7.7-23.7,6.5-46.1-2.5c-22.4-9-38-22.6-34.9-30.2
			C22.8,66.1,43.4,67.2,65.8,76.2 M55.6,101.5c19.9,8,38.1,9.5,40.6,3.2c2.5-6.3-11.5-17.9-31.4-25.9c-19.9-8-38.1-9.5-40.6-3.2
			C21.6,81.8,35.7,93.4,55.6,101.5 M66.2,75.2c-10.9-4.4-21.8-7.1-30.6-7.6c-9.2-0.5-15.2,1.5-16.9,5.7c-1.7,4.2,1.2,9.8,8.2,15.8
			c6.7,5.8,16.4,11.4,27.3,15.8c10.9,4.4,21.8,7.1,30.6,7.6c9.2,0.5,15.2-1.5,16.9-5.7c1.7-4.2-1.2-9.8-8.2-15.8
			C86.8,85.3,77.1,79.7,66.2,75.2L66.2,75.2z M56,100.5c-9.5-3.8-18-8.6-23.9-13.5c-5.4-4.4-8-8.6-7-11.1c1-2.5,5.8-3.6,12.7-3.1
			c7.6,0.6,17,3,26.5,6.9c9.5,3.8,18,8.6,23.9,13.5c5.4,4.4,8,8.6,7,11.1c-1,2.5-5.8,3.6-12.7,3.1C74.9,106.8,65.5,104.3,56,100.5
			L56,100.5z"/>
	</g>
</g>
<g>
	<g>
		<g>
			<g>
				<path class="st7" d="M190.7,51l-20,32.6c-1,1.6-3.4,1.7-5.2,0.3c-10.3-8.3-14.1-21.5-8.2-31s19.3-12.1,31.3-6.6
					C190.7,47.1,191.7,49.4,190.7,51z"/>
			</g>
		</g>
		<g>
			<g>
				<path class="st8" d="M191.2,51.2l-20,32.6c-0.5,0.8-1.3,1.3-2.2,1.4c-1.2,0.2-2.6-0.2-3.7-1c-5.1-4.1-8.8-9.5-10.3-15.3
					c-1.6-5.8-0.9-11.6,2-16.3c2.9-4.7,7.7-7.9,13.6-9.2c5.8-1.2,12.3-0.4,18.3,2.3c1.3,0.6,2.2,1.6,2.6,2.8
					C191.7,49.5,191.6,50.5,191.2,51.2z M157.7,53.1c-5.7,9.2-2.3,22,8.1,30.3c0.9,0.7,2,1,2.9,0.8c0.7-0.1,1.2-0.5,1.6-1l20-32.6
					c0.3-0.5,0.4-1.2,0.2-1.8c-0.3-0.9-1.1-1.8-2.1-2.2C176.3,41.2,163.4,43.9,157.7,53.1z"/>
			</g>
		</g>
		<g>
			<g>
				<circle class="st9" cx="165.2" cy="43.2" r="5.4"/>
			</g>
		</g>
		<g class="st10">
			<g>
				<path class="st11" d="M168.9,39.3c-0.2-0.1-0.4-0.2-0.5-0.3c-2.7-1.2-5.9,0-7.1,2.7c-1,2.1-0.4,4.6,1.2,6.1
					c-2.3-1.4-3.3-4.3-2.2-6.8c1.2-2.7,4.4-3.9,7.1-2.7C168,38.6,168.5,38.9,168.9,39.3z"/>
			</g>
		</g>
		<g>
			<g>
				<path class="st8" d="M170.2,46.3c-0.7,1.1-1.7,1.9-2.9,2.4c-1.5,0.6-3.1,0.5-4.5-0.1c-1.4-0.6-2.5-1.8-3.1-3.3s-0.5-3.1,0.1-4.5
					c0.6-1.4,1.8-2.5,3.3-3.1c1.5-0.6,3.1-0.5,4.5,0.1c1.4,0.6,2.5,1.8,3.1,3.3c0.6,1.5,0.5,3.1-0.1,4.5
					C170.5,45.9,170.3,46.1,170.2,46.3z M161.1,40.6c-0.1,0.2-0.2,0.4-0.3,0.6c-0.5,1.2-0.6,2.5-0.1,3.7c0.5,1.2,1.4,2.2,2.6,2.7
					c1.2,0.5,2.5,0.6,3.7,0.1c1.2-0.5,2.2-1.4,2.7-2.6c0.5-1.2,0.6-2.5,0.1-3.7c-0.5-1.2-1.4-2.2-2.6-2.7c-1.2-0.5-2.5-0.6-3.7-0.1
					C162.5,39,161.6,39.7,161.1,40.6z"/>
			</g>
		</g>
		<g class="st12">
			<g>
				<path class="st13" d="M190.7,51l-20,32.6c-1,1.6-3.4,1.7-5.2,0.3c-10.3-8.3-14.1-21.5-8.2-31s19.3-12.1,31.3-6.6
					C190.7,47.1,191.7,49.4,190.7,51z"/>
			</g>
		</g>
		<g>
			<g>
				<circle class="st14" cx="161.5" cy="71" r="6.7"/>
			</g>
		</g>
		<g>
			<g>
				<circle class="st9" cx="161.5" cy="71" r="6.7"/>
			</g>
		</g>
		<g class="st15">
			<g>
				<path class="st16" d="M165,65.3c3.1,1.9,4.1,6,2.2,9.2c-1.9,3.1-6,4.1-9.2,2.2c-0.6-0.4-1.1-0.8-1.6-1.3c2.8,0.7,5.8-0.4,7.3-3
					c1.6-2.5,1.2-5.7-0.6-7.8C163.8,64.7,164.4,65,165,65.3z"/>
			</g>
		</g>
		<g class="st10">
			<g>
				<path class="st11" d="M166.7,66.8c-0.2-0.2-0.4-0.3-0.6-0.4c-3.1-1.9-7.2-0.9-9.2,2.2c-1.5,2.5-1.2,5.6,0.5,7.7
					c-2.6-2.1-3.4-5.8-1.6-8.7c1.9-3.1,6-4.1,9.2-2.2C165.6,65.7,166.2,66.2,166.7,66.8z"/>
			</g>
		</g>
		<g>
			<g>
				<path class="st8" d="M167.6,74.8c-2.1,3.4-6.5,4.4-9.8,2.4c-3.4-2.1-4.4-6.5-2.4-9.8c2.1-3.4,6.5-4.4,9.8-2.4
					C168.6,67,169.7,71.4,167.6,74.8z M156.2,67.8c-1.8,2.9-0.9,6.7,2,8.5c2.9,1.8,6.7,0.9,8.5-2s0.9-6.7-2-8.5
					C161.8,64,158,64.9,156.2,67.8z"/>
			</g>
		</g>
		<g>
			<g>
				<path class="st17" d="M168.4,53.3l-4.5,4.6c-0.8,0.9-2.2,0.9-3.1,0l-5.8-5.6c-0.9-0.8-0.9-2.2,0-3.1l4.5-4.6
					c0.8-0.9,2.2-0.9,3.1,0l5.8,5.6C169.2,51,169.2,52.4,168.4,53.3z"/>
			</g>
		</g>
		<g class="st10">
			<g>
				<path class="st11" d="M155.7,48.4c-0.8,0.9-0.8,2.3,0,3.1l5.8,5.6c0.9,0.8,2.3,0.8,3.1,0l-0.8,0.8c-0.8,0.9-2.2,0.9-3.1,0
					l-5.8-5.6c-0.9-0.8-0.9-2.2,0-3.1L155.7,48.4z"/>
			</g>
		</g>
		<g>
			<g>
				<path class="st18" d="M168.4,53.3l-4.5,4.6c-0.8,0.9-2.2,0.9-3.1,0l-5.8-5.6c-0.9-0.8-0.9-2.2,0-3.1l4.5-4.6
					c0.8-0.9,2.2-0.9,3.1,0l5.8,5.6C169.2,51,169.2,52.4,168.4,53.3z"/>
			</g>
		</g>
		<g>
			<g>
				<path class="st8" d="M169.1,53.2c-0.1,0.2-0.2,0.3-0.4,0.5l0,0l-4.5,4.6c-1,1.1-2.7,1.1-3.8,0.1l-5.8-5.6
					c-1.1-1-1.1-2.7-0.1-3.8l4.5-4.6c1-1.1,2.7-1.1,3.8-0.1l5.8,5.6C169.6,50.7,169.7,52.1,169.1,53.2z M168,53
					c0.3-0.3,0.5-0.8,0.5-1.2c0-0.5-0.2-0.9-0.5-1.2l-5.8-5.6c-0.7-0.7-1.8-0.6-2.4,0l-4.5,4.6c-0.3,0.3-0.5,0.8-0.5,1.2
					c0,0.5,0.2,0.9,0.5,1.2l5.8,5.6c0.7,0.7,1.8,0.6,2.4,0L168,53z"/>
			</g>
		</g>
		<g class="st15">
			<g>
				<path class="st13" d="M165.9,69.5c-0.6-0.3-1.3-0.5-1.9-0.7l0.1-0.3L165.9,69.5z"/>
			</g>
		</g>
		<g>
			<g>
				<g>
					<path class="st19" d="M162.9,71.5c-1.1,0.8-1.4,2.8,0,3.8c-0.4,0.3-0.7,0.9-0.5,1.4s0.5,1,1.1,1.1c-3.2,6.4,4.8,9.8,8.1,4.5
						l2.6-4.2l-1.7-6.9l-7.4-4L162.9,71.5z"/>
				</g>
				<g>
					<path class="st20" d="M174.2,78.1L174.2,78.1l-2.6,4.2c-1.8,2.9-4.8,3.2-6.8,2.1c-1.7-1-3.1-3.2-1.4-6.6
						c-0.5-0.2-0.9-0.6-1-1.1c-0.1-0.5,0.1-1.1,0.5-1.4c-0.6-0.4-0.9-1.1-0.9-1.8c0-0.8,0.4-1.5,0.9-2l2-4.4c0,0,0,0,0,0
						c0,0,0,0,0.1,0l7.4,4c0,0,0,0,0,0L174.2,78.1C174.2,78,174.2,78,174.2,78.1z M162.6,75.7c-0.2,0.3-0.2,0.6-0.2,1
						c0.1,0.5,0.5,0.9,1,1c0,0,0,0,0,0c0,0,0,0,0,0.1c-1.7,3.3-0.3,5.5,1.4,6.4c1.9,1.1,4.9,0.7,6.6-2L174,78l-1.7-6.8l-7.3-4
						l-2,4.3c0,0,0,0,0,0c-0.5,0.4-0.9,1.1-0.9,1.9c0,0.7,0.3,1.4,0.9,1.8c0,0,0,0,0,0.1c0,0,0,0,0,0.1
						C162.8,75.4,162.7,75.5,162.6,75.7z"/>
				</g>
			</g>
			<g class="st15">
				<g>
					<path class="st16" d="M172.2,71.4l1.8,6.7l-2.5,4.1c-1.9,3.2-5.7,3.1-7.6,1.2c2.4-0.2,4.7-1.5,6.1-3.7c2.3-3.7,1-8.7-2.8-11
						c0,0-0.1-0.1-0.1-0.1L172.2,71.4z"/>
				</g>
			</g>
			<g class="st10">
				<g>
					<path class="st11" d="M163.3,71.1c0.1,0.2,0.2,0.3,0.3,0.5c-0.6,0.8-0.6,2.1,0.1,2.9c0.2,0.2,0.2,0.5,0,0.7
						c-0.2,0.3-0.3,0.7-0.2,1.1c0.1,0.4,0.3,0.7,0.6,0.9c0.2,0.1,0.3,0.4,0.2,0.7c-2,4.8,2.2,7.7,5.7,6.3c-3.7,2.6-9.3-0.7-6.5-6.2
						c-0.5-0.1-0.9-0.6-1.1-1.1c-0.1-0.5,0.1-1.1,0.5-1.4c-1.3-1-1.1-3,0-3.8L163.3,71.1z"/>
				</g>
			</g>
			<g>
				<g>
					<path class="st8" d="M174.5,78.3L174.5,78.3l-2.6,4.2c-1.9,3.1-5.2,3.4-7.4,2.2c-1.9-1.1-3.2-3.5-1.8-6.7
						c-0.4-0.3-0.8-0.7-0.9-1.2c-0.1-0.5,0-1.1,0.3-1.5c-0.5-0.5-0.7-1.2-0.7-1.9c0-0.9,0.4-1.7,1-2.2l2-4.3
						c0.1-0.1,0.2-0.2,0.3-0.3s0.3,0,0.4,0l7.4,4c0.1,0.1,0.2,0.2,0.2,0.3l1.7,6.9C174.6,78,174.6,78.2,174.5,78.3z M163,75.9
						c-0.1,0.2-0.2,0.4-0.1,0.7c0.1,0.3,0.4,0.6,0.7,0.7c0.1,0,0.3,0.1,0.3,0.3c0.1,0.1,0.1,0.3,0,0.4c-1.5,3-0.3,5.1,1.2,5.9
						c1.8,1,4.5,0.7,6.1-1.9l2.5-4l-1.6-6.5l-6.8-3.7l-1.8,3.9c0,0.1-0.1,0.1-0.2,0.2c-0.4,0.3-0.7,0.9-0.7,1.5c0,0.3,0.1,1,0.7,1.4
						c0.1,0.1,0.2,0.2,0.2,0.4c0,0.2-0.1,0.3-0.2,0.4C163.1,75.7,163,75.8,163,75.9z"/>
				</g>
			</g>
		</g>
		<g class="st21">
			<g>
				
					<ellipse transform="matrix(0.5236 -0.852 0.852 0.5236 17.4941 176.7925)" class="st13" cx="166.8" cy="72.8" rx="0.2" ry="0.2"/>
			</g>
		</g>
		<g class="st15">
			<g>
				<path class="st13" d="M166.3,69.8l-0.4-0.2C166,69.6,166.2,69.7,166.3,69.8z"/>
			</g>
		</g>
		<g class="st22">
			<g>
				<path class="st11" d="M179.6,36.5c-0.2-0.1-0.5-0.3-0.6-0.4c-0.6-0.6-0.8-1.6-1.3-2.4c0.1,0,0.1,0,0.2,0.1
					C178.8,34.2,179.1,35.6,179.6,36.5z"/>
			</g>
		</g>
		<g>
			<g>
				<g>
					<path class="st23" d="M185.7,34.3c0.9,0.8,0.5,2.6,1.1,3.6c0.6,1,2.4,1.6,2.6,2.7c0.3,1.2-1.1,2.4-1.2,3.6
						c-0.1,1.2,1,2.7,0.5,3.8c-0.5,1.1-2.3,1.3-3.1,2.2c-0.8,0.9-0.8,2.8-1.8,3.4c-1,0.6-2.7-0.3-3.8,0c-1.2,0.3-2.3,1.8-3.4,1.7
						c-1.2-0.1-2-1.8-3.1-2.3c-1.1-0.5-2.8,0.1-3.8-0.7c-0.9-0.8-0.5-2.6-1.1-3.6c-0.6-1-2.4-1.6-2.6-2.7c-0.3-1.2,1.1-2.4,1.2-3.6
						c0.1-1.2-1-2.7-0.5-3.8c0.5-1.1,2.3-1.3,3.1-2.2c0.8-0.9,0.8-2.8,1.8-3.4c1-0.6,2.7,0.3,3.8,0c1.2-0.3,2.3-1.8,3.4-1.7
						c1.2,0.1,2,1.8,3.1,2.3C183,34.1,184.8,33.5,185.7,34.3z"/>
				</g>
			</g>
			<g>
				<g>
					<path class="st13" d="M189.1,48.5c-0.4,0.6-1.1,1-1.8,1.3c-0.5,0.2-1,0.5-1.3,0.8c-0.3,0.3-0.5,0.9-0.6,1.4
						c-0.3,0.8-0.6,1.7-1.3,2.1c-0.8,0.5-1.7,0.3-2.5,0.1c-0.6-0.1-1.1-0.2-1.5-0.1c-0.4,0.1-0.8,0.4-1.3,0.7c-0.7,0.5-1.4,1-2.3,1
						c-0.9-0.1-1.5-0.7-2.1-1.4c-0.4-0.4-0.8-0.8-1.1-1c-0.4-0.2-0.9-0.2-1.4-0.2c-0.8,0-1.8,0-2.5-0.6c-0.7-0.6-0.8-1.5-0.9-2.4
						c-0.1-0.5-0.1-1.1-0.3-1.4c-0.2-0.4-0.7-0.7-1.1-1c-0.7-0.5-1.4-1.1-1.6-1.9c-0.2-0.9,0.3-1.7,0.7-2.4c0.3-0.5,0.5-1,0.6-1.4
						c0-0.4-0.1-0.9-0.3-1.4c-0.3-0.8-0.5-1.7-0.2-2.5c0.3-0.8,1.1-1.2,1.9-1.5c0.5-0.2,1-0.5,1.3-0.8c0.3-0.3,0.5-0.9,0.6-1.4
						c0.3-0.8,0.6-1.7,1.3-2.1c0.8-0.5,1.7-0.3,2.5-0.1c0.6,0.1,1.1,0.2,1.5,0.1c0.4-0.1,0.8-0.4,1.3-0.7c0.7-0.5,1.4-1,2.3-1
						c0.9,0.1,1.5,0.7,2.1,1.4c0.4,0.4,0.8,0.8,1.1,1c0.4,0.2,0.9,0.2,1.4,0.2c0.8,0,1.8,0,2.5,0.6c0.7,0.6,0.8,1.5,0.9,2.4
						c0.1,0.5,0.1,1.1,0.3,1.4c0.2,0.4,0.7,0.7,1.1,1c0.7,0.5,1.4,1.1,1.6,1.9c0.2,0.9-0.3,1.7-0.7,2.4c-0.3,0.5-0.5,1-0.6,1.4
						c0,0.4,0.1,0.9,0.3,1.4c0.3,0.8,0.5,1.7,0.2,2.5C189.2,48.4,189.2,48.5,189.1,48.5z M185,50.3c0.1-0.1,0.2-0.3,0.3-0.4
						c0.4-0.5,1-0.8,1.6-1.1c0.6-0.3,1.2-0.6,1.4-1c0.2-0.4,0-1.1-0.2-1.7c-0.2-0.6-0.4-1.2-0.3-1.9c0.1-0.6,0.4-1.2,0.7-1.8
						c0.3-0.6,0.6-1.2,0.5-1.7c-0.1-0.4-0.6-0.8-1.2-1.2c-0.5-0.4-1.1-0.8-1.4-1.3c-0.3-0.5-0.4-1.2-0.5-1.8
						c-0.1-0.7-0.2-1.4-0.5-1.7c-0.4-0.3-1-0.3-1.8-0.3c-0.6,0-1.3,0-1.9-0.2c-0.6-0.3-1.1-0.7-1.5-1.2c-0.5-0.5-0.9-1-1.4-1
						c-0.5,0-1,0.3-1.6,0.8c-0.5,0.4-1.1,0.8-1.7,0.9c-0.6,0.1-1.3,0-1.9-0.1c-0.7-0.1-1.4-0.2-1.8,0c-0.4,0.2-0.6,0.8-0.8,1.5
						c-0.2,0.6-0.4,1.3-0.9,1.8c-0.4,0.5-1,0.8-1.6,1.1c-0.6,0.3-1.2,0.6-1.4,1c-0.2,0.4,0,1.1,0.2,1.7c0.2,0.6,0.4,1.2,0.3,1.9
						c-0.1,0.6-0.4,1.2-0.7,1.8c-0.3,0.6-0.6,1.2-0.5,1.7c0.1,0.4,0.6,0.8,1.2,1.2c0.5,0.4,1.1,0.8,1.4,1.3c0.3,0.5,0.4,1.2,0.5,1.8
						c0.1,0.7,0.2,1.4,0.5,1.7c0.4,0.3,1,0.3,1.8,0.3c0.6,0,1.3,0,1.9,0.2c0.6,0.3,1.1,0.7,1.5,1.2c0.5,0.5,0.9,1,1.4,1
						c0.5,0,1-0.3,1.6-0.8c0.5-0.4,1.1-0.8,1.7-0.9c0.6-0.1,1.3,0,1.9,0.1c0.7,0.1,1.4,0.2,1.8,0c0.4-0.2,0.6-0.8,0.8-1.5
						C184.5,51.2,184.7,50.7,185,50.3z"/>
				</g>
			</g>
		</g>
		<g>
			<g>
				<path class="st24" d="M185.7,34.3c0.9,0.8,0.5,2.6,1.1,3.6c0.6,1,2.4,1.6,2.6,2.7c0.3,1.2-1.1,2.4-1.2,3.6
					c-0.1,1.2,1,2.7,0.5,3.8c-0.5,1.1-2.3,1.3-3.1,2.2c-0.8,0.9-0.8,2.8-1.8,3.4c-1,0.6-2.7-0.3-3.8,0c-1.2,0.3-2.3,1.8-3.4,1.7
					c-1.2-0.1-2-1.8-3.1-2.3c-1.1-0.5-2.8,0.1-3.8-0.7c-0.9-0.8-0.5-2.6-1.1-3.6c-0.6-1-2.4-1.6-2.6-2.7c-0.3-1.2,1.1-2.4,1.2-3.6
					c0.1-1.2-1-2.7-0.5-3.8c0.5-1.1,2.3-1.3,3.1-2.2c0.8-0.9,0.8-2.8,1.8-3.4c1-0.6,2.7,0.3,3.8,0c1.2-0.3,2.3-1.8,3.4-1.7
					c1.2,0.1,2,1.8,3.1,2.3C183,34.1,184.8,33.5,185.7,34.3z"/>
			</g>
		</g>
		<g class="st10">
			<g>
				<path class="st11" d="M186.2,35.3c-0.9-0.6-2.6-0.1-3.6-0.5c-1.1-0.5-1.9-2.2-3.1-2.3c-1.2-0.1-2.3,1.4-3.4,1.7
					c-1.1,0.3-2.8-0.7-3.8,0c-1,0.6-1,2.5-1.8,3.4c-0.8,0.9-2.7,1.1-3.1,2.2c-0.5,1.1,0.6,2.6,0.5,3.8c-0.1,1.1-1.4,2.4-1.2,3.5
					c-0.3-0.3-0.6-0.6-0.7-1c-0.3-1.2,1.1-2.4,1.2-3.6c0.1-1.2-1-2.7-0.5-3.8c0.5-1.1,2.3-1.3,3.1-2.2c0.8-0.9,0.8-2.8,1.8-3.4
					c1-0.6,2.7,0.3,3.8,0c1.2-0.3,2.3-1.8,3.4-1.7c1.2,0.1,2,1.8,3.1,2.3c1.1,0.5,2.8-0.1,3.8,0.7C185.9,34.6,186.1,34.9,186.2,35.3
					z"/>
			</g>
		</g>
		<g>
			<g>
				<path class="st8" d="M189.1,48.5c-0.4,0.6-1.1,1-1.8,1.3c-0.5,0.2-1,0.5-1.3,0.8c-0.3,0.3-0.5,0.9-0.7,1.4
					c-0.3,0.8-0.5,1.6-1.3,2.1c-0.7,0.4-1.6,0.3-2.5,0.1c-0.6-0.1-1.1-0.2-1.5-0.1c-0.4,0.1-0.8,0.4-1.3,0.7c-0.7,0.5-1.4,1-2.3,0.9
					c-0.8-0.1-1.5-0.7-2-1.3c-0.4-0.4-0.8-0.8-1.2-1c-0.4-0.2-0.9-0.2-1.4-0.2c-0.8,0-1.8,0-2.4-0.6s-0.8-1.5-0.9-2.3
					c-0.1-0.6-0.1-1.1-0.3-1.4c-0.2-0.4-0.7-0.7-1.1-1c-0.7-0.5-1.4-1-1.6-1.9c-0.2-0.8,0.2-1.6,0.6-2.4c0.3-0.5,0.5-1,0.6-1.4
					c0-0.4-0.1-0.9-0.3-1.5c-0.3-0.8-0.5-1.7-0.2-2.5c0.3-0.8,1.1-1.1,1.9-1.5c0.5-0.2,1-0.5,1.3-0.8c0.3-0.3,0.5-0.9,0.7-1.4
					c0.3-0.8,0.5-1.6,1.3-2.1c0.7-0.4,1.6-0.3,2.5-0.1c0.6,0.1,1.1,0.2,1.5,0.1c0.4-0.1,0.8-0.4,1.3-0.7c0.7-0.5,1.4-1,2.3-0.9
					c0.8,0.1,1.5,0.7,2,1.3c0.4,0.4,0.8,0.8,1.2,1c0.4,0.2,0.9,0.2,1.4,0.2c0.8,0,1.8,0,2.4,0.6c0.7,0.6,0.8,1.5,0.9,2.3
					c0.1,0.6,0.1,1.1,0.3,1.4c0.2,0.4,0.7,0.7,1.1,1c0.7,0.5,1.4,1,1.6,1.9c0.2,0.8-0.2,1.6-0.6,2.4c-0.3,0.5-0.5,1-0.6,1.4
					c0,0.4,0.1,0.9,0.3,1.5c0.3,0.8,0.5,1.7,0.2,2.5C189.2,48.4,189.1,48.4,189.1,48.5z M185,50.3c0.1-0.1,0.2-0.2,0.3-0.4
					c0.4-0.5,1-0.8,1.6-1.1c0.6-0.3,1.2-0.6,1.4-1c0.2-0.5,0-1.1-0.2-1.8c-0.2-0.6-0.4-1.2-0.3-1.8c0.1-0.6,0.4-1.2,0.7-1.8
					c0.3-0.6,0.7-1.2,0.6-1.7c-0.1-0.5-0.6-0.9-1.2-1.3c-0.5-0.4-1.1-0.8-1.4-1.3c-0.3-0.5-0.4-1.2-0.5-1.8
					c-0.1-0.7-0.2-1.4-0.6-1.7c-0.4-0.3-1.1-0.3-1.8-0.3c-0.6,0-1.3,0-1.8-0.2c-0.6-0.2-1-0.7-1.5-1.2c-0.5-0.5-1-1-1.4-1
					c-0.5,0-1,0.3-1.6,0.8c-0.5,0.4-1.1,0.8-1.7,0.9c-0.6,0.1-1.2,0-1.9-0.1c-0.7-0.1-1.4-0.3-1.8,0c-0.4,0.2-0.6,0.9-0.8,1.5
					c-0.2,0.6-0.4,1.3-0.8,1.7c-0.4,0.5-1,0.8-1.6,1.1c-0.6,0.3-1.2,0.6-1.4,1c-0.2,0.5,0,1.1,0.2,1.8c0.2,0.6,0.4,1.2,0.3,1.8
					c-0.1,0.6-0.4,1.2-0.7,1.8c-0.3,0.6-0.7,1.2-0.6,1.7c0.1,0.5,0.6,0.9,1.2,1.3c0.5,0.4,1.1,0.8,1.4,1.3c0.3,0.5,0.4,1.2,0.5,1.8
					c0.1,0.7,0.2,1.4,0.6,1.7c0.4,0.3,1.1,0.3,1.8,0.3c0.6,0,1.3,0,1.8,0.2c0.6,0.2,1,0.7,1.5,1.2c0.5,0.5,1,1,1.4,1
					c0.5,0,1-0.3,1.6-0.8c0.5-0.4,1.1-0.8,1.7-0.9c0.6-0.1,1.2,0,1.9,0.1c0.7,0.1,1.4,0.3,1.8,0c0.4-0.2,0.6-0.9,0.8-1.5
					C184.6,51.2,184.8,50.7,185,50.3z"/>
			</g>
		</g>
		<g>
			<g>
				<g>
					<path class="st23" d="M160.4,73.2c1.1,0.4,2.6-0.8,3.7-0.8c1.2,0,2.6,1.3,3.7,1c1.1-0.3,1.6-2.2,2.5-2.8c1-0.7,2.8-0.4,3.6-1.4
						c0.7-0.9,0-2.6,0.4-3.8c0.4-1.1,2-2.1,2.1-3.2c0-1.2-1.6-2.2-1.9-3.3c-0.3-1.1,0.4-2.8-0.2-3.8c-0.7-1-2.5-0.8-3.5-1.5
						c-0.9-0.7-1.3-2.5-2.4-2.9c-1.1-0.4-2.6,0.8-3.7,0.8c-1.2,0-2.6-1.3-3.7-1c-1.1,0.3-1.6,2.2-2.5,2.8c-1,0.7-2.8,0.4-3.6,1.4
						c-0.7,0.9,0,2.6-0.4,3.8c-0.4,1.1-2,2.1-2.1,3.2c0,1.2,1.6,2.2,1.9,3.3c0.3,1.1-0.4,2.8,0.2,3.8c0.7,1,2.5,0.8,3.5,1.5
						C158.9,70.9,159.3,72.8,160.4,73.2z"/>
				</g>
			</g>
			<g>
				<g>
					<path class="st13" d="M174.5,69.3c0,0.1-0.1,0.1-0.1,0.2c-0.5,0.7-1.5,0.9-2.3,1.1c-0.5,0.1-1.1,0.2-1.4,0.4
						c-0.3,0.2-0.6,0.7-0.9,1.2c-0.4,0.7-0.9,1.5-1.8,1.8c-0.8,0.3-1.6-0.1-2.4-0.5c-0.5-0.2-1-0.5-1.4-0.5c-0.4,0-0.9,0.2-1.4,0.4
						c-0.8,0.3-1.7,0.7-2.5,0.4l0,0c-0.9-0.3-1.3-1.1-1.7-1.9c-0.3-0.5-0.5-0.9-0.8-1.2c-0.3-0.2-0.9-0.4-1.4-0.5
						c-0.8-0.2-1.7-0.4-2.2-1.1c-0.5-0.7-0.4-1.7-0.3-2.5c0.1-0.5,0.1-1.1,0-1.5c-0.1-0.4-0.5-0.8-0.8-1.2c-0.5-0.6-1.1-1.4-1.1-2.3
						c0-0.8,0.6-1.5,1.2-2.1c0.4-0.4,0.8-0.8,0.9-1.2c0.1-0.4,0.1-1,0.1-1.5c-0.1-0.9-0.1-1.7,0.4-2.4c0.5-0.7,1.5-0.9,2.3-1.1
						c0.5-0.1,1.1-0.2,1.4-0.4c0.3-0.2,0.6-0.7,0.9-1.2c0.4-0.7,0.9-1.5,1.8-1.8c0.8-0.3,1.6,0.1,2.4,0.5c0.5,0.2,1,0.5,1.4,0.5
						c0.4,0,0.9-0.2,1.4-0.4c0.8-0.3,1.7-0.7,2.5-0.4c0.9,0.3,1.3,1.1,1.7,1.9c0.3,0.5,0.5,0.9,0.8,1.2c0.3,0.2,0.9,0.4,1.4,0.5
						c0.8,0.2,1.7,0.4,2.2,1.1c0.5,0.7,0.4,1.7,0.3,2.5c-0.1,0.5-0.1,1.1,0,1.5c0.1,0.4,0.5,0.8,0.8,1.2c0.5,0.6,1.1,1.4,1.1,2.3
						c0,0.8-0.6,1.5-1.2,2.1c-0.4,0.4-0.8,0.8-0.9,1.2c-0.1,0.4-0.1,1-0.1,1.5C174.8,67.8,174.9,68.6,174.5,69.3z M160.6,72.7
						c0.5,0.2,1.1-0.1,1.7-0.4c0.6-0.2,1.2-0.5,1.8-0.5c0.6,0,1.3,0.3,1.8,0.6c0.6,0.3,1.2,0.6,1.7,0.4c0.4-0.1,0.8-0.7,1.2-1.3
						c0.3-0.6,0.7-1.1,1.2-1.5c0.5-0.4,1.2-0.5,1.8-0.6c0.7-0.1,1.3-0.3,1.6-0.7c0.3-0.4,0.2-1,0.2-1.7c0-0.7-0.1-1.3,0.1-2
						c0.2-0.6,0.7-1.1,1.1-1.6c0.5-0.5,0.9-1,0.9-1.4c0-0.5-0.4-1-0.9-1.5c-0.4-0.5-0.8-1-1-1.6c-0.2-0.6-0.1-1.3,0-1.9
						c0.1-0.7,0.1-1.4-0.1-1.7c-0.3-0.4-0.9-0.5-1.6-0.7c-0.6-0.2-1.3-0.3-1.8-0.7c-0.5-0.4-0.8-0.9-1.1-1.5
						c-0.4-0.6-0.7-1.2-1.1-1.4c-0.5-0.2-1.1,0.1-1.7,0.4c-0.6,0.2-1.2,0.5-1.8,0.5c-0.6,0-1.3-0.3-1.8-0.6
						c-0.6-0.3-1.2-0.6-1.7-0.4c-0.4,0.1-0.8,0.7-1.2,1.3c-0.3,0.6-0.7,1.1-1.2,1.5c-0.5,0.4-1.2,0.5-1.8,0.6
						c-0.7,0.1-1.3,0.3-1.6,0.7c-0.3,0.4-0.2,1-0.2,1.7c0,0.7,0.1,1.3-0.1,2c-0.2,0.6-0.7,1.1-1.1,1.6c-0.5,0.5-0.9,1-0.9,1.4
						c0,0.5,0.4,1,0.9,1.5c0.4,0.5,0.8,1,1,1.6c0.2,0.6,0.1,1.3,0,1.9c-0.1,0.7-0.1,1.4,0.1,1.7c0.3,0.4,0.9,0.5,1.6,0.7
						c0.6,0.2,1.3,0.3,1.8,0.7c0.5,0.4,0.8,0.9,1.1,1.5C159.8,71.9,160.1,72.5,160.6,72.7L160.6,72.7z"/>
				</g>
			</g>
		</g>
		<g>
			<g>
				<path class="st24" d="M160.4,73.2c1.1,0.4,2.6-0.8,3.7-0.8c1.2,0,2.6,1.3,3.7,1c1.1-0.3,1.6-2.2,2.5-2.8c1-0.7,2.8-0.4,3.6-1.4
					c0.7-0.9,0-2.6,0.4-3.8c0.4-1.1,2-2.1,2.1-3.2c0-1.2-1.6-2.2-1.9-3.3c-0.3-1.1,0.4-2.8-0.2-3.8c-0.7-1-2.5-0.8-3.5-1.5
					c-0.9-0.7-1.3-2.5-2.4-2.9c-1.1-0.4-2.6,0.8-3.7,0.8c-1.2,0-2.6-1.3-3.7-1c-1.1,0.3-1.6,2.2-2.5,2.8c-1,0.7-2.8,0.4-3.6,1.4
					c-0.7,0.9,0,2.6-0.4,3.8c-0.4,1.1-2,2.1-2.1,3.2c0,1.2,1.6,2.2,1.9,3.3c0.3,1.1-0.4,2.8,0.2,3.8c0.7,1,2.5,0.8,3.5,1.5
					C158.9,70.9,159.3,72.8,160.4,73.2z"/>
			</g>
		</g>
		<g class="st10">
			<g>
				<path class="st11" d="M161.7,73.2c-1-0.5-1.4-2.2-2.2-2.9c-1-0.7-2.8-0.6-3.5-1.5c-0.7-1,0.1-2.7-0.2-3.8
					c-0.3-1.1-1.9-2.1-1.9-3.3c0-1.2,1.7-2.1,2.1-3.2c0.4-1.1-0.3-2.9,0.4-3.8c0.7-1,2.6-0.7,3.6-1.4c0.9-0.7,1.4-2.4,2.5-2.8
					c-0.4-0.2-0.8-0.2-1.2-0.1c-1.1,0.3-1.6,2.2-2.5,2.8c-1,0.7-2.8,0.4-3.6,1.4c-0.7,0.9,0,2.6-0.4,3.8c-0.4,1.1-2,2.1-2.1,3.2
					c0,1.2,1.6,2.2,1.9,3.3c0.3,1.1-0.4,2.8,0.2,3.8c0.7,1,2.5,0.8,3.5,1.5c0.9,0.7,1.3,2.5,2.4,2.9
					C160.9,73.3,161.3,73.3,161.7,73.2z"/>
			</g>
		</g>
		<g>
			<g>
				<path class="st8" d="M174.4,69.3c0,0-0.1,0.1-0.1,0.1c-0.5,0.7-1.4,0.9-2.2,1c-0.6,0.1-1.1,0.2-1.4,0.5
					c-0.3,0.2-0.6,0.7-0.9,1.2c-0.5,0.7-0.9,1.5-1.7,1.7c-0.8,0.2-1.6-0.1-2.4-0.5c-0.5-0.2-1-0.5-1.4-0.5c-0.4,0-0.9,0.2-1.4,0.4
					c-0.8,0.3-1.6,0.7-2.5,0.4l0,0c-0.8-0.3-1.3-1.1-1.7-1.8c-0.3-0.5-0.5-0.9-0.9-1.2c-0.3-0.3-0.9-0.4-1.4-0.5
					c-0.8-0.2-1.7-0.4-2.2-1.1c-0.5-0.7-0.4-1.6-0.3-2.4c0.1-0.6,0.1-1.1,0-1.5c-0.1-0.4-0.5-0.8-0.8-1.2c-0.6-0.7-1.1-1.4-1.1-2.2
					c0-0.8,0.6-1.5,1.2-2.1c0.4-0.4,0.8-0.8,0.9-1.3c0.1-0.4,0.1-1,0.1-1.6c-0.1-0.8-0.1-1.7,0.4-2.4c0.5-0.7,1.4-0.9,2.2-1
					c0.6-0.1,1.1-0.2,1.4-0.5c0.3-0.2,0.6-0.7,0.9-1.2c0.5-0.7,0.9-1.5,1.7-1.7c0.8-0.2,1.6,0.1,2.4,0.5c0.5,0.2,1,0.5,1.4,0.5
					c0.4,0,0.9-0.2,1.4-0.4c0.8-0.3,1.7-0.7,2.5-0.4c0.8,0.3,1.3,1.1,1.7,1.8c0.3,0.5,0.5,0.9,0.9,1.2c0.3,0.3,0.9,0.4,1.4,0.5
					c0.8,0.2,1.7,0.4,2.2,1.1c0.5,0.7,0.4,1.6,0.3,2.4c-0.1,0.6-0.1,1.1,0,1.5c0.1,0.4,0.5,0.8,0.8,1.2c0.6,0.7,1.1,1.4,1.1,2.2
					c0,0.8-0.6,1.5-1.2,2.1c-0.4,0.4-0.8,0.8-0.9,1.3c-0.1,0.4-0.1,1-0.1,1.6C174.8,67.8,174.8,68.6,174.4,69.3z M160.6,72.7
					c0.5,0.2,1.1-0.1,1.8-0.4c0.6-0.2,1.2-0.5,1.8-0.5c0.6,0,1.2,0.3,1.8,0.6c0.6,0.3,1.3,0.6,1.7,0.4c0.5-0.1,0.8-0.7,1.2-1.3
					c0.3-0.5,0.7-1.1,1.2-1.5c0.5-0.3,1.1-0.5,1.8-0.6c0.7-0.1,1.4-0.3,1.7-0.7c0.3-0.4,0.2-1,0.2-1.7c0-0.7-0.1-1.3,0.1-1.9
					c0.2-0.6,0.7-1.1,1.1-1.6c0.5-0.5,0.9-1,0.9-1.5c0-0.5-0.4-1-0.9-1.6c-0.4-0.5-0.8-1-1-1.6c-0.2-0.6-0.1-1.3,0-1.9
					c0.1-0.7,0.1-1.4-0.1-1.8c-0.3-0.4-0.9-0.6-1.6-0.7c-0.6-0.2-1.3-0.3-1.8-0.7c-0.5-0.4-0.8-0.9-1.1-1.5
					c-0.4-0.6-0.7-1.2-1.2-1.4c-0.5-0.2-1.1,0.1-1.8,0.4c-0.6,0.2-1.2,0.5-1.8,0.5c-0.6,0-1.2-0.3-1.8-0.6c-0.6-0.3-1.3-0.6-1.7-0.4
					c-0.5,0.1-0.8,0.7-1.2,1.3c-0.3,0.5-0.7,1.1-1.2,1.5c-0.5,0.3-1.1,0.5-1.8,0.6c-0.7,0.1-1.4,0.3-1.7,0.7c-0.3,0.4-0.2,1-0.2,1.7
					c0,0.7,0.1,1.3-0.1,1.9c-0.2,0.6-0.7,1.1-1.1,1.6c-0.5,0.5-0.9,1-0.9,1.5c0,0.5,0.4,1,0.9,1.6c0.4,0.5,0.8,1,1,1.6
					c0.2,0.6,0.1,1.3,0,1.9c-0.1,0.7-0.1,1.4,0.1,1.8c0.3,0.4,0.9,0.6,1.6,0.7c0.6,0.2,1.3,0.3,1.8,0.7c0.5,0.4,0.8,0.9,1.1,1.5
					C159.7,72,160.1,72.6,160.6,72.7L160.6,72.7z"/>
			</g>
		</g>
		<g class="st21">
			<g>
				
					<ellipse transform="matrix(0.5236 -0.852 0.852 0.5236 40.8908 178.0988)" class="st25" cx="179.7" cy="52.5" rx="0.9" ry="0.6"/>
			</g>
		</g>
		<g>
			<g>
				<path class="st26" d="M190.5,38c0.8,0.5,1.5,1.1,2,1.7c0.2,0.2,0.3,0.4,0.5,0.7c0.1,0.1,0.1,0.2,0.2,0.3
					c0.2,0.4,0.4,0.8,0.5,1.1c0,0.1,0.1,0.2,0.1,0.2c0,0.1,0,0.1,0.1,0.2c0,0.1,0,0.1,0.1,0.2c0,0,0,0,0,0.1c0,0.1,0,0.2,0.1,0.3
					c0,0.2,0.1,0.4,0.1,0.6c0,0.1,0,0.2,0,0.3c0,0.2,0,0.3,0,0.5c0,0.1,0,0.2,0,0.2c0,0.5-0.2,1-0.3,1.5c0,0.1-0.1,0.2-0.1,0.3
					c-0.1,0.2-0.2,0.4-0.3,0.5L174.7,77l0,0l-3.9,6.4c0,0,0.1-0.1,0.1-0.1c0,0,0-0.1,0-0.1c0.1-0.2,0.2-0.3,0.2-0.5c0,0,0-0.1,0-0.1
					c0,0,0-0.1,0-0.1c0,0,0,0,0,0c0,0,0-0.1,0-0.1c0,0,0-0.1,0-0.1c0,0,0-0.1,0-0.1c0-0.2,0.1-0.3,0.1-0.5c0,0,0-0.1,0-0.1
					c0-0.3,0.1-0.7,0-1c0,0,0-0.1,0-0.1c0,0,0-0.1,0-0.1c0,0,0-0.1,0-0.1c0,0,0-0.1,0-0.1s0-0.1,0-0.1c0-0.1,0-0.2,0-0.2
					c0,0,0,0,0,0c0-0.1,0-0.1,0-0.2c0-0.1,0-0.1,0-0.2c0,0,0-0.1,0-0.1c0,0,0-0.1,0-0.1c0,0,0-0.1,0-0.1c0,0,0-0.1,0-0.1
					c0,0,0-0.1,0-0.1c0,0,0-0.1,0-0.1c0-0.1,0-0.1-0.1-0.2c-0.1-0.3-0.3-0.7-0.5-1c0-0.1-0.1-0.1-0.1-0.2c0,0,0-0.1-0.1-0.1
					c0,0,0-0.1-0.1-0.1c0,0,0-0.1,0-0.1c0-0.1-0.1-0.1-0.1-0.2c0,0,0,0,0,0c0-0.1-0.1-0.1-0.1-0.2c0,0,0-0.1-0.1-0.1
					c0,0-0.1-0.1-0.1-0.1c0,0,0,0,0,0c-0.2-0.3-0.5-0.6-0.8-0.8c0,0,0,0,0,0c-0.1-0.1-0.2-0.2-0.3-0.3l0,0c-1.7-1.6-3.3-3.3-4.6-5.1
					l0,0c-5.6-7.8-6.9-17.4-2.3-24.8c5-8.1,15.6-10.8,26-8.5c0.6,0.1,1.2,0.3,1.8,0.6c0.2,0.1,0.3,0.1,0.5,0.2l0,0
					C190.2,37.8,190.3,37.9,190.5,38z"/>
			</g>
		</g>
		<g class="st10">
			<g>
				<path class="st11" d="M190.5,38c0.2,0.1,0.5,0.3,0.7,0.5c-0.1-0.1-0.2-0.1-0.3-0.1c-0.5-0.2-1.1-0.4-1.8-0.6
					c-10.4-2.3-21,0.4-26,8.5c-4.5,7.4-3.3,17,2.3,24.8l0,0c1.2,1.6,2.5,3.2,4.1,4.6c-0.1,0.1-0.1,0.1-0.2,0.2
					c-0.1-0.1-0.1-0.1-0.2-0.2c0,0,0,0,0,0c-0.1-0.1-0.2-0.2-0.3-0.3l0,0c-1.7-1.6-3.3-3.3-4.6-5.1l0,0c-5.6-7.8-6.9-17.4-2.3-24.8
					c5-8.1,15.6-10.8,26-8.5c0.6,0.1,1.2,0.3,1.8,0.6c0.2,0.1,0.3,0.1,0.5,0.2l0,0C190.2,37.8,190.3,37.9,190.5,38z"/>
			</g>
		</g>
		<g class="st15">
			<g>
				<path class="st16" d="M188.4,37.2c-0.6-0.2-1.1-0.4-0.5-0.3C188,37,188.2,37.1,188.4,37.2z"/>
			</g>
		</g>
		<g>
			<g>
				<path class="st8" d="M175.2,77.3l-3.9,6.4c-0.1,0.2-0.4,0.3-0.7,0.2c-0.2-0.1-0.3-0.4-0.2-0.7c1.3-2.1,0.6-5.1-1.6-7.2l0,0
					c0,0,0,0,0,0c-0.1-0.1-0.2-0.2-0.3-0.3c0,0,0,0,0,0c-4.6-4.1-7.9-9.4-9.2-14.9c-1.3-5.6-0.6-11.1,2.2-15.6
					c2.4-4,6.3-6.9,11.3-8.4c4.6-1.4,9.9-1.5,15.3-0.4c2.8,0.6,5.1,2.4,6.1,4.8c0.8,2,0.7,4.1-0.3,5.7L175.2,77.3
					C175.2,77.2,175.2,77.3,175.2,77.3z M172,80.5l2.3-3.7c0,0,0-0.1,0-0.1l18.6-30.2c0.9-1.4,0.9-3.2,0.2-4.8
					c-0.9-2.1-2.9-3.7-5.4-4.3c-10.9-2.4-20.9,0.9-25.5,8.3c-5.3,8.6-2.4,20.9,6.8,29.2c0,0,0,0,0,0c0.1,0.1,0.2,0.2,0.3,0.3
					c0,0,0,0,0,0C171.1,76.8,171.9,78.7,172,80.5z M168.7,76L168.7,76L168.7,76z M168.7,76C168.7,76,168.7,76,168.7,76
					C168.7,76,168.7,76,168.7,76z"/>
			</g>
		</g>
		<g class="st15">
			<g>
				<path class="st11" d="M163.8,56c1.2-0.4,1.4,1.7,2.2,4.1c0.9,2.4,2.2,4.1,0.9,4.5c-1.2,0.4-2.9-1.1-3.8-3.5
					C162.3,58.8,162.5,56.5,163.8,56z"/>
			</g>
		</g>
		<g class="st15">
			<g>
				<circle class="st16" cx="177.6" cy="41.1" r="0.4"/>
			</g>
		</g>
		<g class="st15">
			<g>
				<circle class="st16" cx="168.8" cy="69" r="0.4"/>
			</g>
		</g>
		<g class="st15">
			<g>
				<circle class="st16" cx="182.7" cy="47" r="0.4"/>
			</g>
		</g>
		<g class="st15">
			<g>
				<circle class="st16" cx="176" cy="68" r="0.4"/>
			</g>
		</g>
		<g class="st15">
			<g>
				<circle class="st16" cx="162.7" cy="51.2" r="0.4"/>
			</g>
		</g>
		<g class="st15">
			<g>
				<circle class="st16" cx="170.1" cy="50.5" r="0.4"/>
			</g>
		</g>
		<g class="st15">
			<g>
				<circle class="st16" cx="177.6" cy="61.6" r="0.4"/>
			</g>
		</g>
		<g class="st15">
			<g>
				<circle class="st16" cx="169.4" cy="45.4" r="0.4"/>
			</g>
		</g>
		<g class="st15">
			<g>
				<ellipse class="st16" cx="175.2" cy="41.8" rx="0.5" ry="0.5"/>
			</g>
		</g>
		<g class="st15">
			<g>
				<ellipse class="st16" cx="190.4" cy="42.3" rx="0.5" ry="0.5"/>
			</g>
		</g>
		<g class="st15">
			<g>
				<ellipse class="st16" cx="185.3" cy="54.8" rx="0.5" ry="0.5"/>
			</g>
		</g>
	</g>
</g>
<g>
	<g>
		<g>
			<g>
				<path class="st7" d="M89.7,62.7c7.4-10.9,20.2-15.6,30-10.5s13.5,18.1,9,30.5c-0.8,2.1-2.9,3.3-4.6,2.5L90.4,67.9
					C88.7,67,88.4,64.6,89.7,62.7z"/>
			</g>
		</g>
		<g>
			<g>
				<path class="st8" d="M88.5,66.2c-0.3-1.2,0-2.6,0.7-3.7C93,57.1,98.1,53,103.6,51c5.7-2,11.4-1.8,16.3,0.7s8.5,7,10.1,12.8
					c1.6,5.7,1.3,12.2-0.9,18.3c-0.5,1.3-1.4,2.3-2.6,2.8c-0.9,0.4-1.8,0.3-2.6-0.1L90.2,68.3C89.4,67.9,88.8,67.2,88.5,66.2z
					 M90.1,63c-0.6,0.9-0.8,2-0.6,3c0.2,0.7,0.6,1.2,1.1,1.5l33.8,17.3c0.5,0.3,1.2,0.3,1.8,0c0.9-0.4,1.7-1.2,2.1-2.2
					c4.5-12.4,0.8-25-8.8-29.9S97.6,52.1,90.1,63z"/>
			</g>
		</g>
		<g>
			<g>
				<circle class="st9" cx="108" cy="48.1" r="5.3"/>
			</g>
		</g>
		<g class="st10">
			<g>
				<path class="st11" d="M103.6,45.1c1.7-2.4,5-3.1,7.4-1.4c2.3,1.6,3,4.5,1.7,6.9c0.6-2.1-0.2-4.5-2.1-5.8c-2.4-1.7-5.8-1-7.4,1.4
					c-0.1,0.2-0.2,0.3-0.3,0.5C103,46.1,103.3,45.6,103.6,45.1z"/>
			</g>
		</g>
		<g>
			<g>
				<path class="st8" d="M104.7,52.9c-1.3-0.9-2.1-2.2-2.4-3.7c-0.3-1.5,0-3.1,0.9-4.4c0.9-1.3,2.2-2.1,3.7-2.4
					c1.5-0.3,3.1,0,4.4,0.9c1.3,0.9,2.1,2.2,2.4,3.7c0.3,1.5,0,3.1-0.9,4.4s-2.2,2.1-3.7,2.4c-1.3,0.2-2.6,0-3.7-0.5
					C105.1,53.2,104.9,53.1,104.7,52.9z M107.1,43.3c-1.3,0.2-2.4,1-3.1,2c-0.7,1.1-1,2.4-0.8,3.6c0.2,1.3,1,2.4,2,3.1
					c1.1,0.7,2.4,1,3.6,0.8c1.3-0.2,2.4-1,3.1-2c0.7-1.1,1-2.4,0.8-3.6c-0.2-1.3-1-2.4-2-3.1c-0.2-0.1-0.4-0.2-0.5-0.3
					C109.3,43.3,108.2,43.1,107.1,43.3z"/>
			</g>
		</g>
		<g class="st12">
			<g>
				<path class="st13" d="M89.7,62.7c7.4-10.9,20.2-15.6,30-10.5s13.5,18.1,9,30.5c-0.8,2.1-2.9,3.3-4.6,2.5L90.4,67.9
					C88.7,67,88.4,64.6,89.7,62.7z"/>
			</g>
		</g>
		<g>
			<g>
				<circle class="st14" cx="125.5" cy="69.8" r="6.6"/>
			</g>
		</g>
		<g>
			<g>
				<circle class="st9" cx="125.5" cy="69.8" r="6.6"/>
			</g>
		</g>
		<g class="st15">
			<g>
				<path class="st16" d="M120.8,65.1c-0.5,2.8,0.9,5.6,3.5,7c2.7,1.4,5.8,0.8,7.8-1.3c-0.1,0.7-0.3,1.3-0.6,1.9
					c-1.7,3.3-5.7,4.5-8.9,2.9c-3.3-1.7-4.5-5.7-2.9-8.9C119.9,66.1,120.3,65.6,120.8,65.1z"/>
			</g>
		</g>
		<g class="st10">
			<g>
				<path class="st11" d="M119.6,66.7c1.7-3.3,5.7-4.5,8.9-2.9c3,1.6,4.4,5.1,3.2,8.2c0.4-2.7-1-5.5-3.5-6.8
					c-3.3-1.7-7.2-0.4-8.9,2.9c-0.1,0.2-0.2,0.5-0.3,0.7C119.1,68.1,119.3,67.4,119.6,66.7z"/>
			</g>
		</g>
		<g>
			<g>
				<path class="st8" d="M119.2,66.5c1.8-3.5,6.1-4.9,9.6-3.1c3.5,1.8,4.9,6.1,3.1,9.6c-1.8,3.5-6.1,4.9-9.6,3.1
					C118.8,74.3,117.4,70,119.2,66.5z M120.1,67c-1.5,3-0.3,6.7,2.7,8.3c3,1.5,6.7,0.3,8.3-2.7c1.5-3,0.3-6.7-2.7-8.3
					C125.3,62.8,121.6,64,120.1,67z"/>
			</g>
		</g>
		<g>
			<g>
				<path class="st17" d="M109,55.6l2-7.8c0.3-1.2,1.5-1.9,2.7-1.6l6.2,1.6c1.2,0.3,1.9,1.5,1.6,2.7l-2,7.8
					c-0.3,1.2-1.5,1.9-2.7,1.6l-6.2-1.6C109.4,58,108.7,56.8,109,55.6z"/>
			</g>
		</g>
		<g class="st10">
			<g>
				<path class="st11" d="M119.9,47.9c1.2,0.3,1.9,1.5,1.6,2.7l-2,7.8c-0.3,1.2-1.5,1.9-2.7,1.6l-1.1-0.3c1.2,0.3,2.4-0.4,2.7-1.6
					l2-7.8c0.3-1.2-0.4-2.4-1.6-2.7L119.9,47.9z"/>
			</g>
		</g>
		<g>
			<g>
				<path class="st18" d="M109,55.6l2-7.8c0.3-1.2,1.5-1.9,2.7-1.6l6.2,1.6c1.2,0.3,1.9,1.5,1.6,2.7l-2,7.8
					c-0.3,1.2-1.5,1.9-2.7,1.6l-6.2-1.6C109.4,58,108.7,56.8,109,55.6z"/>
			</g>
		</g>
		<g>
			<g>
				<path class="st8" d="M108.5,55.5l2-7.8c0.4-1.4,1.8-2.3,3.3-1.9l6.2,1.6c1.4,0.4,2.3,1.8,1.9,3.3l-2,7.8
					c-0.4,1.4-1.8,2.3-3.3,1.9l-6.2-1.6l0,0c-0.2,0-0.4-0.1-0.5-0.2C108.8,58,108.2,56.7,108.5,55.5z M116.9,59.4
					c0.9,0.2,1.8-0.3,2.1-1.2l2-7.8c0.1-0.4,0-0.9-0.2-1.3c-0.2-0.4-0.6-0.7-1-0.8l-6.2-1.6c-0.9-0.2-1.8,0.3-2.1,1.2l-2,7.8
					c-0.1,0.4,0,0.9,0.2,1.3c0.2,0.4,0.6,0.7,1,0.8L116.9,59.4z"/>
			</g>
		</g>
		<g class="st15">
			<g>
				<path class="st13" d="M122,69l0.3,0.2c-0.5,0.5-0.9,1-1.3,1.6L122,69z"/>
			</g>
		</g>
		<g>
			<g>
				<g>
					<path class="st19" d="M120.6,68.2l-4.2,7.3l2.1,6.7l4.4,2.2c5.6,2.8,10.6-4.2,4.6-8c0.4-0.4,0.5-1,0.3-1.5
						c-0.2-0.5-0.7-0.9-1.2-0.9c0.6-1.5-0.6-3.1-2-3.2L120.6,68.2z"/>
				</g>
				<g>
					<path class="st20" d="M118.4,82.2l-2.1-6.7c0,0,0,0,0-0.1l4.2-7.3c0,0,0,0,0,0c0,0,0,0,0.1,0l4,2.7c0.7,0.1,1.4,0.5,1.8,1.2
						c0.4,0.6,0.5,1.3,0.2,2c0.5,0.1,1,0.4,1.2,0.9c0.2,0.5,0.1,1.1-0.3,1.5c3.1,2,3.1,4.6,2.2,6.3c-1.1,2-3.9,3.3-6.9,1.7
						L118.4,82.2L118.4,82.2C118.4,82.3,118.4,82.3,118.4,82.2z M126.5,74.2C126.5,74.2,126.5,74.2,126.5,74.2
						C126.4,74.1,126.4,74.1,126.5,74.2c0.2-0.7,0.1-1.4-0.2-2.1c-0.4-0.6-1.1-1.1-1.7-1.1c0,0,0,0,0,0l-3.9-2.6l-4.1,7.2l2.1,6.7
						l4.4,2.2c2.9,1.5,5.6,0.2,6.7-1.7c0.9-1.6,0.9-4.2-2.2-6.2c0,0,0,0,0-0.1c0,0,0,0,0-0.1c0.4-0.3,0.5-0.9,0.3-1.4
						c-0.1-0.3-0.4-0.6-0.7-0.7C126.8,74.2,126.7,74.2,126.5,74.2z"/>
				</g>
			</g>
			<g class="st15">
				<g>
					<path class="st16" d="M119.5,70.5c0,0-0.1,0.1-0.1,0.1c-2,4-0.6,8.9,3.3,10.8c2.3,1.2,4.9,1.1,7.1,0c-0.6,2.6-3.8,4.6-7,2.9
						l-4.2-2.2l-1.9-6.7L119.5,70.5z"/>
				</g>
			</g>
			<g class="st10">
				<g>
					<path class="st11" d="M124.5,71c1.3,0.1,2.6,1.7,2,3.2c0.5,0,1,0.4,1.2,0.9c0.2,0.5,0,1.1-0.3,1.5c5.2,3.2,2.2,8.9-2.3,8.6
						c3.7-0.6,5.8-5.3,1.6-8.3c-0.2-0.2-0.3-0.4-0.2-0.7c0.2-0.3,0.2-0.7,0.1-1.1c-0.1-0.3-0.4-0.6-0.7-0.8
						c-0.2-0.1-0.4-0.3-0.3-0.6c0.2-1.1-0.5-2.1-1.4-2.5c0-0.2,0-0.4,0-0.5L124.5,71z"/>
				</g>
			</g>
			<g>
				<g>
					<path class="st8" d="M118,82.4l-2.1-6.7c0-0.1,0-0.3,0-0.4l4.2-7.3c0.1-0.1,0.2-0.2,0.3-0.2c0.1,0,0.3,0,0.4,0.1l3.9,2.6
						c0.8,0.1,1.6,0.6,2,1.4c0.4,0.6,0.5,1.3,0.4,1.9c0.5,0.2,0.9,0.6,1,1.1c0.2,0.5,0.1,1-0.1,1.5c2.8,2,3,4.7,1.9,6.6
						c-1.2,2.1-4.2,3.5-7.4,1.9l-4.4-2.2l0,0C118.1,82.6,118,82.5,118,82.4z M126.5,74.6c-0.2,0-0.3-0.1-0.4-0.2
						c-0.1-0.1-0.1-0.3,0-0.4c0.3-0.7,0-1.3-0.1-1.6c-0.3-0.5-0.9-0.9-1.4-0.9c-0.1,0-0.2,0-0.2-0.1l-3.6-2.4l-3.8,6.6l2,6.3L123,84
						c2.6,1.4,5.1,0.2,6.1-1.5c0.8-1.5,0.8-3.8-2-5.6c-0.1-0.1-0.2-0.2-0.2-0.4c0-0.1,0-0.3,0.1-0.4c0.2-0.2,0.3-0.6,0.2-1
						c-0.1-0.2-0.2-0.4-0.5-0.5C126.7,74.6,126.6,74.6,126.5,74.6z"/>
				</g>
			</g>
		</g>
		<g class="st21">
			<g>
				
					<ellipse transform="matrix(0.4557 -0.8901 0.8901 0.4557 0.4768 148.7818)" class="st13" cx="121.9" cy="74" rx="0.2" ry="0.2"/>
			</g>
		</g>
		<g class="st15">
			<g>
				<path class="st13" d="M121,70.8l-0.2,0.4C120.9,71.1,120.9,70.9,121,70.8z"/>
			</g>
		</g>
		<g class="st22">
			<g>
				<path class="st11" d="M92.4,46.6c0-0.1,0.1-0.1,0.1-0.2c0,0.9,0.4,1.9,0.2,2.7c-0.1,0.2-0.2,0.5-0.3,0.7
					C92.3,48.8,91.8,47.5,92.4,46.6z"/>
			</g>
		</g>
		<g>
			<g>
				<g>
					<path class="st23" d="M88.9,48.6c0.7-1,0.5-2.8,1.4-3.5c0.9-0.7,2.7,0,3.8-0.4c1.1-0.4,2-2,3.2-2c1.1,0,2.1,1.6,3.3,1.9
						c1.2,0.4,2.8-0.4,3.8,0.3c1,0.7,0.8,2.5,1.5,3.5c0.7,0.9,2.5,1.3,2.9,2.4c0.4,1.1-0.8,2.5-0.8,3.7c0,1.1,1.3,2.5,0.9,3.7
						c-0.4,1.2-2.2,1.6-2.8,2.5c-0.7,1-0.5,2.8-1.4,3.5c-0.9,0.7-2.7,0-3.8,0.4c-1.1,0.4-2,2-3.2,2c-1.1,0-2.1-1.6-3.3-1.9
						c-1.2-0.4-2.8,0.4-3.8-0.3c-1-0.7-0.8-2.5-1.5-3.5c-0.7-0.9-2.5-1.3-2.9-2.4C85.8,57.4,87,56,87,54.8c0-1.1-1.3-2.5-0.9-3.7
						C86.4,50,88.2,49.5,88.9,48.6z"/>
				</g>
			</g>
			<g>
				<g>
					<path class="st13" d="M90.2,64.8c-0.7-0.5-0.9-1.4-1.1-2.2c-0.1-0.5-0.3-1.1-0.5-1.4c-0.2-0.3-0.7-0.6-1.2-0.9
						c-0.7-0.4-1.5-0.9-1.8-1.7c-0.3-0.8,0.1-1.6,0.4-2.4c0.2-0.5,0.4-1,0.4-1.4c0-0.4-0.2-0.9-0.4-1.4c-0.3-0.8-0.7-1.6-0.5-2.5
						c0.3-0.9,1.1-1.4,1.8-1.8c0.5-0.3,0.9-0.6,1.1-0.9c0.2-0.3,0.4-0.9,0.5-1.4c0.2-0.8,0.4-1.7,1.1-2.2c0.7-0.5,1.6-0.4,2.5-0.4
						c0.5,0,1.1,0.1,1.5,0c0.4-0.1,0.8-0.5,1.2-0.8c0.6-0.6,1.3-1.2,2.2-1.2c0.8,0,1.5,0.6,2.2,1.1c0.4,0.4,0.9,0.7,1.3,0.8
						c0.4,0.1,1,0.1,1.5,0c0.8-0.1,1.7-0.2,2.4,0.3c0.7,0.5,0.9,1.4,1.1,2.2c0.1,0.5,0.3,1.1,0.5,1.4c0.2,0.3,0.7,0.6,1.2,0.9
						c0.7,0.4,1.5,0.9,1.8,1.7c0.3,0.8-0.1,1.6-0.4,2.4c-0.2,0.5-0.4,1-0.4,1.4c0,0.4,0.2,0.9,0.4,1.4c0.3,0.8,0.7,1.6,0.5,2.5
						c-0.3,0.9-1.1,1.4-1.8,1.8c-0.5,0.3-0.9,0.6-1.1,0.9c-0.2,0.3-0.4,0.9-0.5,1.4c-0.2,0.8-0.4,1.7-1.1,2.2
						c-0.7,0.5-1.6,0.4-2.5,0.4c-0.5,0-1.1-0.1-1.5,0c-0.4,0.1-0.8,0.5-1.2,0.8c-0.6,0.6-1.3,1.2-2.2,1.2c-0.8,0-1.5-0.6-2.2-1.1
						c-0.4-0.4-0.9-0.7-1.3-0.8c-0.4-0.1-1-0.1-1.5,0c-0.8,0.1-1.5,0.1-2.2-0.2C90.4,64.9,90.3,64.9,90.2,64.8z M96.1,65.2
						c0.5,0.4,1,0.9,1.5,0.9c0.5,0,1-0.4,1.5-0.9c0.5-0.4,1-0.9,1.6-1.1c0.6-0.2,1.3-0.2,1.9-0.1c0.7,0.1,1.4,0.1,1.7-0.2
						c0.4-0.3,0.5-0.9,0.7-1.6c0.1-0.6,0.3-1.3,0.6-1.8c0.3-0.5,0.9-0.8,1.4-1.2c0.6-0.4,1.2-0.7,1.3-1.2c0.1-0.5-0.1-1.1-0.4-1.7
						c-0.3-0.6-0.5-1.2-0.5-1.8c0-0.6,0.2-1.3,0.5-1.9c0.3-0.6,0.5-1.2,0.4-1.7c-0.1-0.4-0.7-0.8-1.3-1.1c-0.6-0.3-1.1-0.7-1.5-1.2
						c-0.4-0.5-0.5-1.1-0.7-1.8c-0.2-0.7-0.3-1.3-0.7-1.6c-0.4-0.3-1-0.2-1.7-0.1c-0.7,0.1-1.3,0.1-1.9-0.1
						c-0.6-0.2-1.1-0.6-1.6-1.1c-0.5-0.4-1-0.9-1.5-0.9c-0.5,0-1,0.4-1.5,0.9c-0.5,0.4-1,0.9-1.6,1.1c-0.6,0.2-1.3,0.2-1.9,0.1
						c-0.7-0.1-1.4-0.1-1.7,0.2c-0.4,0.3-0.5,0.9-0.7,1.6c-0.1,0.6-0.3,1.3-0.6,1.8c-0.3,0.5-0.9,0.8-1.4,1.2
						c-0.6,0.4-1.2,0.7-1.3,1.2c-0.1,0.5,0.1,1.1,0.4,1.7c0.3,0.6,0.5,1.2,0.5,1.8c0,0.6-0.2,1.3-0.5,1.9c-0.3,0.6-0.5,1.2-0.4,1.7
						c0.1,0.4,0.7,0.8,1.3,1.1c0.6,0.3,1.1,0.7,1.5,1.2c0.4,0.5,0.5,1.1,0.7,1.8c0.2,0.7,0.3,1.3,0.7,1.6c0.4,0.3,1,0.2,1.7,0.1
						c0.7-0.1,1.3-0.1,1.9,0.1c0.1,0,0.3,0.1,0.4,0.2C95.4,64.5,95.8,64.9,96.1,65.2z"/>
				</g>
			</g>
		</g>
		<g>
			<g>
				<path class="st24" d="M88.9,48.6c0.7-1,0.5-2.8,1.4-3.5c0.9-0.7,2.7,0,3.8-0.4c1.1-0.4,2-2,3.2-2c1.1,0,2.1,1.6,3.3,1.9
					c1.2,0.4,2.8-0.4,3.8,0.3c1,0.7,0.8,2.5,1.5,3.5c0.7,0.9,2.5,1.3,2.9,2.4c0.4,1.1-0.8,2.5-0.8,3.7c0,1.1,1.3,2.5,0.9,3.7
					c-0.4,1.2-2.2,1.6-2.8,2.5c-0.7,1-0.5,2.8-1.4,3.5c-0.9,0.7-2.7,0-3.8,0.4c-1.1,0.4-2,2-3.2,2c-1.1,0-2.1-1.6-3.3-1.9
					c-1.2-0.4-2.8,0.4-3.8-0.3c-1-0.7-0.8-2.5-1.5-3.5c-0.7-0.9-2.5-1.3-2.9-2.4C85.8,57.4,87,56,87,54.8c0-1.1-1.3-2.5-0.9-3.7
					C86.4,50,88.2,49.5,88.9,48.6z"/>
			</g>
		</g>
		<g class="st10">
			<g>
				<path class="st11" d="M86.1,51.1c0.4-1.2,2.2-1.6,2.8-2.5c0.7-1,0.5-2.8,1.4-3.5c0.9-0.7,2.7,0,3.8-0.4c1.1-0.4,2-2,3.2-2
					c1.1,0,2.1,1.6,3.3,1.9c1.2,0.4,2.8-0.4,3.8,0.3c1,0.7,0.8,2.5,1.5,3.5c0.7,0.9,2.5,1.3,2.9,2.4c0.1,0.4,0.1,0.8-0.1,1.2
					c-0.4-1-2.2-1.4-2.9-2.3c-0.7-0.9-0.5-2.8-1.5-3.5c-0.9-0.7-2.6,0.1-3.8-0.3c-1.2-0.4-2.1-1.9-3.3-1.9c-1.2,0-2.1,1.6-3.2,2
					c-1.1,0.4-2.8-0.3-3.8,0.4c-0.9,0.7-0.7,2.5-1.4,3.5c-0.6,0.9-2.3,1.3-2.8,2.3C86,51.8,86,51.5,86.1,51.1z"/>
			</g>
		</g>
		<g>
			<g>
				<path class="st8" d="M90.3,64.8c-0.7-0.5-0.9-1.4-1.1-2.2c-0.1-0.5-0.3-1.1-0.5-1.4c-0.2-0.3-0.7-0.6-1.2-0.9
					c-0.7-0.4-1.5-0.9-1.8-1.7c-0.3-0.8,0.1-1.6,0.4-2.4c0.2-0.5,0.4-1,0.4-1.5c0-0.4-0.2-0.9-0.4-1.4c-0.3-0.8-0.7-1.6-0.5-2.4
					c0.3-0.8,1.1-1.3,1.8-1.8c0.5-0.3,0.9-0.6,1.1-0.9c0.2-0.3,0.4-0.9,0.5-1.4c0.2-0.8,0.4-1.7,1-2.2c0.7-0.5,1.6-0.4,2.4-0.4
					c0.6,0,1.1,0.1,1.5,0c0.4-0.1,0.8-0.5,1.2-0.9c0.6-0.6,1.3-1.2,2.2-1.2c0.8,0,1.5,0.6,2.1,1.1c0.4,0.4,0.9,0.7,1.3,0.9
					c0.4,0.1,1,0.1,1.5,0c0.8-0.1,1.7-0.2,2.4,0.3c0.7,0.5,0.9,1.4,1.1,2.2c0.1,0.5,0.3,1.1,0.5,1.4c0.2,0.3,0.7,0.6,1.2,0.9
					c0.7,0.4,1.5,0.9,1.8,1.7c0.3,0.8-0.1,1.6-0.4,2.4c-0.2,0.5-0.4,1-0.4,1.5c0,0.4,0.2,0.9,0.4,1.4c0.3,0.8,0.7,1.6,0.5,2.4
					c-0.3,0.8-1.1,1.3-1.8,1.8c-0.5,0.3-0.9,0.6-1.1,0.9c-0.2,0.3-0.4,0.9-0.5,1.4c-0.2,0.8-0.4,1.7-1,2.2c-0.7,0.5-1.6,0.4-2.4,0.4
					c-0.6,0-1.1-0.1-1.5,0c-0.4,0.1-0.8,0.5-1.2,0.9c-0.6,0.6-1.3,1.2-2.2,1.2c-0.8,0-1.5-0.6-2.1-1.1c-0.4-0.4-0.9-0.7-1.3-0.9
					c-0.4-0.1-1-0.1-1.5,0c-0.7,0.1-1.5,0.1-2.2-0.2C90.4,64.9,90.3,64.8,90.3,64.8z M96.1,65.2c0.5,0.4,1,0.9,1.5,0.9
					c0.5,0,1-0.5,1.5-0.9c0.5-0.4,1-0.9,1.5-1.1c0.6-0.2,1.2-0.1,1.9-0.1c0.7,0.1,1.4,0.1,1.8-0.2c0.4-0.3,0.5-0.9,0.7-1.6
					c0.1-0.6,0.3-1.3,0.6-1.8c0.3-0.5,0.9-0.8,1.4-1.2c0.6-0.4,1.2-0.7,1.3-1.2c0.2-0.5-0.1-1.1-0.4-1.8c-0.3-0.6-0.5-1.2-0.5-1.8
					c0-0.6,0.2-1.2,0.5-1.8c0.3-0.7,0.5-1.3,0.4-1.7c-0.2-0.5-0.7-0.8-1.3-1.2c-0.6-0.3-1.1-0.7-1.5-1.1c-0.4-0.5-0.5-1.1-0.7-1.7
					c-0.2-0.7-0.3-1.4-0.7-1.6c-0.4-0.3-1-0.2-1.7-0.1c-0.6,0.1-1.3,0.1-1.9-0.1c-0.6-0.2-1.1-0.6-1.6-1c-0.5-0.4-1-0.9-1.5-0.9
					c-0.5,0-1,0.5-1.5,0.9c-0.5,0.4-1,0.9-1.5,1.1c-0.6,0.2-1.2,0.1-1.9,0.1c-0.7-0.1-1.4-0.1-1.8,0.2c-0.4,0.3-0.5,0.9-0.7,1.6
					c-0.1,0.6-0.3,1.3-0.6,1.8c-0.3,0.5-0.9,0.8-1.4,1.2c-0.6,0.4-1.2,0.7-1.3,1.2c-0.2,0.5,0.1,1.1,0.4,1.8
					c0.3,0.6,0.5,1.2,0.5,1.8c0,0.6-0.2,1.2-0.5,1.8c-0.3,0.7-0.5,1.3-0.4,1.7c0.2,0.5,0.7,0.8,1.3,1.2c0.6,0.3,1.1,0.7,1.5,1.1
					c0.4,0.5,0.5,1.1,0.7,1.7c0.2,0.7,0.3,1.4,0.7,1.6c0.4,0.3,1,0.2,1.7,0.1c0.6-0.1,1.3-0.1,1.9,0.1c0.1,0,0.3,0.1,0.4,0.2
					C95.3,64.6,95.7,64.9,96.1,65.2z"/>
			</g>
		</g>
		<g>
			<g>
				<g>
					<path class="st23" d="M128.1,67.3c0.4-1.1,2.1-2,2.2-3.1c0.1-1.2-1.5-2.2-1.8-3.3c-0.3-1.1,0.6-2.8-0.1-3.8
						c-0.6-1-2.5-0.9-3.4-1.7c-0.9-0.8-1.2-2.6-2.3-3c-1.1-0.4-2.6,0.7-3.7,0.7c-1.2-0.1-2.5-1.4-3.6-1.1c-1.1,0.3-1.6,2.1-2.6,2.7
						c-1,0.6-2.8,0.3-3.6,1.2c-0.8,0.9-0.1,2.7-0.5,3.7c-0.4,1.1-2.1,2-2.2,3.1c-0.1,1.2,1.5,2.2,1.8,3.3c0.3,1.1-0.6,2.8,0.1,3.8
						c0.6,1,2.5,0.9,3.4,1.7c0.9,0.8,1.2,2.6,2.3,3c1.1,0.4,2.6-0.7,3.7-0.7c1.2,0.1,2.5,1.4,3.6,1.1c1.1-0.3,1.6-2.1,2.6-2.7
						c1-0.6,2.8-0.3,3.6-1.2S127.7,68.4,128.1,67.3z"/>
				</g>
			</g>
			<g>
				<g>
					<path class="st13" d="M112.2,73.2c-0.3-0.5-0.5-1-0.8-1.3s-0.9-0.4-1.4-0.6c-0.8-0.2-1.7-0.5-2.1-1.2c-0.5-0.7-0.3-1.7-0.2-2.5
						c0.1-0.5,0.2-1.1,0.1-1.4c-0.1-0.4-0.4-0.8-0.8-1.3c-0.5-0.7-1.1-1.4-1-2.3c0.1-0.9,0.7-1.5,1.3-2.1c0.4-0.4,0.8-0.8,0.9-1.2
						c0.1-0.4,0.1-0.9,0.1-1.4c0-0.8-0.1-1.8,0.5-2.5c0.6-0.7,1.5-0.8,2.3-1c0.5-0.1,1-0.2,1.4-0.4c0.3-0.2,0.7-0.7,1-1.1
						c0.5-0.7,1-1.4,1.8-1.7c0.8-0.2,1.7,0.2,2.4,0.6c0.5,0.2,1,0.5,1.4,0.5c0.4,0,0.9-0.2,1.4-0.3c0.8-0.3,1.7-0.6,2.5-0.3
						c0.8,0.3,1.2,1.1,1.6,1.8c0.3,0.5,0.5,1,0.8,1.3c0.3,0.3,0.9,0.4,1.4,0.6c0.8,0.2,1.7,0.5,2.1,1.2c0.5,0.7,0.3,1.7,0.2,2.5
						c-0.1,0.5-0.2,1.1-0.1,1.4c0.1,0.4,0.4,0.8,0.8,1.3c0.5,0.7,1.1,1.4,1,2.3c-0.1,0.9-0.7,1.5-1.3,2.1c-0.4,0.4-0.8,0.8-0.9,1.2
						c-0.1,0.4-0.1,0.9-0.1,1.4c0,0.8,0.1,1.8-0.5,2.5l0,0c-0.6,0.7-1.5,0.8-2.3,1c-0.5,0.1-1,0.2-1.4,0.4c-0.3,0.2-0.7,0.7-1,1.1
						c-0.5,0.7-1,1.4-1.8,1.7c-0.8,0.2-1.7-0.2-2.4-0.6c-0.5-0.2-1-0.5-1.4-0.5c-0.4,0-0.9,0.2-1.4,0.3c-0.8,0.3-1.7,0.6-2.5,0.3
						c-0.1,0-0.1,0-0.2-0.1C112.9,74.7,112.6,73.9,112.2,73.2z M127.1,70.7c0.3-0.4,0.3-1,0.3-1.8c0-0.6,0-1.3,0.2-1.8
						c0.2-0.6,0.7-1.1,1.2-1.5c0.5-0.5,0.9-1,1-1.4c0-0.5-0.4-1-0.8-1.5c-0.4-0.5-0.8-1-1-1.6c-0.2-0.6-0.1-1.3,0-1.9
						c0.1-0.7,0.2-1.4,0-1.7c-0.2-0.4-0.9-0.6-1.5-0.7c-0.6-0.2-1.3-0.4-1.8-0.8c-0.5-0.4-0.8-1-1.1-1.6c-0.3-0.6-0.6-1.2-1-1.3
						c-0.4-0.2-1.1,0.1-1.7,0.3c-0.6,0.2-1.2,0.4-1.8,0.4c-0.6,0-1.2-0.3-1.8-0.6c-0.6-0.3-1.2-0.6-1.7-0.5
						c-0.4,0.1-0.8,0.7-1.2,1.2c-0.4,0.5-0.8,1.1-1.3,1.4c-0.5,0.3-1.2,0.4-1.8,0.5c-0.7,0.1-1.4,0.2-1.7,0.6
						c-0.3,0.4-0.3,1-0.3,1.8c0,0.6,0,1.3-0.2,1.8c-0.2,0.6-0.7,1.1-1.2,1.5c-0.5,0.5-0.9,1-1,1.4c0,0.5,0.4,1,0.8,1.5
						c0.4,0.5,0.8,1,1,1.6c0.2,0.6,0.1,1.3,0,1.9c-0.1,0.7-0.2,1.4,0,1.7c0.2,0.4,0.9,0.6,1.5,0.7c0.6,0.2,1.3,0.4,1.8,0.8
						c0.5,0.4,0.8,1,1.1,1.6c0.3,0.6,0.6,1.2,1,1.3c0.4,0.2,1.1-0.1,1.7-0.3c0.6-0.2,1.2-0.4,1.8-0.4c0.6,0,1.2,0.3,1.8,0.6
						c0.6,0.3,1.2,0.6,1.7,0.5c0.4-0.1,0.8-0.7,1.2-1.2c0.4-0.5,0.8-1.1,1.3-1.4c0.5-0.3,1.2-0.4,1.8-0.5
						C126.2,71.2,126.8,71.1,127.1,70.7L127.1,70.7z"/>
				</g>
			</g>
		</g>
		<g>
			<g>
				<path class="st24" d="M128.1,67.3c0.4-1.1,2.1-2,2.2-3.1c0.1-1.2-1.5-2.2-1.8-3.3c-0.3-1.1,0.6-2.8-0.1-3.8
					c-0.6-1-2.5-0.9-3.4-1.7c-0.9-0.8-1.2-2.6-2.3-3c-1.1-0.4-2.6,0.7-3.7,0.7c-1.2-0.1-2.5-1.4-3.6-1.1c-1.1,0.3-1.6,2.1-2.6,2.7
					c-1,0.6-2.8,0.3-3.6,1.2c-0.8,0.9-0.1,2.7-0.5,3.7c-0.4,1.1-2.1,2-2.2,3.1c-0.1,1.2,1.5,2.2,1.8,3.3c0.3,1.1-0.6,2.8,0.1,3.8
					c0.6,1,2.5,0.9,3.4,1.7c0.9,0.8,1.2,2.6,2.3,3c1.1,0.4,2.6-0.7,3.7-0.7c1.2,0.1,2.5,1.4,3.6,1.1c1.1-0.3,1.6-2.1,2.6-2.7
					c1-0.6,2.8-0.3,3.6-1.2S127.7,68.4,128.1,67.3z"/>
			</g>
		</g>
		<g class="st10">
			<g>
				<path class="st11" d="M127.5,71.1c0.8-0.9,0.1-2.7,0.5-3.7c0.4-1.1,2.1-2,2.2-3.1c0.1-1.2-1.5-2.2-1.8-3.4
					c-0.3-1.1,0.6-2.8-0.1-3.8c-0.6-1-2.5-0.9-3.4-1.7c-0.9-0.8-1.2-2.6-2.3-3c-1.1-0.4-2.6,0.7-3.7,0.7c-1.2-0.1-2.5-1.4-3.6-1.1
					c-0.4,0.1-0.7,0.4-1,0.7c1.1-0.2,2.4,1,3.5,1.1c1.2,0.1,2.6-1.1,3.7-0.7c1.1,0.4,1.4,2.3,2.3,3c0.9,0.8,2.8,0.7,3.4,1.7
					c0.6,1-0.2,2.7,0.1,3.8c0.3,1.1,1.8,2.2,1.8,3.4c-0.1,1.2-1.7,2-2.2,3.1c-0.4,1,0.2,2.6-0.4,3.6
					C126.9,71.6,127.2,71.4,127.5,71.1z"/>
			</g>
		</g>
		<g>
			<g>
				<path class="st8" d="M112.2,73.2c-0.3-0.5-0.5-1-0.9-1.3c-0.3-0.3-0.9-0.4-1.4-0.6c-0.8-0.2-1.6-0.5-2.1-1.2
					c-0.5-0.7-0.3-1.6-0.2-2.5c0.1-0.6,0.2-1.1,0.1-1.5c-0.1-0.4-0.4-0.8-0.8-1.3c-0.5-0.7-1.1-1.4-1-2.2c0-0.8,0.7-1.5,1.3-2.1
					c0.4-0.4,0.8-0.8,0.9-1.2c0.1-0.4,0.1-0.9,0.1-1.4c0-0.8-0.1-1.8,0.5-2.4c0.6-0.7,1.5-0.8,2.3-1c0.5-0.1,1.1-0.2,1.4-0.4
					c0.4-0.2,0.7-0.7,1-1.1c0.5-0.7,1-1.4,1.8-1.6c0.8-0.2,1.6,0.2,2.4,0.6c0.5,0.3,1,0.5,1.4,0.5c0.4,0,0.9-0.2,1.4-0.3
					c0.8-0.3,1.7-0.6,2.4-0.3c0.8,0.3,1.2,1.1,1.6,1.8c0.3,0.5,0.5,1,0.9,1.3c0.3,0.3,0.9,0.4,1.4,0.6c0.8,0.2,1.6,0.5,2.1,1.2
					c0.5,0.7,0.3,1.6,0.2,2.5c-0.1,0.6-0.2,1.1-0.1,1.5c0.1,0.4,0.4,0.8,0.8,1.3c0.5,0.7,1.1,1.4,1,2.2c0,0.8-0.7,1.5-1.3,2.1
					c-0.4,0.4-0.8,0.8-0.9,1.2c-0.1,0.4-0.1,0.9-0.1,1.4c0,0.8,0.1,1.8-0.5,2.4l0,0c-0.6,0.7-1.5,0.8-2.3,1
					c-0.5,0.1-1.1,0.2-1.4,0.4c-0.4,0.2-0.7,0.7-1,1.1c-0.5,0.7-1,1.4-1.8,1.6c-0.8,0.2-1.6-0.2-2.4-0.6c-0.5-0.3-1-0.5-1.4-0.5
					c-0.4,0-0.9,0.2-1.4,0.3c-0.8,0.3-1.7,0.6-2.4,0.3c-0.1,0-0.1,0-0.2-0.1C113,74.6,112.6,73.9,112.2,73.2z M127.2,70.7
					c0.3-0.4,0.3-1.1,0.3-1.8c0-0.6,0-1.3,0.2-1.8c0.2-0.6,0.7-1.1,1.1-1.5c0.5-0.5,1-1,1-1.5c0-0.5-0.4-1-0.8-1.6
					c-0.4-0.5-0.8-1-0.9-1.6c-0.2-0.6-0.1-1.2,0-1.9c0.1-0.7,0.2-1.4-0.1-1.8c-0.2-0.4-0.9-0.6-1.5-0.8c-0.6-0.2-1.3-0.4-1.8-0.8
					c-0.5-0.4-0.8-1-1.1-1.6c-0.3-0.6-0.6-1.2-1.1-1.4c-0.5-0.2-1.1,0-1.8,0.3c-0.6,0.2-1.2,0.4-1.8,0.4c-0.6,0-1.2-0.3-1.8-0.6
					c-0.6-0.3-1.2-0.6-1.7-0.5c-0.5,0.1-0.8,0.7-1.2,1.2c-0.4,0.5-0.7,1.1-1.3,1.4c-0.5,0.3-1.1,0.4-1.8,0.5
					c-0.7,0.1-1.4,0.2-1.7,0.6c-0.3,0.4-0.3,1.1-0.3,1.8c0,0.6,0,1.3-0.2,1.8c-0.2,0.6-0.7,1.1-1.1,1.5c-0.5,0.5-1,1-1,1.5
					c0,0.5,0.4,1,0.8,1.6c0.4,0.5,0.8,1,0.9,1.6c0.2,0.6,0.1,1.2,0,1.9c-0.1,0.7-0.2,1.4,0.1,1.8c0.2,0.4,0.9,0.6,1.5,0.8
					c0.6,0.2,1.3,0.4,1.8,0.8c0.5,0.4,0.8,1,1.1,1.6c0.3,0.6,0.6,1.2,1.1,1.4c0.5,0.2,1.1,0,1.8-0.3c0.6-0.2,1.2-0.4,1.8-0.4
					c0.6,0,1.2,0.3,1.8,0.6c0.6,0.3,1.2,0.6,1.7,0.5c0.5-0.1,0.8-0.7,1.2-1.2c0.4-0.5,0.7-1.1,1.3-1.4c0.5-0.3,1.1-0.4,1.8-0.5
					C126.2,71.2,126.9,71.1,127.2,70.7L127.2,70.7z"/>
			</g>
		</g>
		<g class="st21">
			<g>
				
					<ellipse transform="matrix(0.4557 -0.8901 0.8901 0.4557 -1.7655 124.0109)" class="st25" cx="100.5" cy="63.4" rx="0.6" ry="0.9"/>
			</g>
		</g>
		<g>
			<g>
				<path class="st26" d="M84.1,56.3L84.1,56.3c0.1-0.2,0.2-0.3,0.3-0.4c0.3-0.5,0.7-1,1.2-1.4c7.6-7.3,18-10.5,26.5-6.2
					c7.7,3.9,11.6,12.7,10.8,22.2l0,0c-0.2,2.2-0.6,4.4-1.3,6.7l0,0c0,0.1-0.1,0.3-0.1,0.4c0,0,0,0,0,0c-0.1,0.4-0.2,0.7-0.2,1.1
					c0,0,0,0,0,0c0,0.1,0,0.1,0,0.2c0,0,0,0.1,0,0.1c0,0.1,0,0.1,0,0.2c0,0,0,0,0,0c0,0.1,0,0.1,0,0.2c0,0,0,0.1,0,0.1
					c0,0,0,0.1,0,0.1c0,0,0,0.1,0,0.1c0,0.1,0,0.1,0,0.2c0,0.4,0,0.7,0.1,1.1c0,0.1,0,0.1,0,0.2c0,0,0,0.1,0,0.1c0,0,0,0.1,0,0.1
					c0,0,0,0.1,0,0.1s0,0.1,0,0.1c0,0,0,0.1,0,0.1c0,0,0,0.1,0,0.1c0,0.1,0,0.1,0,0.2c0,0.1,0,0.1,0.1,0.2c0,0,0,0,0,0
					c0,0.1,0.1,0.1,0.1,0.2c0,0,0,0.1,0,0.1c0,0,0,0.1,0,0.1c0,0,0,0.1,0,0.1c0,0,0,0.1,0.1,0.1c0,0,0,0.1,0.1,0.1
					c0.2,0.3,0.3,0.6,0.5,0.8c0,0,0.1,0.1,0.1,0.1c0.1,0.1,0.2,0.3,0.4,0.4c0,0,0.1,0,0.1,0.1c0,0,0.1,0.1,0.1,0.1
					c0,0,0.1,0.1,0.1,0.1c0,0,0,0,0,0c0,0,0.1,0,0.1,0.1c0,0,0.1,0.1,0.1,0.1c0.1,0.1,0.3,0.2,0.4,0.3c0,0,0.1,0,0.1,0
					c0,0,0.1,0.1,0.1,0.1l-6.6-3.4l0,0L86,65.6c-0.2-0.1-0.4-0.2-0.5-0.3c-0.1-0.1-0.2-0.1-0.2-0.2c-0.4-0.3-0.7-0.7-1-1.1
					c0-0.1-0.1-0.1-0.1-0.2c-0.1-0.1-0.2-0.3-0.3-0.4c0-0.1-0.1-0.2-0.1-0.3c-0.1-0.2-0.2-0.4-0.2-0.6c0-0.1-0.1-0.2-0.1-0.3
					c0,0,0,0,0-0.1c0-0.1,0-0.1-0.1-0.2c0-0.1,0-0.1-0.1-0.2c0-0.1,0-0.2-0.1-0.2C83,61.2,83,60.8,83,60.4c0-0.1,0-0.2,0-0.3
					c0-0.3,0-0.5,0.1-0.8c0.1-0.9,0.4-1.7,0.8-2.5C84,56.6,84,56.4,84.1,56.3z"/>
			</g>
		</g>
		<g class="st10">
			<g>
				<path class="st11" d="M84.1,56.3L84.1,56.3c0.1-0.2,0.2-0.3,0.3-0.4c0.3-0.5,0.7-1,1.2-1.4c7.6-7.3,18-10.5,26.5-6.2
					c7.7,3.9,11.6,12.7,10.8,22.2l0,0c-0.2,2.2-0.6,4.4-1.3,6.7l0,0c0,0.1-0.1,0.3-0.1,0.4c0,0,0,0,0,0c0,0.1,0,0.1-0.1,0.2
					c-0.1,0-0.2,0-0.3-0.1c0.6-2,0.9-4,1.1-6l0,0c0.8-9.5-3.1-18.3-10.8-22.2c-8.4-4.3-18.8-1.1-26.5,6.2c-0.5,0.4-0.9,0.9-1.2,1.4
					c-0.1,0.1-0.1,0.2-0.2,0.3c0.1-0.2,0.2-0.5,0.3-0.7C84,56.6,84,56.4,84.1,56.3z"/>
			</g>
		</g>
		<g class="st15">
			<g>
				<path class="st16" d="M85.6,54.5c0.4-0.3,0.1,0-0.3,0.5C85.3,54.8,85.4,54.6,85.6,54.5z"/>
			</g>
		</g>
		<g>
			<g>
				<path class="st8" d="M117.1,82.1l-31.3-16c-1.7-0.9-2.9-2.6-3.2-4.7c-0.4-2.6,0.6-5.3,2.7-7.2c3.9-3.8,8.5-6.4,13.2-7.6
					c4.9-1.3,9.7-0.8,13.9,1.3c4.6,2.4,8.2,6.7,9.9,12.1c1.7,5.3,1.7,11.5-0.1,17.4c0,0,0,0,0,0c0,0.1-0.1,0.3-0.1,0.4c0,0,0,0,0,0
					l0,0c-0.8,2.9,0.1,5.8,2.3,6.9c0.2,0.1,0.3,0.4,0.2,0.7c-0.1,0.2-0.4,0.3-0.7,0.2L117.1,82.1C117.1,82.1,117.1,82.1,117.1,82.1z
					 M121,77.5C121,77.5,121,77.5,121,77.5c0-0.2,0.1-0.3,0.1-0.5c0,0,0,0,0,0c3.6-11.8-0.3-23.7-9.3-28.3c-7.7-4-17.9-1.6-25.9,6.1
					c-1.8,1.7-2.7,4.1-2.4,6.4c0.3,1.8,1.2,3.2,2.7,4l31.4,16.1c0,0,0,0,0.1,0l3.8,1.9C120.6,81.7,120.4,79.6,121,77.5z M121.9,77.7
					L121.9,77.7L121.9,77.7z M121.9,77.7C121.9,77.7,121.9,77.7,121.9,77.7C121.9,77.7,121.9,77.7,121.9,77.7z"/>
			</g>
		</g>
		<g class="st15">
			<g>
				<path class="st11" d="M119,62.2c0.5,2.5-0.2,4.7-1.4,4.9s-1.1-1.9-1.5-4.3s-1.5-4.3-0.2-4.6C117.1,58,118.5,59.8,119,62.2z"/>
			</g>
		</g>
		<g class="st15">
			<g>
				<circle class="st16" cx="96.4" cy="52.7" r="0.4"/>
			</g>
		</g>
		<g class="st15">
			<g>
				<circle class="st16" cx="118.2" cy="71.8" r="0.4"/>
			</g>
		</g>
		<g class="st15">
			<g>
				<circle class="st16" cx="95.1" cy="60.4" r="0.4"/>
			</g>
		</g>
		<g class="st15">
			<g>
				<circle class="st16" cx="111.7" cy="74.7" r="0.4"/>
			</g>
		</g>
		<g class="st15">
			<g>
				<circle class="st16" cx="114.2" cy="53.6" r="0.4"/>
			</g>
		</g>
		<g class="st15">
			<g>
				<circle class="st16" cx="107.6" cy="56.8" r="0.4"/>
			</g>
		</g>
		<g class="st15">
			<g>
				<circle class="st16" cx="107" cy="70.1" r="0.4"/>
			</g>
		</g>
		<g class="st15">
			<g>
				<circle class="st16" cx="105.5" cy="52.1" r="0.4"/>
			</g>
		</g>
		<g class="st15">
			<g>
				<ellipse class="st16" cx="98.8" cy="52" rx="0.5" ry="0.5"/>
			</g>
		</g>
		<g class="st15">
			<g>
				<ellipse class="st16" cx="86.2" cy="60.3" rx="0.5" ry="0.5"/>
			</g>
		</g>
		<g class="st15">
			<g>
				<ellipse class="st16" cx="97" cy="68.3" rx="0.5" ry="0.5"/>
			</g>
		</g>
	</g>
</g>
</svg>
