<?xml version="1.0" encoding="utf-8"?>
<!-- Generator: Adobe Illustrator 24.3.0, SVG Export Plug-In . SVG Version: 6.00 Build 0)  -->
<svg version="1.1" id="Layer_1" xmlns:v="https://vecta.io/nano"
	 xmlns="http://www.w3.org/2000/svg" xmlns:xlink="http://www.w3.org/1999/xlink" x="0px" y="0px" viewBox="0 0 202 134"
	 style="enable-background:new 0 0 202 134;" xml:space="preserve">
<style type="text/css">
	.st0{opacity:0.9;clip-path:url(#SVGID_2_);}
	.st1{opacity:0.5;fill:#D6AEA0;enable-background:new    ;}
	.st2{fill:#4D1519;}
	.st3{fill:#ED3A33;}
	.st4{fill:#93B659;}
	.st5{fill:#C42F29;}
	.st6{fill:#FAAB3D;}
	.st7{fill:#68A745;}
	.st8{fill:#420A10;}
	.st9{fill:#80B15B;}
	.st10{fill:#733030;}
	.st11{fill:#CD8D31;}
	.st12{fill:#723030;}
	.st13{fill:#4D1619;}
	.st14{fill:#81B15B;}
	.st15{fill:#80B05A;}
	.st16{fill:#80AC59;}
	.st17{fill:#F8B879;}
	.st18{fill:#350E29;}
	.st19{fill:#E83C48;}
	.st20{opacity:0.55;}
	.st21{fill:#FFFFFF;}
	.st22{opacity:0.16;}
	.st23{fill:#6B184E;}
	.st24{fill:#D93541;}
	.st25{opacity:0.25;}
	.st26{fill:#6D1837;}
	.st27{fill:#FEC92B;}
	.st28{fill:none;}
	.st29{fill:#D76630;}
	.st30{fill:#611840;}
	.st31{opacity:0.3;}
	.st32{opacity:0.65;}
	.st33{fill:#72A88E;}
	.st34{fill:#85BE54;}
	.st35{fill:#E66E5F;}
	.st36{fill:#FAB615;}
</style>
<g>
	<defs>
		<rect id="SVGID_1_" y="0" width="202" height="133.7"/>
	</defs>
	<clipPath id="SVGID_2_">
		<use xlink:href="#SVGID_1_"  style="overflow:visible;"/>
	</clipPath>
	<g class="st0">
		<g>
			<path class="st1" d="M40.8,63c-0.2-1-1.7-1-1.8,0L38,69.2c-0.1,0.4-0.4,0.7-0.8,0.8L31,70.9c-1,0.2-1,1.7,0,1.8l6.2,0.9
				c0.4,0.1,0.7,0.4,0.8,0.8l0.9,6.2c0.2,1,1.7,1,1.8,0l0.9-6.2c0.1-0.4,0.4-0.7,0.8-0.8l6.2-0.9c1-0.2,1-1.7,0-1.8l-6.2-0.9
				c-0.4-0.1-0.7-0.4-0.8-0.8C41.7,69.2,40.8,63,40.8,63z M159.3,43.2c-0.2-1-1.7-1-1.8,0l-0.9,6.2c-0.1,0.4-0.4,0.7-0.8,0.8
				l-6.2,0.9c-1,0.2-1,1.7,0,1.8l6.2,0.9c0.4,0.1,0.7,0.4,0.8,0.8l0.9,6.2c0.2,1,1.7,1,1.8,0l0.9-6.2c0.1-0.4,0.4-0.7,0.8-0.8
				l6.2-0.9c1-0.2,1-1.7,0-1.8l-6.2-0.9c-0.4-0.1-0.7-0.4-0.8-0.8L159.3,43.2z M82.8,7.5c0.2-1,1.7-1,1.8,0l0.3,2
				c0.1,0.4,0.4,0.7,0.8,0.8l2,0.3c1,0.2,1,1.7,0,1.8l-2,0.3c-0.4,0.1-0.7,0.4-0.8,0.8l-0.3,2c-0.2,1-1.7,1-1.8,0l-0.3-2
				c-0.1-0.4-0.4-0.7-0.8-0.8l-2-0.3c-1-0.2-1-1.7,0-1.8l2-0.3c0.4-0.1,0.7-0.4,0.8-0.8L82.8,7.5z"/>
		</g>
	</g>
</g>
<g>
	<path class="st2" d="M127.6,77c1.3,0,2.6,0,3.9,0c0.3,0,0.5-0.1,0.7-0.4c0.8-1.2,1.7-2.3,2.8-3.1c2.6-2,5.5-2.1,8.5-1.1
		c0.2,0.1,0.4,0.2,0.5,0.4c1.1,0.9,2.2,1.7,3.5,2.3c0.8,0.4,1.7,0.7,2.7,0.7c2.7,0.1,5,1.7,5.8,4.3c0.4,1.1,0.9,1.8,1.9,2.4
		c1.5,0.9,2.6,2.1,3.4,3.7c0.4,0.8,0.4,1.5,0.3,2.3c-0.2,4.2-0.7,8.4-1.5,12.5c-1.3,6.7-3.3,13.2-7,19.1c-3,4.8-6.8,8.8-12.2,10.9
		c-9.1,3.6-17.8,3-25.7-2.9c-4-3-6.7-7-9-11.4c-2.7-5.4-4.5-11.2-5.6-17.1c-0.6-3.2-1.1-6.5-1.4-9.8c-0.1-0.6-0.4-1.2-0.4-1.8
		c-0.1-1.5,0.4-2.7,1.4-3.8c1.5-1.7,3.4-2.7,5.5-3.5c3.4-1.4,6.9-2.2,10.4-2.7C119.9,77.4,123.7,77.1,127.6,77z"/>
	<path class="st3" d="M151.7,106.4c-2.3,1-4.6,1.8-7,2.4c-2.9,0.7-5.8,1.2-8.7,1.4c-2.5,0.2-5.1,0.3-7.6,0.2
		c-6.6-0.2-12.9-1.3-18.9-4.2c-2.3-1.1-4.4-2.5-6.4-4.1c-0.2-0.2-0.3-0.3-0.4-0.6c-0.7-2.9-1.1-5.9-1.5-8.8c0-0.1,0-0.3,0-0.4
		c0.7,0.5,1.4,0.9,2.1,1.3c2.8,1.6,5.9,2.5,9.1,3.2c4.1,0.9,8.2,1.4,12.4,1.6c3.2,0.2,6.4,0.2,9.6,0.1c6.2-0.3,12.3-1,18.2-3
		c2.1-0.7,4.1-1.6,5.9-2.9c0.2,0.2,0.2,0.2,0.1,0.6c-0.4,1-0.8,2.1-1.3,3.1c-1.5,3.5-3.2,6.7-5.3,9.9
		C152,106.3,151.9,106.4,151.7,106.4z"/>
	<path class="st4" d="M131.8,96.7c0.5-1,1.4-1.5,2.4-1.8c0.6-0.2,1.3-0.3,2-0.3c0.4,0,0.8-0.1,0.8-0.6c0-0.5-0.4-0.6-0.8-0.6
		c-1,0-1.9,0.2-2.9,0.5c-1.4,0.5-2.3,1.6-2.9,2.9c-0.5,0.3-1,0.1-1.5,0.1c-1.3-0.1-2.7,0-4-0.1c-2.1-0.2-4.3-0.3-6.4-0.6
		c-2.6-0.3-5.1-0.8-7.7-1.5c-1.5-0.4-3-0.9-4.5-1.5c-0.2-0.1-0.5-0.1-0.5-0.5c0.5-0.5,1-0.5,1.6-0.3c0.3,0.1,0.5,0.3,0.8,0.5
		c0.9,0.5,1.7,0,1.7-1c0-0.4,0.2-0.7,0.5-1c0.3-0.2,0.6-0.4,0.9-0.5c0.1-0.1,0.3-0.1,0.4-0.2c0.4-0.1,0.7-0.2,1.1-0.2
		c1.1,0,1.5,0.2,1.9,1.2c0.1,0.4,0.5,0.6,0.6,1c0.1,0.6,0.2,0.8,0.8,0.5c1.7-0.6,3.3-2.4,3-4.7c0-0.2,0-0.4,0-0.7
		c0.6-1.2,2.1-2.1,3.6-1.9c1.8,0.2,3.4,1.1,4.8,2.2c0.1,0.1,0.2,0.2,0.2,0.3c0.1,0.3-0.1,0.5-0.1,0.8c0,0.2,0,0.5,0.3,0.6
		c0.3,0.1,0.4-0.1,0.5-0.4c0.1-0.1,0.1-0.3,0.2-0.4c0.4-0.1,0.6-0.4,0.7-0.7c0.1-0.4,0.3-0.7,0.5-1.1c0.8-0.7,1.8-0.9,2.8-1
		c0.2,0,0.3,0,0.5,0c0.8,0,0.9-0.2,0.8-0.9c0.7-1.2,1.7-2,2.8-2.7c2.2-1.2,4.5-1.2,6.8-0.6c0.3,0.1,0.5,0.3,0.8,0.4
		c1.4,0.9,2.8,1.7,4.5,2c0.2,0,0.3,0,0.4,0.2c-0.2,0.3-0.6,0.3-0.9,0.5c-0.2,0.2-0.5,0.3-0.4,0.6c0.1,0.3,0.4,0.2,0.7,0.1
		c0.5-0.2,0.9-0.3,1.4-0.4c1.6-0.3,2.9,0.2,3.9,1.5c0.5,0.7,0.8,1.5,1.1,2.3c0.1,1.1,0.1,2.2,0.3,3.3c0,0.4-0.2,0.5-0.5,0.6
		c-2.4,1.1-4.9,1.8-7.4,2.4c-2,0.5-4,0.8-6,1c-1.4,0.2-2.9,0.3-4.3,0.4c-1.5,0.1-3,0.2-4.5,0.2C132.3,97,132,97.1,131.8,96.7z"/>
	<path class="st5" d="M107.3,113.1c0.2,0.2,0.5,0.3,0.7,0.5c2,2.1,4.3,4,6.9,5.4c2.3,1.2,4.6,1.9,7.2,2.3c5.2,0.7,10.3,0.1,15.1-2.1
		c1-0.4,1.9-0.9,2.8-1.5c0.3-0.2,0.6,0,0.9-0.2c0.3-0.2,0.6-0.2,1-0.3c4.4-0.8,8.5-2.2,12.4-4.3c0.2-0.1,0.4-0.2,0.6-0.1
		c0.2,0.2,0.1,0.4,0,0.6c-0.8,2-1.8,3.9-3,5.8c-1.4,2.3-3.1,4.4-5,6.2c-3.5,3.2-7.6,5.3-12.3,6c-1.7,0.3-3.3,0.4-5,0.4
		c-5.5-0.2-10.5-2-14.7-5.7c-3.7-3.3-6.3-7.4-8.3-11.9c-0.2-0.3-0.3-0.7-0.5-1c0-0.2-0.1-0.3,0-0.4c0.1-0.1,0.3,0,0.4,0
		C107,112.7,107.1,112.9,107.3,113.1z"/>
	<path class="st6" d="M143.7,115.2c-1.6,0.3-3.1,0.6-4.7,0.8c-3.9,0.5-7.9,0.6-11.8,0.5c-3.7-0.2-7.3-0.7-10.9-1.6
		c-3.9-1-7.5-2.6-10.8-4.8c-0.3-0.2-0.5-0.5-0.6-0.8c-0.5-1.5-1-3-1.4-4.5c0.1,0,0.1,0,0.2,0.1c4.6,3.3,9.7,5.3,15.2,6.4
		c5.1,1,10.2,1.2,15.4,0.9c5.2-0.3,10.3-1.2,15.2-3c0.2,0.3,0.2,0.3-0.1,0.6c-0.5,0.6-0.9,1.1-1.4,1.7c-1.1,1.2-2.2,2.4-3.5,3.4
		c-0.1,0.1-0.2,0.2-0.3,0.3C144.1,115.3,143.9,115.3,143.7,115.2z"/>
	<path class="st7" d="M131,83.3c-0.8-0.5-1.7-0.8-2.7-1c-0.4-0.1-0.6-0.2-0.4-0.6c0.2-0.4,0.3-0.8,0.4-1.2c0.6-1.4,1.6-2.1,3.1-2
		c0.7,0,1-0.2,1.3-0.8c1.1-1.7,2.4-3.3,4.3-4.2c1.9-0.9,3.9-0.8,5.9-0.1c0.6,0.2,1,0.8,1.6,1.2c1.4,1,2.9,2,4.7,2.3
		c0.6,0.1,1.3,0.1,2,0.2c0.5,0,0.9,0.2,1.3,0.4c1.9,1.3,2.8,3.1,3,5.3c0.1,1.4,0,2.7,0.2,4.1c0.1,0.4,0.2,0.8,0.3,1.2
		c-0.1,0-0.1,0-0.2,0c-0.4-0.7-0.7-1.4-1.2-2.1c-0.4-0.5-1-0.8-1.4-1.3c-0.4-0.8-1.2-1.4-1.8-2.1c-0.6-0.6-1.3-1.2-2.1-1.6
		c-1.3-0.6-2.4-1.6-3.5-2.4c-0.9-0.6-1.8-0.8-2.9-0.8c-1.1-0.2-2.2-0.4-3.4-0.2c-1.5,0.3-2.7,1-3.4,2.4c-0.1,0.1-0.1,0.3-0.2,0.3
		c-0.6,0.5-1,1.1-1.4,1.7c-0.3,0.4-0.6,0.6-1,0.6C132.6,82.6,131.8,82.9,131,83.3z"/>
	<path class="st8" d="M143.7,115.2c0.2-0.1,0.3-0.1,0.5-0.2c0.5-0.3,1.2-0.4,1.8-0.6c3.3-1,6.4-2.3,9.3-4.1c0.4-0.3,0.7-0.6,0.8-1
		c0.4-1.3,0.8-2.6,1.2-4c-0.9,0.5-1.7,1.1-2.5,1.5c-1.2,0.7-2.4,1.3-3.7,1.8c-0.2,0.1-0.5,0.3-0.8,0.1c-0.3,0-0.1-0.1-0.1-0.3
		c0.5-0.7,1.1-1.4,1.5-2.1c0.1-0.1,0.2-0.1,0.2-0.2c0.6-0.6,1.3-0.8,2-1.2c1.2-0.7,2.4-1.5,3.5-2.3c0.3-0.2,0.6-0.5,0.7-1
		c0.6-3.2,1.1-6.4,1.4-9.7c0-0.1,0-0.2,0-0.2c0,0.2-0.2,0.4-0.4,0.3c-0.2-0.2,0-0.3,0-0.5c0.4-1.4,0.9-2.7,1.4-4.1
		c0.1-0.2,0.1-0.4,0.3-0.4c0.3,0,0.2,0.3,0.1,0.5c-0.2,1.9-0.2,3.8-0.4,5.6c-0.2,2.1-0.5,4.2-0.9,6.2c-0.4,2.5-1,4.9-1.6,7.3
		c-1,3.6-2.3,7.1-4.1,10.4c-1.2,2.2-2.5,4.3-4.2,6.2c-2.3,2.7-5.1,5-8.3,6.5c-2.1,1-4.3,1.6-6.5,2c-1.8,0.3-3.6,0.4-5.4,0.3
		c-3-0.1-5.9-0.7-8.6-1.9c-3.1-1.3-5.8-3.3-8.1-5.8c-1.8-1.9-3.3-4.1-4.6-6.4c-1.9-3.3-3.3-6.7-4.4-10.3c0-0.1-0.1-0.2,0-0.3
		c0.4,0.6,0.8,1.2,1.2,1.9c0.8,1.2,1.6,2.3,2.5,3.4c0.1,0.1,0.1,0.1,0,0.2c-0.4-0.1-0.6-0.4-1-0.5c0.1,0.5,0.4,1,0.6,1.4
		c1.8,4,4.1,7.7,7.2,10.8c3.5,3.5,7.7,5.7,12.6,6.3c6.6,0.9,12.8-0.3,18.3-4.4c3.2-2.4,5.6-5.4,7.5-8.8c1-1.7,1.8-3.4,2.5-5.3
		c-0.4,0-0.6,0.2-0.8,0.4c-3.6,1.9-7.5,3.2-11.6,4c-0.5,0.1-1,0.3-1.6,0.3c-0.1-0.2,0.1-0.2,0.2-0.2C142,116.6,143,116,143.7,115.2z
		"/>
	<path class="st7" d="M114.7,91.5c-0.4-1.1-0.6-1.2-1.8-1.2c-0.2-0.1-0.3-0.3-0.3-0.5c-0.4-0.9-0.9-1.2-1.9-1
		c-0.2,0.1-0.5,0.2-0.7,0.2c-0.7-0.1-1.5-0.2-2.2-0.2c-1.2,0-2.1,0.6-3,1.4c-0.2,0.2-0.3,0.5-0.5,0.8c-0.2,0.2-0.5-0.1-0.7,0
		c-0.1,0-0.3,0.1-0.3,0.2c0,0.1,0.1,0.2,0.2,0.2c0.6,0.3,1.3,0.5,1.9,0.8c0.2,0.1,0.5,0.1,0.5,0.5c-0.1,0.2,0.1,0.2,0.2,0.3
		c2.7,1.1,5.5,1.8,8.3,2.3c1.7,0.3,3.5,0.6,5.2,0.8c1,0.1,2,0.2,3,0.3c2.1,0.2,4.2,0.2,6.3,0.3c0.5,0,0.9,0,1.4,0
		c0,0.4-0.4,0.3-0.6,0.3c-2.7,0-5.4-0.1-8.1-0.3c-3.8-0.3-7.6-0.9-11.3-1.9c-2.6-0.7-5.1-1.6-7.4-3.2c-0.8-0.6-1.5-1.3-1.9-2.3
		c-0.1-0.3-0.2-0.5,0.1-0.7c0.3-0.2,0.6-0.3,0.9,0c0.3,0.3,0.6,0.5,0.9,0.7c0.7,0.5,1.4,0.4,2.1,0c0.7-0.4,1.1-0.9,1-1.8
		c-0.1-0.8,0.2-1.2,0.8-1.6c0.5-0.3,1.1-0.5,1.7-0.6c0.8-0.1,1,0,1.3,0.8c0.2,0.6,0.4,1.2,0.9,1.7c1.3,1,2.6,0.8,3.4-0.6
		c0.8-1.4,1-2.9,1.3-4.4c0.2-0.8,0.5-1.6,0.9-2.3c1-1.5,2.4-2,4.1-1.4c1.8,0.6,3.2,1.8,4.5,3c0.2,0.1,0.2,0.3,0,0.4
		c-0.5,0.2-0.9,0.6-1.3,0.9c-0.3,0-0.6-0.2-1-0.3c-2-0.6-3.7,0.1-4.8,1.9c-0.4,0.7-0.6,1.5-0.8,2.3c-0.2,0.8-0.4,1.6-0.7,2.3
		c-0.2,0.6-0.5,1.1-0.9,1.5C115.4,91.6,115.1,91.8,114.7,91.5z"/>
	<path class="st3" d="M140.1,117.6c0.2,0,0.2,0.1,0,0.2c-2,1.1-4,2-6.2,2.7c-3.2,1-6.5,1.3-9.8,1.1c-2.8-0.2-5.5-0.8-8.1-2
		c-3-1.4-5.6-3.3-7.8-5.7c-0.1-0.1-0.3-0.2-0.2-0.4c2.9,1.4,5.9,2.5,9,3.3c3,0.7,6,1.1,9,1.3c2.5,0.2,5,0.1,7.5,0.1
		c2-0.1,4-0.2,5.9-0.5C139.7,117.6,139.9,117.6,140.1,117.6z"/>
	<path class="st9" d="M143,77.7c0.2-0.2,0.4-0.1,0.6-0.1c1.5,0.1,2.6,1.1,3.7,1.9c0.9,0.7,1.8,1.4,2.9,1.8c0.1,0,0.2,0.1,0.2,0.2
		c0.9,1,1.9,1.8,2.7,2.8c0.1,0.1,0.2,0.2,0.2,0.4c-0.1,0.1-0.3,0-0.4,0c-1-0.4-2.1-0.4-3.2-0.2c-0.2,0-0.4,0.1-0.5-0.1
		c-2-0.3-3.7-1.2-5.3-2.3c-0.5-0.3-1.1-0.4-1.7-0.5c-2.4-0.3-4.7,0-6.6,1.7c-0.6,0.5-1.1,1.1-1.6,1.7c-0.4,0.1-0.9,0-1.3,0.1
		c-0.9,0.1-1.8,0.3-2.7,0.7c-0.1,0.1-0.3,0.1-0.5,0.1c-0.2-0.1-0.2-0.2-0.2-0.4c0.1-0.5,0.3-1,0.7-1.4c0.8,0.2,1,0,0.9-0.8
		c0.6-0.7,1.5-0.8,2.4-0.8c0.4,0,0.7-0.1,0.9-0.5c0.4-0.6,0.8-1.3,1.5-1.7c0.1,0.1,0.1,0.2,0.1,0.3c0.2,0.5,0.5,0.5,0.8,0
		c0.2-0.3,0.4-0.7,0.6-1c1-1.2,2.3-1.4,3.7-1.4c0.3,0,0.6,0.1,0.9,0.1C142.8,78.5,142.8,78.4,143,77.7z"/>
	<path class="st10" d="M100.5,87.8c0-0.9,0.4-1.6,0.9-2.3c1.1-1.3,2.5-2.1,4-2.8c3.3-1.5,6.7-2.3,10.3-2.9c0,0.3-0.2,0.5-0.3,0.7
		c-0.6,1-0.8,2.2-1,3.3c-0.2,1-0.5,2.1-1,3c-0.2,0.4-0.4,0.8-0.9,0.7c-0.5-0.1-1-0.4-1.2-1c0-0.1-0.1-0.3-0.1-0.4
		c-0.5-1.6-1.2-2.1-2.8-1.7c-1,0.2-2,0.6-2.7,1.5c-0.4,0.5-0.7,1.1-0.5,1.7c0.1,0.4,0,0.6-0.3,0.8c-0.3,0.2-0.6,0.3-1,0.1
		c-0.2-0.1-0.3-0.2-0.4-0.3C102.3,87.2,101.9,87.1,100.5,87.8z"/>
	<path class="st11" d="M150.3,108.8c2.3-0.8,4.5-2,6.5-3.4c0.2-0.1,0.4-0.2,0.6-0.4c0,0.3-0.1,0.6-0.2,0.9c-0.3,0.9-0.6,1.8-0.8,2.8
		c-0.2,1-0.8,1.7-1.7,2.2c-3.2,1.9-6.6,3.3-10.2,4.2c-0.1,0-0.2,0-0.4,0c0.6-0.6,1.2-1.2,1.9-1.8c1.1-1,2-2,2.9-3.1
		c0.2-0.3,0.7-0.4,0.6-0.9C149.8,109,150.1,108.9,150.3,108.8z"/>
	<path class="st9" d="M114.7,91.5c0.6,0.1,0.9-0.3,1.2-0.7c0.7-1,1-2.2,1.2-3.3c0.3-1.6,0.9-3.1,2.4-4c1.3-0.9,3.1-0.6,4.3,0.1
		c-0.1,0.2-0.3,0.3-0.4,0.5c-0.2,0.3-0.2,0.6,0.1,0.8c0.3,0.2,0.6,0.1,0.8-0.2c0.2-0.3,0.4-0.5,0.7-0.7c0.1-0.1,0.3,0,0.4,0.1
		c1.1,0.7,2.2,1.5,3.1,2.5c-0.2,0.5-0.4,1.1-0.9,1.4c-0.3-0.6-0.9-0.8-1.4-1.1c-1.2-0.8-2.5-1.4-4-1.3c-1.3,0.1-2.4,0.6-3,1.8
		c-0.1,0-0.2,0-0.2-0.1c-0.1-0.1-0.3-0.3-0.5-0.1c-0.2,0.1-0.2,0.3-0.2,0.5c0.1,0.3,0.1,0.7,0.1,1c-0.1,1.7-1.6,3.3-3.1,3.5
		C115.1,92.1,114.9,91.9,114.7,91.5z"/>
	<path class="st5" d="M159,92.1c0.2-0.1,0.3-0.3,0.6-0.5c0,1.1-0.1,2-0.3,3c-0.3,2.4-0.6,4.8-1.2,7.2c0,0.2-0.1,0.4-0.3,0.6
		c-1.8,1.5-3.8,2.8-6,3.7c0.8-1.4,1.6-2.8,2.4-4.2c1.1-2,2.1-4,2.9-6.1c0.4-1,0.8-2,1.2-3c0-0.1,0.2-0.2,0-0.4
		C158.7,92.5,158.9,92.3,159,92.1z"/>
	<path class="st7" d="M155.8,88.1c0,0,0.1,0,0.1,0c0.7,1,1.6,1.4,2.7,1.3c0.3,0,0.4,0.1,0.2,0.4c-0.4,0.8-1,1.4-1.7,1.9
		c-2.4,1.7-5.1,2.6-7.8,3.3c-3.6,0.9-7.2,1.5-10.9,1.8c-2.1,0.2-4.2,0.3-6.4,0.4c-0.5,0-0.6-0.1-0.3-0.5c0.2,0.2,0.4,0.1,0.7,0.1
		c2.8,0,5.6-0.3,8.4-0.6c3.9-0.4,7.7-1.2,11.4-2.4c0.9-0.3,1.7-0.7,2.6-1c0.2-0.1,0.5-0.2,0.4-0.5c0.1-0.4,0.5-0.5,0.8-0.6
		c0.6-0.3,0.6-0.3,0.2-0.9c-0.4-0.5-0.6-1.1-1-1.6C155.7,88.8,155.8,88.5,155.8,88.1z"/>
	<path class="st7" d="M128.5,86.8c-0.8-0.4-1.3-1.2-2.1-1.7c-0.5-0.3-0.9-0.6-1.4-1c0.9-0.9,2.1-0.9,3.2-0.7
		c0.6,0.1,1.2,0.3,1.8,0.6c-0.2,0.5-0.3,0.9-0.5,1.4c0,0.1-0.1,0.3,0,0.4C129.4,86.3,129,86.6,128.5,86.8z"/>
	<path class="st12" d="M156.7,83.8c1.4,0.9,2.7,1.9,3,3.6c0.1,0.5,0,0.9-0.6,0.8c-0.2,0-0.5,0.1-0.7,0.1c-1.1-0.1-1.4-0.4-1.6-1.4
		C156.6,85.9,156.6,84.9,156.7,83.8z"/>
	<path class="st12" d="M122.8,79c1.8-0.2,3.5-0.3,5.3-0.3c-0.6,0.9-1,1.9-1.3,2.9c-0.1,0.4-0.3,0.5-0.6,0.2
		C125.3,80.8,124.2,79.9,122.8,79z"/>
	<path class="st2" d="M155.8,88.1c0.2,0.5,0.2,0.9-0.4,1.1c-0.2,0.1-0.3-0.1-0.5-0.2c-0.2-0.4-0.3-0.8-0.5-1.2c-1-2.2-2.9-3-5.2-2.2
		c-0.2,0.1-0.4,0.2-0.7,0.3c-0.3,0.2-0.6,0.1-0.8-0.2c-0.2-0.4,0-0.7,0.3-0.8c0.3-0.1,0.7-0.3,1-0.4c1.4-0.4,2.8-0.4,4.1,0.3
		C154.6,85.5,155.4,86.6,155.8,88.1z"/>
	<path class="st9" d="M106,92.9c-0.5-0.5-1.3-0.6-2-0.9c-0.2-0.1-0.4-0.1-0.5-0.2c-0.2-0.1-0.5-0.1-0.4-0.3c0-0.2,0.3-0.3,0.5-0.4
		c0.3-0.1,0.5-0.1,0.7,0.2c0.3,0.1,0.5,0.3,0.8,0.4c0.3,0.2,0.6,0.4,0.9,0.6c0.4,0.2,0.8,0.2,1.2,0c0.4-0.2,0.6-0.6,0.5-1.1
		c-0.1-0.6,0.1-1,0.6-1.3c1.2-0.1,2.2,0.3,3.2,1c-0.3,0.2-0.6,0.3-0.8,0.5c-0.3,0.2-0.5,0.5-0.5,0.9c0.1,0.8-0.7,1.4-1.5,1.3
		c-0.3-0.1-0.6-0.3-0.9-0.5C107.2,92.5,106.6,92.5,106,92.9z"/>
	<path class="st2" d="M128.5,86.8c0.4-0.3,0.7-0.6,1.1-0.9c1.2-0.6,2.4-0.9,3.8-1c0.2,0,0.4,0,0.6,0.1c0.4,0.7,0.1,1-0.6,1.1
		c-1.2,0-2.4,0.2-3.4,1c-0.5,0.5-0.8,1.2-1.2,1.8c0,0.1-0.1,0.2-0.1,0.3c-0.1,0.4-0.2,0.7-0.7,0.6c-0.5-0.1-0.5-0.5-0.4-0.8
		c0-0.2,0.1-0.4,0.1-0.6C127.9,87.7,128.2,87.2,128.5,86.8z"/>
	<path class="st2" d="M105,91.6c-0.4,0-0.6-0.1-0.7-0.5c0.1-0.7,0.5-1.1,1-1.4c1.5-1.2,3.1-1.2,4.8-0.8c0.7-0.1,1.3,0.3,1.8,0.6
		c0.4,0.2,0.3,0.6,0,1c-0.1,0-0.2,0.1-0.4,0.1c-0.8-0.3-1.6-0.7-2.5-0.8c-0.3,0-0.5-0.1-0.8,0c-0.2,0.1-0.3,0.1-0.5,0.2
		c-0.9,0.1-1.6,0.6-2.2,1.2C105.4,91.5,105.3,91.6,105,91.6z"/>
	<path class="st13" d="M115.3,92.4c0.5-0.3,1-0.5,1.5-0.8c1.2-0.9,1.6-2.1,1.4-3.5c0-0.1,0-0.2-0.1-0.2c-0.1-0.3,0-0.6,0.3-0.7
		c0.4-0.1,0.6,0.2,0.7,0.5c0.1,0.7,0.2,1.3,0,2c-0.4,1.8-1.6,2.9-3.3,3.5C115.5,93.4,115.2,93,115.3,92.4z"/>
	<path class="st14" d="M155,88.9c0.2,0.1,0.3,0.1,0.5,0.2c0.3,0,0.4,0.3,0.5,0.5c0.2,0.5,0.5,1,0.8,1.4c0.3,0.3,0.1,0.4-0.2,0.6
		c-0.4,0.2-0.9,0.4-1.3,0.7C154.9,91.2,155,90,155,88.9z"/>
	<path class="st15" d="M111.9,90.6c0.3-0.6,0.2-0.8-0.4-1.1c-0.5-0.2-0.9-0.4-1.4-0.5c1.2-0.6,2.4-0.4,2.7,1c0,0.1,0.1,0.2,0.1,0.3
		C112.6,90.5,112.3,90.6,111.9,90.6z"/>
	<path class="st16" d="M128.8,88.8c0.2-0.7,0.6-1.3,1.2-1.8c-0.2,0.4-0.4,0.9-0.5,1.3C129.3,88.7,129.1,88.8,128.8,88.8z"/>
	<path class="st2" d="M143,77.7c0.2,0.7,0,1-0.8,0.9c-0.9-0.2-1.9-0.2-2.8,0c-1.1,0.3-1.9,0.9-2.4,2c-0.2,0.3-0.3,0.7-0.8,0.6
		c-0.4-0.1-0.4-0.5-0.4-0.8c1.2-2.7,3.6-3.2,6-2.9C142.2,77.4,142.6,77.4,143,77.7z"/>
	<path class="st7" d="M105,91.6c0.2-0.2,0.3-0.3,0.5-0.5c0.7-0.8,1.6-1.3,2.8-1.2c-0.3,0.4-0.6,0.8-0.4,1.3c0.1,0.4-0.2,0.8-0.5,1
		c-0.4,0.3-0.9,0.4-1.4,0.1C105.6,92.2,105.3,91.9,105,91.6z"/>
</g>
<g>
	<g>
		<g>
			<g>
				<path class="st17" d="M113.4,56.9L80.2,75.7c-1.6,0.9-3.8-0.2-4.7-2.3c-5-12.3-1.9-25.6,7.8-31.1s22.7-1.3,30.7,9.3
					C115.2,53.5,115,56,113.4,56.9z"/>
			</g>
		</g>
		<g>
			<g>
				<path class="st18" d="M113.7,57.3L80.4,76.1c-0.8,0.4-1.7,0.5-2.6,0.2c-1.2-0.4-2.2-1.4-2.7-2.7c-2.5-6.1-3.1-12.6-1.7-18.4
					c1.4-5.9,4.9-10.6,9.6-13.3c4.8-2.7,10.6-3.2,16.4-1.4c5.7,1.8,11,5.6,14.9,10.9c0.8,1.1,1.2,2.5,0.9,3.7
					C115,56.1,114.4,56.9,113.7,57.3z M83.5,42.8c-9.4,5.3-12.6,18.2-7.5,30.5c0.4,1,1.2,1.8,2.2,2.1c0.7,0.2,1.3,0.2,1.8-0.1
					l33.2-18.8c0.5-0.3,0.9-0.8,1.1-1.5c0.2-1-0.1-2.1-0.7-3C105.5,41.3,92.9,37.4,83.5,42.8z"/>
			</g>
		</g>
		<g>
			<g>
				<circle class="st19" cx="94.8" cy="37.7" r="5.4"/>
			</g>
		</g>
		<g class="st20">
			<g>
				<path class="st21" d="M100,36.1c-0.1-0.2-0.2-0.3-0.3-0.5c-1.8-2.4-5.1-2.9-7.5-1.1c-1.9,1.4-2.6,3.8-1.9,5.9
					c-1.4-2.3-0.8-5.4,1.4-7c2.4-1.8,5.7-1.3,7.5,1.1C99.5,35,99.8,35.6,100,36.1z"/>
			</g>
		</g>
		<g>
			<g>
				<path class="st18" d="M97.7,42.9c-1.1,0.6-2.4,0.9-3.7,0.7c-1.6-0.2-2.9-1-3.9-2.3s-1.3-2.8-1.1-4.3c0.2-1.6,1-2.9,2.3-3.9
					c1.3-0.9,2.8-1.3,4.3-1.1c1.6,0.2,2.9,1,3.9,2.3s1.3,2.8,1.1,4.3c-0.2,1.6-1,2.9-2.3,3.9C98.1,42.6,97.9,42.7,97.7,42.9z
					 M92.4,33.5c-0.2,0.1-0.4,0.2-0.5,0.3c-1,0.8-1.7,1.9-1.9,3.2s0.1,2.6,0.9,3.6c0.8,1,1.9,1.7,3.2,1.9c1.3,0.2,2.6-0.1,3.6-0.9
					c1-0.8,1.7-1.9,1.9-3.2s-0.1-2.6-0.9-3.6c-0.8-1-1.9-1.7-3.2-1.9C94.4,32.8,93.4,33,92.4,33.5z"/>
			</g>
		</g>
		<g class="st22">
			<g>
				<path class="st23" d="M113.4,56.9L80.2,75.7c-1.6,0.9-3.8-0.2-4.7-2.3c-5-12.3-1.9-25.6,7.8-31.1s22.7-1.3,30.7,9.3
					C115.2,53.5,115,56,113.4,56.9z"/>
			</g>
		</g>
		<g>
			<g>
				<circle class="st24" cx="78.1" cy="60.3" r="6.7"/>
			</g>
		</g>
		<g>
			<g>
				<circle class="st19" cx="78.1" cy="60.3" r="6.7"/>
			</g>
		</g>
		<g class="st25">
			<g>
				<path class="st26" d="M83.9,57c1.8,3.2,0.7,7.3-2.5,9.1c-3.2,1.8-7.3,0.7-9.1-2.5c-0.3-0.6-0.6-1.3-0.7-1.9c2.1,2,5.3,2.4,7.9,1
					c2.6-1.5,3.8-4.4,3.2-7.2C83.2,55.9,83.6,56.4,83.9,57z"/>
			</g>
		</g>
		<g class="st20">
			<g>
				<path class="st21" d="M84.7,59.1c-0.1-0.2-0.2-0.5-0.3-0.7c-1.8-3.2-5.9-4.3-9.1-2.5c-2.5,1.4-3.8,4.3-3.3,7
					c-1.3-3.1-0.1-6.7,2.8-8.4c3.2-1.8,7.3-0.7,9.1,2.5C84.3,57.7,84.6,58.4,84.7,59.1z"/>
			</g>
		</g>
		<g>
			<g>
				<path class="st18" d="M81.7,66.5c-3.4,1.9-7.8,0.7-9.8-2.7C70,60.4,71.2,56,74.6,54s7.8-0.7,9.8,2.7
					C86.3,60.2,85.1,64.6,81.7,66.5z M75.1,54.9c-3,1.7-4,5.5-2.3,8.4c1.7,3,5.5,4,8.4,2.3c3-1.7,4-5.5,2.3-8.4
					C81.8,54.3,78,53.2,75.1,54.9z"/>
			</g>
		</g>
		<g>
			<g>
				<path class="st27" d="M92.7,48.1L86.5,50c-1.2,0.4-2.4-0.3-2.7-1.5l-2.3-7.7c-0.4-1.2,0.3-2.4,1.5-2.7l6.2-1.9
					c1.2-0.4,2.4,0.3,2.7,1.5l2.3,7.7C94.5,46.5,93.9,47.7,92.7,48.1z"/>
			</g>
		</g>
		<g class="st20">
			<g>
				<path class="st21" d="M84,37.7c-1.2,0.4-1.8,1.6-1.5,2.7l2.3,7.7c0.4,1.2,1.6,1.8,2.7,1.5L86.5,50c-1.2,0.4-2.4-0.3-2.7-1.5
					l-2.3-7.7c-0.4-1.2,0.3-2.4,1.5-2.7L84,37.7z"/>
			</g>
		</g>
		<g>
			<g>
				<path class="st28" d="M92.7,48.1L86.5,50c-1.2,0.4-2.4-0.3-2.7-1.5l-2.3-7.7c-0.4-1.2,0.3-2.4,1.5-2.7l6.2-1.9
					c1.2-0.4,2.4,0.3,2.7,1.5l2.3,7.7C94.5,46.5,93.9,47.7,92.7,48.1z"/>
			</g>
		</g>
		<g>
			<g>
				<path class="st18" d="M93.4,48.3c-0.2,0.1-0.4,0.2-0.5,0.2l0,0l-6.2,1.9c-1.4,0.4-2.9-0.4-3.4-1.8l-2.3-7.7
					c-0.4-1.4,0.4-2.9,1.8-3.4l6.2-1.9c1.4-0.4,2.9,0.4,3.4,1.8l2.3,7.7C95,46.4,94.5,47.7,93.4,48.3z M92.6,47.6
					c0.4-0.1,0.8-0.4,1-0.8c0.2-0.4,0.3-0.9,0.1-1.3l-2.3-7.7c-0.3-0.9-1.2-1.4-2.1-1.1L83,38.5c-0.4,0.1-0.8,0.4-1,0.8
					c-0.2,0.4-0.3,0.9-0.1,1.3l2.3,7.7c0.3,0.9,1.2,1.4,2.1,1.1L92.6,47.6z"/>
			</g>
		</g>
		<g class="st25">
			<g>
				<path class="st23" d="M82.7,61.1c-0.4-0.6-0.8-1.1-1.4-1.5l0.3-0.2L82.7,61.1z"/>
			</g>
		</g>
		<g>
			<g>
				<g>
					<path class="st29" d="M79.1,61.4c-1.3,0.1-2.5,1.8-1.8,3.3c-0.5,0.1-1,0.5-1.2,1c-0.2,0.5,0,1.1,0.4,1.5
						c-5.9,4-0.6,10.9,4.9,7.8l4.3-2.4l1.8-6.9l-4.5-7.1L79.1,61.4z"/>
				</g>
				<g>
					<path class="st30" d="M85.8,72.6L85.8,72.6L81.5,75c-2.9,1.6-5.8,0.5-7-1.5c-1-1.7-1.1-4.3,1.9-6.4c-0.4-0.4-0.5-1-0.4-1.5
						c0.2-0.5,0.6-0.9,1.1-1c-0.3-0.7-0.2-1.4,0.1-2c0.4-0.7,1.1-1.2,1.8-1.3l3.9-2.9c0,0,0,0,0.1,0c0,0,0,0,0,0l4.5,7.1
						c0,0,0,0,0,0.1L85.8,72.6C85.8,72.5,85.8,72.6,85.8,72.6z M76.8,64.9c-0.3,0.2-0.5,0.4-0.6,0.8c-0.2,0.5,0,1,0.4,1.4
						c0,0,0,0,0,0.1c0,0,0,0,0,0.1c-3,2.1-2.9,4.7-1.9,6.3c1.2,1.9,3.9,3,6.8,1.4l4.3-2.4l1.8-6.8l-4.5-7l-3.8,2.8c0,0,0,0,0,0
						c-0.7,0.1-1.3,0.5-1.7,1.2c-0.4,0.6-0.4,1.3-0.1,2c0,0,0,0,0,0.1c0,0,0,0-0.1,0C77.2,64.8,77,64.8,76.8,64.9z"/>
				</g>
			</g>
			<g class="st25">
				<g>
					<path class="st26" d="M87.4,65.8l-1.6,6.8l-4.2,2.3c-3.2,1.8-6.5,0-7.2-2.7c2.2,1,4.9,1,7.1-0.3c3.8-2.2,5.1-7.1,2.8-11
						c0,0-0.1-0.1-0.1-0.1L87.4,65.8z"/>
				</g>
			</g>
			<g class="st20">
				<g>
					<path class="st21" d="M79.7,61.2c0,0.2,0,0.4,0,0.5c-0.9,0.4-1.6,1.5-1.3,2.6c0.1,0.2-0.1,0.5-0.3,0.6
						c-0.3,0.2-0.6,0.5-0.7,0.8c-0.1,0.4-0.1,0.8,0.1,1.1c0.1,0.2,0.1,0.5-0.1,0.7c-4.1,3.2-1.8,7.8,2,8.3c-4.5,0.5-7.8-5.1-2.7-8.6
						c-0.4-0.4-0.6-1-0.4-1.5c0.2-0.5,0.6-0.9,1.2-1c-0.7-1.5,0.5-3.1,1.8-3.3L79.7,61.2z"/>
				</g>
			</g>
			<g>
				<g>
					<path class="st18" d="M86,72.9L86,72.9l-4.3,2.4c-3.1,1.8-6.2,0.5-7.5-1.6c-1.2-1.9-1.1-4.6,1.7-6.7c-0.3-0.5-0.3-1-0.2-1.5
						c0.2-0.5,0.5-0.9,1-1.1c-0.2-0.7-0.1-1.4,0.3-2c0.4-0.8,1.2-1.3,2-1.5l3.8-2.8C82.9,58,83,58,83.1,58c0.1,0,0.2,0.1,0.3,0.2
						l4.5,7.1c0.1,0.1,0.1,0.3,0.1,0.4l-1.8,6.9C86.2,72.8,86.1,72.9,86,72.9z M77.1,65.3c-0.2,0.1-0.4,0.3-0.4,0.5
						c-0.1,0.3,0,0.7,0.3,0.9C77,66.8,77,67,77,67.1c0,0.1-0.1,0.3-0.2,0.4c-2.8,1.9-2.7,4.3-1.8,5.7c1.1,1.7,3.6,2.8,6.2,1.3
						l4.1-2.3l1.7-6.5l-4.1-6.5l-3.5,2.6c-0.1,0.1-0.2,0.1-0.2,0.1c-0.5,0.1-1.1,0.4-1.4,1c-0.2,0.3-0.4,0.9-0.1,1.6
						c0.1,0.1,0.1,0.3,0,0.4c-0.1,0.1-0.2,0.2-0.4,0.2C77.3,65.2,77.2,65.2,77.1,65.3z"/>
				</g>
			</g>
		</g>
		<g class="st31">
			<g>
				<ellipse transform="matrix(0.8701 -0.493 0.493 0.8701 -21.0886 48.77)" class="st23" cx="82" cy="64.4" rx="0.2" ry="0.2"/>
			</g>
		</g>
		<g class="st25">
			<g>
				<path class="st23" d="M83,61.5l-0.3-0.4C82.8,61.2,82.9,61.4,83,61.5z"/>
			</g>
		</g>
		<g class="st32">
			<g>
				<path class="st21" d="M110.6,38.8c-0.2-0.2-0.3-0.5-0.3-0.7c-0.2-0.8,0.1-1.8,0.1-2.7c0,0.1,0.1,0.1,0.1,0.2
					C111.1,36.4,110.6,37.8,110.6,38.8z"/>
			</g>
		</g>
		<g>
			<g>
				<g>
					<path class="st33" d="M117,39.8c0.4,1.1-0.8,2.6-0.8,3.7c0,1.2,1.3,2.6,1,3.7c-0.3,1.1-2.2,1.6-2.8,2.6c-0.7,1-0.4,2.8-1.4,3.6
						c-0.9,0.7-2.6,0-3.8,0.4c-1.1,0.4-2,2-3.2,2.1c-1.2,0-2.2-1.6-3.3-1.9c-1.1-0.3-2.8,0.5-3.8-0.2c-1-0.7-0.8-2.5-1.6-3.5
						c-0.7-0.9-2.6-1.3-3-2.4c-0.4-1.1,0.8-2.6,0.8-3.7c0-1.2-1.3-2.6-1-3.7c0.3-1.1,2.2-1.6,2.8-2.6c0.7-1,0.4-2.8,1.4-3.6
						c0.9-0.7,2.6,0,3.8-0.4c1.1-0.4,2-2,3.2-2.1c1.2,0,2.2,1.6,3.3,1.9c1.1,0.3,2.8-0.5,3.8,0.2c1,0.7,0.8,2.5,1.6,3.5
						C114.8,38.3,116.6,38.7,117,39.8z"/>
				</g>
			</g>
			<g>
				<g>
					<path class="st23" d="M113.2,54c-0.6,0.4-1.4,0.3-2.2,0.3c-0.6,0-1.1-0.1-1.5,0.1c-0.4,0.1-0.8,0.5-1.2,0.9
						c-0.6,0.6-1.3,1.2-2.1,1.2c-0.9,0-1.6-0.6-2.3-1.1c-0.4-0.4-0.8-0.7-1.2-0.8c-0.4-0.1-0.9,0-1.5,0c-0.8,0.1-1.8,0.2-2.5-0.3
						c-0.7-0.5-0.9-1.4-1.2-2.2c-0.1-0.5-0.3-1.1-0.5-1.4c-0.2-0.3-0.7-0.6-1.2-0.8c-0.7-0.4-1.6-0.9-1.9-1.7
						c-0.3-0.8,0-1.7,0.4-2.5c0.2-0.5,0.4-1,0.4-1.4c0-0.4-0.2-0.9-0.5-1.4c-0.4-0.8-0.7-1.6-0.5-2.4c0.2-0.8,1-1.3,1.7-1.8
						c0.5-0.3,0.9-0.6,1.2-0.9c0.2-0.3,0.3-0.8,0.4-1.4c0.2-0.8,0.3-1.8,1-2.3c0.7-0.5,1.6-0.5,2.4-0.4c0.6,0,1.1,0.1,1.5-0.1
						c0.4-0.1,0.8-0.5,1.2-0.9c0.6-0.6,1.3-1.2,2.1-1.2c0.9,0,1.6,0.6,2.3,1.1c0.4,0.4,0.8,0.7,1.2,0.8c0.4,0.1,0.9,0,1.5,0
						c0.8-0.1,1.8-0.2,2.5,0.3c0.7,0.5,0.9,1.4,1.2,2.2c0.1,0.5,0.3,1.1,0.5,1.4c0.2,0.3,0.7,0.6,1.2,0.8c0.7,0.4,1.6,0.9,1.9,1.7
						c0.3,0.8,0,1.7-0.4,2.5c-0.2,0.5-0.4,1-0.4,1.4c0,0.4,0.2,0.9,0.5,1.4c0.4,0.8,0.7,1.6,0.5,2.4c-0.2,0.8-1,1.3-1.7,1.8
						c-0.5,0.3-0.9,0.6-1.2,0.9c-0.2,0.3-0.3,0.8-0.4,1.4c-0.2,0.8-0.3,1.8-1,2.3C113.3,53.9,113.3,53.9,113.2,54z M108.7,53.5
						c0.1-0.1,0.3-0.1,0.4-0.2c0.6-0.2,1.3-0.2,2-0.1c0.7,0,1.3,0.1,1.7-0.2c0.4-0.3,0.5-0.9,0.6-1.6c0.1-0.6,0.3-1.3,0.6-1.8
						c0.4-0.5,0.9-0.9,1.5-1.2c0.6-0.4,1.1-0.7,1.3-1.2c0.1-0.4-0.1-1-0.4-1.7c-0.3-0.6-0.6-1.2-0.6-1.8c0-0.6,0.2-1.2,0.5-1.8
						c0.3-0.7,0.5-1.3,0.3-1.8c-0.2-0.5-0.8-0.8-1.4-1.1c-0.6-0.3-1.1-0.6-1.5-1.1c-0.4-0.5-0.6-1.2-0.7-1.8
						c-0.2-0.7-0.3-1.3-0.7-1.6c-0.4-0.3-1-0.2-1.7-0.1c-0.6,0.1-1.3,0.2-1.9,0c-0.6-0.2-1.1-0.6-1.6-1c-0.5-0.4-1.1-0.9-1.5-0.9
						c-0.4,0-0.9,0.5-1.4,0.9c-0.5,0.4-1,0.9-1.6,1.1c-0.6,0.2-1.3,0.2-2,0.1c-0.7,0-1.3-0.1-1.7,0.2c-0.4,0.3-0.5,0.9-0.6,1.6
						c-0.1,0.6-0.3,1.3-0.6,1.8c-0.4,0.5-0.9,0.9-1.5,1.2c-0.6,0.4-1.1,0.7-1.3,1.2c-0.1,0.4,0.1,1,0.4,1.7c0.3,0.6,0.6,1.2,0.6,1.8
						c0,0.6-0.2,1.2-0.5,1.8c-0.3,0.7-0.5,1.3-0.3,1.8c0.2,0.5,0.8,0.8,1.4,1.1c0.6,0.3,1.1,0.6,1.5,1.1c0.4,0.5,0.6,1.2,0.7,1.8
						c0.2,0.7,0.3,1.3,0.7,1.6c0.4,0.3,1,0.2,1.7,0.1c0.6-0.1,1.3-0.2,1.9,0c0.6,0.2,1.1,0.6,1.6,1c0.5,0.4,1.1,0.9,1.5,0.9
						c0.4,0,0.9-0.5,1.4-0.9C107.9,54.1,108.3,53.7,108.7,53.5z"/>
				</g>
			</g>
		</g>
		<g>
			<g>
				<path class="st34" d="M117,39.8c0.4,1.1-0.8,2.6-0.8,3.7c0,1.2,1.3,2.6,1,3.7c-0.3,1.1-2.2,1.6-2.8,2.6c-0.7,1-0.4,2.8-1.4,3.6
					c-0.9,0.7-2.6,0-3.8,0.4c-1.1,0.4-2,2-3.2,2.1c-1.2,0-2.2-1.6-3.3-1.9c-1.1-0.3-2.8,0.5-3.8-0.2c-1-0.7-0.8-2.5-1.6-3.5
					c-0.7-0.9-2.6-1.3-3-2.4c-0.4-1.1,0.8-2.6,0.8-3.7c0-1.2-1.3-2.6-1-3.7c0.3-1.1,2.2-1.6,2.8-2.6c0.7-1,0.4-2.8,1.4-3.6
					c0.9-0.7,2.6,0,3.8-0.4c1.1-0.4,2-2,3.2-2.1c1.2,0,2.2,1.6,3.3,1.9c1.1,0.3,2.8-0.5,3.8,0.2c1,0.7,0.8,2.5,1.6,3.5
					C114.8,38.3,116.6,38.7,117,39.8z"/>
			</g>
		</g>
		<g class="st20">
			<g>
				<path class="st21" d="M117,41c-0.5-1-2.2-1.3-2.9-2.2c-0.7-0.9-0.6-2.8-1.6-3.5c-1-0.7-2.7,0.1-3.8-0.2
					c-1.1-0.3-2.1-1.9-3.3-1.9c-1.2,0-2.1,1.7-3.2,2.1c-1.1,0.4-2.9-0.3-3.8,0.4c-0.9,0.7-0.7,2.6-1.4,3.6c-0.6,1-2.4,1.4-2.8,2.5
					c-0.2-0.4-0.2-0.8-0.1-1.2c0.3-1.1,2.2-1.6,2.8-2.6c0.7-1,0.4-2.8,1.4-3.6c0.9-0.7,2.6,0,3.8-0.4c1.1-0.4,2-2,3.2-2.1
					c1.2,0,2.2,1.6,3.3,1.9c1.1,0.3,2.8-0.5,3.8,0.2c1,0.7,0.8,2.5,1.6,3.5c0.7,0.9,2.6,1.3,3,2.4C117.2,40.2,117.1,40.6,117,41z"/>
			</g>
		</g>
		<g>
			<g>
				<path class="st18" d="M113.2,53.9c-0.6,0.4-1.4,0.3-2.2,0.3c-0.6,0-1.1-0.1-1.5,0.1c-0.4,0.1-0.8,0.5-1.3,0.9
					c-0.6,0.6-1.3,1.2-2.1,1.2c-0.9,0-1.6-0.5-2.2-1.1c-0.4-0.4-0.9-0.7-1.2-0.8c-0.4-0.1-0.9-0.1-1.5,0c-0.9,0.1-1.7,0.2-2.4-0.3
					c-0.7-0.5-0.9-1.3-1.1-2.2c-0.1-0.5-0.3-1.1-0.5-1.4c-0.2-0.3-0.7-0.6-1.2-0.8c-0.7-0.4-1.6-0.9-1.8-1.7c-0.3-0.8,0-1.7,0.4-2.5
					c0.2-0.5,0.4-1,0.4-1.4c0-0.4-0.3-0.9-0.5-1.4c-0.4-0.8-0.7-1.6-0.5-2.4c0.2-0.8,1-1.3,1.7-1.8c0.5-0.3,0.9-0.6,1.2-0.9
					c0.2-0.3,0.3-0.9,0.4-1.4c0.2-0.9,0.3-1.7,1-2.3c0.7-0.5,1.5-0.5,2.4-0.4c0.6,0,1.1,0.1,1.5-0.1c0.4-0.1,0.8-0.5,1.3-0.9
					c0.6-0.6,1.3-1.2,2.1-1.2c0.9,0,1.6,0.5,2.2,1.1c0.4,0.4,0.9,0.7,1.2,0.8c0.4,0.1,0.9,0.1,1.5,0c0.9-0.1,1.7-0.2,2.4,0.3
					c0.7,0.5,0.9,1.3,1.1,2.2c0.1,0.5,0.3,1.1,0.5,1.4c0.2,0.3,0.7,0.6,1.2,0.8c0.7,0.4,1.6,0.9,1.8,1.7c0.3,0.8,0,1.7-0.4,2.5
					c-0.2,0.5-0.4,1-0.4,1.4c0,0.4,0.3,0.9,0.5,1.4c0.4,0.8,0.7,1.6,0.5,2.4c-0.2,0.8-1,1.3-1.7,1.8c-0.5,0.3-0.9,0.6-1.2,0.9
					c-0.2,0.3-0.3,0.9-0.4,1.4c-0.2,0.9-0.3,1.7-1,2.3C113.3,53.8,113.2,53.9,113.2,53.9z M108.7,53.5c0.1-0.1,0.3-0.1,0.4-0.2
					c0.6-0.2,1.3-0.2,1.9-0.1c0.7,0,1.4,0.1,1.7-0.2c0.4-0.3,0.5-1,0.7-1.7c0.1-0.6,0.3-1.3,0.6-1.8c0.3-0.5,0.9-0.9,1.4-1.2
					c0.6-0.4,1.2-0.8,1.3-1.2c0.1-0.5-0.1-1.1-0.4-1.7c-0.3-0.6-0.5-1.2-0.6-1.8c0-0.6,0.2-1.2,0.4-1.8c0.3-0.7,0.5-1.3,0.3-1.8
					c-0.2-0.5-0.8-0.8-1.4-1.2c-0.6-0.3-1.1-0.6-1.5-1.1c-0.4-0.5-0.6-1.1-0.7-1.8c-0.2-0.7-0.4-1.3-0.7-1.6
					c-0.4-0.3-1.1-0.2-1.8-0.1c-0.6,0.1-1.3,0.2-1.9,0c-0.6-0.2-1.1-0.6-1.6-1c-0.6-0.5-1.1-0.9-1.6-0.9c-0.5,0-0.9,0.5-1.5,0.9
					c-0.5,0.4-1,0.9-1.6,1.1c-0.6,0.2-1.3,0.2-1.9,0.1c-0.7,0-1.4-0.1-1.7,0.2c-0.4,0.3-0.5,1-0.7,1.7c-0.1,0.6-0.3,1.3-0.6,1.8
					c-0.3,0.5-0.9,0.9-1.4,1.2c-0.6,0.4-1.2,0.8-1.3,1.2c-0.1,0.5,0.1,1.1,0.4,1.7c0.3,0.6,0.5,1.2,0.6,1.8c0,0.6-0.2,1.2-0.4,1.8
					c-0.3,0.7-0.5,1.3-0.3,1.8c0.2,0.5,0.8,0.8,1.4,1.2c0.6,0.3,1.1,0.6,1.5,1.1c0.4,0.5,0.6,1.1,0.7,1.8c0.2,0.7,0.4,1.3,0.7,1.6
					c0.4,0.3,1.1,0.2,1.8,0.1c0.6-0.1,1.3-0.2,1.9,0c0.6,0.2,1.1,0.6,1.6,1c0.6,0.5,1.1,0.9,1.6,0.9c0.5,0,0.9-0.5,1.5-0.9
					C107.9,54.1,108.3,53.8,108.7,53.5z"/>
			</g>
		</g>
		<g>
			<g>
				<g>
					<path class="st33" d="M76.1,61.7c0.8,0.9,2.7,0.5,3.7,1.1c1,0.6,1.6,2.4,2.8,2.6c1.2,0.2,2.4-1.1,3.6-1.3
						c1.2-0.1,2.7,1,3.8,0.5c1.1-0.5,1.3-2.3,2.2-3.1c0.9-0.8,2.8-0.8,3.4-1.8c0.6-1-0.3-2.7-0.1-3.8c0.2-1.2,1.8-2.3,1.6-3.4
						c-0.1-1.2-1.8-1.9-2.3-3c-0.5-1.1,0.1-2.8-0.7-3.7c-0.8-0.9-2.7-0.5-3.7-1.1c-1-0.6-1.6-2.4-2.8-2.6c-1.2-0.2-2.4,1.1-3.6,1.3
						c-1.2,0.1-2.7-1-3.8-0.5c-1.1,0.5-1.3,2.3-2.2,3.1c-0.9,0.8-2.8,0.8-3.4,1.8c-0.6,1,0.3,2.7,0.1,3.8c-0.2,1.2-1.8,2.3-1.6,3.4
						c0.1,1.2,1.8,1.9,2.3,3C75.9,59,75.3,60.8,76.1,61.7z"/>
				</g>
			</g>
			<g>
				<g>
					<path class="st23" d="M90.3,65c-0.1,0-0.1,0.1-0.2,0.1c-0.8,0.4-1.7,0.1-2.5-0.2c-0.5-0.2-1-0.3-1.4-0.3
						c-0.4,0-0.9,0.3-1.4,0.6c-0.7,0.4-1.6,0.9-2.4,0.7c-0.8-0.2-1.4-0.9-1.9-1.6c-0.3-0.4-0.7-0.9-1-1.1c-0.3-0.2-0.8-0.3-1.4-0.3
						c-0.8-0.1-1.8-0.2-2.4-0.9l0,0c-0.6-0.7-0.6-1.6-0.6-2.5c0-0.6,0-1.1-0.2-1.4c-0.2-0.4-0.6-0.8-1-1.1c-0.6-0.6-1.3-1.2-1.4-2.1
						c-0.1-0.9,0.5-1.6,0.9-2.3c0.3-0.4,0.6-0.9,0.7-1.3c0.1-0.4,0-0.9-0.1-1.5c-0.2-0.8-0.3-1.8,0.1-2.5c0.4-0.7,1.3-1,2.1-1.3
						c0.5-0.2,1.1-0.4,1.4-0.7c0.3-0.3,0.6-0.8,0.8-1.3c0.4-0.8,0.7-1.6,1.5-1.9c0.8-0.4,1.7-0.1,2.5,0.2c0.5,0.2,1,0.3,1.4,0.3
						c0.4,0,0.9-0.3,1.4-0.6c0.7-0.4,1.6-0.9,2.4-0.7c0.8,0.2,1.4,0.9,1.9,1.6c0.3,0.4,0.7,0.9,1,1.1c0.3,0.2,0.8,0.3,1.4,0.3
						c0.8,0.1,1.8,0.2,2.4,0.9c0.6,0.7,0.6,1.6,0.6,2.5c0,0.6,0,1.1,0.2,1.4c0.2,0.4,0.6,0.8,1,1.1c0.6,0.6,1.3,1.2,1.4,2.1
						c0.1,0.9-0.5,1.6-0.9,2.3c-0.3,0.4-0.6,0.9-0.7,1.3c-0.1,0.4,0,0.9,0.1,1.5c0.2,0.8,0.3,1.8-0.1,2.5c-0.4,0.7-1.3,1-2.1,1.3
						c-0.5,0.2-1.1,0.4-1.4,0.7c-0.3,0.3-0.6,0.8-0.8,1.3C91.3,63.9,91,64.7,90.3,65z M76.5,61.3c0.3,0.4,1,0.4,1.7,0.5
						c0.6,0.1,1.3,0.2,1.8,0.5c0.5,0.3,1,0.9,1.4,1.4c0.4,0.6,0.8,1.1,1.3,1.2c0.5,0.1,1-0.2,1.6-0.6c0.6-0.3,1.2-0.6,1.8-0.7
						c0.6-0.1,1.3,0.1,1.9,0.3c0.7,0.2,1.3,0.4,1.7,0.2c0.4-0.2,0.7-0.8,1-1.4c0.3-0.6,0.6-1.2,1.1-1.7c0.5-0.4,1.1-0.7,1.8-0.9
						c0.7-0.2,1.3-0.4,1.5-0.8c0.2-0.4,0.1-1.1,0-1.8c-0.1-0.6-0.2-1.3-0.1-1.9c0.1-0.6,0.5-1.2,0.9-1.7c0.4-0.6,0.8-1.1,0.7-1.6
						c0-0.5-0.5-0.9-1-1.4c-0.5-0.4-1-0.9-1.2-1.5C94,49,94,48.4,93.9,47.7c0-0.7,0-1.4-0.3-1.8c-0.3-0.4-1-0.4-1.7-0.5
						c-0.6-0.1-1.3-0.2-1.8-0.5c-0.5-0.3-1-0.9-1.4-1.4c-0.4-0.6-0.8-1.1-1.3-1.2c-0.5-0.1-1,0.2-1.6,0.6c-0.6,0.3-1.2,0.6-1.8,0.7
						c-0.6,0.1-1.3-0.1-1.9-0.3c-0.7-0.2-1.3-0.4-1.7-0.2c-0.4,0.2-0.7,0.8-1,1.4c-0.3,0.6-0.6,1.2-1.1,1.7
						c-0.5,0.4-1.1,0.7-1.8,0.9c-0.7,0.2-1.3,0.4-1.5,0.8c-0.2,0.4-0.1,1.1,0,1.8c0.1,0.6,0.2,1.3,0.1,1.9c-0.1,0.6-0.5,1.2-0.9,1.7
						c-0.4,0.6-0.8,1.1-0.7,1.6c0,0.5,0.5,0.9,1,1.4c0.5,0.4,1,0.9,1.2,1.5c0.2,0.6,0.3,1.2,0.3,1.9C76.2,60.3,76.2,60.9,76.5,61.3
						L76.5,61.3z"/>
				</g>
			</g>
		</g>
		<g>
			<g>
				<path class="st34" d="M76.1,61.7c0.8,0.9,2.7,0.5,3.7,1.1c1,0.6,1.6,2.4,2.8,2.6c1.2,0.2,2.4-1.1,3.6-1.3c1.2-0.1,2.7,1,3.8,0.5
					c1.1-0.5,1.3-2.3,2.2-3.1c0.9-0.8,2.8-0.8,3.4-1.8c0.6-1-0.3-2.7-0.1-3.8c0.2-1.2,1.8-2.3,1.6-3.4c-0.1-1.2-1.8-1.9-2.3-3
					c-0.5-1.1,0.1-2.8-0.7-3.7c-0.8-0.9-2.7-0.5-3.7-1.1c-1-0.6-1.6-2.4-2.8-2.6c-1.2-0.2-2.4,1.1-3.6,1.3c-1.2,0.1-2.7-1-3.8-0.5
					c-1.1,0.5-1.3,2.3-2.2,3.1c-0.9,0.8-2.8,0.8-3.4,1.8c-0.6,1,0.3,2.7,0.1,3.8c-0.2,1.2-1.8,2.3-1.6,3.4c0.1,1.2,1.8,1.9,2.3,3
					C75.9,59,75.3,60.8,76.1,61.7z"/>
			</g>
		</g>
		<g class="st20">
			<g>
				<path class="st21" d="M77.2,62.3c-0.6-0.9-0.1-2.6-0.6-3.6c-0.5-1.1-2.2-1.9-2.3-3c-0.1-1.2,1.4-2.3,1.6-3.4
					c0.2-1.1-0.7-2.8-0.1-3.8c0.6-1,2.4-1,3.4-1.8c0.9-0.8,1.1-2.7,2.2-3.1c1.1-0.5,2.6,0.6,3.8,0.5c1.1-0.1,2.4-1.4,3.5-1.3
					c-0.3-0.3-0.6-0.6-1-0.7c-1.2-0.2-2.4,1.1-3.6,1.3c-1.2,0.1-2.7-1-3.8-0.5c-1.1,0.5-1.3,2.3-2.2,3.1c-0.9,0.8-2.8,0.8-3.4,1.8
					c-0.6,1,0.3,2.7,0.1,3.8c-0.2,1.2-1.8,2.3-1.6,3.4c0.1,1.2,1.8,1.9,2.3,3c0.5,1.1-0.1,2.8,0.7,3.7C76.5,62,76.8,62.2,77.2,62.3z
					"/>
			</g>
		</g>
		<g>
			<g>
				<path class="st18" d="M90.3,65c-0.1,0-0.1,0.1-0.2,0.1c-0.8,0.3-1.6,0.1-2.5-0.2c-0.5-0.2-1.1-0.3-1.5-0.3
					c-0.4,0-0.9,0.3-1.4,0.6c-0.8,0.4-1.5,0.8-2.4,0.7c-0.8-0.2-1.4-0.9-1.9-1.6c-0.3-0.4-0.7-0.9-1-1.1c-0.3-0.2-0.9-0.3-1.4-0.3
					c-0.8-0.1-1.8-0.2-2.4-0.9l0,0c-0.6-0.7-0.6-1.6-0.6-2.4c0-0.6,0-1.1-0.2-1.4c-0.2-0.4-0.6-0.8-1-1.2c-0.6-0.6-1.3-1.2-1.4-2
					c-0.1-0.8,0.4-1.6,0.9-2.3c0.3-0.5,0.6-0.9,0.7-1.3c0.1-0.4,0-0.9-0.1-1.5c-0.2-0.9-0.3-1.7,0.1-2.5c0.4-0.7,1.2-1,2-1.3
					c0.5-0.2,1.1-0.4,1.4-0.7c0.3-0.3,0.6-0.8,0.8-1.3c0.4-0.8,0.7-1.6,1.5-1.9c0.8-0.3,1.6-0.1,2.5,0.2c0.5,0.2,1.1,0.3,1.5,0.3
					c0.4,0,0.9-0.3,1.4-0.6c0.8-0.4,1.5-0.8,2.4-0.7c0.8,0.2,1.4,0.9,1.9,1.6c0.3,0.4,0.7,0.9,1,1.1c0.3,0.2,0.9,0.3,1.4,0.3
					c0.8,0.1,1.8,0.2,2.4,0.9c0.6,0.7,0.6,1.6,0.6,2.4c0,0.6,0,1.1,0.2,1.4c0.2,0.4,0.6,0.8,1,1.2c0.6,0.6,1.3,1.2,1.4,2
					c0.1,0.8-0.4,1.6-0.9,2.3c-0.3,0.5-0.6,0.9-0.7,1.3c-0.1,0.4,0,0.9,0.1,1.5c0.2,0.9,0.3,1.7-0.1,2.5c-0.4,0.7-1.2,1-2,1.3
					c-0.5,0.2-1.1,0.4-1.4,0.7c-0.3,0.3-0.6,0.8-0.8,1.3C91.3,63.9,90.9,64.6,90.3,65z M76.5,61.3c0.3,0.4,1,0.5,1.7,0.6
					c0.6,0.1,1.3,0.2,1.8,0.5c0.5,0.3,0.9,0.8,1.3,1.4c0.4,0.6,0.8,1.1,1.3,1.2c0.5,0.1,1.1-0.2,1.7-0.6c0.6-0.3,1.1-0.6,1.8-0.7
					c0.6-0.1,1.2,0.1,1.8,0.3c0.7,0.2,1.3,0.4,1.8,0.2c0.4-0.2,0.7-0.8,1-1.4c0.3-0.6,0.6-1.2,1-1.6c0.5-0.4,1.1-0.6,1.7-0.9
					c0.7-0.2,1.3-0.4,1.5-0.8c0.2-0.4,0.1-1.1,0-1.8c-0.1-0.6-0.2-1.3-0.1-1.9c0.1-0.6,0.5-1.1,0.9-1.7c0.4-0.6,0.8-1.1,0.7-1.6
					c0-0.5-0.5-0.9-1.1-1.4c-0.5-0.4-1-0.9-1.2-1.5C94,49,94,48.4,94,47.7c0-0.7,0-1.4-0.4-1.8c-0.3-0.4-1-0.5-1.7-0.6
					c-0.6-0.1-1.3-0.2-1.8-0.5c-0.5-0.3-0.9-0.8-1.3-1.4c-0.4-0.6-0.8-1.1-1.3-1.2c-0.5-0.1-1.1,0.2-1.7,0.6
					c-0.6,0.3-1.1,0.6-1.8,0.7c-0.6,0.1-1.2-0.1-1.8-0.3c-0.7-0.2-1.3-0.4-1.8-0.2c-0.4,0.2-0.7,0.8-1,1.4c-0.3,0.6-0.6,1.2-1,1.6
					c-0.5,0.4-1.1,0.6-1.7,0.9c-0.7,0.2-1.3,0.4-1.5,0.8c-0.2,0.4-0.1,1.1,0,1.8c0.1,0.6,0.2,1.3,0.1,1.9c-0.1,0.6-0.5,1.1-0.9,1.7
					c-0.4,0.6-0.8,1.1-0.7,1.6c0,0.5,0.5,0.9,1.1,1.4c0.5,0.4,1,0.9,1.2,1.5c0.2,0.5,0.3,1.2,0.3,1.8C76.1,60.3,76.2,60.9,76.5,61.3
					L76.5,61.3z"/>
			</g>
		</g>
		<g class="st31">
			<g>
				<ellipse transform="matrix(0.8701 -0.493 0.493 0.8701 -12.6691 57.6522)" class="st35" cx="103" cy="52.9" rx="0.9" ry="0.6"/>
			</g>
		</g>
		<g>
			<g>
				<path class="st36" d="M119.5,45.3c0.5,0.8,0.8,1.7,0.9,2.5c0.1,0.3,0.1,0.5,0.1,0.8c0,0.1,0,0.2,0,0.3c0,0.4,0,0.9-0.1,1.3
					c0,0.1,0,0.2,0,0.2c0,0.1,0,0.1,0,0.2c0,0.1,0,0.2-0.1,0.2c0,0,0,0,0,0.1c0,0.1-0.1,0.2-0.1,0.3c-0.1,0.2-0.1,0.4-0.2,0.6
					c0,0.1-0.1,0.2-0.1,0.3c-0.1,0.2-0.2,0.3-0.2,0.4c0,0.1-0.1,0.1-0.1,0.2c-0.3,0.4-0.6,0.8-1,1.1c-0.1,0.1-0.2,0.1-0.2,0.2
					c-0.2,0.1-0.3,0.2-0.5,0.3L86.8,71.9l0,0l-6.5,3.7c0,0,0.1-0.1,0.1-0.1c0,0,0.1,0,0.1-0.1c0.1-0.1,0.3-0.2,0.4-0.3
					c0,0,0.1-0.1,0.1-0.1c0,0,0.1-0.1,0.1-0.1c0,0,0,0,0,0c0,0,0.1-0.1,0.1-0.1c0,0,0.1-0.1,0.1-0.1c0,0,0-0.1,0.1-0.1
					c0.1-0.1,0.2-0.3,0.3-0.4c0,0,0.1-0.1,0.1-0.1c0.2-0.3,0.4-0.5,0.5-0.8c0,0,0-0.1,0-0.1c0,0,0-0.1,0-0.1c0,0,0-0.1,0-0.1
					c0,0,0-0.1,0-0.1c0,0,0-0.1,0-0.1c0-0.1,0.1-0.1,0.1-0.2c0,0,0,0,0,0c0-0.1,0-0.1,0.1-0.2c0-0.1,0-0.1,0-0.2c0,0,0-0.1,0-0.1
					c0,0,0-0.1,0-0.1c0,0,0-0.1,0-0.1s0-0.1,0-0.1c0,0,0-0.1,0-0.1c0,0,0-0.1,0-0.1c0-0.1,0-0.1,0-0.2c0-0.4,0.1-0.7,0-1.1
					c0-0.1,0-0.1,0-0.2c0,0,0-0.1,0-0.1c0,0,0-0.1,0-0.1c0,0,0-0.1,0-0.1c0-0.1,0-0.1,0-0.2c0,0,0,0,0,0c0-0.1,0-0.1,0-0.2
					c0,0,0-0.1,0-0.1c0-0.1,0-0.1,0-0.2c0,0,0,0,0,0c-0.1-0.4-0.2-0.7-0.3-1.1c0,0,0,0,0,0c0-0.1-0.1-0.3-0.2-0.4l0,0
					c-0.8-2.2-1.3-4.4-1.6-6.6l0,0c-1.2-9.6,2.4-18.6,9.9-22.8c8.3-4.7,18.9-1.9,26.9,5.1c0.5,0.4,0.9,0.9,1.3,1.4
					c0.1,0.1,0.2,0.3,0.3,0.4l0,0C119.3,45.1,119.4,45.2,119.5,45.3z"/>
			</g>
		</g>
		<g class="st20">
			<g>
				<path class="st21" d="M119.5,45.3c0.1,0.2,0.3,0.5,0.4,0.7c-0.1-0.1-0.1-0.2-0.2-0.3c-0.4-0.5-0.8-0.9-1.3-1.4
					c-8-7-18.6-9.8-26.9-5.1c-7.5,4.3-11.1,13.3-9.9,22.8l0,0c0.2,2,0.7,4,1.3,6c-0.1,0-0.2,0.1-0.3,0.1c0-0.1,0-0.1-0.1-0.2
					c0,0,0,0,0,0c0-0.1-0.1-0.3-0.2-0.4l0,0c-0.8-2.2-1.3-4.4-1.6-6.6l0,0c-1.2-9.6,2.4-18.6,9.9-22.8c8.3-4.7,18.9-1.9,26.9,5.1
					c0.5,0.4,0.9,0.9,1.3,1.4c0.1,0.1,0.2,0.3,0.3,0.4l0,0C119.3,45.1,119.4,45.2,119.5,45.3z"/>
			</g>
		</g>
		<g class="st25">
			<g>
				<path class="st26" d="M118,43.7c-0.5-0.5-0.8-0.8-0.3-0.5C117.8,43.4,117.9,43.5,118,43.7z"/>
			</g>
		</g>
		<g>
			<g>
				<path class="st18" d="M87.1,72.4l-6.5,3.7c-0.2,0.1-0.5,0.1-0.7-0.2c-0.1-0.2-0.1-0.5,0.2-0.7c2.2-1.2,3-4.1,2-7.1l0,0
					c0,0,0,0,0,0c0-0.1-0.1-0.2-0.1-0.4c0,0,0,0,0,0c-2.1-5.9-2.4-12.1-0.9-17.5c1.5-5.5,4.9-10,9.4-12.6c4.1-2.3,8.9-3,13.9-1.9
					c4.7,1,9.4,3.4,13.6,7.1c2.1,1.9,3.3,4.6,3,7.2c-0.2,2.1-1.3,3.9-3,4.9L87.1,72.4C87.1,72.3,87.1,72.4,87.1,72.4z M82.8,73.7
					l3.7-2.1c0,0,0,0,0.1,0L117.5,54c1.4-0.8,2.4-2.3,2.5-4.1c0.2-2.3-0.8-4.7-2.7-6.3c-8.4-7.4-18.7-9.4-26.3-5.1
					c-8.8,5-12.3,17.1-8.2,28.9c0,0,0,0,0,0c0.1,0.2,0.1,0.3,0.2,0.4c0,0,0,0,0,0C83.7,69.9,83.6,72,82.8,73.7z M82.1,68.1
					L82.1,68.1L82.1,68.1z M82.1,68.1C82.1,68.1,82.1,68.1,82.1,68.1C82.1,68.1,82.1,68.1,82.1,68.1z"/>
			</g>
		</g>
		<g class="st25">
			<g>
				<path class="st21" d="M87.4,48.3c1.3,0.2,0.4,2.1,0,4.6c-0.4,2.5-0.1,4.6-1.4,4.4c-1.3-0.2-2-2.4-1.6-4.9
					C84.7,49.9,86.1,48.1,87.4,48.3z"/>
			</g>
		</g>
		<g class="st25">
			<g>
				<circle class="st26" cx="106.7" cy="41.8" r="0.4"/>
			</g>
		</g>
		<g class="st25">
			<g>
				<circle class="st26" cx="85.5" cy="62" r="0.4"/>
			</g>
		</g>
		<g class="st25">
			<g>
				<circle class="st26" cx="108.3" cy="49.6" r="0.4"/>
			</g>
		</g>
		<g class="st25">
			<g>
				<circle class="st26" cx="92.3" cy="64.6" r="0.4"/>
			</g>
		</g>
		<g class="st25">
			<g>
				<circle class="st26" cx="88.8" cy="43.6" r="0.4"/>
			</g>
		</g>
		<g class="st25">
			<g>
				<circle class="st26" cx="95.6" cy="46.5" r="0.4"/>
			</g>
		</g>
		<g class="st25">
			<g>
				<circle class="st26" cx="96.8" cy="59.8" r="0.4"/>
			</g>
		</g>
		<g class="st25">
			<g>
				<circle class="st26" cx="97.5" cy="41.7" r="0.4"/>
			</g>
		</g>
		<g class="st25">
			<g>
				<ellipse class="st26" cx="104.3" cy="41.3" rx="0.5" ry="0.5"/>
			</g>
		</g>
		<g class="st25">
			<g>
				<ellipse class="st26" cx="117.3" cy="49.1" rx="0.5" ry="0.5"/>
			</g>
		</g>
		<g class="st25">
			<g>
				<ellipse class="st26" cx="106.8" cy="57.6" rx="0.5" ry="0.5"/>
			</g>
		</g>
	</g>
</g>
<g>
	<g>
		<g>
			<g>
				<path class="st17" d="M19.3,18.3c11.8-5.9,25.2-3.9,31.4,5.3s3,22.4-6.9,31.1c-1.7,1.5-4.2,1.5-5.2-0.1L17.4,23.2
					C16.4,21.6,17.3,19.4,19.3,18.3z"/>
			</g>
		</g>
		<g>
			<g>
				<path class="st18" d="M16.6,20.8c0.3-1.2,1.2-2.3,2.5-2.9c5.8-2.9,12.2-4,18.1-3.1c5.9,1,10.9,4,13.9,8.5s4,10.2,2.7,16.1
					c-1.3,5.8-4.7,11.3-9.6,15.6c-1,0.9-2.4,1.3-3.6,1.2c-1-0.1-1.8-0.6-2.3-1.3L17,23.4C16.5,22.7,16.3,21.8,16.6,20.8z M19.5,18.8
					c-1,0.5-1.7,1.4-2,2.3c-0.2,0.7-0.1,1.3,0.3,1.8L39,54.4c0.3,0.5,0.9,0.8,1.6,0.9c1,0.1,2-0.2,2.9-1c9.9-8.7,12.8-21.5,6.8-30.4
					S31.3,12.8,19.5,18.8z"/>
			</g>
		</g>
		<g>
			<g>
				<circle class="st19" cx="42.4" cy="14.4" r="5.3"/>
			</g>
		</g>
		<g class="st20">
			<g>
				<path class="st21" d="M40,9.6c2.6-1.3,5.8-0.3,7.2,2.4c1.2,2.5,0.4,5.4-1.8,6.9c1.5-1.6,2-4,0.9-6.1c-1.3-2.6-4.5-3.7-7.2-2.4
					c-0.2,0.1-0.4,0.2-0.5,0.3C38.9,10.3,39.4,9.9,40,9.6z"/>
			</g>
		</g>
		<g>
			<g>
				<path class="st18" d="M37.2,17c-0.7-1.4-0.8-3-0.3-4.4s1.5-2.7,2.9-3.4c1.4-0.7,3-0.8,4.4-0.3c1.5,0.5,2.7,1.5,3.4,2.9
					c0.7,1.4,0.8,3,0.3,4.4c-0.5,1.5-1.5,2.7-2.9,3.4c-1.4,0.7-3,0.8-4.4,0.3c-1.2-0.4-2.3-1.2-3-2.3C37.4,17.4,37.3,17.2,37.2,17z
					 M43.9,9.8c-1.2-0.4-2.5-0.3-3.7,0.3c-1.2,0.6-2,1.6-2.4,2.8c-0.4,1.2-0.3,2.5,0.3,3.7c0.6,1.2,1.6,2,2.8,2.4
					c1.2,0.4,2.5,0.3,3.7-0.3c1.2-0.6,2-1.6,2.4-2.8c0.4-1.2,0.3-2.5-0.3-3.7c-0.1-0.2-0.2-0.4-0.3-0.5
					C45.8,10.8,44.9,10.1,43.9,9.8z"/>
			</g>
		</g>
		<g class="st22">
			<g>
				<path class="st23" d="M19.3,18.3c11.8-5.9,25.2-3.9,31.4,5.3s3,22.4-6.9,31.1c-1.7,1.5-4.2,1.5-5.2-0.1L17.4,23.2
					C16.4,21.6,17.3,19.4,19.3,18.3z"/>
			</g>
		</g>
		<g>
			<g>
				<circle class="st24" cx="47.2" cy="41.8" r="6.6"/>
			</g>
		</g>
		<g>
			<g>
				<circle class="st19" cx="47.2" cy="41.8" r="6.6"/>
			</g>
		</g>
		<g class="st25">
			<g>
				<path class="st26" d="M45.3,35.5c-1.7,2.2-1.9,5.4-0.3,7.8c1.7,2.5,4.7,3.5,7.4,2.6c-0.4,0.5-0.9,1-1.5,1.4
					c-3,2-7.1,1.2-9.2-1.8c-2-3-1.2-7.1,1.8-9.2C44.1,35.9,44.7,35.7,45.3,35.5z"/>
			</g>
		</g>
		<g class="st20">
			<g>
				<path class="st21" d="M43.5,36.3c3-2,7.1-1.2,9.2,1.8c1.9,2.8,1.3,6.6-1.2,8.7c1.6-2.2,1.8-5.3,0.2-7.7c-2-3-6.2-3.8-9.2-1.8
					c-0.2,0.1-0.4,0.3-0.6,0.5C42.4,37.3,42.9,36.7,43.5,36.3z"/>
			</g>
		</g>
		<g>
			<g>
				<path class="st18" d="M43.3,35.9c3.2-2.2,7.7-1.3,9.9,1.9c2.2,3.2,1.3,7.7-1.9,9.9c-3.2,2.2-7.7,1.3-9.9-1.9
					C39.2,42.5,40,38.1,43.3,35.9z M43.8,36.7c-2.8,1.9-3.5,5.7-1.7,8.5c1.9,2.8,5.7,3.5,8.5,1.7c2.8-1.9,3.5-5.7,1.7-8.5
					C50.4,35.6,46.6,34.8,43.8,36.7z"/>
			</g>
		</g>
		<g>
			<g>
				<path class="st27" d="M39.6,21.4l5.5-5.8c0.8-0.9,2.2-0.9,3.1-0.1l4.7,4.4c0.9,0.8,0.9,2.2,0.1,3.1l-5.5,5.8
					c-0.8,0.9-2.2,0.9-3.1,0.1l-4.7-4.4C38.8,23.7,38.8,22.3,39.6,21.4z"/>
			</g>
		</g>
		<g class="st20">
			<g>
				<path class="st21" d="M52.8,20c0.9,0.8,0.9,2.2,0.1,3.1l-5.5,5.8c-0.8,0.9-2.2,0.9-3.1,0.1l-0.8-0.8c0.9,0.8,2.3,0.8,3.1-0.1
					l5.5-5.8c0.8-0.9,0.8-2.3-0.1-3.1L52.8,20z"/>
			</g>
		</g>
		<g>
			<g>
				<path class="st28" d="M39.6,21.4l5.5-5.8c0.8-0.9,2.2-0.9,3.1-0.1l4.7,4.4c0.9,0.8,0.9,2.2,0.1,3.1l-5.5,5.8
					c-0.8,0.9-2.2,0.9-3.1,0.1l-4.7-4.4C38.8,23.7,38.8,22.3,39.6,21.4z"/>
			</g>
		</g>
		<g>
			<g>
				<path class="st18" d="M39.2,21.1l5.5-5.8c1-1.1,2.7-1.1,3.8-0.1l4.7,4.4c1.1,1,1.1,2.7,0.1,3.8l-5.5,5.8c-1,1.1-2.7,1.1-3.8,0.1
					l-4.7-4.4l0,0c-0.1-0.1-0.3-0.3-0.4-0.4C38.3,23.4,38.4,22,39.2,21.1z M44.7,28.6c0.7,0.6,1.8,0.6,2.4-0.1l5.5-5.8
					c0.3-0.3,0.5-0.8,0.5-1.2c0-0.5-0.2-0.9-0.5-1.2l-4.7-4.4c-0.7-0.6-1.8-0.6-2.4,0.1l-5.5,5.8c-0.3,0.3-0.5,0.8-0.5,1.2
					c0,0.5,0.2,0.9,0.5,1.2L44.7,28.6z"/>
			</g>
		</g>
		<g class="st25">
			<g>
				<path class="st23" d="M44.6,39.5l0.1,0.3c-0.6,0.2-1.3,0.4-1.9,0.8L44.6,39.5z"/>
			</g>
		</g>
		<g>
			<g>
				<g>
					<path class="st29" d="M43.6,38.1l-7.2,4.3L35,49.3l2.8,4.1c3.5,5.2,11.3,1.4,7.8-4.8c0.5-0.1,0.9-0.6,1-1.1
						c0.1-0.5-0.2-1.1-0.6-1.4c1.3-1,0.9-3-0.2-3.7L43.6,38.1z"/>
				</g>
				<g>
					<path class="st30" d="M35,49.3l1.4-6.9c0,0,0,0,0,0l7.2-4.3c0,0,0,0,0.1,0c0,0,0,0,0,0l2.2,4.3c0.6,0.4,1,1.1,1,1.9
						c0,0.7-0.2,1.4-0.8,1.9c0.4,0.3,0.6,0.9,0.6,1.4c-0.1,0.5-0.5,1-1,1.2c1.8,3.2,0.5,5.5-1.2,6.6c-1.9,1.2-5,1-6.8-1.8L35,49.3
						L35,49.3C35,49.3,35,49.3,35,49.3z M46,46.1C46,46.1,45.9,46.1,46,46.1c0-0.1,0-0.1,0-0.1c0.6-0.4,0.8-1.1,0.8-1.8
						c0-0.8-0.4-1.4-1-1.8c0,0,0,0,0,0l-2.2-4.2l-7.1,4.3l-1.4,6.8l2.7,4c1.8,2.7,4.8,2.9,6.7,1.7c1.6-1,2.9-3.3,1.1-6.4
						c0,0,0,0,0-0.1c0,0,0,0,0,0c0.5-0.1,0.9-0.6,0.9-1.1c0.1-0.3,0-0.7-0.2-1C46.2,46.4,46.1,46.2,46,46.1z"/>
				</g>
			</g>
			<g class="st25">
				<g>
					<path class="st26" d="M41.6,39.6c0,0-0.1,0.1-0.1,0.1c-3.7,2.5-4.8,7.5-2.4,11.1c1.4,2.1,3.8,3.3,6.2,3.4
						c-1.8,2-5.5,2.2-7.6-0.8l-2.7-3.9l1.5-6.8L41.6,39.6z"/>
				</g>
			</g>
			<g class="st20">
				<g>
					<path class="st21" d="M45.7,42.4c1.1,0.7,1.5,2.7,0.2,3.7c0.4,0.3,0.7,0.9,0.6,1.4c-0.1,0.5-0.5,1-1,1.1c3,5.4-2.4,8.9-6.2,6.4
						c3.5,1.3,7.6-1.8,5.4-6.5c-0.1-0.2,0-0.5,0.2-0.7c0.3-0.2,0.5-0.6,0.6-0.9c0.1-0.4,0-0.8-0.3-1.1c-0.1-0.2-0.1-0.5,0-0.7
						c0.7-0.9,0.6-2.1,0-2.9c0.1-0.2,0.2-0.3,0.2-0.5L45.7,42.4z"/>
				</g>
			</g>
			<g>
				<g>
					<path class="st18" d="M34.5,49.2l1.4-6.9c0-0.1,0.1-0.2,0.2-0.3l7.2-4.3c0.1-0.1,0.3-0.1,0.4-0.1c0.1,0,0.2,0.1,0.3,0.2
						l2.1,4.2c0.6,0.5,1.1,1.3,1.1,2.2c0,0.7-0.2,1.4-0.6,1.9c0.3,0.4,0.5,0.9,0.4,1.5c-0.1,0.5-0.4,1-0.8,1.3
						c1.5,3.1,0.4,5.6-1.5,6.7c-2.1,1.3-5.4,1.1-7.4-1.9l-2.8-4.1l0,0C34.5,49.5,34.5,49.3,34.5,49.2z M45.8,46.5
						c-0.1-0.1-0.2-0.2-0.2-0.4c0-0.2,0.1-0.3,0.2-0.4c0.6-0.5,0.7-1.1,0.6-1.5c0-0.6-0.3-1.2-0.8-1.5c-0.1,0-0.1-0.1-0.2-0.2
						l-2-3.8l-6.5,3.9l-1.4,6.5l2.6,3.9c1.7,2.5,4.4,2.7,6.1,1.6c1.5-0.9,2.6-3,0.9-5.9c-0.1-0.1-0.1-0.3,0-0.4
						c0.1-0.1,0.2-0.2,0.3-0.3c0.3-0.1,0.6-0.4,0.6-0.7c0-0.2,0-0.5-0.2-0.7C45.9,46.6,45.8,46.5,45.8,46.5z"/>
				</g>
			</g>
		</g>
		<g class="st31">
			<g>
				<ellipse transform="matrix(0.829 -0.5592 0.5592 0.829 -17.2909 30.9771)" class="st23" cx="42" cy="43.8" rx="0.2" ry="0.2"/>
			</g>
		</g>
		<g class="st25">
			<g>
				<path class="st23" d="M42.8,40.5l-0.4,0.3C42.5,40.7,42.7,40.6,42.8,40.5z"/>
			</g>
		</g>
		<g class="st32">
			<g>
				<path class="st21" d="M29.4,5.6c0.1,0,0.1-0.1,0.2-0.1c-0.4,0.8-0.6,1.9-1.2,2.4c-0.2,0.2-0.4,0.3-0.6,0.5
					C28.3,7.4,28.5,6,29.4,5.6z"/>
			</g>
		</g>
		<g>
			<g>
				<g>
					<path class="st33" d="M25.4,5.6c1.1-0.5,1.8-2.2,2.9-2.4c1.2-0.2,2.3,1.3,3.5,1.5c1.1,0.2,2.7-0.8,3.8-0.2
						c1,0.5,1.1,2.4,1.9,3.3c0.8,0.9,2.7,1,3.2,2.1c0.5,1.1-0.5,2.6-0.4,3.8c0.2,1.2,1.6,2.4,1.4,3.5c-0.2,1.1-1.9,1.8-2.5,2.8
						c-0.5,1-0.1,2.8-1,3.7c-0.9,0.8-2.7,0.3-3.7,0.8c-1.1,0.5-1.8,2.2-2.9,2.4c-1.2,0.2-2.3-1.3-3.5-1.5c-1.1-0.2-2.7,0.8-3.8,0.2
						c-1-0.5-1.1-2.4-1.9-3.3c-0.8-0.9-2.7-1-3.2-2.1c-0.5-1.1,0.5-2.6,0.4-3.8c-0.2-1.2-1.6-2.4-1.4-3.5c0.2-1.1,1.9-1.8,2.5-2.8
						c0.5-1,0.1-2.8,1-3.7C22.6,5.6,24.4,6.1,25.4,5.6z"/>
				</g>
			</g>
			<g>
				<g>
					<path class="st23" d="M18.7,20.4c-0.4-0.8-0.1-1.7,0.1-2.5c0.1-0.5,0.3-1,0.2-1.4c-0.1-0.4-0.3-0.9-0.6-1.3
						c-0.4-0.7-0.9-1.5-0.7-2.4c0.2-0.8,0.8-1.4,1.5-1.9c0.4-0.3,0.9-0.7,1-1.1c0.2-0.3,0.2-0.8,0.3-1.4c0.1-0.8,0.2-1.8,0.8-2.4
						c0.6-0.6,1.6-0.7,2.4-0.7c0.5,0,1.1,0,1.4-0.2c0.4-0.2,0.7-0.6,1.1-1c0.6-0.6,1.2-1.3,2-1.4c0.9-0.1,1.6,0.4,2.3,0.8
						c0.4,0.3,0.9,0.6,1.3,0.7c0.4,0.1,0.9,0,1.4-0.2c0.8-0.2,1.7-0.4,2.5,0c0.7,0.4,1.1,1.2,1.4,2c0.2,0.5,0.4,1,0.7,1.3
						c0.3,0.3,0.8,0.5,1.3,0.7c0.8,0.3,1.6,0.7,2,1.4c0.4,0.8,0.1,1.7-0.1,2.5c-0.1,0.5-0.3,1-0.2,1.4c0.1,0.4,0.3,0.9,0.6,1.3
						c0.4,0.7,0.9,1.5,0.7,2.4c-0.2,0.8-0.8,1.4-1.5,1.9c-0.4,0.3-0.9,0.7-1,1.1c-0.2,0.3-0.2,0.9-0.3,1.4c-0.1,0.8-0.2,1.8-0.8,2.4
						c-0.6,0.6-1.6,0.7-2.4,0.7c-0.5,0-1.1,0-1.4,0.2c-0.4,0.2-0.7,0.6-1.1,1c-0.6,0.6-1.2,1.3-2,1.4c-0.9,0.1-1.6-0.4-2.3-0.8
						c-0.4-0.3-0.9-0.6-1.3-0.7c-0.4-0.1-0.9,0-1.4,0.2c-0.8,0.2-1.7,0.4-2.5,0c-0.7-0.4-1.1-1.2-1.4-2c-0.2-0.5-0.4-1-0.7-1.3
						c-0.3-0.3-0.8-0.5-1.3-0.7c-0.7-0.3-1.4-0.6-1.8-1.2C18.8,20.6,18.8,20.5,18.7,20.4z M23.7,23.6c0.2,0.6,0.5,1.2,0.9,1.4
						c0.4,0.2,1.1,0.1,1.7-0.1c0.6-0.1,1.3-0.3,1.9-0.2c0.6,0.1,1.2,0.5,1.7,0.8c0.6,0.4,1.1,0.7,1.6,0.7c0.4-0.1,0.9-0.6,1.3-1.1
						c0.4-0.5,0.9-1,1.4-1.3c0.5-0.3,1.2-0.3,1.8-0.3c0.7,0,1.4-0.1,1.7-0.4c0.3-0.3,0.4-1,0.5-1.7c0.1-0.6,0.1-1.3,0.4-1.8
						c0.3-0.6,0.8-1,1.3-1.4c0.5-0.4,1-0.8,1.1-1.3c0.1-0.5-0.3-1-0.6-1.6c-0.3-0.6-0.7-1.1-0.8-1.7c-0.1-0.6,0.1-1.2,0.3-1.9
						c0.2-0.7,0.4-1.3,0.2-1.7c-0.2-0.4-0.8-0.6-1.4-0.9c-0.6-0.3-1.2-0.5-1.7-1c-0.4-0.5-0.7-1.1-0.9-1.7C36,5.8,35.7,5.2,35.3,5
						c-0.4-0.2-1.1-0.1-1.7,0.1c-0.6,0.1-1.3,0.3-1.9,0.2c-0.6-0.1-1.2-0.5-1.7-0.8c-0.6-0.4-1.1-0.7-1.6-0.7
						c-0.4,0.1-0.9,0.6-1.3,1.1c-0.4,0.5-0.9,1-1.4,1.3c-0.5,0.3-1.2,0.3-1.8,0.3c-0.7,0-1.4,0.1-1.7,0.4c-0.3,0.3-0.4,1-0.5,1.7
						c-0.1,0.6-0.1,1.3-0.4,1.8c-0.3,0.6-0.8,1-1.3,1.4c-0.5,0.4-1,0.8-1.1,1.3c-0.1,0.5,0.3,1,0.6,1.6c0.3,0.6,0.7,1.1,0.8,1.7
						c0.1,0.6-0.1,1.2-0.3,1.9c-0.2,0.7-0.4,1.3-0.2,1.7c0.2,0.4,0.8,0.6,1.4,0.9c0.6,0.3,1.2,0.5,1.7,1c0.1,0.1,0.2,0.2,0.3,0.4
						C23.4,22.7,23.5,23.1,23.7,23.6z"/>
				</g>
			</g>
		</g>
		<g>
			<g>
				<path class="st34" d="M25.4,5.6c1.1-0.5,1.8-2.2,2.9-2.4c1.2-0.2,2.3,1.3,3.5,1.5c1.1,0.2,2.7-0.8,3.8-0.2
					c1,0.5,1.1,2.4,1.9,3.3c0.8,0.9,2.7,1,3.2,2.1c0.5,1.1-0.5,2.6-0.4,3.8c0.2,1.2,1.6,2.4,1.4,3.5c-0.2,1.1-1.9,1.8-2.5,2.8
					c-0.5,1-0.1,2.8-1,3.7c-0.9,0.8-2.7,0.3-3.7,0.8c-1.1,0.5-1.8,2.2-2.9,2.4c-1.2,0.2-2.3-1.3-3.5-1.5c-1.1-0.2-2.7,0.8-3.8,0.2
					c-1-0.5-1.1-2.4-1.9-3.3c-0.8-0.9-2.7-1-3.2-2.1c-0.5-1.1,0.5-2.6,0.4-3.8c-0.2-1.2-1.6-2.4-1.4-3.5c0.2-1.1,1.9-1.8,2.5-2.8
					c0.5-1,0.1-2.8,1-3.7C22.6,5.6,24.4,6.1,25.4,5.6z"/>
			</g>
		</g>
		<g class="st20">
			<g>
				<path class="st21" d="M21.7,6.4c0.9-0.8,2.7-0.3,3.7-0.8c1.1-0.5,1.8-2.2,2.9-2.4c1.2-0.2,2.3,1.3,3.5,1.5
					c1.1,0.2,2.7-0.8,3.8-0.2c1,0.5,1.1,2.4,1.9,3.3c0.8,0.9,2.7,1,3.2,2.1c0.5,1.1-0.5,2.6-0.4,3.8c0.2,1.2,1.6,2.4,1.4,3.5
					c-0.1,0.4-0.3,0.7-0.7,1c0.1-1.1-1.2-2.3-1.4-3.4C39.5,13.6,40.6,12,40,11c-0.5-1-2.3-1.2-3.2-2.1C36,8,35.9,6.2,34.9,5.7
					c-1-0.6-2.6,0.4-3.8,0.2c-1.2-0.2-2.3-1.7-3.5-1.5c-1.2,0.2-1.9,1.9-2.9,2.4c-1,0.5-2.6,0-3.5,0.7C21.3,7,21.4,6.7,21.7,6.4z"/>
			</g>
		</g>
		<g>
			<g>
				<path class="st18" d="M18.8,20.4c-0.4-0.8-0.1-1.6,0.1-2.5c0.1-0.5,0.3-1.1,0.2-1.5c-0.1-0.4-0.3-0.9-0.6-1.4
					c-0.4-0.7-0.9-1.5-0.7-2.3c0.1-0.8,0.8-1.4,1.5-1.9c0.4-0.3,0.9-0.7,1.1-1.1c0.2-0.3,0.2-0.9,0.3-1.4c0.1-0.8,0.2-1.8,0.8-2.4
					c0.6-0.6,1.6-0.6,2.4-0.7c0.6,0,1.1-0.1,1.4-0.2c0.4-0.2,0.8-0.6,1.1-1c0.6-0.6,1.1-1.3,2-1.4c0.8-0.1,1.6,0.4,2.3,0.8
					c0.5,0.3,0.9,0.6,1.3,0.7c0.4,0.1,0.9,0,1.5-0.2c0.8-0.2,1.7-0.4,2.5,0c0.7,0.4,1,1.2,1.3,2c0.2,0.5,0.4,1.1,0.7,1.4
					c0.3,0.3,0.8,0.5,1.3,0.8c0.8,0.3,1.6,0.7,1.9,1.4c0.4,0.8,0.1,1.6-0.1,2.5c-0.1,0.5-0.3,1.1-0.2,1.5c0.1,0.4,0.3,0.9,0.6,1.4
					c0.4,0.7,0.9,1.5,0.7,2.3c-0.1,0.8-0.8,1.4-1.5,1.9c-0.4,0.3-0.9,0.7-1.1,1.1c-0.2,0.3-0.2,0.9-0.3,1.4
					c-0.1,0.8-0.2,1.8-0.8,2.4c-0.6,0.6-1.6,0.6-2.4,0.7c-0.6,0-1.1,0.1-1.4,0.2c-0.4,0.2-0.8,0.6-1.1,1c-0.6,0.6-1.1,1.3-2,1.4
					c-0.8,0.1-1.6-0.4-2.3-0.8c-0.5-0.3-0.9-0.6-1.3-0.7c-0.4-0.1-0.9,0-1.5,0.2c-0.8,0.2-1.7,0.4-2.5,0c-0.7-0.4-1-1.2-1.3-2
					c-0.2-0.5-0.4-1.1-0.7-1.4c-0.3-0.3-0.8-0.5-1.3-0.8c-0.7-0.3-1.4-0.6-1.8-1.2C18.9,20.6,18.8,20.5,18.8,20.4z M23.7,23.6
					c0.2,0.6,0.5,1.3,0.9,1.5c0.4,0.2,1.1,0.1,1.8-0.1c0.6-0.1,1.3-0.3,1.9-0.2c0.6,0.1,1.2,0.5,1.7,0.8c0.6,0.4,1.2,0.8,1.6,0.7
					c0.5-0.1,0.9-0.6,1.4-1.1c0.4-0.5,0.9-1,1.4-1.3c0.5-0.3,1.2-0.3,1.8-0.3c0.7,0,1.4-0.1,1.8-0.4c0.4-0.4,0.4-1,0.5-1.7
					c0.1-0.6,0.1-1.3,0.4-1.8c0.3-0.5,0.8-1,1.3-1.4c0.5-0.4,1.1-0.9,1.1-1.3c0.1-0.5-0.3-1-0.6-1.7c-0.3-0.6-0.7-1.1-0.7-1.7
					c-0.1-0.6,0.1-1.2,0.3-1.8c0.2-0.7,0.4-1.3,0.2-1.8c-0.2-0.4-0.8-0.7-1.4-0.9c-0.6-0.3-1.2-0.5-1.7-1c-0.4-0.5-0.7-1.1-0.9-1.7
					c-0.2-0.6-0.5-1.3-0.9-1.5c-0.4-0.2-1.1-0.1-1.8,0.1c-0.6,0.1-1.3,0.3-1.9,0.2c-0.6-0.1-1.2-0.5-1.7-0.8
					c-0.6-0.4-1.2-0.8-1.6-0.7c-0.5,0.1-0.9,0.6-1.4,1.1c-0.4,0.5-0.9,1-1.4,1.3c-0.5,0.3-1.2,0.3-1.8,0.3c-0.7,0-1.4,0.1-1.8,0.4
					c-0.4,0.4-0.4,1-0.5,1.7c-0.1,0.6-0.1,1.3-0.4,1.8c-0.3,0.5-0.8,1-1.3,1.4c-0.5,0.4-1.1,0.9-1.1,1.3c-0.1,0.5,0.3,1,0.6,1.7
					c0.3,0.6,0.7,1.1,0.7,1.7c0.1,0.6-0.1,1.2-0.3,1.8c-0.2,0.7-0.4,1.3-0.2,1.8c0.2,0.4,0.8,0.7,1.4,0.9c0.6,0.3,1.2,0.5,1.7,1
					c0.1,0.1,0.2,0.2,0.3,0.3C23.3,22.7,23.5,23.2,23.7,23.6z"/>
			</g>
		</g>
		<g>
			<g>
				<g>
					<path class="st33" d="M50.7,40.9c0.9-0.8,2.8-0.7,3.4-1.7c0.6-1-0.2-2.6,0.1-3.8c0.3-1.1,1.8-2.2,1.8-3.4
						c-0.1-1.1-1.7-2-2.2-3.1c-0.4-1.1,0.2-2.9-0.5-3.7c-0.8-0.9-2.6-0.6-3.6-1.2c-1-0.6-1.5-2.4-2.6-2.7c-1.1-0.3-2.4,1-3.6,1.1
						c-1.1,0.1-2.6-1.1-3.7-0.6c-1.1,0.4-1.4,2.3-2.3,3c-0.9,0.8-2.8,0.7-3.4,1.7c-0.6,1,0.2,2.6-0.1,3.8c-0.3,1.1-1.8,2.2-1.8,3.4
						c0.1,1.1,1.7,2,2.2,3.1c0.4,1.1-0.2,2.9,0.5,3.7c0.8,0.9,2.6,0.6,3.6,1.2c1,0.6,1.5,2.4,2.6,2.7c1.1,0.3,2.4-1,3.6-1.1
						c1.1-0.1,2.6,1.1,3.7,0.6C49.5,43.5,49.8,41.6,50.7,40.9z"/>
				</g>
			</g>
			<g>
				<g>
					<path class="st23" d="M33.9,38.4c0-0.5,0-1.1-0.1-1.5s-0.6-0.8-0.9-1.2c-0.6-0.6-1.2-1.2-1.3-2.1c-0.1-0.9,0.5-1.6,1-2.3
						c0.3-0.4,0.7-0.9,0.8-1.2c0.1-0.4,0-0.9-0.1-1.5c-0.1-0.8-0.3-1.7,0.2-2.5c0.5-0.7,1.3-1,2.1-1.2c0.5-0.2,1.1-0.3,1.4-0.6
						c0.3-0.2,0.5-0.7,0.8-1.2c0.4-0.7,0.8-1.6,1.7-1.9c0.8-0.3,1.7,0,2.5,0.3c0.5,0.2,1,0.4,1.4,0.3c0.4,0,0.9-0.3,1.4-0.5
						c0.8-0.4,1.6-0.8,2.4-0.6c0.8,0.2,1.4,1,1.8,1.7c0.3,0.4,0.6,0.9,1,1.1c0.3,0.2,0.8,0.3,1.4,0.4c0.8,0.1,1.8,0.3,2.3,1
						c0.5,0.7,0.5,1.5,0.5,2.4c0,0.5,0,1.1,0.1,1.5c0.2,0.4,0.6,0.8,0.9,1.2c0.6,0.6,1.2,1.2,1.3,2.1c0.1,0.9-0.5,1.6-1,2.3
						c-0.3,0.4-0.7,0.9-0.8,1.2c-0.1,0.4,0,0.9,0.1,1.5c0.1,0.8,0.3,1.7-0.2,2.5c-0.5,0.7-1.3,1-2.1,1.2c-0.5,0.2-1.1,0.3-1.4,0.6
						c-0.3,0.2-0.5,0.7-0.8,1.2c-0.4,0.7-0.8,1.6-1.7,1.9l0,0c-0.8,0.3-1.7,0-2.5-0.3c-0.5-0.2-1-0.4-1.4-0.3
						c-0.4,0-0.9,0.3-1.4,0.5c-0.8,0.4-1.6,0.8-2.4,0.6c-0.8-0.2-1.4-1-1.8-1.7c-0.3-0.4-0.6-0.9-1-1.1c-0.3-0.2-0.8-0.3-1.4-0.4
						c-0.8-0.1-1.8-0.3-2.3-1c0,0-0.1-0.1-0.1-0.1C33.9,40,33.9,39.2,33.9,38.4z M48.2,43.4c0.5-0.2,0.8-0.8,1.1-1.4
						c0.3-0.6,0.6-1.1,1.1-1.5c0.5-0.4,1.1-0.6,1.8-0.8c0.7-0.2,1.3-0.4,1.5-0.8c0.2-0.4,0.1-1,0-1.7c-0.1-0.6-0.2-1.3,0-1.9
						c0.2-0.6,0.6-1.1,0.9-1.6c0.4-0.6,0.8-1.1,0.8-1.6c0-0.4-0.5-0.9-1-1.4c-0.5-0.5-0.9-1-1.2-1.6C53,28.6,53,27.9,53,27.2
						c0-0.7,0-1.3-0.2-1.7c-0.3-0.4-1-0.5-1.6-0.6c-0.6-0.1-1.3-0.2-1.8-0.5c-0.5-0.3-0.9-0.9-1.3-1.4c-0.4-0.6-0.8-1.1-1.2-1.2
						c-0.4-0.1-1,0.2-1.6,0.5c-0.6,0.3-1.2,0.6-1.8,0.6c-0.6,0-1.2-0.2-1.8-0.4c-0.7-0.2-1.3-0.5-1.8-0.3c-0.5,0.2-0.8,0.8-1.1,1.4
						c-0.3,0.6-0.6,1.1-1.1,1.5c-0.5,0.4-1.1,0.6-1.8,0.8c-0.7,0.2-1.3,0.4-1.5,0.8c-0.2,0.4-0.1,1,0,1.7c0.1,0.6,0.2,1.3,0,1.9
						c-0.2,0.6-0.6,1.1-0.9,1.6c-0.4,0.6-0.8,1.1-0.8,1.6c0,0.4,0.5,0.9,1,1.4c0.5,0.5,0.9,1,1.2,1.6c0.2,0.6,0.2,1.3,0.2,1.9
						c0,0.7,0,1.3,0.2,1.7c0.3,0.4,1,0.5,1.6,0.6c0.6,0.1,1.3,0.2,1.8,0.5c0.5,0.3,0.9,0.9,1.3,1.4c0.4,0.6,0.8,1.1,1.2,1.2
						c0.4,0.1,1-0.2,1.6-0.5c0.6-0.3,1.2-0.6,1.8-0.6c0.6,0,1.2,0.2,1.8,0.4C47.1,43.4,47.8,43.6,48.2,43.4L48.2,43.4z"/>
				</g>
			</g>
		</g>
		<g>
			<g>
				<path class="st34" d="M50.7,40.9c0.9-0.8,2.8-0.7,3.4-1.7c0.6-1-0.2-2.6,0.1-3.8c0.3-1.1,1.8-2.2,1.8-3.4
					c-0.1-1.1-1.7-2-2.2-3.1c-0.4-1.1,0.2-2.9-0.5-3.7c-0.8-0.9-2.6-0.6-3.6-1.2c-1-0.6-1.5-2.4-2.6-2.7c-1.1-0.3-2.4,1-3.6,1.1
					c-1.1,0.1-2.6-1.1-3.7-0.6c-1.1,0.4-1.4,2.3-2.3,3c-0.9,0.8-2.8,0.7-3.4,1.7c-0.6,1,0.2,2.6-0.1,3.8c-0.3,1.1-1.8,2.2-1.8,3.4
					c0.1,1.1,1.7,2,2.2,3.1c0.4,1.1-0.2,2.9,0.5,3.7c0.8,0.9,2.6,0.6,3.6,1.2c1,0.6,1.5,2.4,2.6,2.7c1.1,0.3,2.4-1,3.6-1.1
					c1.1-0.1,2.6,1.1,3.7,0.6C49.5,43.5,49.8,41.6,50.7,40.9z"/>
			</g>
		</g>
		<g class="st20">
			<g>
				<path class="st21" d="M48.3,43.9c1.1-0.4,1.4-2.3,2.3-3c0.9-0.8,2.8-0.7,3.4-1.7c0.6-1-0.2-2.7,0.1-3.8c0.3-1.1,1.8-2.2,1.8-3.4
					c-0.1-1.1-1.7-2-2.2-3.1c-0.4-1.1,0.2-2.9-0.5-3.8c-0.8-0.9-2.6-0.6-3.6-1.2c-1-0.6-1.5-2.4-2.6-2.7c-0.4-0.1-0.8,0-1.2,0.2
					c1.1,0.4,1.6,2.1,2.5,2.7c1,0.6,2.8,0.3,3.6,1.2c0.7,0.9,0.1,2.6,0.5,3.8c0.4,1.1,2.1,2,2.2,3.1c0.1,1.2-1.5,2.2-1.8,3.4
					c-0.3,1.1,0.6,2.8-0.1,3.8c-0.6,1-2.5,0.9-3.4,1.7c-0.8,0.7-1.1,2.4-2.1,2.9C47.5,44,47.9,44.1,48.3,43.9z"/>
			</g>
		</g>
		<g>
			<g>
				<path class="st18" d="M34,38.4c0-0.6,0-1.1-0.1-1.5c-0.2-0.4-0.6-0.8-1-1.2c-0.6-0.6-1.2-1.2-1.3-2c-0.1-0.9,0.5-1.6,1-2.2
					c0.3-0.4,0.7-0.9,0.8-1.3c0.1-0.4,0-0.9-0.1-1.5c-0.1-0.8-0.3-1.7,0.2-2.4c0.4-0.7,1.3-1,2.1-1.2c0.5-0.2,1.1-0.3,1.4-0.6
					c0.3-0.3,0.5-0.7,0.8-1.2c0.4-0.7,0.8-1.6,1.6-1.9c0.8-0.3,1.7,0,2.5,0.3c0.5,0.2,1,0.4,1.4,0.3c0.4,0,0.9-0.3,1.4-0.5
					c0.8-0.4,1.5-0.8,2.4-0.6c0.8,0.2,1.3,0.9,1.8,1.6c0.3,0.5,0.6,0.9,1,1.1c0.3,0.2,0.9,0.3,1.4,0.4c0.9,0.1,1.7,0.3,2.3,0.9
					c0.5,0.6,0.5,1.5,0.5,2.3c0,0.6,0,1.1,0.1,1.5c0.2,0.4,0.6,0.8,1,1.2c0.6,0.6,1.2,1.2,1.3,2c0.1,0.9-0.5,1.6-1,2.2
					c-0.3,0.4-0.7,0.9-0.8,1.3c-0.1,0.4,0,0.9,0.1,1.5c0.1,0.8,0.3,1.7-0.2,2.4c-0.4,0.7-1.3,1-2.1,1.2c-0.5,0.2-1.1,0.3-1.4,0.6
					c-0.3,0.3-0.5,0.7-0.8,1.2c-0.4,0.7-0.8,1.6-1.6,1.9l0,0c-0.8,0.3-1.7,0-2.5-0.3c-0.5-0.2-1-0.4-1.4-0.3c-0.4,0-0.9,0.3-1.4,0.5
					c-0.8,0.4-1.5,0.8-2.4,0.6c-0.8-0.2-1.3-0.9-1.8-1.6c-0.3-0.5-0.6-0.9-1-1.1c-0.3-0.2-0.9-0.3-1.4-0.4c-0.9-0.1-1.7-0.3-2.3-0.9
					c0,0-0.1-0.1-0.1-0.1C33.9,40,33.9,39.2,34,38.4z M48.2,43.5c0.5-0.2,0.8-0.8,1.1-1.4c0.3-0.6,0.6-1.1,1-1.5
					c0.5-0.4,1.1-0.6,1.7-0.8c0.7-0.2,1.3-0.4,1.6-0.8c0.3-0.4,0.2-1.1,0.1-1.8c-0.1-0.6-0.2-1.3,0-1.9c0.1-0.6,0.5-1.1,0.9-1.6
					c0.4-0.6,0.8-1.1,0.8-1.6c0-0.5-0.5-0.9-1-1.4c-0.5-0.5-0.9-0.9-1.2-1.5c-0.2-0.6-0.2-1.3-0.2-1.9c0-0.7,0-1.4-0.3-1.7
					c-0.3-0.4-1-0.5-1.7-0.6c-0.6-0.1-1.3-0.2-1.8-0.5c-0.5-0.3-0.9-0.9-1.3-1.4c-0.4-0.6-0.8-1.1-1.3-1.3c-0.5-0.1-1.1,0.2-1.7,0.5
					c-0.6,0.3-1.2,0.6-1.8,0.6c-0.6,0-1.2-0.2-1.8-0.4c-0.7-0.2-1.3-0.5-1.8-0.3c-0.5,0.2-0.8,0.8-1.1,1.4c-0.3,0.6-0.6,1.1-1,1.5
					c-0.5,0.4-1.1,0.6-1.7,0.8c-0.7,0.2-1.3,0.4-1.6,0.8c-0.3,0.4-0.2,1.1-0.1,1.8c0.1,0.6,0.2,1.3,0,1.9c-0.1,0.6-0.5,1.1-0.9,1.6
					c-0.4,0.6-0.8,1.1-0.8,1.6c0,0.5,0.5,0.9,1,1.4c0.5,0.5,0.9,0.9,1.2,1.5s0.2,1.3,0.2,1.9c0,0.7,0,1.4,0.3,1.7
					c0.3,0.4,1,0.5,1.7,0.6c0.6,0.1,1.3,0.2,1.8,0.5c0.5,0.3,0.9,0.9,1.3,1.4c0.4,0.6,0.8,1.1,1.3,1.3c0.5,0.1,1.1-0.2,1.7-0.5
					c0.6-0.3,1.2-0.6,1.8-0.6c0.6,0,1.2,0.2,1.8,0.4C47.1,43.4,47.8,43.7,48.2,43.5L48.2,43.5z"/>
			</g>
		</g>
		<g class="st31">
			<g>
				<ellipse transform="matrix(0.829 -0.5592 0.5592 0.829 -8.6776 20.0176)" class="st35" cx="28.4" cy="24.2" rx="0.6" ry="0.9"/>
			</g>
		</g>
		<g>
			<g>
				<path class="st36" d="M17.5,10L17.5,10c0.2-0.1,0.3-0.2,0.5-0.3c0.5-0.3,1.1-0.5,1.7-0.7c10.2-2.7,20.9-0.5,26.2,7.4
					c4.8,7.1,4,16.7-1.3,24.7l0,0c-1.2,1.8-2.7,3.6-4.3,5.2l0,0c-0.1,0.1-0.2,0.2-0.3,0.3c0,0,0,0,0,0c-0.3,0.3-0.5,0.6-0.7,0.8
					c0,0,0,0,0,0c0,0-0.1,0.1-0.1,0.1c0,0,0,0.1-0.1,0.1c0,0.1-0.1,0.1-0.1,0.2c0,0,0,0,0,0c0,0.1-0.1,0.1-0.1,0.2c0,0,0,0.1,0,0.1
					c0,0,0,0.1-0.1,0.1c0,0,0,0.1-0.1,0.1c0,0.1-0.1,0.1-0.1,0.2c-0.2,0.3-0.3,0.6-0.4,1c0,0.1,0,0.1-0.1,0.2c0,0,0,0.1,0,0.1
					c0,0,0,0.1,0,0.1c0,0,0,0.1,0,0.1c0,0,0,0.1,0,0.1c0,0,0,0.1,0,0.1c0,0,0,0.1,0,0.1c0,0.1,0,0.1,0,0.2c0,0.1,0,0.1,0,0.2
					c0,0,0,0,0,0c0,0.1,0,0.2,0,0.2c0,0,0,0.1,0,0.1c0,0,0,0.1,0,0.1c0,0,0,0.1,0,0.1c0,0,0,0.1,0,0.1c0,0,0,0.1,0,0.1
					c0,0.3,0,0.7,0.1,1c0,0,0,0.1,0,0.1c0,0.2,0.1,0.3,0.1,0.5c0,0,0,0.1,0,0.1c0,0,0,0.1,0,0.1c0,0,0,0.1,0,0.1c0,0,0,0,0,0
					c0,0,0,0.1,0,0.1c0,0,0,0.1,0.1,0.1c0.1,0.2,0.2,0.3,0.2,0.5c0,0,0,0.1,0.1,0.1c0,0,0.1,0.1,0.1,0.1l-4.2-6.2l0,0L14.6,19.1
					c-0.1-0.2-0.2-0.3-0.3-0.5c0-0.1-0.1-0.2-0.1-0.3c-0.2-0.5-0.3-0.9-0.4-1.4c0-0.1,0-0.2,0-0.2c0-0.2,0-0.3,0-0.5
					c0-0.1,0-0.2,0-0.3c0-0.2,0-0.4,0.1-0.6c0-0.1,0-0.2,0.1-0.3c0,0,0-0.1,0-0.1c0-0.1,0-0.1,0.1-0.2c0-0.1,0-0.1,0.1-0.2
					c0-0.1,0-0.2,0.1-0.2c0.1-0.4,0.3-0.8,0.5-1.2c0.1-0.1,0.1-0.2,0.2-0.3c0.1-0.2,0.3-0.5,0.5-0.7c0.5-0.7,1.2-1.3,2-1.8
					C17.2,10.2,17.3,10.1,17.5,10z"/>
			</g>
		</g>
		<g class="st20">
			<g>
				<path class="st21" d="M17.5,10L17.5,10c0.2-0.1,0.3-0.2,0.5-0.3c0.5-0.3,1.1-0.5,1.7-0.7c10.2-2.7,20.9-0.5,26.2,7.4
					c4.8,7.1,4,16.7-1.3,24.7l0,0c-1.2,1.8-2.7,3.6-4.3,5.2l0,0c-0.1,0.1-0.2,0.2-0.3,0.3c0,0,0,0,0,0c-0.1,0.1-0.1,0.1-0.1,0.2
					c-0.1-0.1-0.1-0.1-0.2-0.2c1.5-1.5,2.7-3.1,3.8-4.7l0,0c5.3-8,6.1-17.6,1.3-24.7C39.4,9.4,28.7,7.2,18.5,9.9
					c-0.6,0.2-1.2,0.4-1.7,0.7c-0.1,0.1-0.2,0.1-0.3,0.2c0.2-0.2,0.4-0.3,0.7-0.5C17.2,10.2,17.3,10.1,17.5,10z"/>
			</g>
		</g>
		<g class="st25">
			<g>
				<path class="st26" d="M19.6,9.1c0.5-0.1,0.1,0.1-0.5,0.3C19.3,9.3,19.5,9.2,19.6,9.1z"/>
			</g>
		</g>
		<g>
			<g>
				<path class="st18" d="M33.9,48.5L14.2,19.4c-1.1-1.6-1.3-3.7-0.5-5.7c0.9-2.4,3.1-4.3,5.8-5.1C24.8,7.3,30,7.2,34.7,8.4
					c4.9,1.3,8.9,4,11.5,7.8c2.9,4.3,3.9,9.8,2.8,15.4C48,37,45,42.4,40.6,46.7c0,0,0,0,0,0c-0.1,0.1-0.2,0.2-0.3,0.3c0,0,0,0,0,0
					l0,0c-2.2,2.2-2.7,5.1-1.3,7.2c0.2,0.2,0.1,0.5-0.1,0.7c-0.2,0.2-0.5,0.1-0.7-0.1L33.9,48.5C33.9,48.6,33.9,48.6,33.9,48.5z
					 M39.5,46.4C39.5,46.4,39.5,46.4,39.5,46.4c0.1-0.1,0.2-0.2,0.4-0.3c0,0,0,0,0,0c8.8-8.6,11.2-20.9,5.5-29.3
					c-4.9-7.2-14.9-10-25.7-7.2c-2.4,0.6-4.4,2.3-5.2,4.5c-0.6,1.7-0.5,3.4,0.4,4.8l19.7,29.2c0,0,0,0,0,0.1l2.4,3.5
					C37.2,49.9,38,47.9,39.5,46.4z M40.2,47L40.2,47L40.2,47z M40.2,47C40.2,47,40.2,47,40.2,47C40.2,47,40.2,47,40.2,47z"/>
			</g>
		</g>
		<g class="st25">
			<g>
				<path class="st21" d="M45.2,32.1c-0.8,2.4-2.4,4-3.6,3.6c-1.2-0.4,0-2.1,0.7-4.5c0.8-2.4,0.8-4.5,2-4.1
					C45.6,27.4,46,29.7,45.2,32.1z"/>
			</g>
		</g>
		<g class="st25">
			<g>
				<circle class="st26" cx="30" cy="12.8" r="0.4"/>
			</g>
		</g>
		<g class="st25">
			<g>
				<circle class="st26" cx="39.9" cy="40.1" r="0.4"/>
			</g>
		</g>
		<g class="st25">
			<g>
				<circle class="st26" cx="25.1" cy="18.9" r="0.4"/>
			</g>
		</g>
		<g class="st25">
			<g>
				<circle class="st26" cx="32.7" cy="39.4" r="0.4"/>
			</g>
		</g>
		<g class="st25">
			<g>
				<circle class="st26" cx="45.2" cy="22.2" r="0.4"/>
			</g>
		</g>
		<g class="st25">
			<g>
				<circle class="st26" cx="37.8" cy="21.8" r="0.4"/>
			</g>
		</g>
		<g class="st25">
			<g>
				<circle class="st26" cx="30.9" cy="33.1" r="0.4"/>
			</g>
		</g>
		<g class="st25">
			<g>
				<circle class="st26" cx="38.3" cy="16.7" r="0.4"/>
			</g>
		</g>
		<g class="st25">
			<g>
				<ellipse class="st26" cx="32.4" cy="13.4" rx="0.5" ry="0.5"/>
			</g>
		</g>
		<g class="st25">
			<g>
				<ellipse class="st26" cx="17.3" cy="14.6" rx="0.5" ry="0.5"/>
			</g>
		</g>
		<g class="st25">
			<g>
				<ellipse class="st26" cx="23" cy="26.7" rx="0.5" ry="0.5"/>
			</g>
		</g>
	</g>
</g>
</svg>
