<?xml version="1.0" encoding="utf-8"?>
<!-- Generator: Adobe Illustrator 24.3.0, SVG Export Plug-In . SVG Version: 6.00 Build 0)  -->
<svg version="1.1" id="Layer_1" xmlns:v="https://vecta.io/nano" opacity="0.4"
	 xmlns="http://www.w3.org/2000/svg" xmlns:xlink="http://www.w3.org/1999/xlink" x="0px" y="0px" viewBox="0 0 193 230"
	 style="enable-background:new 0 0 193 230;" xml:space="preserve">
<style type="text/css">
	.st0{display:none;}
	.st1{display:inline;}
	.st2{display:inline;clip-path:url(#SVGID_2_);}
	.st3{opacity:0.1;}
	.st4{fill-rule:evenodd;clip-rule:evenodd;fill:#606063;}
	.st5{fill:#BEBEBE;}
	.st6{fill:#FAF9FA;}
	.st7{fill-rule:evenodd;clip-rule:evenodd;fill:#633001;}
	.st8{fill:#FEDC90;}
	.st9{fill:#D1884F;}
	.st10{fill-rule:evenodd;clip-rule:evenodd;fill:url(#SVGID_3_);}
	.st11{fill:#9E7200;}
	.st12{fill:#F0B90B;}
	.st13{opacity:0.28;}
	.st14{fill:#EE3D33;}
	.st15{fill:#4E151A;}
	.st16{fill:#BBBDBF;}
	.st17{fill:#F3DFAE;}
	.st18{fill:#F5B779;}
	.st19{fill:#321328;}
	.st20{fill:#E73D49;}
	.st21{opacity:0.55;}
	.st22{fill:#FFFFFF;}
	.st23{opacity:0.16;}
	.st24{fill:#6B184E;}
	.st25{fill:#D93541;}
	.st26{opacity:0.25;}
	.st27{fill:#6D1837;}
	.st28{fill:#FFC92B;}
	.st29{fill:none;}
	.st30{fill:#D6662E;}
	.st31{fill:#611840;}
	.st32{opacity:0.3;}
	.st33{opacity:0.65;}
	.st34{fill:#72A78D;}
	.st35{fill:#84BD54;}
	.st36{fill:#E56E5F;}
	.st37{fill:#F8B517;}
	.st38{fill:#E7327B;}
	.st39{fill:none;stroke:#4E151A;stroke-width:9.3675;stroke-linecap:round;stroke-linejoin:round;stroke-miterlimit:10;}
	.st40{fill:none;stroke:#4E151A;stroke-width:8.4522;stroke-linecap:round;stroke-linejoin:round;stroke-miterlimit:10;}
</style>
<g class="st0">
	<defs>
		<rect id="SVGID_1_" y="0" width="192.2" height="230"/>
	</defs>
	<clipPath id="SVGID_2_" class="st1">
		<use xlink:href="#SVGID_1_"  style="overflow:visible;"/>
	</clipPath>
	<g class="st2">
		<g class="st3">
			<path class="st4" d="M8.8,137l0,2c0,2.5,0.2,5,0.6,7.5H8.7v3.9c0,1.9,0.1,3.8,0.3,5.6c4.3,36.1,50.1,64.6,105.9,64.6
				s101.6-28.4,105.9-64.6c0.2-1.9,0.3-3.7,0.3-5.6v-3.9h-0.6c0.4-2.5,0.6-5,0.6-7.5c0-0.7,0-1.3,0-2
				c-1.6-37.8-48.6-68.2-106.2-68.2S10.4,99.1,8.8,137z M0,137c0.8-23.1,15.2-42.5,35.3-55.7c20.8-13.7,49-21.9,79.7-21.9
				s58.9,8.2,79.7,21.9c20.1,13.3,34.5,32.7,35.3,55.7h0v13.4c0,24-14.7,44.1-35.3,57.7c-20.8,13.7-49,21.9-79.7,21.9
				s-58.9-8.2-79.7-21.9C14.7,194.4,0,174.3,0,150.3L0,137L0,137L0,137z"/>
			<path class="st5" d="M221.3,150.3c0,38.8-47.6,70.2-106.3,70.2S8.7,189.1,8.7,150.3v-11.1h212.6V150.3z"/>
			<path class="st6" d="M221.3,139c0,38.8-47.6,70.2-106.3,70.2S8.7,177.7,8.7,139S56.3,68.8,115,68.8S221.3,100.2,221.3,139
				L221.3,139z"/>
			<path class="st7" d="M25.1,119.1v0.1c0,3.2,0.4,6.3,1.2,9.4h-1.2v4.1c0,1.8,0.1,3.6,0.4,5.4c4.1,26.7,38,47.5,79.2,47.5
				s75.1-20.8,79.2-47.5c0.3-1.8,0.4-3.6,0.4-5.4v-4.1H183c0.8-3,1.2-6,1.2-9.1l0-0.3v-0.1c-0.1-29.2-35.7-52.8-79.6-52.8
				S25.2,90,25.1,119.1z M16.4,119.1L16.4,119.1l0,13.6c0,19.2,11.6,35,27.5,45.5c16,10.6,37.5,16.9,60.8,16.9s44.8-6.3,60.8-16.9
				c15.8-10.5,27.5-26.3,27.5-45.5l0-13.5c0-19.2-11.6-35-27.5-45.5c-16-10.6-37.5-16.9-60.8-16.9s-44.8,6.3-60.8,16.9
				C28,84.3,16.4,100.1,16.4,119.1L16.4,119.1z"/>
			<path class="st8" d="M184.2,132.7c0,29.2-35.6,52.9-79.6,52.9S25.1,162,25.1,132.7v-12.4h159.1V132.7z"/>
			<path class="st9" d="M184.2,119.3c0,29.2-35.6,52.9-79.6,52.9s-79.6-23.7-79.6-52.9s35.6-52.9,79.6-52.9S184.2,90.1,184.2,119.3z
				"/>
			<path class="st7" d="M49.1,90.7v0.1c0,3.2,0.4,6.3,1.2,9.4h-1.2v4.1c0,1.8,0.1,3.6,0.4,5.4c4.1,26.7,37.9,47.5,79.2,47.5
				s75.1-20.8,79.2-47.5c0.3-1.8,0.4-3.6,0.4-5.4v-4.1H207c0.8-3,1.2-6,1.2-9.1l0-0.3v-0.1c-0.1-29.2-35.7-52.8-79.6-52.8
				S49.2,61.5,49.1,90.7z M40.3,90.7L40.3,90.7l0,13.6c0,19.2,11.7,35,27.5,45.5c16,10.6,37.5,16.9,60.8,16.9s44.8-6.3,60.8-16.9
				c15.8-10.5,27.5-26.3,27.5-45.5V90.8c0-19.2-11.6-35-27.5-45.5c-16-10.6-37.5-16.9-60.8-16.9s-44.8,6.3-60.8,16.9
				C52,55.8,40.4,71.6,40.3,90.7L40.3,90.7z"/>
			<path class="st8" d="M208.2,104.3c0,29.2-35.6,52.9-79.6,52.9s-79.6-23.7-79.6-52.9V91.9h159.1
				C208.2,91.9,208.2,104.3,208.2,104.3z"/>
			<path class="st9" d="M208.2,90.8c0,29.2-35.6,52.9-79.6,52.9S49.1,120,49.1,90.8s35.6-52.9,79.6-52.9S208.2,61.6,208.2,90.8z"/>
			<path class="st7" d="M25.1,62.2v0.1c0,3.2,0.4,6.3,1.2,9.4h-1.2v4.1c0,1.8,0.1,3.6,0.4,5.4c4.1,26.7,38,47.5,79.2,47.5
				s75.1-20.8,79.2-47.5c0.3-1.8,0.4-3.6,0.4-5.4v-4.1H183c0.8-3,1.2-6,1.2-9.1l0-0.3v-0.1c-0.1-29.1-35.7-52.8-79.6-52.8
				S25.2,33.1,25.1,62.2z M16.4,62.2L16.4,62.2l0,13.6c0,19.2,11.6,35,27.5,45.5c16,10.6,37.5,16.9,60.8,16.9s44.8-6.3,60.8-16.9
				c15.8-10.5,27.5-26.3,27.5-45.5l0-13.5c0-19.2-11.6-35-27.5-45.5C149.5,6.3,128,0,104.6,0S59.8,6.3,43.8,16.9
				C28,27.4,16.4,43.1,16.4,62.2L16.4,62.2z"/>
			<path class="st8" d="M184.2,75.8c0,29.2-35.6,52.9-79.6,52.9s-79.6-23.7-79.6-52.9V63.4h159.1V75.8z"/>
			<path class="st9" d="M184.2,62.4c0,29.2-35.6,52.9-79.6,52.9S25.1,91.6,25.1,62.4S60.7,9.5,104.6,9.5S184.2,33.2,184.2,62.4z"/>
			<g>
				
					<linearGradient id="SVGID_3_" gradientUnits="userSpaceOnUse" x1="91.808" y1="195.1928" x2="91.808" y2="85.2028" gradientTransform="matrix(1 0 0 -1 0 229.8898)">
					<stop  offset="0" style="stop-color:#9F4A08"/>
					<stop  offset="0.37" style="stop-color:#7D3900"/>
					<stop  offset="1" style="stop-color:#8D4104"/>
				</linearGradient>
				<path class="st10" d="M43.9,65.7c0,9.8,6.5,18.5,16.8,24.4l-7.1,13.4v34c0,4.5,3.3,8.1,7.5,8.1s7.5-3.6,7.5-8.1v-27L76.2,96
					c4.9,1.1,10.2,1.7,15.6,1.7c26.5,0,47.9-14.3,47.9-32s-21.5-32-47.9-32S43.9,48,43.9,65.7L43.9,65.7z"/>
				<path class="st7" d="M60.7,90L57.4,88C49,82.2,43.9,74.3,43.9,65.7c0-17.7,21.5-32,47.9-32s47.9,14.3,47.9,32s-21.5,32-47.9,32
					c-5.5,0-10.7-0.6-15.6-1.7l-7.7,14.4v27c0,4.5-3.3,8.1-7.5,8.1s-7.5-3.6-7.5-8.1v-34L60.7,90L60.7,90z M45.9,103.6v33.8
					c0,9.1,6.8,16.4,15.1,16.4s15.1-7.4,15.1-16.4v-24.8l4-7.5c3.8,0.6,7.7,0.9,11.7,0.9c14.4,0,27.8-3.9,37.9-10.6
					c9.9-6.6,17.7-16.9,17.7-29.7s-7.7-23.1-17.7-29.7c-10.1-6.7-23.5-10.6-37.9-10.6S64,29.2,53.9,35.9
					C44,42.6,36.3,52.9,36.3,65.7c0,11.2,5.9,20.5,14.1,27.1L47,99.2c-0.3,0.6-0.6,1.2-0.8,1.9C46,101.9,45.9,102.8,45.9,103.6
					L45.9,103.6z"/>
			</g>
			<g>
				<g>
					<path id="C" class="st11" d="M58.9,52.2c0,9.2,10.7,16.6,24,16.6s24-7.4,24-16.6s-10.7-16.6-24-16.6S58.9,43,58.9,52.2z"/>
				</g>
				<path class="st11" d="M58.9,45.1h48v7.1h-48V45.1z"/>
			</g>
			<path class="st12" d="M58.9,45.1c0,9.2,10.7,16.6,24,16.6s24-7.4,24-16.6s-10.7-16.6-24-16.6S58.9,35.9,58.9,45.1z"/>
			<path class="st11" d="M73.7,43l6.8-4.7c1.4-1,3.3-1,4.7,0l6.8,4.7c1.3,0.9,1.3,3.1,0,4l-6.8,4.7c-1.4,1-3.3,1-4.7,0L73.7,47
				C72.4,46.1,72.4,44,73.7,43z"/>
			<path class="st7" d="M61.8,26.3c5.7-4,13.2-6.2,21.1-6.2s15.3,2.2,21.1,6.2c5.7,3.9,10.6,10.3,10.6,18.7v7.1
				c0,8.4-4.9,14.8-10.6,18.7c-5.7,4-13.2,6.2-21.1,6.2s-15.3-2.2-21.1-6.2C56.1,67,51.2,60.6,51.2,52.2v-7.1
				C51.2,36.6,56.2,30.2,61.8,26.3L61.8,26.3z M82.9,28.5c-13.2,0-24,7.4-24,16.6v7.1c0,9.2,10.7,16.6,24,16.6s24-7.4,24-16.6v-7.1
				C106.8,35.9,96.1,28.5,82.9,28.5z"/>
		</g>
	</g>
</g>
<g class="st13">
	<g>
		<g class="st0">
			<g class="st1">
				<path class="st14" d="M118.8,119.8c-20.1,0-39.1-3.3-53.3-9.3c-14.6-6.1-22.7-14.4-22.7-23.3c0-8.9,8-17.2,22.7-23.3
					c14.3-6,33.2-9.3,53.3-9.3c20.1,0,39.1,3.3,53.3,9.3c14.6,6.1,22.7,14.4,22.7,23.3c0,8.9-8,17.2-22.7,23.3
					C157.8,116.5,138.9,119.8,118.8,119.8z"/>
				<path class="st15" d="M118.8,56c41.3,0,74.7,14,74.7,31.3c0,17.3-33.5,31.3-74.7,31.3c-41.3,0-74.7-14-74.7-31.3
					C44,70,77.5,56,118.8,56 M118.8,53.5c-20.3,0-39.4,3.3-53.8,9.3c-15.1,6.3-23.4,15-23.4,24.4c0,9.4,8.3,18.1,23.4,24.4
					c14.4,6,33.5,9.3,53.8,9.3c20.3,0,39.4-3.3,53.8-9.3c15.1-6.3,23.4-15,23.4-24.4c0-9.4-8.3-18.1-23.4-24.4
					C158.2,56.8,139.1,53.5,118.8,53.5L118.8,53.5z"/>
			</g>
			<g class="st1">
				<path class="st14" d="M118.8,109.4c-24.5,0-47.6-3.3-64.9-9.2C36,94.1,26.2,85.8,26.2,76.8c0-9,9.8-17.3,27.7-23.4
					c17.4-6,40.4-9.2,64.9-9.2c24.5,0,47.6,3.3,64.9,9.2c17.8,6.1,27.7,14.4,27.7,23.4c0,9-9.8,17.3-27.7,23.4
					C166.3,106.1,143.3,109.4,118.8,109.4z"/>
				<path class="st15" d="M118.8,45.5c50.4,0,91.2,14,91.2,31.3c0,17.3-40.8,31.3-91.2,31.3c-50.4,0-91.2-14-91.2-31.3
					C27.6,59.5,68.4,45.5,118.8,45.5 M118.8,42.7c-24.7,0-47.9,3.3-65.4,9.3c-8.7,3-15.5,6.5-20.4,10.4c-5.4,4.4-8.2,9.2-8.2,14.3
					c0,5.1,2.8,9.9,8.2,14.3c4.8,3.9,11.7,7.4,20.4,10.4c17.5,6,40.7,9.3,65.4,9.3c24.7,0,47.9-3.3,65.4-9.3
					c8.7-3,15.5-6.5,20.4-10.4c5.4-4.4,8.2-9.2,8.2-14.3c0-5.1-2.8-9.9-8.2-14.3c-4.8-3.9-11.7-7.4-20.4-10.4
					C166.7,46,143.4,42.7,118.8,42.7L118.8,42.7z"/>
			</g>
			<g class="st1">
				<path class="st16" d="M186.9,56c9.1,4.9,14.4,10.6,14.4,16.9c0,17.3-40.8,31.3-91.2,31.3c-27.1,0-51.5-4.1-68.2-10.5
					c16.2,8.7,44.6,14.4,76.8,14.4c50.4,0,91.2-14,91.2-31.3C210,68.8,201.3,61.5,186.9,56z"/>
			</g>
			<g class="st1">
				<path class="st17" d="M118.8,100.7c-18.1,0-35.1-2.4-48-6.8c-13.1-4.5-20.3-10.6-20.3-17.1c0-6.6,7.2-12.6,20.3-17.1
					c12.8-4.4,29.9-6.8,48-6.8c18.1,0,35.1,2.4,48,6.8c13.1,4.5,20.3,10.6,20.3,17.1c0,6.6-7.2,12.6-20.3,17.1
					C153.9,98.3,136.9,100.7,118.8,100.7z M118.8,58.7c-32.1,0-59.2,8.3-59.2,18.1s27.1,18.1,59.2,18.1c32.1,0,59.2-8.3,59.2-18.1
					S150.9,58.7,118.8,58.7z"/>
				<path class="st15" d="M118.8,53.7c37.2,0,67.4,10.3,67.4,23.1c0,12.8-30.2,23.1-67.4,23.1c-37.2,0-67.4-10.3-67.4-23.1
					C51.3,64,81.5,53.7,118.8,53.7 M118.8,95.7c33.1,0,60-8.5,60-18.9c0-10.5-26.9-18.9-60-18.9c-33.2,0-60,8.5-60,18.9
					C58.8,87.2,85.6,95.7,118.8,95.7 M118.8,52c-18.2,0-35.3,2.4-48.2,6.9c-13.5,4.6-20.9,11-20.9,17.9c0,6.9,7.4,13.3,20.9,17.9
					c12.9,4.4,30,6.9,48.2,6.9c18.2,0,35.3-2.4,48.2-6.9c13.5-4.6,20.9-11,20.9-17.9c0-6.9-7.4-13.3-20.9-17.9
					C154.1,54.4,137,52,118.8,52L118.8,52z M118.8,94.1c-15.9,0-30.8-1.9-41.9-5.5c-10.3-3.2-16.4-7.7-16.4-11.8
					c0-4.1,6.1-8.6,16.4-11.8c11.2-3.5,26.1-5.5,41.9-5.5c15.9,0,30.8,1.9,41.9,5.5c10.3,3.2,16.4,7.7,16.4,11.8
					c0,4.1-6.1,8.6-16.4,11.8C149.5,92.1,134.6,94.1,118.8,94.1L118.8,94.1z"/>
			</g>
		</g>
		<g>
			<g>
				<g>
					<g>
						<path class="st18" d="M110.3,67.8c2.8-21.8,18.1-38.5,36.6-38.5s33.8,16.7,36.6,38.5c0.5,3.7-1.9,7.1-4.9,7.1h-63.4
							C112.2,74.9,109.8,71.6,110.3,67.8z"/>
					</g>
				</g>
				<g>
					<g>
						<path class="st19" d="M111.2,73.9c-1.4-1.6-2-3.9-1.7-6.1c1.4-10.8,5.9-20.7,12.6-27.9c6.9-7.3,15.7-11.3,24.8-11.3
							c9.1,0,17.9,4,24.8,11.3c6.8,7.2,11.2,17.1,12.6,27.9c0.3,2.3-0.4,4.6-1.7,6.1c-1.1,1.2-2.5,1.9-4,1.9h-63.4
							C113.7,75.8,112.3,75.1,111.2,73.9z M111.1,67.9c-0.2,1.8,0.3,3.6,1.4,4.9c0.8,0.9,1.7,1.3,2.8,1.3h63.4c1,0,2-0.5,2.8-1.3
							c1.1-1.2,1.6-3,1.4-4.9c-2.8-21.9-17.8-37.8-35.8-37.8S113.9,46,111.1,67.9z"/>
					</g>
				</g>
				<g>
					<g>
						<ellipse class="st20" cx="126.4" cy="32.1" rx="8.9" ry="8.9"/>
					</g>
				</g>
				<g class="st21">
					<g>
						<path class="st22" d="M117.6,31c0.6-4.9,5.1-8.3,10-7.7c4.5,0.6,7.8,4.5,7.8,9c-0.8-3.6-3.7-6.5-7.6-7
							c-4.9-0.6-9.3,2.8-10,7.7c0,0.3-0.1,0.7-0.1,1C117.5,33,117.4,32,117.6,31z"/>
					</g>
				</g>
				<g>
					<g>
						<path class="st19" d="M125.2,41.8c-2.6-0.3-4.9-1.6-6.5-3.7c-1.6-2.1-2.3-4.6-1.9-7.2c0.3-2.6,1.6-4.9,3.7-6.5
							c2.1-1.6,4.6-2.3,7.2-2c2.6,0.3,4.9,1.6,6.5,3.7c1.6,2.1,2.3,4.6,1.9,7.2s-1.6,4.9-3.7,6.5c-1.7,1.3-3.8,2-5.9,2
							C126,41.8,125.6,41.8,125.2,41.8z M121.4,25.7c-1.7,1.3-2.8,3.2-3.1,5.4c-0.3,2.1,0.3,4.3,1.6,6c1.3,1.7,3.2,2.8,5.4,3.1
							c2.1,0.3,4.3-0.3,6-1.6c1.7-1.3,2.8-3.2,3.1-5.4c0.3-2.1-0.3-4.3-1.6-6s-3.2-2.8-5.4-3.1c-0.4,0-0.7-0.1-1-0.1
							C124.6,24,122.9,24.6,121.4,25.7z"/>
					</g>
				</g>
				<g class="st23">
					<g>
						<path class="st24" d="M110.3,67.8c2.8-21.8,18.1-38.5,36.6-38.5s33.8,16.7,36.6,38.5c0.5,3.7-1.9,7.1-4.9,7.1h-63.4
							C112.2,74.9,109.8,71.6,110.3,67.8z"/>
					</g>
				</g>
				<g>
					<g>
						<ellipse class="st25" cx="168.9" cy="51" rx="11.1" ry="11.1"/>
					</g>
				</g>
				<g>
					<g>
						<ellipse class="st20" cx="168.9" cy="51" rx="11.1" ry="11.1"/>
					</g>
				</g>
				<g class="st26">
					<g>
						<path class="st27" d="M158.3,47.7c1.4,4.5,5.6,7.7,10.5,7.7c5,0,9.2-3.3,10.6-7.8c0.3,1.1,0.5,2.2,0.5,3.4
							c0,6.1-5,11.1-11.1,11.1c-6.1,0-11.1-5-11.1-11.1C157.8,49.9,158,48.8,158.3,47.7z"/>
					</g>
				</g>
				<g class="st21">
					<g>
						<path class="st22" d="M157.8,51c0-6.1,5-11.1,11.1-11.1c5.7,0,10.4,4.3,11,9.8c-1.5-4.3-5.6-7.4-10.4-7.4
							c-6.1,0-11.1,5-11.1,11.1c0,0.4,0,0.8,0.1,1.3C158.1,53.5,157.8,52.3,157.8,51z"/>
					</g>
				</g>
				<g>
					<g>
						<path class="st19" d="M157,51c0-6.6,5.3-11.9,11.9-11.9c6.5,0,11.9,5.3,11.9,11.9s-5.3,11.9-11.9,11.9
							C162.4,62.9,157,57.5,157,51z M158.6,51c0,5.7,4.6,10.3,10.2,10.3c5.7,0,10.2-4.6,10.2-10.3s-4.6-10.3-10.2-10.3
							S158.7,45.3,158.6,51z"/>
					</g>
				</g>
				<g>
					<g>
						<path class="st28" d="M133.6,42.6l-2.9-13.1c-0.4-2,0.8-3.9,2.8-4.4l10.5-2.3c2-0.4,3.9,0.8,4.4,2.8l2.9,13.1
							c0.4,2-0.8,3.9-2.8,4.4l-10.5,2.3C136,45.8,134,44.5,133.6,42.6z"/>
					</g>
				</g>
				<g class="st21">
					<g>
						<path class="st22" d="M143.9,22.8c2-0.4,3.9,0.8,4.4,2.8l2.9,13.1c0.4,2-0.8,3.9-2.8,4.4l-1.9,0.4c2-0.4,3.2-2.4,2.8-4.4
							L146.4,26c-0.4-2-2.4-3.2-4.4-2.8L143.9,22.8z"/>
					</g>
				</g>
				<g>
					<g>
						<path class="st29" d="M133.6,42.6l-2.9-13.1c-0.4-2,0.8-3.9,2.8-4.4l10.5-2.3c2-0.4,3.9,0.8,4.4,2.8l2.9,13.1
							c0.4,2-0.8,3.9-2.8,4.4l-10.5,2.3C136,45.8,134,44.5,133.6,42.6z"/>
					</g>
				</g>
				<g>
					<g>
						<path class="st19" d="M132.8,42.7l-2.9-13.1c-0.5-2.4,1-4.8,3.4-5.3l10.5-2.3c2.4-0.5,4.8,1,5.3,3.4l2.9,13.1
							c0.5,2.4-1,4.8-3.4,5.3l-10.5,2.3l0,0c-0.3,0.1-0.7,0.1-1,0.1C135.1,46.2,133.2,44.8,132.8,42.7z M148.2,42.2
							c1.5-0.3,2.5-1.9,2.2-3.4l-2.9-13.1c-0.2-0.7-0.6-1.4-1.3-1.8c-0.6-0.4-1.4-0.5-2.1-0.4l-10.5,2.3c-1.5,0.3-2.5,1.9-2.2,3.4
							l2.9,13.1c0.2,0.7,0.6,1.4,1.3,1.8c0.6,0.4,1.4,0.5,2.1,0.4L148.2,42.2z"/>
					</g>
				</g>
				<g class="st26">
					<g>
						<path class="st24" d="M163.2,52.5l0.5,0.1c-0.4,1.1-0.6,2.2-0.7,3.3L163.2,52.5z"/>
					</g>
				</g>
				<g>
					<g>
						<g>
							<path class="st30" d="M160.4,52.5l-0.7,14l8.2,8.4l8.2,0c10.4,0,12.6-14.4,0.7-15.3c0.3-0.8,0-1.8-0.6-2.4s-1.7-0.8-2.5-0.4
								c-0.2-2.8-3.3-4.1-5.3-3.2L160.4,52.5z"/>
						</g>
						<g>
							<path class="st31" d="M167.8,75l-8.2-8.4c0,0,0-0.1,0-0.1l0.7-14c0,0,0-0.1,0-0.1c0,0,0.1,0,0.1,0l8,1
								c1.1-0.5,2.5-0.3,3.6,0.4c1.1,0.6,1.7,1.6,1.9,2.8c0.8-0.3,1.8-0.1,2.4,0.5c0.6,0.6,0.9,1.6,0.7,2.4c6.1,0.6,8.1,4.5,8,7.7
								c-0.2,3.8-3.3,7.8-8.9,7.8L167.8,75L167.8,75C167.8,75,167.8,75,167.8,75z M173.7,56.8c0,0-0.1,0-0.1,0c0,0-0.1-0.1-0.1-0.1
								c-0.1-1.2-0.7-2.2-1.8-2.8c-1.1-0.7-2.4-0.8-3.4-0.3c0,0,0,0-0.1,0l-7.9-0.9l-0.7,13.8l8.1,8.4l8.2,0c5.4,0,8.5-3.9,8.6-7.6
								c0.1-3.2-1.9-7-7.9-7.5c0,0-0.1,0-0.1-0.1c0,0,0-0.1,0-0.1c0.3-0.8,0-1.7-0.6-2.3c-0.4-0.4-1-0.6-1.5-0.6
								C174.3,56.6,174,56.7,173.7,56.8z"/>
						</g>
					</g>
					<g class="st26">
						<g>
							<path class="st27" d="M160.6,56.7c0,0.1,0,0.2,0,0.3c0,7.5,5.9,13.6,13.1,13.6c4.3,0,8.1-2.1,10.5-5.4
								c1.1,4.4-2.1,9.7-8.2,9.7l-7.9,0l-7.9-8.4L160.6,56.7z"/>
						</g>
					</g>
					<g class="st21">
						<g>
							<path class="st22" d="M168.4,53.7c2-0.9,5.1,0.5,5.3,3.2c0.8-0.3,1.8-0.2,2.5,0.4c0.6,0.6,0.9,1.6,0.6,2.4
								c10.2,0.8,10.1,11.6,3.2,14.6c5.1-3.7,4.6-12.3-3.9-13.6c-0.4-0.1-0.7-0.4-0.8-0.9c0-0.6-0.3-1.2-0.7-1.7
								c-0.5-0.4-1.1-0.6-1.7-0.6c-0.4,0-0.8-0.2-0.9-0.6c-0.6-1.8-2.4-2.8-4-2.7c-0.1-0.3-0.3-0.5-0.4-0.8L168.4,53.7z"/>
						</g>
					</g>
					<g>
						<g>
							<path class="st19" d="M167.3,75.5l-8.2-8.4c-0.2-0.2-0.2-0.4-0.2-0.6l0.7-14c0-0.2,0.1-0.4,0.3-0.6c0.2-0.1,0.4-0.2,0.6-0.2
								l7.8,0.9c1.3-0.5,2.8-0.3,4,0.5c1,0.6,1.7,1.5,2,2.6c0.9-0.1,1.7,0.2,2.4,0.8c0.6,0.6,1,1.4,1,2.3c5.7,0.8,8.1,4.7,7.9,8.4
								c-0.2,4.1-3.6,8.5-9.5,8.5l-8.2,0h0C167.6,75.7,167.4,75.6,167.3,75.5z M174,57.4c-0.2,0.1-0.5,0.1-0.7-0.1
								c-0.2-0.1-0.4-0.4-0.4-0.6c-0.1-1.3-0.9-2-1.4-2.3c-0.9-0.5-2-0.6-2.8-0.3c-0.1,0.1-0.3,0.1-0.4,0.1l-7.1-0.9l-0.6,12.8
								l7.7,7.9l7.9,0c5,0,7.8-3.6,7.9-6.9c0.1-2.8-1.7-6.3-7.3-6.8c-0.2,0-0.5-0.2-0.6-0.4c-0.1-0.2-0.2-0.5-0.1-0.7
								c0.2-0.5,0-1.2-0.4-1.6c-0.3-0.3-0.7-0.4-1.1-0.4C174.3,57.3,174.2,57.4,174,57.4z"/>
						</g>
					</g>
				</g>
				<g class="st32">
					<g>
						<ellipse class="st24" cx="166.7" cy="60.1" rx="0.4" ry="0.3"/>
					</g>
				</g>
				<g class="st26">
					<g>
						<path class="st24" d="M163,55.9l0,0.8C162.9,56.5,163,56.2,163,55.9z"/>
					</g>
				</g>
				<g class="st33">
					<g>
						<path class="st22" d="M102.1,41.8c0-0.1,0-0.2,0.1-0.3c0.7,1.3,2,2.6,2.3,3.9c0.1,0.4,0.1,0.8,0.1,1.3
							C103.7,45.1,101.9,43.5,102.1,41.8z"/>
					</g>
				</g>
				<g>
					<g>
						<g>
							<path class="st34" d="M98.4,47.4c0.3-2-1.4-4.6-0.6-6.3c0.9-1.8,4-2,5.3-3.4c1.4-1.4,1.5-4.5,3.2-5.4
								c1.7-0.9,4.3,0.7,6.3,0.4c2-0.3,3.9-2.8,5.8-2.5c2,0.3,3.1,3.2,4.9,4c1.8,0.9,4.8,0,6.2,1.4c1.4,1.4,0.7,4.4,1.6,6.1
								c0.9,1.7,3.8,2.8,4.2,4.8c0.3,2-2,4-2.3,5.9c-0.3,2,1.4,4.6,0.6,6.3c-0.9,1.8-4,2-5.3,3.4c-1.4,1.4-1.5,4.5-3.2,5.4
								c-1.7,0.9-4.3-0.7-6.3-0.4c-2,0.3-3.9,2.8-5.8,2.5c-2-0.3-3.1-3.2-4.9-4c-1.8-0.9-4.8,0-6.2-1.4c-1.4-1.4-0.7-4.4-1.6-6.1
								c-0.9-1.7-3.8-2.8-4.2-4.8C95.7,51.3,98.1,49.3,98.4,47.4z"/>
						</g>
					</g>
					<g>
						<g>
							<path class="st24" d="M112.7,70.5c-1.5-0.2-2.5-1.4-3.4-2.5c-0.6-0.7-1.2-1.4-1.8-1.7c-0.6-0.3-1.5-0.3-2.4-0.4
								c-1.4-0.1-2.9-0.2-4-1.2c-1-1-1.2-2.5-1.3-3.9c-0.1-0.9-0.2-1.8-0.5-2.4c-0.3-0.6-1-1.1-1.7-1.7c-1.1-0.9-2.3-1.9-2.6-3.4
								c-0.3-1.5,0.6-2.8,1.3-4c0.5-0.8,0.9-1.5,1-2.1c0.1-0.7-0.1-1.6-0.4-2.5c-0.4-1.4-0.7-2.8-0.1-4.1c0.6-1.3,2.1-1.9,3.4-2.4
								c0.8-0.3,1.7-0.7,2.1-1.2c0.5-0.5,0.8-1.3,1.1-2.2c0.5-1.3,1.1-2.8,2.4-3.5c1.2-0.7,2.7-0.3,4.1,0c0.9,0.2,1.8,0.4,2.5,0.3
								c0.7-0.1,1.5-0.6,2.3-1.1c1.2-0.8,2.4-1.6,3.8-1.4c1.5,0.2,2.5,1.4,3.4,2.5c0.6,0.7,1.2,1.4,1.8,1.7c0.6,0.3,1.5,0.3,2.4,0.4
								c1.4,0.1,2.9,0.2,4,1.2c1,1,1.2,2.5,1.3,3.9c0.1,0.9,0.2,1.8,0.5,2.4c0.3,0.6,1,1.1,1.7,1.7c1.1,0.9,2.3,1.9,2.6,3.4
								c0.3,1.5-0.6,2.8-1.3,4c-0.5,0.8-0.9,1.5-1,2.1c-0.1,0.7,0.1,1.6,0.4,2.5c0.4,1.4,0.7,2.8,0.1,4.1c-0.6,1.3-2.1,1.9-3.4,2.4
								c-0.8,0.3-1.7,0.7-2.1,1.2c-0.5,0.5-0.8,1.3-1.1,2.2c-0.5,1.3-1.1,2.8-2.4,3.5c-1.2,0.7-2.7,0.3-4.1,0
								c-0.9-0.2-1.8-0.4-2.5-0.3c-0.7,0.1-1.5,0.6-2.3,1.1c-1.1,0.7-2.2,1.4-3.4,1.4C113,70.6,112.9,70.6,112.7,70.5z M121.7,66.6
								c1.1,0.3,2.2,0.5,2.8,0.2c0.7-0.4,1.1-1.4,1.5-2.5c0.4-1,0.8-2,1.5-2.8c0.7-0.7,1.8-1.2,2.7-1.6c1.1-0.5,2.1-0.9,2.4-1.6
								c0.3-0.7,0.1-1.7-0.2-2.9c-0.3-1.1-0.6-2.1-0.4-3.2c0.1-1,0.7-1.9,1.3-2.8c0.6-1,1.2-2,1.1-2.8c-0.1-0.8-1-1.5-1.9-2.3
								c-0.8-0.7-1.7-1.4-2.1-2.3c-0.5-0.9-0.6-2-0.7-3.1c-0.1-1.2-0.2-2.2-0.7-2.8c-0.6-0.5-1.6-0.6-2.8-0.7
								c-1.1-0.1-2.2-0.1-3.1-0.6c-0.9-0.5-1.6-1.3-2.3-2.1c-0.8-0.9-1.5-1.7-2.3-1.8c-0.7-0.1-1.6,0.5-2.6,1.1
								c-0.9,0.6-1.9,1.2-2.9,1.4c-1.1,0.2-2.2-0.1-3.2-0.3c-1.1-0.3-2.2-0.5-2.8-0.2c-0.7,0.4-1.1,1.4-1.5,2.5
								c-0.4,1-0.8,2-1.5,2.8c-0.7,0.7-1.8,1.2-2.7,1.6c-1.1,0.5-2.1,0.9-2.4,1.6c-0.3,0.7-0.1,1.7,0.2,2.9c0.3,1.1,0.6,2.1,0.4,3.2
								c-0.1,1-0.7,1.9-1.3,2.8c-0.6,1-1.2,2-1.1,2.8c0.1,0.8,1,1.5,1.9,2.3c0.8,0.7,1.7,1.4,2.1,2.3c0.5,0.9,0.6,2.1,0.7,3.1
								c0.1,1.2,0.2,2.2,0.7,2.8c0.6,0.5,1.6,0.6,2.8,0.7c1.1,0.1,2.2,0.1,3.1,0.6c0.9,0.5,1.6,1.3,2.3,2.1c0.8,0.9,1.5,1.7,2.3,1.8
								c0.7,0.1,1.6-0.5,2.6-1.1c0.9-0.6,1.9-1.2,2.9-1.4c0.2,0,0.5-0.1,0.8-0.1C120.1,66.2,120.9,66.4,121.7,66.6z"/>
						</g>
					</g>
				</g>
				<g>
					<g>
						<path class="st35" d="M98.4,47.4c0.3-2-1.4-4.6-0.6-6.3c0.9-1.8,4-2,5.3-3.4c1.4-1.4,1.5-4.5,3.2-5.4c1.7-0.9,4.3,0.7,6.3,0.4
							c2-0.3,3.9-2.8,5.8-2.5c2,0.3,3.1,3.2,4.9,4c1.8,0.9,4.8,0,6.2,1.4c1.4,1.4,0.7,4.4,1.6,6.1c0.9,1.7,3.8,2.8,4.2,4.8
							c0.3,2-2,4-2.3,5.9c-0.3,2,1.4,4.6,0.6,6.3c-0.9,1.8-4,2-5.3,3.4c-1.4,1.4-1.5,4.5-3.2,5.4c-1.7,0.9-4.3-0.7-6.3-0.4
							c-2,0.3-3.9,2.8-5.8,2.5c-2-0.3-3.1-3.2-4.9-4c-1.8-0.9-4.8,0-6.2-1.4c-1.4-1.4-0.7-4.4-1.6-6.1c-0.9-1.7-3.8-2.8-4.2-4.8
							C95.7,51.3,98.1,49.3,98.4,47.4z"/>
					</g>
				</g>
				<g class="st21">
					<g>
						<path class="st22" d="M96.1,53.3c-0.3-2,2-4,2.3-5.9c0.3-2-1.4-4.6-0.6-6.3c0.9-1.8,4-2,5.3-3.4c1.4-1.4,1.5-4.5,3.2-5.4
							c1.7-0.9,4.3,0.7,6.3,0.4c2-0.3,3.9-2.8,5.8-2.5c2,0.3,3.1,3.2,4.9,4c1.8,0.9,4.8,0,6.2,1.4c0.5,0.5,0.7,1.1,0.8,1.9
							c-1.5-1.2-4.3-0.5-6-1.3c-1.7-0.9-2.9-3.7-4.9-4c-1.9-0.3-3.8,2.1-5.8,2.5c-2,0.3-4.6-1.3-6.3-0.4c-1.8,0.9-1.9,4-3.2,5.4
							c-1.4,1.4-4.5,1.6-5.3,3.4c-0.9,1.7,0.8,4.3,0.6,6.3C99.1,51.2,97,53,97,54.9C96.5,54.4,96.2,53.9,96.1,53.3z"/>
					</g>
				</g>
				<g>
					<g>
						<path class="st19" d="M112.7,70.4c-1.4-0.2-2.4-1.3-3.3-2.4c-0.6-0.7-1.2-1.4-1.8-1.7c-0.6-0.3-1.5-0.4-2.5-0.4
							c-1.4-0.1-2.9-0.2-3.9-1.1c-1-1-1.1-2.4-1.2-3.9c-0.1-0.9-0.2-1.9-0.5-2.5c-0.3-0.6-1-1.1-1.7-1.7c-1.1-0.9-2.3-1.9-2.5-3.3
							c-0.2-1.4,0.6-2.8,1.3-4c0.5-0.8,0.9-1.5,1-2.2c0.1-0.7-0.1-1.6-0.4-2.5c-0.4-1.4-0.7-2.8-0.1-4.1c0.6-1.3,2-1.8,3.3-2.4
							c0.9-0.4,1.7-0.7,2.2-1.2c0.5-0.5,0.8-1.3,1.1-2.2c0.5-1.3,1.1-2.7,2.3-3.4c1.2-0.6,2.6-0.3,4,0c0.9,0.2,1.8,0.4,2.6,0.3
							c0.7-0.1,1.5-0.6,2.3-1.1c1.2-0.8,2.4-1.5,3.8-1.4c1.4,0.2,2.4,1.3,3.3,2.4c0.6,0.7,1.2,1.4,1.8,1.7c0.6,0.3,1.5,0.4,2.5,0.4
							c1.4,0.1,2.9,0.2,3.9,1.1c1,1,1.1,2.4,1.2,3.9c0.1,0.9,0.2,1.9,0.5,2.5c0.3,0.6,1,1.1,1.7,1.7c1.1,0.9,2.3,1.9,2.5,3.3
							c0.2,1.4-0.6,2.8-1.3,4c-0.5,0.8-0.9,1.5-1,2.2c-0.1,0.7,0.1,1.6,0.4,2.5c0.4,1.4,0.7,2.8,0.1,4.1c-0.6,1.3-2,1.8-3.3,2.4
							c-0.9,0.4-1.7,0.7-2.2,1.2c-0.5,0.5-0.8,1.3-1.1,2.2c-0.5,1.3-1.1,2.7-2.3,3.4c-1.2,0.6-2.6,0.3-4,0c-0.9-0.2-1.8-0.4-2.6-0.3
							c-0.7,0.1-1.5,0.6-2.3,1.1c-1.1,0.7-2.2,1.4-3.3,1.4C113,70.5,112.9,70.5,112.7,70.4z M121.7,66.7c1.1,0.3,2.2,0.5,2.9,0.2
							c0.7-0.4,1.1-1.4,1.6-2.5c0.4-1,0.8-2,1.5-2.7c0.7-0.7,1.7-1.2,2.7-1.6c1.1-0.5,2.1-0.9,2.5-1.6c0.4-0.7,0.1-1.8-0.2-2.9
							c-0.3-1-0.6-2.1-0.4-3.1c0.1-1,0.7-1.9,1.2-2.8c0.6-1,1.2-2,1.1-2.8c-0.1-0.8-1-1.6-2-2.3c-0.8-0.7-1.7-1.3-2.1-2.2
							c-0.5-0.9-0.6-2-0.7-3.1c-0.1-1.2-0.2-2.3-0.8-2.8c-0.6-0.6-1.7-0.6-2.9-0.7c-1.1-0.1-2.2-0.1-3.1-0.6
							c-0.9-0.4-1.6-1.3-2.3-2.1c-0.8-0.9-1.5-1.8-2.3-1.9c-0.8-0.1-1.7,0.5-2.7,1.1c-0.9,0.6-1.9,1.2-2.9,1.4
							c-1,0.2-2.1-0.1-3.2-0.3c-1.1-0.3-2.2-0.5-2.9-0.2c-0.7,0.4-1.1,1.4-1.6,2.5c-0.4,1-0.8,2-1.5,2.7c-0.7,0.7-1.7,1.2-2.7,1.6
							c-1.1,0.5-2.1,0.9-2.5,1.6c-0.4,0.7-0.1,1.8,0.2,2.9c0.3,1,0.6,2.1,0.4,3.1c-0.1,1-0.7,1.9-1.2,2.8c-0.6,1-1.2,2-1.1,2.8
							c0.1,0.8,1,1.6,2,2.3c0.8,0.7,1.7,1.3,2.1,2.2c0.5,0.9,0.6,2,0.7,3.1c0.1,1.2,0.2,2.3,0.8,2.8c0.6,0.6,1.7,0.6,2.9,0.7
							c1.1,0.1,2.2,0.1,3.1,0.6c0.9,0.4,1.6,1.3,2.3,2.1c0.8,0.9,1.5,1.8,2.3,1.9c0.8,0.1,1.7-0.5,2.7-1.1c0.9-0.6,1.9-1.2,2.9-1.4
							c0.2,0,0.5-0.1,0.7-0.1C120.1,66.3,120.9,66.5,121.7,66.7z"/>
					</g>
				</g>
				<g>
					<g>
						<g>
							<path class="st34" d="M170.9,45.4c-0.2-2,1.6-4.5,0.8-6.3c-0.8-1.8-3.9-2.2-5.2-3.6c-1.3-1.5-1.3-4.6-3-5.6
								c-1.7-1-4.4,0.5-6.3,0.1c-2-0.4-3.8-2.9-5.7-2.7c-2,0.2-3.3,3-5.1,3.8c-1.8,0.8-4.8-0.2-6.2,1.1c-1.5,1.3-0.9,4.3-1.9,6.1
								c-1,1.7-3.9,2.6-4.4,4.6c-0.4,2,1.9,4.1,2,6c0.2,2-1.6,4.5-0.8,6.3c0.8,1.8,3.9,2.2,5.2,3.6c1.3,1.5,1.3,4.6,3,5.6
								c1.7,1,4.4-0.5,6.3-0.1c2,0.4,3.8,2.9,5.7,2.7c2-0.2,3.3-3,5.1-3.8c1.8-0.8,4.8,0.2,6.2-1.1c1.5-1.3,0.9-4.3,1.9-6.1
								c1-1.7,3.9-2.6,4.4-4.6C173.3,49.4,171.1,47.3,170.9,45.4z"/>
						</g>
					</g>
					<g>
						<g>
							<path class="st24" d="M151.7,66.3c-0.7-0.5-1.5-1.1-2.2-1.2c-0.7-0.2-1.6,0-2.5,0.2c-1.4,0.3-2.9,0.5-4.1-0.2
								c-1.3-0.7-1.8-2.2-2.2-3.6c-0.3-0.9-0.6-1.7-1-2.2c-0.4-0.5-1.3-0.9-2.1-1.3c-1.2-0.6-2.7-1.3-3.2-2.6
								c-0.6-1.3-0.1-2.7,0.3-4.1c0.3-0.9,0.5-1.8,0.5-2.4c-0.1-0.6-0.5-1.4-0.9-2.2c-0.7-1.2-1.4-2.6-1.1-4.1
								c0.3-1.5,1.6-2.4,2.7-3.2c0.7-0.5,1.4-1.1,1.7-1.6c0.3-0.6,0.5-1.5,0.6-2.4c0.2-1.4,0.4-2.9,1.5-3.9c1.1-1,2.6-1,4-1
								c0.9,0,1.8,0,2.4-0.3c0.6-0.3,1.2-0.9,1.8-1.6c1-1,2-2.2,3.5-2.3c1.4-0.1,2.6,0.7,3.8,1.5c0.7,0.5,1.5,1.1,2.2,1.2
								c0.7,0.2,1.6,0,2.5-0.2c1.4-0.3,2.9-0.5,4.1,0.2c1.3,0.7,1.8,2.2,2.2,3.6c0.3,0.9,0.6,1.7,1,2.2c0.4,0.5,1.3,0.9,2.1,1.3
								c1.2,0.6,2.7,1.3,3.2,2.6c0.6,1.3,0.1,2.7-0.3,4.1c-0.3,0.9-0.5,1.8-0.5,2.4c0.1,0.6,0.5,1.4,0.9,2.2
								c0.7,1.2,1.4,2.6,1.1,4.1l0,0c-0.3,1.5-1.6,2.4-2.7,3.2c-0.7,0.5-1.4,1.1-1.7,1.6c-0.3,0.6-0.5,1.5-0.6,2.4
								c-0.2,1.4-0.4,2.9-1.5,3.9c-1.1,1-2.6,1-4,1c-0.9,0-1.8,0-2.4,0.3c-0.6,0.3-1.2,0.9-1.8,1.6c-1,1-2,2.2-3.5,2.3
								c-0.1,0-0.2,0-0.3,0C153.9,67.8,152.8,67.1,151.7,66.3z M172,51.2c0.2-0.8-0.4-1.8-0.9-2.8c-0.5-0.9-1-1.9-1.1-2.9
								c-0.1-1,0.2-2.1,0.6-3.2c0.3-1.1,0.7-2.1,0.4-2.8c-0.3-0.7-1.3-1.2-2.4-1.7c-1-0.5-2-0.9-2.7-1.7c-0.7-0.8-1-1.8-1.4-2.8
								c-0.4-1.1-0.7-2.2-1.4-2.6c-0.6-0.4-1.7-0.2-2.8,0c-1.1,0.2-2.2,0.4-3.2,0.2c-1.1-0.2-2-0.9-2.9-1.5
								c-0.9-0.7-1.8-1.3-2.5-1.2c-0.8,0.1-1.5,0.9-2.3,1.7c-0.7,0.8-1.5,1.6-2.4,2c-1,0.4-2.1,0.4-3.1,0.4c-1.2,0-2.3,0-2.8,0.5
								c-0.6,0.5-0.7,1.6-0.9,2.7c-0.1,1.1-0.3,2.2-0.8,3.1c-0.5,0.9-1.4,1.5-2.2,2.2c-1,0.7-1.8,1.4-2,2.2
								c-0.2,0.8,0.4,1.8,0.9,2.8c0.5,0.9,1,1.9,1.1,2.9c0.1,1-0.2,2.1-0.6,3.2c-0.3,1.1-0.7,2.1-0.4,2.8c0.3,0.7,1.3,1.2,2.4,1.7
								c1,0.5,2,0.9,2.7,1.7c0.7,0.8,1,1.8,1.4,2.8c0.4,1.1,0.7,2.2,1.4,2.6c0.6,0.4,1.7,0.2,2.8,0c1.1-0.2,2.2-0.4,3.2-0.2
								c1.1,0.2,2,0.9,2.9,1.5c0.9,0.7,1.8,1.3,2.5,1.2c0.8-0.1,1.5-0.9,2.3-1.7c0.7-0.8,1.5-1.6,2.4-2c1-0.4,2.1-0.4,3.1-0.4
								c1.2,0,2.3,0,2.8-0.5c0.6-0.5,0.7-1.6,0.9-2.7c0.1-1.1,0.3-2.2,0.8-3.1c0.5-0.9,1.4-1.5,2.2-2.2
								C170.9,52.6,171.8,51.9,172,51.2L172,51.2z"/>
						</g>
					</g>
				</g>
				<g>
					<g>
						<path class="st35" d="M170.9,45.4c-0.2-2,1.6-4.5,0.8-6.3c-0.8-1.8-3.9-2.2-5.2-3.6c-1.3-1.5-1.3-4.6-3-5.6
							c-1.7-1-4.4,0.5-6.3,0.1c-2-0.4-3.8-2.9-5.7-2.7c-2,0.2-3.3,3-5.1,3.8c-1.8,0.8-4.8-0.2-6.2,1.1c-1.5,1.3-0.9,4.3-1.9,6.1
							c-1,1.7-3.9,2.6-4.4,4.6c-0.4,2,1.9,4.1,2,6c0.2,2-1.6,4.5-0.8,6.3c0.8,1.8,3.9,2.2,5.2,3.6c1.3,1.5,1.3,4.6,3,5.6
							c1.7,1,4.4-0.5,6.3-0.1c2,0.4,3.8,2.9,5.7,2.7c2-0.2,3.3-3,5.1-3.8c1.8-0.8,4.8,0.2,6.2-1.1c1.5-1.3,0.9-4.3,1.9-6.1
							c1-1.7,3.9-2.6,4.4-4.6C173.3,49.4,171.1,47.3,170.9,45.4z"/>
					</g>
				</g>
				<g class="st21">
					<g>
						<path class="st22" d="M172.8,51.5c0.4-2-1.9-4.1-2-6c-0.2-2,1.6-4.5,0.8-6.3c-0.8-1.8-3.9-2.2-5.2-3.6c-1.3-1.5-1.3-4.6-3-5.6
							c-1.7-1-4.4,0.5-6.3,0.1c-2-0.4-3.8-2.9-5.7-2.8c-2,0.2-3.3,3-5.1,3.8c-1.8,0.8-4.8-0.2-6.2,1.1c-0.5,0.4-0.8,1.1-0.9,1.8
							c1.5-1.1,4.3-0.3,6.1-1c1.8-0.8,3.1-3.6,5.1-3.8c1.9-0.2,3.7,2.3,5.7,2.8c2,0.4,4.7-1.1,6.3-0.1c1.7,1,1.7,4.1,3,5.6
							c1.3,1.5,4.4,1.8,5.2,3.6c0.8,1.8-1,4.3-0.8,6.3c0.2,1.8,2.2,3.8,2.1,5.6C172.3,52.7,172.7,52.1,172.8,51.5z"/>
					</g>
				</g>
				<g>
					<g>
						<path class="st19" d="M151.8,66.2c-0.8-0.5-1.5-1.1-2.3-1.2c-0.7-0.2-1.7,0-2.6,0.2c-1.4,0.3-2.8,0.5-4-0.2
							c-1.2-0.7-1.7-2.1-2.2-3.5c-0.3-0.9-0.6-1.7-1-2.2c-0.5-0.5-1.3-0.9-2.1-1.3c-1.3-0.6-2.6-1.2-3.2-2.5c-0.6-1.3-0.1-2.7,0.3-4
							c0.3-0.9,0.6-1.8,0.5-2.5c-0.1-0.7-0.5-1.4-0.9-2.2c-0.7-1.2-1.4-2.6-1.1-4c0.3-1.4,1.6-2.4,2.7-3.2c0.7-0.6,1.4-1.1,1.8-1.6
							c0.4-0.6,0.5-1.5,0.6-2.5c0.2-1.4,0.4-2.9,1.4-3.8c1.1-0.9,2.5-1,4-1c0.9,0,1.8,0,2.5-0.3c0.6-0.3,1.2-0.9,1.9-1.6
							c1-1,2-2.1,3.4-2.3c1.4-0.1,2.6,0.7,3.7,1.5c0.8,0.5,1.5,1.1,2.3,1.2c0.7,0.2,1.7,0,2.6-0.2c1.4-0.3,2.8-0.5,4,0.2
							c1.2,0.7,1.7,2.1,2.2,3.5c0.3,0.9,0.6,1.7,1,2.2c0.5,0.5,1.3,0.9,2.1,1.3c1.3,0.6,2.6,1.2,3.2,2.5c0.6,1.3,0.1,2.7-0.3,4
							c-0.3,0.9-0.6,1.8-0.5,2.5c0.1,0.7,0.5,1.4,0.9,2.2c0.7,1.2,1.4,2.6,1.1,4l0,0c-0.3,1.4-1.6,2.4-2.7,3.2
							c-0.7,0.6-1.4,1.1-1.8,1.6c-0.4,0.6-0.5,1.5-0.6,2.5c-0.2,1.4-0.4,2.9-1.4,3.8c-1.1,0.9-2.5,1-4,1c-0.9,0-1.8,0-2.5,0.3
							c-0.6,0.3-1.2,0.9-1.9,1.6c-1,1-2,2.1-3.4,2.3c-0.1,0-0.2,0-0.3,0C154,67.7,152.9,67,151.8,66.2z M172.1,51.2
							c0.2-0.8-0.4-1.8-0.9-2.9c-0.5-0.9-1-1.9-1.1-2.9c-0.1-1,0.2-2.1,0.5-3.1c0.3-1.1,0.7-2.2,0.4-2.9c-0.3-0.7-1.3-1.2-2.4-1.7
							c-1-0.5-2-0.9-2.6-1.7c-0.7-0.8-1-1.8-1.4-2.8c-0.4-1.1-0.7-2.2-1.4-2.6c-0.7-0.4-1.7-0.2-2.9,0c-1.1,0.2-2.2,0.4-3.2,0.2
							c-1-0.2-2-0.9-2.8-1.5c-0.9-0.7-1.8-1.3-2.6-1.2c-0.8,0.1-1.6,0.9-2.4,1.8c-0.7,0.8-1.5,1.6-2.4,2c-0.9,0.4-2,0.4-3.1,0.4
							c-1.2,0-2.3,0-2.9,0.6c-0.6,0.5-0.7,1.6-0.9,2.8c-0.1,1.1-0.3,2.2-0.8,3.1c-0.5,0.9-1.4,1.5-2.2,2.1c-1,0.7-1.9,1.4-2.1,2.2
							c-0.2,0.8,0.4,1.8,0.9,2.9c0.5,0.9,1,1.9,1.1,2.9c0.1,1-0.2,2.1-0.5,3.1c-0.3,1.1-0.7,2.2-0.4,2.9c0.3,0.7,1.3,1.2,2.4,1.7
							c1,0.5,2,0.9,2.6,1.7c0.7,0.8,1,1.8,1.4,2.8c0.4,1.1,0.7,2.2,1.4,2.6c0.7,0.4,1.7,0.2,2.9,0c1.1-0.2,2.2-0.4,3.2-0.2
							s2,0.9,2.8,1.5c0.9,0.7,1.8,1.3,2.6,1.2c0.8-0.1,1.6-0.9,2.4-1.8c0.7-0.8,1.5-1.6,2.4-2c0.9-0.4,2-0.4,3.1-0.4
							c1.2,0,2.3,0,2.9-0.6c0.6-0.5,0.7-1.6,0.9-2.8c0.1-1.1,0.3-2.2,0.8-3.1c0.5-0.9,1.4-1.5,2.2-2.1C171,52.7,171.9,52,172.1,51.2
							L172.1,51.2z"/>
					</g>
				</g>
				<g class="st32">
					<g>
						<ellipse class="st36" cx="126.9" cy="60.6" rx="1.6" ry="1.1"/>
					</g>
				</g>
				<g>
					<g>
						<path class="st37" d="M97.1,62.6L97.1,62.6c0-0.3,0-0.6,0.1-0.9c0.1-1,0.4-2,0.7-3c5.8-16.7,18.8-29.4,34.6-29.4
							c14.4,0,26.8,10.1,33,24.9l0,0c1.4,3.4,2.5,7,3.2,10.9v0c0,0.2,0.1,0.5,0.1,0.7c0,0,0,0,0,0c0.1,0.6,0.3,1.2,0.5,1.8
							c0,0,0,0,0,0c0,0.1,0.1,0.2,0.1,0.3c0,0.1,0,0.1,0.1,0.2c0,0.1,0.1,0.2,0.1,0.3c0,0,0,0,0,0.1c0,0.1,0.1,0.2,0.1,0.3
							c0,0,0,0.1,0.1,0.1c0,0.1,0.1,0.1,0.1,0.2c0,0.1,0.1,0.1,0.1,0.2c0,0.1,0.1,0.2,0.1,0.3c0.3,0.5,0.6,1,1,1.5
							c0.1,0.1,0.1,0.2,0.2,0.2c0,0.1,0.1,0.1,0.1,0.2c0,0,0.1,0.1,0.1,0.1c0,0.1,0.1,0.1,0.1,0.2c0,0.1,0.1,0.1,0.1,0.2
							c0,0,0.1,0.1,0.1,0.1c0,0,0.1,0.1,0.1,0.1c0.1,0.1,0.1,0.1,0.2,0.2c0.1,0.1,0.2,0.2,0.3,0.2c0,0,0,0,0,0
							c0.1,0.1,0.2,0.2,0.3,0.3c0,0,0.1,0.1,0.1,0.1s0.1,0.1,0.1,0.1c0.1,0,0.1,0.1,0.2,0.1c0.1,0,0.1,0.1,0.2,0.1
							c0.1,0,0.1,0.1,0.2,0.1c0.5,0.3,0.9,0.6,1.4,0.8c0.1,0,0.1,0.1,0.2,0.1c0.3,0.1,0.5,0.2,0.8,0.3c0.1,0,0.1,0,0.2,0
							c0.1,0,0.1,0,0.2,0.1c0.1,0,0.1,0,0.2,0c0,0,0,0,0,0c0.1,0,0.1,0,0.2,0c0.1,0,0.1,0,0.2,0c0.3,0,0.6,0.1,0.9,0.1
							c0.1,0,0.1,0,0.2,0c0.1,0,0.2,0,0.3,0h-12.4l0,0H107c-0.3,0-0.7,0-1-0.1c-0.2,0-0.3,0-0.5-0.1c-0.8-0.1-1.6-0.4-2.4-0.8
							c-0.1-0.1-0.2-0.1-0.4-0.2c-0.2-0.1-0.5-0.3-0.7-0.4c-0.1-0.1-0.3-0.2-0.4-0.3c-0.3-0.2-0.5-0.4-0.8-0.6
							c-0.1-0.1-0.2-0.2-0.4-0.4c0,0-0.1-0.1-0.1-0.1c-0.1-0.1-0.2-0.2-0.3-0.3c-0.1-0.1-0.2-0.2-0.2-0.3c-0.1-0.1-0.2-0.2-0.3-0.3
							c-0.4-0.5-0.8-1.1-1.1-1.8c-0.1-0.2-0.2-0.3-0.2-0.5c-0.2-0.4-0.4-0.8-0.5-1.3c-0.5-1.4-0.7-2.9-0.7-4.4
							C97.1,63,97.1,62.8,97.1,62.6z"/>
					</g>
				</g>
				<g class="st21">
					<g>
						<path class="st22" d="M97.1,62.6L97.1,62.6c0-0.3,0-0.6,0.1-0.9c0.1-1,0.4-2,0.7-3c5.8-16.7,18.8-29.4,34.6-29.4
							c14.4,0,26.8,10.1,33,24.9l0,0c1.4,3.4,2.5,7,3.2,10.9v0c0,0.2,0.1,0.5,0.1,0.7c0,0,0,0,0,0c0,0.1,0,0.2,0.1,0.4
							c-0.1,0-0.3,0.1-0.4,0.1c-0.7-3.4-1.7-6.7-3-9.7l0,0c-6.1-14.8-18.6-24.9-33-24.9c-15.8,0-28.8,12.7-34.6,29.4
							c-0.4,1-0.6,2-0.7,3c0,0.2,0,0.4-0.1,0.6c0-0.4-0.1-0.9,0-1.4C97.1,63,97.1,62.8,97.1,62.6z"/>
					</g>
				</g>
				<g class="st26">
					<g>
						<path class="st27" d="M97.9,58.7c0.4-0.8,0.2,0,0,1C97.8,59.4,97.8,59,97.9,58.7z"/>
					</g>
				</g>
				<g>
					<g>
						<path class="st19" d="M165.8,75.8H107c-3.3,0-6.3-1.7-8.4-4.6c-2.5-3.5-3.1-8.3-1.5-12.8c3-8.6,7.8-16,13.8-21.3
							c6.4-5.6,13.9-8.6,21.6-8.6c8.7,0,17.2,3.7,23.9,10.4c6.6,6.6,11.2,15.8,13.1,26c0,0,0,0,0,0.1c0,0.2,0.1,0.5,0.1,0.7
							c0,0,0,0,0,0v0c1,5,4.6,8.5,8.7,8.5c0.4,0,0.8,0.4,0.8,0.8c0,0.4-0.4,0.8-0.8,0.8h-12.4C165.8,75.8,165.8,75.8,165.8,75.8z
							 M168,65.9C168,65.9,168,65.9,168,65.9c-0.1-0.3-0.1-0.5-0.1-0.8c0,0,0,0,0,0c-3.7-20.3-18.5-35-35.4-35
							c-14.5,0-27.8,11.3-33.9,28.8c-1.4,4-0.9,8.2,1.3,11.3c1.7,2.5,4.3,3.9,7,3.9h58.9c0,0,0.1,0,0.1,0h7.1
							C170.6,72.4,168.7,69.5,168,65.9z M169.6,65.6L169.6,65.6L169.6,65.6z M169.6,65.6C169.6,65.6,169.6,65.6,169.6,65.6
							C169.6,65.6,169.6,65.6,169.6,65.6z"/>
					</g>
				</g>
				<g class="st26">
					<g>
						<path class="st22" d="M153.5,44.7c2.6,3.3,3.3,7,1.6,8.4c-1.7,1.3-3-2-5.6-5.3s-5.5-5.3-3.8-6.7
							C147.5,39.9,150.9,41.4,153.5,44.7z"/>
					</g>
				</g>
				<g class="st26">
					<g>
						<circle class="st27" cx="112.6" cy="47.7" r="0.6"/>
					</g>
				</g>
				<g class="st26">
					<g>
						<circle class="st27" cx="159.6" cy="59.6" r="0.6"/>
					</g>
				</g>
				<g class="st26">
					<g>
						<circle class="st27" cx="116.6" cy="60.2" r="0.6"/>
					</g>
				</g>
				<g class="st26">
					<g>
						<circle class="st27" cx="152.1" cy="68.8" r="0.6"/>
					</g>
				</g>
				<g class="st26">
					<g>
						<circle class="st27" cx="139.9" cy="35.6" r="0.6"/>
					</g>
				</g>
				<g class="st26">
					<g>
						<circle class="st27" cx="132.4" cy="45.4" r="0.6"/>
					</g>
				</g>
				<g class="st26">
					<g>
						<circle class="st27" cx="141.6" cy="65.6" r="0.6"/>
					</g>
				</g>
				<g class="st26">
					<g>
						<circle class="st27" cx="125.8" cy="39.9" r="0.6"/>
					</g>
				</g>
				<g class="st26">
					<g>
						<ellipse class="st27" cx="115.7" cy="45" rx="0.9" ry="0.9"/>
					</g>
				</g>
				<g class="st26">
					<g>
						<ellipse class="st27" cx="103.3" cy="66.9" rx="0.9" ry="0.9"/>
					</g>
				</g>
				<g class="st26">
					<g>
						<ellipse class="st27" cx="125.4" cy="70.6" rx="0.9" ry="0.9"/>
					</g>
				</g>
				<g>
					<g>
						<g>
							<g>
								<path class="st19" d="M119.6,57.1c1.9-0.1,3.3-2.3,3.2-5c-0.1-2.7-1.7-4.8-3.6-4.8c-1.9,0.1-3.3,2.3-3.2,5
									C116.1,55.1,117.7,57.2,119.6,57.1z"/>
							</g>
						</g>
					</g>
					<g>
						<g>
							<path class="st22" d="M120.3,53c0.7,0,1.1-0.9,1.1-1.9c0-1-0.6-1.8-1.3-1.8c-0.7,0-1.1,0.9-1.1,1.9
								C119,52.3,119.6,53,120.3,53z"/>
						</g>
						<g>
							<path class="st19" d="M118.9,51.3L118.9,51.3c0-1.1,0.5-1.9,1.2-2c0.4,0,0.7,0.2,1,0.5c0.2,0.3,0.4,0.8,0.4,1.3
								c0,1.1-0.5,1.9-1.2,2c0,0,0,0,0,0C119.5,53.1,118.9,52.3,118.9,51.3z M120.1,49.5c-0.6,0-1,0.8-1,1.7l0,0
								c0,0.9,0.6,1.7,1.1,1.6c0.6,0,1-0.8,1-1.7c0-0.5-0.2-0.9-0.4-1.2C120.7,49.7,120.4,49.5,120.1,49.5
								C120.1,49.5,120.1,49.5,120.1,49.5z"/>
						</g>
					</g>
					<g>
						<g>
							<g>
								<path class="st19" d="M134.3,54.2c0,3.3-2.1,6.8-4.3,6.8c-2.3,0-3.9-3.6-3.9-6.9L134.3,54.2z"/>
							</g>
						</g>
						<g>
							<g>
								<path class="st38" d="M130,61c1.2,0,2.4-1,3.2-2.5c-0.8-0.8-1.9-1.4-3.3-1.4c-1.2,0-2.3,0.4-3.1,1.1
									C127.5,59.8,128.6,61,130,61z"/>
							</g>
						</g>
						<g>
							<g>
								<path class="st19" d="M130,62c-1.4,0-2.7-1-3.7-2.7c-0.8-1.5-1.2-3.3-1.2-5.1c0-0.5,0.4-1,1-1c0,0,0,0,0,0l8.2,0.1
									c0.3,0,0.5,0.1,0.7,0.3c0.2,0.2,0.3,0.4,0.3,0.7C135.3,57.9,133,62,130,62C130,62,130,62,130,62z M127.1,55.1
									c0.1,1.1,0.4,2.3,0.9,3.2c0.6,1.1,1.3,1.7,2,1.7c0,0,0,0,0,0c1.4,0,2.9-2.3,3.2-4.8L127.1,55.1z"/>
							</g>
						</g>
					</g>
					<g>
						<g>
							<g>
								<path class="st19" d="M141.4,57.7c-1.9-0.1-3.3-2.3-3.2-5c0.1-2.7,1.7-4.8,3.6-4.8c1.9,0.1,3.3,2.3,3.2,5
									C144.8,55.6,143.2,57.7,141.4,57.7z"/>
							</g>
						</g>
					</g>
					<g>
						<g>
							<path class="st22" d="M140.7,53.6c-0.7,0-1.1-0.9-1.1-1.9c0-1,0.6-1.8,1.3-1.8c0.7,0,1.1,0.9,1.1,1.9
								C141.9,52.8,141.4,53.6,140.7,53.6z"/>
						</g>
						<g>
							<path class="st19" d="M140.7,53.7c-0.7,0-1.3-0.9-1.2-2c0-0.5,0.2-1,0.4-1.3c0.3-0.4,0.6-0.6,1-0.5c0.7,0,1.3,0.9,1.2,2l0,0
								C142,52.8,141.4,53.7,140.7,53.7C140.7,53.7,140.7,53.7,140.7,53.7z M141.9,51.8c0-0.9-0.4-1.7-1-1.7c-0.3,0-0.5,0.1-0.8,0.4
								c-0.2,0.3-0.4,0.7-0.4,1.2c0,0.9,0.4,1.7,1,1.7C141.3,53.5,141.8,52.7,141.9,51.8L141.9,51.8z"/>
						</g>
					</g>
				</g>
			</g>
		</g>
		<g>
			<g>
				<g>
					<g>
						<path class="st18" d="M92.7,75.4c2.8-21.8,18.1-38.5,36.6-38.5s33.8,16.7,36.6,38.5c0.5,3.7-1.9,7.1-4.9,7.1H97.6
							C94.6,82.5,92.2,79.1,92.7,75.4z"/>
					</g>
				</g>
				<g>
					<g>
						<path class="st19" d="M93.7,81.4c-1.4-1.6-2-3.9-1.7-6.1c1.4-10.8,5.9-20.7,12.6-27.9C111.4,40,120.2,36,129.3,36
							c9.1,0,17.9,4,24.8,11.3c6.8,7.2,11.2,17.1,12.6,27.9c0.3,2.3-0.4,4.6-1.7,6.1c-1.1,1.2-2.5,1.9-4,1.9H97.6
							C96.2,83.3,94.7,82.6,93.7,81.4z M93.5,75.5c-0.2,1.8,0.3,3.6,1.4,4.9c0.8,0.9,1.7,1.3,2.8,1.3H161c1,0,2-0.5,2.8-1.3
							c1.1-1.2,1.6-3,1.4-4.9c-2.8-21.9-17.8-37.8-35.8-37.8S96.3,53.6,93.5,75.5z"/>
					</g>
				</g>
				<g>
					<g>
						<ellipse class="st20" cx="108.8" cy="39.7" rx="8.9" ry="8.9"/>
					</g>
				</g>
				<g class="st21">
					<g>
						<path class="st22" d="M100,38.5c0.6-4.9,5.1-8.3,10-7.7c4.5,0.6,7.8,4.5,7.8,9c-0.8-3.6-3.7-6.5-7.6-7
							c-4.9-0.6-9.3,2.8-10,7.7c0,0.3-0.1,0.7-0.1,1C99.9,40.5,99.9,39.5,100,38.5z"/>
					</g>
				</g>
				<g>
					<g>
						<path class="st19" d="M107.6,49.3c-2.6-0.3-4.9-1.6-6.5-3.7c-1.6-2.1-2.3-4.6-1.9-7.2c0.3-2.6,1.6-4.9,3.7-6.5
							c2.1-1.6,4.6-2.3,7.2-2c2.6,0.3,4.9,1.6,6.5,3.7c1.6,2.1,2.3,4.6,1.9,7.2c-0.3,2.6-1.6,4.9-3.7,6.5c-1.7,1.3-3.8,2-5.9,2
							C108.4,49.4,108,49.4,107.6,49.3z M103.9,33.2c-1.7,1.3-2.8,3.2-3.1,5.4c-0.3,2.1,0.3,4.3,1.6,6c1.3,1.7,3.2,2.8,5.4,3.1
							c2.1,0.3,4.3-0.3,6-1.6c1.7-1.3,2.8-3.2,3.1-5.4c0.3-2.1-0.3-4.3-1.6-6s-3.2-2.8-5.4-3.1c-0.4,0-0.7-0.1-1-0.1
							C107,31.6,105.3,32.1,103.9,33.2z"/>
					</g>
				</g>
				<g class="st23">
					<g>
						<path class="st24" d="M92.7,75.4c2.8-21.8,18.1-38.5,36.6-38.5s33.8,16.7,36.6,38.5c0.5,3.7-1.9,7.1-4.9,7.1H97.6
							C94.6,82.5,92.2,79.1,92.7,75.4z"/>
					</g>
				</g>
				<g>
					<g>
						<ellipse class="st25" cx="151.3" cy="58.5" rx="11.1" ry="11.1"/>
					</g>
				</g>
				<g>
					<g>
						<ellipse class="st20" cx="151.3" cy="58.5" rx="11.1" ry="11.1"/>
					</g>
				</g>
				<g class="st26">
					<g>
						<path class="st27" d="M140.8,55.3c1.4,4.5,5.6,7.7,10.5,7.7c5,0,9.2-3.3,10.6-7.8c0.3,1.1,0.5,2.2,0.5,3.4
							c0,6.1-5,11.1-11.1,11.1s-11.1-5-11.1-11.1C140.3,57.4,140.4,56.3,140.8,55.3z"/>
					</g>
				</g>
				<g class="st21">
					<g>
						<path class="st22" d="M140.3,58.5c0-6.1,5-11.1,11.1-11.1c5.7,0,10.4,4.3,11,9.8c-1.5-4.3-5.6-7.4-10.4-7.4
							c-6.1,0-11.1,5-11.1,11.1c0,0.4,0,0.8,0.1,1.3C140.5,61,140.3,59.8,140.3,58.5z"/>
					</g>
				</g>
				<g>
					<g>
						<path class="st19" d="M139.5,58.5c0-6.6,5.3-11.9,11.9-11.9c6.5,0,11.9,5.3,11.9,11.9s-5.3,11.9-11.9,11.9
							C144.8,70.4,139.5,65.1,139.5,58.5z M141.1,58.5c0,5.7,4.6,10.3,10.2,10.3c5.7,0,10.2-4.6,10.2-10.3s-4.6-10.3-10.2-10.3
							C145.7,48.3,141.1,52.9,141.1,58.5z"/>
					</g>
				</g>
				<g>
					<g>
						<path class="st28" d="M116,50.1l-2.9-13.1c-0.4-2,0.8-3.9,2.8-4.4l10.5-2.3c2-0.4,3.9,0.8,4.4,2.8l2.9,13.1
							c0.4,2-0.8,3.9-2.8,4.4l-10.5,2.3C118.4,53.3,116.4,52.1,116,50.1z"/>
					</g>
				</g>
				<g class="st21">
					<g>
						<path class="st22" d="M126.3,30.3c2-0.4,3.9,0.8,4.4,2.8l2.9,13.1c0.4,2-0.8,3.9-2.8,4.4l-1.9,0.4c2-0.4,3.2-2.4,2.8-4.4
							l-2.9-13.1c-0.4-2-2.4-3.2-4.4-2.8L126.3,30.3z"/>
					</g>
				</g>
				<g>
					<g>
						<path class="st29" d="M116,50.1l-2.9-13.1c-0.4-2,0.8-3.9,2.8-4.4l10.5-2.3c2-0.4,3.9,0.8,4.4,2.8l2.9,13.1
							c0.4,2-0.8,3.9-2.8,4.4l-10.5,2.3C118.4,53.3,116.4,52.1,116,50.1z"/>
					</g>
				</g>
				<g>
					<g>
						<path class="st19" d="M115.2,50.3l-2.9-13.1c-0.5-2.4,1-4.8,3.4-5.3l10.5-2.3c2.4-0.5,4.8,1,5.3,3.4l2.9,13.1
							c0.5,2.4-1,4.8-3.4,5.3l-10.5,2.3l0,0c-0.3,0.1-0.7,0.1-1,0.1C117.5,53.8,115.7,52.4,115.2,50.3z M130.6,49.7
							c1.5-0.3,2.5-1.9,2.2-3.4l-2.9-13.1c-0.2-0.7-0.6-1.4-1.3-1.8c-0.6-0.4-1.4-0.5-2.1-0.4L116,33.5c-1.5,0.3-2.5,1.9-2.2,3.4
							l2.9,13.1c0.2,0.7,0.6,1.4,1.3,1.8c0.6,0.4,1.4,0.5,2.1,0.4L130.6,49.7z"/>
					</g>
				</g>
				<g class="st26">
					<g>
						<path class="st24" d="M145.6,60.1l0.5,0.1c-0.4,1.1-0.6,2.2-0.7,3.3L145.6,60.1z"/>
					</g>
				</g>
				<g>
					<g>
						<g>
							<path class="st30" d="M142.8,60l-0.7,14l8.2,8.4l8.2,0c10.4,0,12.6-14.4,0.7-15.3c0.3-0.8,0-1.8-0.6-2.4s-1.7-0.8-2.5-0.4
								c-0.2-2.8-3.3-4.1-5.3-3.2L142.8,60z"/>
						</g>
						<g>
							<path class="st31" d="M150.2,82.5l-8.2-8.4c0,0,0-0.1,0-0.1l0.7-14c0,0,0-0.1,0-0.1c0,0,0.1,0,0.1,0l8,1
								c1.1-0.5,2.5-0.3,3.6,0.4c1.1,0.6,1.7,1.6,1.9,2.8c0.8-0.3,1.8-0.1,2.4,0.5c0.6,0.6,0.9,1.6,0.7,2.4c6.1,0.6,8.1,4.5,8,7.7
								c-0.2,3.8-3.3,7.8-8.9,7.8L150.2,82.5L150.2,82.5C150.3,82.6,150.2,82.6,150.2,82.5z M156.2,64.3c0,0-0.1,0-0.1,0
								c0,0-0.1-0.1-0.1-0.1c-0.1-1.2-0.7-2.2-1.8-2.8c-1.1-0.7-2.4-0.8-3.4-0.3c0,0,0,0-0.1,0l-7.9-0.9L142.2,74l8.1,8.4l8.2,0
								c5.4,0,8.5-3.9,8.6-7.6c0.1-3.2-1.9-7-7.9-7.5c0,0-0.1,0-0.1-0.1c0,0,0-0.1,0-0.1c0.3-0.8,0-1.7-0.6-2.3
								c-0.4-0.4-1-0.6-1.5-0.6C156.7,64.2,156.4,64.2,156.2,64.3z"/>
						</g>
					</g>
					<g class="st26">
						<g>
							<path class="st27" d="M143,64.3c0,0.1,0,0.2,0,0.3c0,7.5,5.9,13.6,13.1,13.6c4.3,0,8.1-2.1,10.5-5.4c1.1,4.4-2.1,9.7-8.2,9.7
								l-7.9,0l-7.9-8.4L143,64.3z"/>
						</g>
					</g>
					<g class="st21">
						<g>
							<path class="st22" d="M150.8,61.2c2-0.9,5.1,0.5,5.3,3.2c0.8-0.3,1.8-0.2,2.5,0.4c0.6,0.6,0.9,1.6,0.6,2.4
								c10.2,0.8,10.1,11.6,3.2,14.6c5.1-3.7,4.6-12.3-3.9-13.6c-0.4-0.1-0.7-0.4-0.8-0.9c0-0.6-0.3-1.2-0.7-1.7
								c-0.5-0.4-1.1-0.6-1.7-0.6c-0.4,0-0.8-0.2-0.9-0.6c-0.6-1.8-2.4-2.8-4-2.7c-0.1-0.3-0.3-0.5-0.4-0.8L150.8,61.2z"/>
						</g>
					</g>
					<g>
						<g>
							<path class="st19" d="M149.7,83l-8.2-8.4c-0.2-0.2-0.2-0.4-0.2-0.6l0.7-14c0-0.2,0.1-0.4,0.3-0.6c0.2-0.1,0.4-0.2,0.6-0.2
								l7.8,0.9c1.3-0.5,2.8-0.3,4,0.5c1,0.6,1.7,1.5,2,2.6c0.9-0.1,1.7,0.2,2.4,0.8c0.6,0.6,1,1.4,1,2.3c5.7,0.8,8.1,4.7,7.9,8.4
								c-0.2,4.1-3.6,8.5-9.5,8.5l-8.2,0h0C150.1,83.3,149.9,83.2,149.7,83z M156.4,65c-0.2,0.1-0.5,0.1-0.7-0.1
								c-0.2-0.1-0.4-0.4-0.4-0.6c-0.1-1.3-0.9-2-1.4-2.3c-0.9-0.5-2-0.6-2.8-0.3c-0.1,0.1-0.3,0.1-0.4,0.1l-7.1-0.9l-0.6,12.8
								l7.7,7.9l7.9,0c5,0,7.8-3.6,7.9-6.9c0.1-2.8-1.7-6.3-7.3-6.8c-0.2,0-0.5-0.2-0.6-0.4c-0.1-0.2-0.2-0.5-0.1-0.7
								c0.2-0.5,0-1.2-0.4-1.6c-0.3-0.3-0.7-0.4-1.1-0.4C156.8,64.9,156.6,64.9,156.4,65z"/>
						</g>
					</g>
				</g>
				<g class="st32">
					<g>
						<ellipse class="st24" cx="149.2" cy="67.6" rx="0.4" ry="0.3"/>
					</g>
				</g>
				<g class="st26">
					<g>
						<path class="st24" d="M145.4,63.5l0,0.8C145.4,64,145.4,63.7,145.4,63.5z"/>
					</g>
				</g>
				<g class="st33">
					<g>
						<path class="st22" d="M84.5,49.4c0-0.1,0-0.2,0.1-0.3c0.7,1.3,2,2.6,2.3,3.9c0.1,0.4,0.1,0.8,0.1,1.3
							C86.1,52.6,84.3,51.1,84.5,49.4z"/>
					</g>
				</g>
				<g>
					<g>
						<g>
							<path class="st34" d="M80.8,54.9c0.3-2-1.4-4.6-0.6-6.3c0.9-1.8,4-2,5.3-3.4c1.4-1.4,1.5-4.5,3.2-5.4
								c1.7-0.9,4.3,0.7,6.3,0.4c2-0.3,3.9-2.8,5.8-2.5c2,0.3,3.1,3.2,4.9,4c1.8,0.9,4.8,0,6.2,1.4c1.4,1.4,0.7,4.4,1.6,6.1
								c0.9,1.7,3.8,2.8,4.2,4.8c0.3,2-2,4-2.3,5.9c-0.3,2,1.4,4.6,0.6,6.3c-0.9,1.8-4,2-5.3,3.4c-1.4,1.4-1.5,4.5-3.2,5.4
								c-1.7,0.9-4.3-0.7-6.3-0.4c-2,0.3-3.9,2.8-5.8,2.5c-2-0.3-3.1-3.2-4.9-4c-1.8-0.9-4.8,0-6.2-1.4c-1.4-1.4-0.7-4.4-1.6-6.1
								c-0.9-1.7-3.8-2.8-4.2-4.8C78.1,58.8,80.5,56.8,80.8,54.9z"/>
						</g>
					</g>
					<g>
						<g>
							<path class="st24" d="M95.1,78.1c-1.5-0.2-2.5-1.4-3.4-2.5c-0.6-0.7-1.2-1.4-1.8-1.7c-0.6-0.3-1.5-0.3-2.4-0.4
								c-1.4-0.1-2.9-0.2-4-1.2c-1-1-1.2-2.5-1.3-3.9c-0.1-0.9-0.2-1.8-0.5-2.4c-0.3-0.6-1-1.1-1.7-1.7c-1.1-0.9-2.3-1.9-2.6-3.4
								c-0.3-1.5,0.6-2.8,1.3-4c0.5-0.8,0.9-1.5,1-2.1c0.1-0.7-0.1-1.6-0.4-2.5c-0.4-1.4-0.7-2.8-0.1-4.1c0.6-1.3,2.1-1.9,3.4-2.4
								c0.8-0.3,1.7-0.7,2.1-1.2c0.5-0.5,0.8-1.3,1.1-2.2c0.5-1.3,1.1-2.8,2.4-3.5c1.2-0.7,2.7-0.3,4.1,0c0.9,0.2,1.8,0.4,2.5,0.3
								c0.7-0.1,1.5-0.6,2.3-1.1c1.2-0.8,2.4-1.6,3.8-1.4c1.5,0.2,2.5,1.4,3.4,2.5c0.6,0.7,1.2,1.4,1.8,1.7c0.6,0.3,1.5,0.3,2.4,0.4
								c1.4,0.1,2.9,0.2,4,1.2c1,1,1.2,2.5,1.3,3.9c0.1,0.9,0.2,1.8,0.5,2.4c0.3,0.6,1,1.1,1.7,1.7c1.1,0.9,2.3,1.9,2.6,3.4
								c0.3,1.5-0.6,2.8-1.3,4c-0.5,0.8-0.9,1.5-1,2.1c-0.1,0.7,0.1,1.6,0.4,2.5c0.4,1.4,0.7,2.8,0.1,4.1c-0.6,1.3-2.1,1.9-3.4,2.4
								c-0.8,0.3-1.7,0.7-2.1,1.2c-0.5,0.5-0.8,1.3-1.1,2.2c-0.5,1.3-1.1,2.8-2.4,3.5c-1.2,0.7-2.7,0.3-4.1,0
								c-0.9-0.2-1.8-0.4-2.5-0.3c-0.7,0.1-1.5,0.6-2.3,1.1c-1.1,0.7-2.2,1.4-3.4,1.4C95.4,78.1,95.3,78.1,95.1,78.1z M104.2,74.1
								c1.1,0.3,2.2,0.5,2.8,0.2c0.7-0.4,1.1-1.4,1.5-2.5c0.4-1,0.8-2,1.5-2.8c0.7-0.7,1.8-1.2,2.7-1.6c1.1-0.5,2.1-0.9,2.4-1.6
								c0.3-0.7,0.1-1.7-0.2-2.9c-0.3-1.1-0.6-2.1-0.4-3.2c0.1-1,0.7-1.9,1.3-2.8c0.6-1,1.2-2,1.1-2.8c-0.1-0.8-1-1.5-1.9-2.3
								c-0.8-0.7-1.7-1.4-2.1-2.3c-0.5-0.9-0.6-2-0.7-3.1c-0.1-1.2-0.2-2.2-0.7-2.8c-0.6-0.5-1.6-0.6-2.8-0.7
								c-1.1-0.1-2.2-0.1-3.1-0.6c-0.9-0.5-1.6-1.3-2.3-2.1c-0.8-0.9-1.5-1.7-2.3-1.8c-0.7-0.1-1.6,0.5-2.6,1.1
								c-0.9,0.6-1.9,1.2-2.9,1.4c-1.1,0.2-2.2-0.1-3.2-0.3c-1.1-0.3-2.2-0.5-2.8-0.2c-0.7,0.4-1.1,1.4-1.5,2.5
								c-0.4,1-0.8,2-1.5,2.8c-0.7,0.7-1.8,1.2-2.7,1.6c-1.1,0.5-2.1,0.9-2.4,1.6c-0.3,0.7-0.1,1.7,0.2,2.9c0.3,1.1,0.6,2.1,0.4,3.2
								c-0.1,1-0.7,1.9-1.3,2.8c-0.6,1-1.2,2-1.1,2.8s1,1.5,1.9,2.3c0.8,0.7,1.7,1.4,2.1,2.3c0.5,0.9,0.6,2.1,0.7,3.1
								c0.1,1.2,0.2,2.2,0.7,2.8c0.6,0.5,1.6,0.6,2.8,0.7c1.1,0.1,2.2,0.1,3.1,0.6c0.9,0.5,1.6,1.3,2.3,2.1c0.8,0.9,1.5,1.7,2.3,1.8
								c0.7,0.1,1.6-0.5,2.6-1.1c0.9-0.6,1.9-1.2,2.9-1.4c0.2,0,0.5-0.1,0.8-0.1C102.5,73.7,103.4,73.9,104.2,74.1z"/>
						</g>
					</g>
				</g>
				<g>
					<g>
						<path class="st35" d="M80.8,54.9c0.3-2-1.4-4.6-0.6-6.3c0.9-1.8,4-2,5.3-3.4c1.4-1.4,1.5-4.5,3.2-5.4c1.7-0.9,4.3,0.7,6.3,0.4
							c2-0.3,3.9-2.8,5.8-2.5c2,0.3,3.1,3.2,4.9,4c1.8,0.9,4.8,0,6.2,1.4c1.4,1.4,0.7,4.4,1.6,6.1c0.9,1.7,3.8,2.8,4.2,4.8
							c0.3,2-2,4-2.3,5.9c-0.3,2,1.4,4.6,0.6,6.3c-0.9,1.8-4,2-5.3,3.4c-1.4,1.4-1.5,4.5-3.2,5.4c-1.7,0.9-4.3-0.7-6.3-0.4
							c-2,0.3-3.9,2.8-5.8,2.5c-2-0.3-3.1-3.2-4.9-4c-1.8-0.9-4.8,0-6.2-1.4c-1.4-1.4-0.7-4.4-1.6-6.1c-0.9-1.7-3.8-2.8-4.2-4.8
							C78.1,58.8,80.5,56.8,80.8,54.9z"/>
					</g>
				</g>
				<g class="st21">
					<g>
						<path class="st22" d="M78.5,60.8c-0.3-2,2-4,2.3-5.9c0.3-2-1.4-4.6-0.6-6.3c0.9-1.8,4-2,5.3-3.4c1.4-1.4,1.5-4.5,3.2-5.4
							c1.7-0.9,4.3,0.7,6.3,0.4c2-0.3,3.9-2.8,5.8-2.5c2,0.3,3.1,3.2,4.9,4c1.8,0.9,4.8,0,6.2,1.4c0.5,0.5,0.7,1.1,0.8,1.9
							c-1.5-1.2-4.3-0.5-6-1.3c-1.7-0.9-2.9-3.7-4.9-4c-1.9-0.3-3.8,2.1-5.8,2.5c-2,0.3-4.6-1.3-6.3-0.4c-1.8,0.9-1.9,4-3.2,5.4
							c-1.4,1.4-4.5,1.6-5.3,3.4c-0.9,1.7,0.8,4.3,0.6,6.3c-0.3,1.8-2.4,3.7-2.3,5.5C79,62,78.6,61.4,78.5,60.8z"/>
					</g>
				</g>
				<g>
					<g>
						<path class="st19" d="M95.2,78c-1.4-0.2-2.4-1.3-3.3-2.4c-0.6-0.7-1.2-1.4-1.8-1.7c-0.6-0.3-1.5-0.4-2.5-0.4
							c-1.4-0.1-2.9-0.2-3.9-1.1c-1-1-1.1-2.4-1.2-3.9c-0.1-0.9-0.2-1.9-0.5-2.5c-0.3-0.6-1-1.1-1.7-1.7c-1.1-0.9-2.3-1.9-2.5-3.3
							c-0.2-1.4,0.6-2.8,1.3-4c0.5-0.8,0.9-1.5,1-2.2c0.1-0.7-0.1-1.6-0.4-2.5c-0.4-1.4-0.7-2.8-0.1-4.1c0.6-1.3,2-1.8,3.3-2.4
							c0.9-0.4,1.7-0.7,2.2-1.2c0.5-0.5,0.8-1.3,1.1-2.2c0.5-1.3,1.1-2.7,2.3-3.4c1.2-0.6,2.6-0.3,4,0c0.9,0.2,1.8,0.4,2.6,0.3
							c0.7-0.1,1.5-0.6,2.3-1.1c1.2-0.8,2.4-1.5,3.8-1.4c1.4,0.2,2.4,1.3,3.3,2.4c0.6,0.7,1.2,1.4,1.8,1.7c0.6,0.3,1.5,0.4,2.5,0.4
							c1.4,0.1,2.9,0.2,3.9,1.1c1,1,1.1,2.4,1.2,3.9c0.1,0.9,0.2,1.9,0.5,2.5c0.3,0.6,1,1.1,1.7,1.7c1.1,0.9,2.3,1.9,2.5,3.3
							c0.2,1.4-0.6,2.8-1.3,4c-0.5,0.8-0.9,1.5-1,2.2c-0.1,0.7,0.1,1.6,0.4,2.5c0.4,1.4,0.7,2.8,0.1,4.1c-0.6,1.3-2,1.8-3.3,2.4
							c-0.9,0.4-1.7,0.7-2.2,1.2c-0.5,0.5-0.8,1.3-1.1,2.2c-0.5,1.3-1.1,2.7-2.3,3.4c-1.2,0.6-2.6,0.3-4,0c-0.9-0.2-1.8-0.4-2.6-0.3
							c-0.7,0.1-1.5,0.6-2.3,1.1c-1.1,0.7-2.2,1.4-3.3,1.4C95.4,78,95.3,78,95.2,78z M104.1,74.2c1.1,0.3,2.2,0.5,2.9,0.2
							c0.7-0.4,1.1-1.4,1.6-2.5c0.4-1,0.8-2,1.5-2.7c0.7-0.7,1.7-1.2,2.7-1.6c1.1-0.5,2.1-0.9,2.5-1.6c0.4-0.7,0.1-1.8-0.2-2.9
							c-0.3-1-0.6-2.1-0.4-3.1c0.1-1,0.7-1.9,1.2-2.8c0.6-1,1.2-2,1.1-2.8c-0.1-0.8-1-1.6-2-2.3c-0.8-0.7-1.7-1.3-2.1-2.2
							c-0.5-0.9-0.6-2-0.7-3.1c-0.1-1.2-0.2-2.3-0.8-2.8c-0.6-0.6-1.7-0.6-2.9-0.7c-1.1-0.1-2.2-0.1-3.1-0.6
							c-0.9-0.4-1.6-1.3-2.3-2.1c-0.8-0.9-1.5-1.8-2.3-1.9c-0.8-0.1-1.7,0.5-2.7,1.1c-0.9,0.6-1.9,1.2-2.9,1.4
							c-1,0.2-2.1-0.1-3.2-0.3c-1.1-0.3-2.2-0.5-2.9-0.2c-0.7,0.4-1.1,1.4-1.6,2.5c-0.4,1-0.8,2-1.5,2.7c-0.7,0.7-1.7,1.2-2.7,1.6
							c-1.1,0.5-2.1,0.9-2.5,1.6c-0.4,0.7-0.1,1.8,0.2,2.9c0.3,1,0.6,2.1,0.4,3.1c-0.1,1-0.7,1.9-1.2,2.8c-0.6,1-1.2,2-1.1,2.8
							c0.1,0.8,1,1.6,2,2.3c0.8,0.7,1.7,1.3,2.1,2.2c0.5,0.9,0.6,2,0.7,3.1c0.1,1.2,0.2,2.3,0.8,2.8c0.6,0.6,1.7,0.6,2.9,0.7
							c1.1,0.1,2.2,0.1,3.1,0.6c0.9,0.4,1.6,1.3,2.3,2.1c0.8,0.9,1.5,1.8,2.3,1.9c0.8,0.1,1.7-0.5,2.7-1.1c0.9-0.6,1.9-1.2,2.9-1.4
							c0.2,0,0.5-0.1,0.7-0.1C102.5,73.8,103.3,74,104.1,74.2z"/>
					</g>
				</g>
				<g>
					<g>
						<g>
							<path class="st34" d="M153.3,52.9c-0.2-2,1.6-4.5,0.8-6.3c-0.8-1.8-3.9-2.2-5.2-3.6c-1.3-1.5-1.3-4.6-3-5.6
								c-1.7-1-4.4,0.5-6.3,0.1c-2-0.4-3.8-2.9-5.7-2.7c-2,0.2-3.3,3-5.1,3.8c-1.8,0.8-4.8-0.2-6.2,1.1c-1.5,1.3-0.9,4.3-1.9,6.1
								c-1,1.7-3.9,2.6-4.4,4.6c-0.4,2,1.9,4.1,2,6c0.2,2-1.6,4.5-0.8,6.3c0.8,1.8,3.9,2.2,5.2,3.6c1.3,1.5,1.3,4.6,3,5.6
								c1.7,1,4.4-0.5,6.3-0.1c2,0.4,3.8,2.9,5.7,2.7c2-0.2,3.3-3,5.1-3.8c1.8-0.8,4.8,0.2,6.2-1.1c1.5-1.3,0.9-4.3,1.9-6.1
								c1-1.7,3.9-2.6,4.4-4.6C155.8,56.9,153.5,54.8,153.3,52.9z"/>
						</g>
					</g>
					<g>
						<g>
							<path class="st24" d="M134.2,73.8c-0.7-0.5-1.5-1.1-2.2-1.2c-0.7-0.2-1.6,0-2.5,0.2c-1.4,0.3-2.9,0.5-4.1-0.2
								c-1.3-0.7-1.8-2.2-2.2-3.6c-0.3-0.9-0.6-1.7-1-2.2c-0.4-0.5-1.3-0.9-2.1-1.3c-1.2-0.6-2.7-1.3-3.2-2.6
								c-0.6-1.3-0.1-2.7,0.3-4.1c0.3-0.9,0.5-1.8,0.5-2.4c-0.1-0.6-0.5-1.4-0.9-2.2c-0.7-1.2-1.4-2.6-1.1-4.1
								c0.3-1.5,1.6-2.4,2.7-3.2c0.7-0.5,1.4-1.1,1.7-1.6c0.3-0.6,0.5-1.5,0.6-2.4c0.2-1.4,0.4-2.9,1.5-3.9c1.1-1,2.6-1,4-1
								c0.9,0,1.8,0,2.4-0.3c0.6-0.3,1.2-0.9,1.8-1.6c1-1,2-2.2,3.5-2.3c1.4-0.1,2.6,0.7,3.8,1.5c0.7,0.5,1.5,1.1,2.2,1.2
								c0.7,0.2,1.6,0,2.5-0.2c1.4-0.3,2.9-0.5,4.1,0.2c1.3,0.7,1.8,2.2,2.2,3.6c0.3,0.9,0.6,1.7,1,2.2c0.4,0.5,1.3,0.9,2.1,1.3
								c1.2,0.6,2.7,1.3,3.2,2.6c0.6,1.3,0.1,2.7-0.3,4.1c-0.3,0.9-0.5,1.8-0.5,2.4c0.1,0.6,0.5,1.4,0.9,2.2
								c0.7,1.2,1.4,2.6,1.1,4.1l0,0c-0.3,1.5-1.6,2.4-2.7,3.2c-0.7,0.5-1.4,1.1-1.7,1.6c-0.3,0.6-0.5,1.5-0.6,2.4
								c-0.2,1.4-0.4,2.9-1.5,3.9c-1.1,1-2.6,1-4,1c-0.9,0-1.8,0-2.4,0.3c-0.6,0.3-1.2,0.9-1.8,1.6c-1,1-2,2.2-3.5,2.3
								c-0.1,0-0.2,0-0.3,0C136.4,75.4,135.2,74.6,134.2,73.8z M154.4,58.7c0.2-0.8-0.4-1.8-0.9-2.8c-0.5-0.9-1-1.9-1.1-2.9
								c-0.1-1,0.2-2.1,0.6-3.2c0.3-1.1,0.7-2.1,0.4-2.8c-0.3-0.7-1.3-1.2-2.4-1.7c-1-0.5-2-0.9-2.7-1.7c-0.7-0.8-1-1.8-1.4-2.8
								c-0.4-1.1-0.7-2.2-1.4-2.6c-0.6-0.4-1.7-0.2-2.8,0c-1.1,0.2-2.2,0.4-3.2,0.2c-1.1-0.2-2-0.9-2.9-1.5
								c-0.9-0.7-1.8-1.3-2.5-1.2c-0.8,0.1-1.5,0.9-2.3,1.7c-0.7,0.8-1.5,1.6-2.4,2c-1,0.4-2.1,0.4-3.1,0.4c-1.2,0-2.3,0-2.8,0.5
								c-0.6,0.5-0.7,1.6-0.9,2.7c-0.1,1.1-0.3,2.2-0.8,3.1c-0.5,0.9-1.4,1.5-2.2,2.2c-1,0.7-1.8,1.4-2,2.2
								c-0.2,0.8,0.4,1.8,0.9,2.8c0.5,0.9,1,1.9,1.1,2.9c0.1,1-0.2,2.1-0.6,3.2c-0.3,1.1-0.7,2.1-0.4,2.8c0.3,0.7,1.3,1.2,2.4,1.7
								c1,0.5,2,0.9,2.7,1.7c0.7,0.8,1,1.8,1.4,2.8c0.4,1.1,0.7,2.2,1.4,2.6c0.6,0.4,1.7,0.2,2.8,0c1.1-0.2,2.2-0.4,3.2-0.2
								c1.1,0.2,2,0.9,2.9,1.5c0.9,0.7,1.8,1.3,2.5,1.2c0.8-0.1,1.5-0.9,2.3-1.7c0.7-0.8,1.5-1.6,2.4-2c1-0.4,2.1-0.4,3.1-0.4
								c1.2,0,2.3,0,2.8-0.5c0.6-0.5,0.7-1.6,0.9-2.7c0.1-1.1,0.3-2.2,0.8-3.1c0.5-0.9,1.4-1.5,2.2-2.2
								C153.4,60.2,154.3,59.5,154.4,58.7L154.4,58.7z"/>
						</g>
					</g>
				</g>
				<g>
					<g>
						<path class="st35" d="M153.3,52.9c-0.2-2,1.6-4.5,0.8-6.3c-0.8-1.8-3.9-2.2-5.2-3.6c-1.3-1.5-1.3-4.6-3-5.6
							c-1.7-1-4.4,0.5-6.3,0.1c-2-0.4-3.8-2.9-5.7-2.7c-2,0.2-3.3,3-5.1,3.8c-1.8,0.8-4.8-0.2-6.2,1.1c-1.5,1.3-0.9,4.3-1.9,6.1
							c-1,1.7-3.9,2.6-4.4,4.6c-0.4,2,1.9,4.1,2,6c0.2,2-1.6,4.5-0.8,6.3c0.8,1.8,3.9,2.2,5.2,3.6c1.3,1.5,1.3,4.6,3,5.6
							c1.7,1,4.4-0.5,6.3-0.1c2,0.4,3.8,2.9,5.7,2.7c2-0.2,3.3-3,5.1-3.8c1.8-0.8,4.8,0.2,6.2-1.1c1.5-1.3,0.9-4.3,1.9-6.1
							c1-1.7,3.9-2.6,4.4-4.6C155.8,56.9,153.5,54.8,153.3,52.9z"/>
					</g>
				</g>
				<g class="st21">
					<g>
						<path class="st22" d="M155.2,59.1c0.4-2-1.9-4.1-2-6c-0.2-2,1.6-4.5,0.8-6.3c-0.8-1.8-3.9-2.2-5.2-3.6c-1.3-1.5-1.3-4.6-3-5.6
							c-1.7-1-4.4,0.5-6.3,0.1c-2-0.4-3.8-2.9-5.7-2.8c-2,0.2-3.3,3-5.1,3.8c-1.8,0.8-4.8-0.2-6.2,1.1c-0.5,0.4-0.8,1.1-0.9,1.8
							c1.5-1.1,4.3-0.3,6.1-1c1.8-0.8,3.1-3.6,5.1-3.8c1.9-0.2,3.7,2.3,5.7,2.8c2,0.4,4.7-1.1,6.3-0.1c1.7,1,1.7,4.1,3,5.6
							c1.3,1.5,4.4,1.8,5.2,3.6c0.8,1.8-1,4.3-0.8,6.3c0.2,1.8,2.2,3.8,2.1,5.6C154.7,60.2,155.1,59.7,155.2,59.1z"/>
					</g>
				</g>
				<g>
					<g>
						<path class="st19" d="M134.2,73.8c-0.8-0.5-1.5-1.1-2.3-1.2c-0.7-0.2-1.7,0-2.6,0.2c-1.4,0.3-2.8,0.5-4-0.2
							c-1.2-0.7-1.7-2.1-2.2-3.5c-0.3-0.9-0.6-1.7-1-2.2c-0.5-0.5-1.3-0.9-2.1-1.3c-1.3-0.6-2.6-1.2-3.2-2.5c-0.6-1.3-0.1-2.7,0.3-4
							c0.3-0.9,0.6-1.8,0.5-2.5c-0.1-0.7-0.5-1.4-0.9-2.2c-0.7-1.2-1.4-2.6-1.1-4c0.3-1.4,1.6-2.4,2.7-3.2c0.7-0.6,1.4-1.1,1.8-1.6
							c0.4-0.6,0.5-1.5,0.6-2.5c0.2-1.4,0.4-2.9,1.4-3.8c1.1-0.9,2.5-1,4-1c0.9,0,1.8,0,2.5-0.3c0.6-0.3,1.2-0.9,1.9-1.6
							c1-1,2-2.1,3.4-2.3c1.4-0.1,2.6,0.7,3.7,1.5c0.8,0.5,1.5,1.1,2.3,1.2c0.7,0.2,1.7,0,2.6-0.2c1.4-0.3,2.8-0.5,4,0.2
							c1.2,0.7,1.7,2.1,2.2,3.5c0.3,0.9,0.6,1.7,1,2.2c0.5,0.5,1.3,0.9,2.1,1.3c1.3,0.6,2.6,1.2,3.2,2.5c0.6,1.3,0.1,2.7-0.3,4
							c-0.3,0.9-0.6,1.8-0.5,2.5c0.1,0.7,0.5,1.4,0.9,2.2c0.7,1.2,1.4,2.6,1.1,4l0,0c-0.3,1.4-1.6,2.4-2.7,3.2
							c-0.7,0.6-1.4,1.1-1.8,1.6c-0.4,0.6-0.5,1.5-0.6,2.5c-0.2,1.4-0.4,2.9-1.4,3.8c-1.1,0.9-2.5,1-4,1c-0.9,0-1.8,0-2.5,0.3
							c-0.6,0.3-1.2,0.9-1.9,1.6c-1,1-2,2.1-3.4,2.3c-0.1,0-0.2,0-0.3,0C136.4,75.3,135.3,74.5,134.2,73.8z M154.5,58.7
							c0.2-0.8-0.4-1.8-0.9-2.9c-0.5-0.9-1-1.9-1.1-2.9c-0.1-1,0.2-2.1,0.5-3.1c0.3-1.1,0.7-2.2,0.4-2.9c-0.3-0.7-1.3-1.2-2.4-1.7
							c-1-0.5-2-0.9-2.6-1.7c-0.7-0.8-1-1.8-1.4-2.8c-0.4-1.1-0.7-2.2-1.4-2.6c-0.7-0.4-1.7-0.2-2.9,0c-1.1,0.2-2.2,0.4-3.2,0.2
							c-1-0.2-2-0.9-2.8-1.5c-0.9-0.7-1.8-1.3-2.6-1.2c-0.8,0.1-1.6,0.9-2.4,1.8c-0.7,0.8-1.5,1.6-2.4,2c-0.9,0.4-2,0.4-3.1,0.4
							c-1.2,0-2.3,0-2.9,0.6c-0.6,0.5-0.7,1.6-0.9,2.8c-0.1,1.1-0.3,2.2-0.8,3.1c-0.5,0.9-1.4,1.5-2.2,2.1c-1,0.7-1.9,1.4-2.1,2.2
							c-0.2,0.8,0.4,1.8,0.9,2.9c0.5,0.9,1,1.9,1.1,2.9c0.1,1-0.2,2.1-0.5,3.1c-0.3,1.1-0.7,2.2-0.4,2.9c0.3,0.7,1.3,1.2,2.4,1.7
							c1,0.5,2,0.9,2.6,1.7c0.7,0.8,1,1.8,1.4,2.8c0.4,1.1,0.7,2.2,1.4,2.6c0.7,0.4,1.7,0.2,2.9,0c1.1-0.2,2.2-0.4,3.2-0.2
							c1,0.2,2,0.9,2.8,1.5c0.9,0.7,1.8,1.3,2.6,1.2c0.8-0.1,1.6-0.9,2.4-1.8c0.7-0.8,1.5-1.6,2.4-2c0.9-0.4,2-0.4,3.1-0.4
							c1.2,0,2.3,0,2.9-0.6c0.6-0.5,0.7-1.6,0.9-2.8c0.1-1.1,0.3-2.2,0.8-3.1c0.5-0.9,1.4-1.5,2.2-2.1
							C153.5,60.2,154.4,59.6,154.5,58.7L154.5,58.7z"/>
					</g>
				</g>
				<g class="st32">
					<g>
						<ellipse class="st36" cx="109.4" cy="68.2" rx="1.6" ry="1.1"/>
					</g>
				</g>
				<g>
					<g>
						<path class="st37" d="M79.5,70.1L79.5,70.1c0-0.3,0-0.6,0.1-0.9c0.1-1,0.4-2,0.7-3c5.8-16.7,18.8-29.4,34.6-29.4
							c14.4,0,26.8,10.1,33,24.9l0,0c1.4,3.4,2.5,7,3.2,10.9v0c0,0.2,0.1,0.5,0.1,0.7c0,0,0,0,0,0c0.1,0.6,0.3,1.2,0.5,1.8
							c0,0,0,0,0,0c0,0.1,0.1,0.2,0.1,0.3c0,0.1,0,0.1,0.1,0.2c0,0.1,0.1,0.2,0.1,0.3c0,0,0,0,0,0.1c0,0.1,0.1,0.2,0.1,0.3
							c0,0,0,0.1,0.1,0.1c0,0.1,0.1,0.1,0.1,0.2c0,0.1,0.1,0.1,0.1,0.2c0,0.1,0.1,0.2,0.1,0.3c0.3,0.5,0.6,1,1,1.5
							c0.1,0.1,0.1,0.2,0.2,0.2c0,0.1,0.1,0.1,0.1,0.2c0,0,0.1,0.1,0.1,0.1c0,0.1,0.1,0.1,0.1,0.2c0,0.1,0.1,0.1,0.1,0.2
							c0,0,0.1,0.1,0.1,0.1c0,0,0.1,0.1,0.1,0.1c0.1,0.1,0.1,0.1,0.2,0.2c0.1,0.1,0.2,0.2,0.3,0.2c0,0,0,0,0,0
							c0.1,0.1,0.2,0.2,0.3,0.3c0,0,0.1,0.1,0.1,0.1s0.1,0.1,0.1,0.1c0.1,0,0.1,0.1,0.2,0.1c0.1,0,0.1,0.1,0.2,0.1
							c0.1,0,0.1,0.1,0.2,0.1c0.5,0.3,0.9,0.6,1.4,0.8c0.1,0,0.1,0.1,0.2,0.1c0.3,0.1,0.5,0.2,0.8,0.3c0.1,0,0.1,0,0.2,0
							c0.1,0,0.1,0,0.2,0.1c0.1,0,0.1,0,0.2,0c0,0,0,0,0,0c0.1,0,0.1,0,0.2,0c0.1,0,0.1,0,0.2,0c0.3,0,0.6,0.1,0.9,0.1
							c0.1,0,0.1,0,0.2,0c0.1,0,0.2,0,0.3,0h-12.4l0,0H89.5c-0.3,0-0.7,0-1-0.1c-0.2,0-0.3,0-0.5-0.1c-0.8-0.1-1.6-0.4-2.4-0.8
							c-0.1-0.1-0.2-0.1-0.4-0.2c-0.2-0.1-0.5-0.3-0.7-0.4c-0.1-0.1-0.3-0.2-0.4-0.3c-0.3-0.2-0.5-0.4-0.8-0.6
							c-0.1-0.1-0.2-0.2-0.4-0.4c0,0-0.1-0.1-0.1-0.1c-0.1-0.1-0.2-0.2-0.3-0.3c-0.1-0.1-0.2-0.2-0.2-0.3c-0.1-0.1-0.2-0.2-0.3-0.3
							c-0.4-0.5-0.8-1.1-1.1-1.8c-0.1-0.2-0.2-0.3-0.2-0.5c-0.2-0.4-0.4-0.8-0.5-1.3c-0.5-1.4-0.7-2.9-0.7-4.4
							C79.5,70.6,79.5,70.3,79.5,70.1z"/>
					</g>
				</g>
				<g class="st21">
					<g>
						<path class="st22" d="M79.5,70.1L79.5,70.1c0-0.3,0-0.6,0.1-0.9c0.1-1,0.4-2,0.7-3c5.8-16.7,18.8-29.4,34.6-29.4
							c14.4,0,26.8,10.1,33,24.9l0,0c1.4,3.4,2.5,7,3.2,10.9v0c0,0.2,0.1,0.5,0.1,0.7c0,0,0,0,0,0c0,0.1,0,0.2,0.1,0.4
							c-0.1,0-0.3,0.1-0.4,0.1c-0.7-3.4-1.7-6.7-3-9.7l0,0c-6.1-14.8-18.6-24.9-33-24.9c-15.8,0-28.8,12.7-34.6,29.4
							c-0.4,1-0.6,2-0.7,3c0,0.2,0,0.4-0.1,0.6c0-0.4-0.1-0.9,0-1.4C79.5,70.6,79.5,70.3,79.5,70.1z"/>
					</g>
				</g>
				<g class="st26">
					<g>
						<path class="st27" d="M80.3,66.2c0.4-0.8,0.2,0,0,1C80.3,66.9,80.3,66.6,80.3,66.2z"/>
					</g>
				</g>
				<g>
					<g>
						<path class="st19" d="M148.2,83.3H89.5c-3.3,0-6.3-1.7-8.4-4.6c-2.5-3.5-3.1-8.3-1.5-12.8c3-8.6,7.8-16,13.8-21.3
							c6.4-5.6,13.9-8.6,21.6-8.6c8.7,0,17.2,3.7,23.9,10.4c6.6,6.6,11.2,15.8,13.1,26c0,0,0,0,0,0.1c0,0.2,0.1,0.5,0.1,0.7
							c0,0,0,0,0,0v0c1,5,4.6,8.5,8.7,8.5c0.4,0,0.8,0.4,0.8,0.8c0,0.4-0.4,0.8-0.8,0.8h-12.4C148.3,83.3,148.2,83.3,148.2,83.3z
							 M150.5,73.5C150.4,73.5,150.4,73.5,150.5,73.5c-0.1-0.3-0.1-0.5-0.1-0.8c0,0,0,0,0,0c-3.7-20.3-18.5-35-35.4-35
							c-14.5,0-27.8,11.3-33.9,28.8c-1.4,4-0.9,8.2,1.3,11.3c1.7,2.5,4.3,3.9,7,3.9h58.9c0,0,0.1,0,0.1,0h7.1
							C153.1,80,151.2,77.1,150.5,73.5z M152,73.1L152,73.1L152,73.1z M152,73.1C152,73.1,152,73.1,152,73.1
							C152,73.1,152,73.1,152,73.1z"/>
					</g>
				</g>
				<g class="st26">
					<g>
						<path class="st22" d="M136,52.3c2.6,3.3,3.3,7,1.6,8.4c-1.7,1.3-3-2-5.6-5.3c-2.6-3.3-5.5-5.3-3.8-6.7
							C129.9,47.4,133.4,49,136,52.3z"/>
					</g>
				</g>
				<g class="st26">
					<g>
						<circle class="st27" cx="95" cy="55.3" r="0.6"/>
					</g>
				</g>
				<g class="st26">
					<g>
						<circle class="st27" cx="142.1" cy="67.1" r="0.6"/>
					</g>
				</g>
				<g class="st26">
					<g>
						<circle class="st27" cx="99" cy="67.8" r="0.6"/>
					</g>
				</g>
				<g class="st26">
					<g>
						<circle class="st27" cx="134.5" cy="76.4" r="0.6"/>
					</g>
				</g>
				<g class="st26">
					<g>
						<circle class="st27" cx="122.3" cy="43.1" r="0.6"/>
					</g>
				</g>
				<g class="st26">
					<g>
						<circle class="st27" cx="114.8" cy="53" r="0.6"/>
					</g>
				</g>
				<g class="st26">
					<g>
						<circle class="st27" cx="124" cy="73.1" r="0.6"/>
					</g>
				</g>
				<g class="st26">
					<g>
						<circle class="st27" cx="108.2" cy="47.5" r="0.6"/>
					</g>
				</g>
				<g class="st26">
					<g>
						<ellipse class="st27" cx="98.1" cy="52.5" rx="0.9" ry="0.9"/>
					</g>
				</g>
				<g class="st26">
					<g>
						<ellipse class="st27" cx="85.7" cy="74.5" rx="0.9" ry="0.9"/>
					</g>
				</g>
				<g class="st26">
					<g>
						<ellipse class="st27" cx="107.8" cy="78.1" rx="0.9" ry="0.9"/>
					</g>
				</g>
			</g>
		</g>
	</g>
	<g>
		<path class="st39" d="M36.7,85.7"/>
		<path class="st39" d="M31.5,89.2"/>
		<path class="st39" d="M39.3,93.8"/>
		<path class="st39" d="M27.6,84.9"/>
		<path class="st40" d="M20,92.5"/>
		<path class="st40" d="M22.7,87.8"/>
		<path class="st39" d="M45,78.8"/>
		<path class="st39" d="M39.2,81.2"/>
	</g>
</g>
<g class="st13">
	<g>
		<g>
			<g>
				<path class="st18" d="M73.2,84.2c2.8-21.8,18.1-38.5,36.6-38.5s33.8,16.7,36.6,38.5c0.5,3.7-1.9,7.1-4.9,7.1H78.1
					C75,91.3,72.7,87.9,73.2,84.2z"/>
			</g>
		</g>
		<g>
			<g>
				<path class="st19" d="M74.1,90.2c-1.4-1.6-2-3.9-1.7-6.1c1.4-10.8,5.9-20.7,12.6-27.9c6.9-7.3,15.7-11.3,24.8-11.3
					s17.9,4,24.8,11.3c6.8,7.2,11.2,17.1,12.6,27.9c0.3,2.3-0.4,4.6-1.7,6.1c-1.1,1.2-2.5,1.9-4,1.9H78.1
					C76.6,92.1,75.2,91.4,74.1,90.2z M74,84.3c-0.2,1.8,0.3,3.6,1.4,4.9c0.8,0.9,1.7,1.3,2.8,1.3h63.4c1,0,2-0.5,2.8-1.3
					c1.1-1.2,1.6-3,1.4-4.9c-2.8-21.9-17.8-37.8-35.8-37.8S76.8,62.3,74,84.3z"/>
			</g>
		</g>
		<g>
			<g>
				<ellipse class="st20" cx="89.3" cy="48.5" rx="8.9" ry="8.9"/>
			</g>
		</g>
		<g class="st21">
			<g>
				<path class="st22" d="M80.5,47.3c0.6-4.9,5.1-8.3,10-7.7c4.5,0.6,7.8,4.5,7.8,9c-0.8-3.6-3.7-6.5-7.6-7c-4.9-0.6-9.3,2.8-10,7.7
					c0,0.3-0.1,0.7-0.1,1C80.4,49.3,80.3,48.3,80.5,47.3z"/>
			</g>
		</g>
		<g>
			<g>
				<path class="st19" d="M88.1,58.1c-2.6-0.3-4.9-1.6-6.5-3.7c-1.6-2.1-2.3-4.6-1.9-7.2c0.3-2.6,1.6-4.9,3.7-6.5
					c2.1-1.6,4.6-2.3,7.2-2c2.6,0.3,4.9,1.6,6.5,3.7c1.6,2.1,2.3,4.6,1.9,7.2c-0.3,2.6-1.6,4.9-3.7,6.5c-1.7,1.3-3.8,2-5.9,2
					C88.9,58.2,88.5,58.2,88.1,58.1z M84.3,42c-1.7,1.3-2.8,3.2-3.1,5.4c-0.3,2.1,0.3,4.3,1.6,6c1.3,1.7,3.2,2.8,5.4,3.1
					c2.1,0.3,4.3-0.3,6-1.6c1.7-1.3,2.8-3.2,3.1-5.4s-0.3-4.3-1.6-6c-1.3-1.7-3.2-2.8-5.4-3.1c-0.4,0-0.7-0.1-1-0.1
					C87.5,40.3,85.8,40.9,84.3,42z"/>
			</g>
		</g>
		<g class="st23">
			<g>
				<path class="st24" d="M73.2,84.2c2.8-21.8,18.1-38.5,36.6-38.5s33.8,16.7,36.6,38.5c0.5,3.7-1.9,7.1-4.9,7.1H78.1
					C75,91.3,72.7,87.9,73.2,84.2z"/>
			</g>
		</g>
		<g>
			<g>
				<ellipse class="st25" cx="131.8" cy="67.3" rx="11.1" ry="11.1"/>
			</g>
		</g>
		<g>
			<g>
				<ellipse class="st20" cx="131.8" cy="67.3" rx="11.1" ry="11.1"/>
			</g>
		</g>
		<g class="st26">
			<g>
				<path class="st27" d="M121.2,64.1c1.4,4.5,5.6,7.7,10.5,7.7c5,0,9.2-3.3,10.6-7.8c0.3,1.1,0.5,2.2,0.5,3.4
					c0,6.1-5,11.1-11.1,11.1c-6.1,0-11.1-5-11.1-11.1C120.7,66.2,120.9,65.1,121.2,64.1z"/>
			</g>
		</g>
		<g class="st21">
			<g>
				<path class="st22" d="M120.7,67.3c0-6.1,5-11.1,11.1-11.1c5.7,0,10.4,4.3,11,9.8c-1.5-4.3-5.6-7.4-10.4-7.4
					c-6.1,0-11.1,5-11.1,11.1c0,0.4,0,0.8,0.1,1.3C121,69.8,120.7,68.6,120.7,67.3z"/>
			</g>
		</g>
		<g>
			<g>
				<path class="st19" d="M119.9,67.3c0-6.6,5.3-11.9,11.9-11.9c6.5,0,11.9,5.3,11.9,11.9s-5.3,11.9-11.9,11.9
					C125.3,79.2,119.9,73.9,119.9,67.3z M121.5,67.3c0,5.7,4.6,10.3,10.2,10.3c5.7,0,10.2-4.6,10.2-10.3s-4.6-10.3-10.2-10.3
					S121.5,61.7,121.5,67.3z"/>
			</g>
		</g>
		<g>
			<g>
				<path class="st28" d="M96.5,58.9l-2.9-13.1c-0.4-2,0.8-3.9,2.8-4.4l10.5-2.3c2-0.4,3.9,0.8,4.4,2.8l2.9,13.1
					c0.4,2-0.8,3.9-2.8,4.4l-10.5,2.3C98.9,62.1,96.9,60.9,96.5,58.9z"/>
			</g>
		</g>
		<g class="st21">
			<g>
				<path class="st22" d="M106.8,39.1c2-0.4,3.9,0.8,4.4,2.8l2.9,13.1c0.4,2-0.8,3.9-2.8,4.4l-1.9,0.4c2-0.4,3.2-2.4,2.8-4.4
					l-2.9-13.1c-0.4-2-2.4-3.2-4.4-2.8L106.8,39.1z"/>
			</g>
		</g>
		<g>
			<g>
				<path class="st29" d="M96.5,58.9l-2.9-13.1c-0.4-2,0.8-3.9,2.8-4.4l10.5-2.3c2-0.4,3.9,0.8,4.4,2.8l2.9,13.1
					c0.4,2-0.8,3.9-2.8,4.4l-10.5,2.3C98.9,62.1,96.9,60.9,96.5,58.9z"/>
			</g>
		</g>
		<g>
			<g>
				<path class="st19" d="M95.7,59.1L92.7,46c-0.5-2.4,1-4.8,3.4-5.3l10.5-2.3c2.4-0.5,4.8,1,5.3,3.4l2.9,13.1
					c0.5,2.4-1,4.8-3.4,5.3L101,62.5l0,0c-0.3,0.1-0.7,0.1-1,0.1C98,62.6,96.1,61.2,95.7,59.1z M111.1,58.5c1.5-0.3,2.5-1.9,2.2-3.4
					l-2.9-13.1c-0.2-0.7-0.6-1.4-1.3-1.8c-0.6-0.4-1.4-0.5-2.1-0.4l-10.5,2.3c-1.5,0.3-2.5,1.9-2.2,3.4l2.9,13.1
					c0.2,0.7,0.6,1.4,1.3,1.8c0.6,0.4,1.4,0.5,2.1,0.4L111.1,58.5z"/>
			</g>
		</g>
		<g class="st26">
			<g>
				<path class="st24" d="M126.1,68.9l0.5,0.1c-0.4,1.1-0.6,2.2-0.7,3.3L126.1,68.9z"/>
			</g>
		</g>
		<g>
			<g>
				<g>
					<path class="st30" d="M123.3,68.8l-0.7,14l8.2,8.4l8.2,0c10.4,0,12.6-14.4,0.7-15.3c0.3-0.8,0-1.8-0.6-2.4s-1.7-0.8-2.5-0.4
						c-0.2-2.8-3.3-4.1-5.3-3.2L123.3,68.8z"/>
				</g>
				<g>
					<path class="st31" d="M130.7,91.3l-8.2-8.4c0,0,0-0.1,0-0.1l0.7-14c0,0,0-0.1,0-0.1c0,0,0.1,0,0.1,0l8,1
						c1.1-0.5,2.5-0.3,3.6,0.4c1.1,0.6,1.7,1.6,1.9,2.8c0.8-0.3,1.8-0.1,2.4,0.5c0.6,0.6,0.9,1.6,0.7,2.4c6.1,0.6,8.1,4.5,8,7.7
						c-0.2,3.8-3.3,7.8-8.9,7.8L130.7,91.3L130.7,91.3C130.7,91.4,130.7,91.4,130.7,91.3z M136.6,73.1c0,0-0.1,0-0.1,0
						c0,0-0.1-0.1-0.1-0.1c-0.1-1.2-0.7-2.2-1.8-2.8c-1.1-0.7-2.4-0.8-3.4-0.3c0,0,0,0-0.1,0l-7.9-0.9l-0.7,13.8l8.1,8.4l8.2,0
						c5.4,0,8.5-3.9,8.6-7.6c0.1-3.2-1.9-7-7.9-7.5c0,0-0.1,0-0.1-0.1c0,0,0-0.1,0-0.1c0.3-0.8,0-1.7-0.6-2.3
						c-0.4-0.4-1-0.6-1.5-0.6C137.2,73,136.9,73,136.6,73.1z"/>
				</g>
			</g>
			<g class="st26">
				<g>
					<path class="st27" d="M123.5,73.1c0,0.1,0,0.2,0,0.3c0,7.5,5.9,13.6,13.1,13.6c4.3,0,8.1-2.1,10.5-5.4c1.1,4.4-2.1,9.7-8.2,9.7
						l-7.9,0l-7.9-8.4L123.5,73.1z"/>
				</g>
			</g>
			<g class="st21">
				<g>
					<path class="st22" d="M131.2,70c2-0.9,5.1,0.5,5.3,3.2c0.8-0.3,1.8-0.2,2.5,0.4c0.6,0.6,0.9,1.6,0.6,2.4
						c10.2,0.8,10.1,11.6,3.2,14.6c5.1-3.7,4.6-12.3-3.9-13.6c-0.4-0.1-0.7-0.4-0.8-0.9c0-0.6-0.3-1.2-0.7-1.7
						c-0.5-0.4-1.1-0.6-1.7-0.6c-0.4,0-0.8-0.2-0.9-0.6c-0.6-1.8-2.4-2.8-4-2.7c-0.1-0.3-0.3-0.5-0.4-0.8L131.2,70z"/>
				</g>
			</g>
			<g>
				<g>
					<path class="st19" d="M130.2,91.8l-8.2-8.4c-0.2-0.2-0.2-0.4-0.2-0.6l0.7-14c0-0.2,0.1-0.4,0.3-0.6c0.2-0.1,0.4-0.2,0.6-0.2
						l7.8,0.9c1.3-0.5,2.8-0.3,4,0.5c1,0.6,1.7,1.5,2,2.6c0.9-0.1,1.7,0.2,2.4,0.8c0.6,0.6,1,1.4,1,2.3c5.7,0.8,8.1,4.7,7.9,8.4
						c-0.2,4.1-3.6,8.5-9.5,8.5l-8.2,0h0C130.5,92.1,130.3,92,130.2,91.8z M136.9,73.8c-0.2,0.1-0.5,0.1-0.7-0.1
						c-0.2-0.1-0.4-0.4-0.4-0.6c-0.1-1.3-0.9-2-1.4-2.3c-0.9-0.5-2-0.6-2.8-0.3c-0.1,0.1-0.3,0.1-0.4,0.1l-7.1-0.9l-0.6,12.8
						l7.7,7.9l7.9,0c5,0,7.8-3.6,7.9-6.9c0.1-2.8-1.7-6.3-7.3-6.8c-0.2,0-0.5-0.2-0.6-0.4c-0.1-0.2-0.2-0.5-0.1-0.7
						c0.2-0.5,0-1.2-0.4-1.6c-0.3-0.3-0.7-0.4-1.1-0.4C137.2,73.7,137.1,73.7,136.9,73.8z"/>
				</g>
			</g>
		</g>
		<g class="st32">
			<g>
				<ellipse class="st24" cx="129.6" cy="76.4" rx="0.4" ry="0.3"/>
			</g>
		</g>
		<g class="st26">
			<g>
				<path class="st24" d="M125.9,72.3l0,0.8C125.8,72.8,125.9,72.5,125.9,72.3z"/>
			</g>
		</g>
		<g class="st33">
			<g>
				<path class="st22" d="M65,58.2c0-0.1,0-0.2,0.1-0.3c0.7,1.3,2,2.6,2.3,3.9c0.1,0.4,0.1,0.8,0.1,1.3C66.5,61.4,64.8,59.9,65,58.2
					z"/>
			</g>
		</g>
		<g>
			<g>
				<g>
					<path class="st34" d="M61.3,63.7c0.3-2-1.4-4.6-0.6-6.3c0.9-1.8,4-2,5.3-3.4c1.4-1.4,1.5-4.5,3.2-5.4c1.7-0.9,4.3,0.7,6.3,0.4
						c2-0.3,3.9-2.8,5.8-2.5c2,0.3,3.1,3.2,4.9,4c1.8,0.9,4.8,0,6.2,1.4c1.4,1.4,0.7,4.4,1.6,6.1c0.9,1.7,3.8,2.8,4.2,4.8
						c0.3,2-2,4-2.3,5.9c-0.3,2,1.4,4.6,0.6,6.3c-0.9,1.8-4,2-5.3,3.4c-1.4,1.4-1.5,4.5-3.2,5.4c-1.7,0.9-4.3-0.7-6.3-0.4
						c-2,0.3-3.9,2.8-5.8,2.5c-2-0.3-3.1-3.2-4.9-4c-1.8-0.9-4.8,0-6.2-1.4c-1.4-1.4-0.7-4.4-1.6-6.1c-0.9-1.7-3.8-2.8-4.2-4.8
						C58.6,67.6,61,65.6,61.3,63.7z"/>
				</g>
			</g>
			<g>
				<g>
					<path class="st24" d="M75.6,86.9c-1.5-0.2-2.5-1.4-3.4-2.5c-0.6-0.7-1.2-1.4-1.8-1.7c-0.6-0.3-1.5-0.3-2.4-0.4
						c-1.4-0.1-2.9-0.2-4-1.2c-1-1-1.2-2.5-1.3-3.9c-0.1-0.9-0.2-1.8-0.5-2.4c-0.3-0.6-1-1.1-1.7-1.7c-1.1-0.9-2.3-1.9-2.6-3.4
						c-0.3-1.5,0.6-2.8,1.3-4c0.5-0.8,0.9-1.5,1-2.1c0.1-0.7-0.1-1.6-0.4-2.5c-0.4-1.4-0.7-2.8-0.1-4.1c0.6-1.3,2.1-1.9,3.4-2.4
						c0.8-0.3,1.7-0.7,2.1-1.2c0.5-0.5,0.8-1.3,1.1-2.2c0.5-1.3,1.1-2.8,2.4-3.5c1.2-0.7,2.7-0.3,4.1,0c0.9,0.2,1.8,0.4,2.5,0.3
						c0.7-0.1,1.5-0.6,2.3-1.1c1.2-0.8,2.4-1.6,3.8-1.4C83,45.8,84,47,85,48c0.6,0.7,1.2,1.4,1.8,1.7c0.6,0.3,1.5,0.3,2.4,0.4
						c1.4,0.1,2.9,0.2,4,1.2c1,1,1.2,2.5,1.3,3.9c0.1,0.9,0.2,1.8,0.5,2.4c0.3,0.6,1,1.1,1.7,1.7c1.1,0.9,2.3,1.9,2.6,3.4
						c0.3,1.5-0.6,2.8-1.3,4c-0.5,0.8-0.9,1.5-1,2.1c-0.1,0.7,0.1,1.6,0.4,2.5c0.4,1.4,0.7,2.8,0.1,4.1c-0.6,1.3-2.1,1.9-3.4,2.4
						c-0.8,0.3-1.7,0.7-2.1,1.2c-0.5,0.5-0.8,1.3-1.1,2.2c-0.5,1.3-1.1,2.8-2.4,3.5c-1.2,0.7-2.7,0.3-4.1,0
						c-0.9-0.2-1.8-0.4-2.5-0.3c-0.7,0.1-1.5,0.6-2.3,1.1c-1.1,0.7-2.2,1.4-3.4,1.4C75.9,86.9,75.8,86.9,75.6,86.9z M84.6,82.9
						c1.1,0.3,2.2,0.5,2.8,0.2c0.7-0.4,1.1-1.4,1.5-2.5c0.4-1,0.8-2,1.5-2.8c0.7-0.7,1.8-1.2,2.7-1.6c1.1-0.5,2.1-0.9,2.4-1.6
						c0.3-0.7,0.1-1.7-0.2-2.9c-0.3-1.1-0.6-2.1-0.4-3.2c0.1-1,0.7-1.9,1.3-2.8c0.6-1,1.2-2,1.1-2.8c-0.1-0.8-1-1.5-1.9-2.3
						c-0.8-0.7-1.7-1.4-2.1-2.3c-0.5-0.9-0.6-2-0.7-3.1c-0.1-1.2-0.2-2.2-0.7-2.8c-0.6-0.5-1.6-0.6-2.8-0.7
						c-1.1-0.1-2.2-0.1-3.1-0.6c-0.9-0.5-1.6-1.3-2.3-2.1c-0.8-0.9-1.5-1.7-2.3-1.8c-0.7-0.1-1.6,0.5-2.6,1.1
						c-0.9,0.6-1.9,1.2-2.9,1.4c-1.1,0.2-2.2-0.1-3.2-0.3c-1.1-0.3-2.2-0.5-2.8-0.2c-0.7,0.4-1.1,1.4-1.5,2.5c-0.4,1-0.8,2-1.5,2.8
						C66,55.4,65,55.8,64,56.3c-1.1,0.5-2.1,0.9-2.4,1.6c-0.3,0.7-0.1,1.7,0.2,2.9c0.3,1.1,0.6,2.1,0.4,3.2c-0.1,1-0.7,1.9-1.3,2.8
						c-0.6,1-1.2,2-1.1,2.8c0.1,0.8,1,1.5,1.9,2.3c0.8,0.7,1.7,1.4,2.1,2.3c0.5,0.9,0.6,2.1,0.7,3.1c0.1,1.2,0.2,2.2,0.7,2.8
						c0.6,0.5,1.6,0.6,2.8,0.7c1.1,0.1,2.2,0.1,3.1,0.6c0.9,0.5,1.6,1.3,2.3,2.1c0.8,0.9,1.5,1.7,2.3,1.8c0.7,0.1,1.6-0.5,2.6-1.1
						c0.9-0.6,1.9-1.2,2.9-1.4c0.2,0,0.5-0.1,0.8-0.1C83,82.5,83.8,82.7,84.6,82.9z"/>
				</g>
			</g>
		</g>
		<g>
			<g>
				<path class="st35" d="M61.3,63.7c0.3-2-1.4-4.6-0.6-6.3c0.9-1.8,4-2,5.3-3.4c1.4-1.4,1.5-4.5,3.2-5.4c1.7-0.9,4.3,0.7,6.3,0.4
					c2-0.3,3.9-2.8,5.8-2.5c2,0.3,3.1,3.2,4.9,4c1.8,0.9,4.8,0,6.2,1.4c1.4,1.4,0.7,4.4,1.6,6.1c0.9,1.7,3.8,2.8,4.2,4.8
					c0.3,2-2,4-2.3,5.9c-0.3,2,1.4,4.6,0.6,6.3c-0.9,1.8-4,2-5.3,3.4c-1.4,1.4-1.5,4.5-3.2,5.4c-1.7,0.9-4.3-0.7-6.3-0.4
					c-2,0.3-3.9,2.8-5.8,2.5c-2-0.3-3.1-3.2-4.9-4c-1.8-0.9-4.8,0-6.2-1.4c-1.4-1.4-0.7-4.4-1.6-6.1c-0.9-1.7-3.8-2.8-4.2-4.8
					C58.6,67.6,61,65.6,61.3,63.7z"/>
			</g>
		</g>
		<g class="st21">
			<g>
				<path class="st22" d="M59,69.6c-0.3-2,2-4,2.3-5.9c0.3-2-1.4-4.6-0.6-6.3c0.9-1.8,4-2,5.3-3.4c1.4-1.4,1.5-4.5,3.2-5.4
					c1.7-0.9,4.3,0.7,6.3,0.4c2-0.3,3.9-2.8,5.8-2.5c2,0.3,3.1,3.2,4.9,4c1.8,0.9,4.8,0,6.2,1.4c0.5,0.5,0.7,1.1,0.8,1.9
					c-1.5-1.2-4.3-0.5-6-1.3c-1.7-0.9-2.9-3.7-4.9-4c-1.9-0.3-3.8,2.1-5.8,2.5c-2,0.3-4.6-1.3-6.3-0.4c-1.8,0.9-1.9,4-3.2,5.4
					c-1.4,1.4-4.5,1.6-5.3,3.4c-0.9,1.7,0.8,4.3,0.6,6.3c-0.3,1.8-2.4,3.7-2.3,5.5C59.4,70.8,59.1,70.2,59,69.6z"/>
			</g>
		</g>
		<g>
			<g>
				<path class="st19" d="M75.6,86.8c-1.4-0.2-2.4-1.3-3.3-2.4c-0.6-0.7-1.2-1.4-1.8-1.7c-0.6-0.3-1.5-0.4-2.5-0.4
					c-1.4-0.1-2.9-0.2-3.9-1.1c-1-1-1.1-2.4-1.2-3.9c-0.1-0.9-0.2-1.9-0.5-2.5c-0.3-0.6-1-1.1-1.7-1.7c-1.1-0.9-2.3-1.9-2.5-3.3
					c-0.2-1.4,0.6-2.8,1.3-4c0.5-0.8,0.9-1.5,1-2.2c0.1-0.7-0.1-1.6-0.4-2.5c-0.4-1.4-0.7-2.8-0.1-4.1c0.6-1.3,2-1.8,3.3-2.4
					c0.9-0.4,1.7-0.7,2.2-1.2c0.5-0.5,0.8-1.3,1.1-2.2c0.5-1.3,1.1-2.7,2.3-3.4c1.2-0.6,2.6-0.3,4,0c0.9,0.2,1.8,0.4,2.6,0.3
					c0.7-0.1,1.5-0.6,2.3-1.1c1.2-0.8,2.4-1.5,3.8-1.4c1.4,0.2,2.4,1.3,3.3,2.4c0.6,0.7,1.2,1.4,1.8,1.7c0.6,0.3,1.5,0.4,2.5,0.4
					c1.4,0.1,2.9,0.2,3.9,1.1c1,1,1.1,2.4,1.2,3.9c0.1,0.9,0.2,1.9,0.5,2.5c0.3,0.6,1,1.1,1.7,1.7c1.1,0.9,2.3,1.9,2.5,3.3
					c0.2,1.4-0.6,2.8-1.3,4c-0.5,0.8-0.9,1.5-1,2.2c-0.1,0.7,0.1,1.6,0.4,2.5c0.4,1.4,0.7,2.8,0.1,4.1c-0.6,1.3-2,1.8-3.3,2.4
					c-0.9,0.4-1.7,0.7-2.2,1.2c-0.5,0.5-0.8,1.3-1.1,2.2c-0.5,1.3-1.1,2.7-2.3,3.4c-1.2,0.6-2.6,0.3-4,0c-0.9-0.2-1.8-0.4-2.6-0.3
					c-0.7,0.1-1.5,0.6-2.3,1.1c-1.1,0.7-2.2,1.4-3.3,1.4C75.9,86.8,75.8,86.8,75.6,86.8z M84.6,83c1.1,0.3,2.2,0.5,2.9,0.2
					c0.7-0.4,1.1-1.4,1.6-2.5c0.4-1,0.8-2,1.5-2.7c0.7-0.7,1.7-1.2,2.7-1.6c1.1-0.5,2.1-0.9,2.5-1.6c0.4-0.7,0.1-1.8-0.2-2.9
					c-0.3-1-0.6-2.1-0.4-3.1c0.1-1,0.7-1.9,1.2-2.8c0.6-1,1.2-2,1.1-2.8c-0.1-0.8-1-1.6-2-2.3c-0.8-0.7-1.7-1.3-2.1-2.2
					c-0.5-0.9-0.6-2-0.7-3.1c-0.1-1.2-0.2-2.3-0.8-2.8c-0.6-0.6-1.7-0.6-2.9-0.7c-1.1-0.1-2.2-0.1-3.1-0.6c-0.9-0.4-1.6-1.3-2.3-2.1
					c-0.8-0.9-1.5-1.8-2.3-1.9c-0.8-0.1-1.7,0.5-2.7,1.1c-0.9,0.6-1.9,1.2-2.9,1.4c-1,0.2-2.1-0.1-3.2-0.3c-1.1-0.3-2.2-0.5-2.9-0.2
					c-0.7,0.4-1.1,1.4-1.6,2.5c-0.4,1-0.8,2-1.5,2.7c-0.7,0.7-1.7,1.2-2.7,1.6c-1.1,0.5-2.1,0.9-2.5,1.6c-0.4,0.7-0.1,1.8,0.2,2.9
					c0.3,1,0.6,2.1,0.4,3.1c-0.1,1-0.7,1.9-1.2,2.8c-0.6,1-1.2,2-1.1,2.8c0.1,0.8,1,1.6,2,2.3c0.8,0.7,1.7,1.3,2.1,2.2
					c0.5,0.9,0.6,2,0.7,3.1c0.1,1.2,0.2,2.3,0.8,2.8c0.6,0.6,1.7,0.6,2.9,0.7c1.1,0.1,2.2,0.1,3.1,0.6c0.9,0.4,1.6,1.3,2.3,2.1
					c0.8,0.9,1.5,1.8,2.3,1.9c0.8,0.1,1.7-0.5,2.7-1.1c0.9-0.6,1.9-1.2,2.9-1.4c0.2,0,0.5-0.1,0.7-0.1C83,82.6,83.8,82.8,84.6,83z"
					/>
			</g>
		</g>
		<g>
			<g>
				<g>
					<path class="st34" d="M133.8,61.7c-0.2-2,1.6-4.5,0.8-6.3c-0.8-1.8-3.9-2.2-5.2-3.6c-1.3-1.5-1.3-4.6-3-5.6
						c-1.7-1-4.4,0.5-6.3,0.1c-2-0.4-3.8-2.9-5.7-2.7c-2,0.2-3.3,3-5.1,3.8c-1.8,0.8-4.8-0.2-6.2,1.1c-1.5,1.3-0.9,4.3-1.9,6.1
						c-1,1.7-3.9,2.6-4.4,4.6c-0.4,2,1.9,4.1,2,6c0.2,2-1.6,4.5-0.8,6.3c0.8,1.8,3.9,2.2,5.2,3.6c1.3,1.5,1.3,4.6,3,5.6
						c1.7,1,4.4-0.5,6.3-0.1c2,0.4,3.8,2.9,5.7,2.7c2-0.2,3.3-3,5.1-3.8c1.8-0.8,4.8,0.2,6.2-1.1c1.5-1.3,0.9-4.3,1.9-6.1
						c1-1.7,3.9-2.6,4.4-4.6C136.2,65.7,133.9,63.6,133.8,61.7z"/>
				</g>
			</g>
			<g>
				<g>
					<path class="st24" d="M114.6,82.6c-0.7-0.5-1.5-1.1-2.2-1.2s-1.6,0-2.5,0.2c-1.4,0.3-2.9,0.5-4.1-0.2c-1.3-0.7-1.8-2.2-2.2-3.6
						c-0.3-0.9-0.6-1.7-1-2.2c-0.4-0.5-1.3-0.9-2.1-1.3c-1.2-0.6-2.7-1.3-3.2-2.6c-0.6-1.3-0.1-2.7,0.3-4.1c0.3-0.9,0.5-1.8,0.5-2.4
						c-0.1-0.6-0.5-1.4-0.9-2.2c-0.7-1.2-1.4-2.6-1.1-4.1c0.3-1.5,1.6-2.4,2.7-3.2c0.7-0.5,1.4-1.1,1.7-1.6c0.3-0.6,0.5-1.5,0.6-2.4
						c0.2-1.4,0.4-2.9,1.5-3.9c1.1-1,2.6-1,4-1c0.9,0,1.8,0,2.4-0.3c0.6-0.3,1.2-0.9,1.8-1.6c1-1,2-2.2,3.5-2.3
						c1.4-0.1,2.6,0.7,3.8,1.5c0.7,0.5,1.5,1.1,2.2,1.2c0.7,0.2,1.6,0,2.5-0.2c1.4-0.3,2.9-0.5,4.1,0.2c1.3,0.7,1.8,2.2,2.2,3.6
						c0.3,0.9,0.6,1.7,1,2.2c0.4,0.5,1.3,0.9,2.1,1.3c1.2,0.6,2.7,1.3,3.2,2.6c0.6,1.3,0.1,2.7-0.3,4.1c-0.3,0.9-0.5,1.8-0.5,2.4
						c0.1,0.6,0.5,1.4,0.9,2.2c0.7,1.2,1.4,2.6,1.1,4.1l0,0c-0.3,1.5-1.6,2.4-2.7,3.2c-0.7,0.5-1.4,1.1-1.7,1.6
						c-0.3,0.6-0.5,1.5-0.6,2.4c-0.2,1.4-0.4,2.9-1.5,3.9c-1.1,1-2.6,1-4,1c-0.9,0-1.8,0-2.4,0.3c-0.6,0.3-1.2,0.9-1.8,1.6
						c-1,1-2,2.2-3.5,2.3c-0.1,0-0.2,0-0.3,0C116.8,84.2,115.7,83.4,114.6,82.6z M134.9,67.5c0.2-0.8-0.4-1.8-0.9-2.8
						c-0.5-0.9-1-1.9-1.1-2.9c-0.1-1,0.2-2.1,0.6-3.2c0.3-1.1,0.7-2.1,0.4-2.8c-0.3-0.7-1.3-1.2-2.4-1.7c-1-0.5-2-0.9-2.7-1.7
						c-0.7-0.8-1-1.8-1.4-2.8c-0.4-1.1-0.7-2.2-1.4-2.6c-0.6-0.4-1.7-0.2-2.8,0c-1.1,0.2-2.2,0.4-3.2,0.2c-1.1-0.2-2-0.9-2.9-1.5
						c-0.9-0.7-1.8-1.3-2.5-1.2c-0.8,0.1-1.5,0.9-2.3,1.7c-0.7,0.8-1.5,1.6-2.4,2c-1,0.4-2.1,0.4-3.1,0.4c-1.2,0-2.3,0-2.8,0.5
						c-0.6,0.5-0.7,1.6-0.9,2.7c-0.1,1.1-0.3,2.2-0.8,3.1c-0.5,0.9-1.4,1.5-2.2,2.2c-1,0.7-1.8,1.4-2,2.2c-0.2,0.8,0.4,1.8,0.9,2.8
						c0.5,0.9,1,1.9,1.1,2.9c0.1,1-0.2,2.1-0.6,3.2c-0.3,1.1-0.7,2.1-0.4,2.8c0.3,0.7,1.3,1.2,2.4,1.7c1,0.5,2,0.9,2.7,1.7
						c0.7,0.8,1,1.8,1.4,2.8c0.4,1.1,0.7,2.2,1.4,2.6c0.6,0.4,1.7,0.2,2.8,0c1.1-0.2,2.2-0.4,3.2-0.2c1.1,0.2,2,0.9,2.9,1.5
						c0.9,0.7,1.8,1.3,2.5,1.2c0.8-0.1,1.5-0.9,2.3-1.7c0.7-0.8,1.5-1.6,2.4-2c1-0.4,2.1-0.4,3.1-0.4c1.2,0,2.3,0,2.8-0.5
						c0.6-0.5,0.7-1.6,0.9-2.7c0.1-1.1,0.3-2.2,0.8-3.1c0.5-0.9,1.4-1.5,2.2-2.2C133.8,69,134.7,68.3,134.9,67.5L134.9,67.5z"/>
				</g>
			</g>
		</g>
		<g>
			<g>
				<path class="st35" d="M133.8,61.7c-0.2-2,1.6-4.5,0.8-6.3c-0.8-1.8-3.9-2.2-5.2-3.6c-1.3-1.5-1.3-4.6-3-5.6
					c-1.7-1-4.4,0.5-6.3,0.1c-2-0.4-3.8-2.9-5.7-2.7c-2,0.2-3.3,3-5.1,3.8c-1.8,0.8-4.8-0.2-6.2,1.1c-1.5,1.3-0.9,4.3-1.9,6.1
					c-1,1.7-3.9,2.6-4.4,4.6c-0.4,2,1.9,4.1,2,6c0.2,2-1.6,4.5-0.8,6.3c0.8,1.8,3.9,2.2,5.2,3.6c1.3,1.5,1.3,4.6,3,5.6
					c1.7,1,4.4-0.5,6.3-0.1c2,0.4,3.8,2.9,5.7,2.7c2-0.2,3.3-3,5.1-3.8c1.8-0.8,4.8,0.2,6.2-1.1c1.5-1.3,0.9-4.3,1.9-6.1
					c1-1.7,3.9-2.6,4.4-4.6C136.2,65.7,133.9,63.6,133.8,61.7z"/>
			</g>
		</g>
		<g class="st21">
			<g>
				<path class="st22" d="M135.7,67.9c0.4-2-1.9-4.1-2-6c-0.2-2,1.6-4.5,0.8-6.3c-0.8-1.8-3.9-2.2-5.2-3.6c-1.3-1.5-1.3-4.6-3-5.6
					c-1.7-1-4.4,0.5-6.3,0.1c-2-0.4-3.8-2.9-5.7-2.8c-2,0.2-3.3,3-5.1,3.8c-1.8,0.8-4.8-0.2-6.2,1.1c-0.5,0.4-0.8,1.1-0.9,1.8
					c1.5-1.1,4.3-0.3,6.1-1c1.8-0.8,3.1-3.6,5.1-3.8c1.9-0.2,3.7,2.3,5.7,2.8c2,0.4,4.7-1.1,6.3-0.1c1.7,1,1.7,4.1,3,5.6
					c1.3,1.5,4.4,1.8,5.2,3.6c0.8,1.8-1,4.3-0.8,6.3c0.2,1.8,2.2,3.8,2.1,5.6C135.2,69,135.6,68.5,135.7,67.9z"/>
			</g>
		</g>
		<g>
			<g>
				<path class="st19" d="M114.7,82.6c-0.8-0.5-1.5-1.1-2.3-1.2c-0.7-0.2-1.7,0-2.6,0.2c-1.4,0.3-2.8,0.5-4-0.2
					c-1.2-0.7-1.7-2.1-2.2-3.5c-0.3-0.9-0.6-1.7-1-2.2c-0.5-0.5-1.3-0.9-2.1-1.3c-1.3-0.6-2.6-1.2-3.2-2.5c-0.6-1.3-0.1-2.7,0.3-4
					c0.3-0.9,0.6-1.8,0.5-2.5c-0.1-0.7-0.5-1.4-0.9-2.2c-0.7-1.2-1.4-2.6-1.1-4c0.3-1.4,1.6-2.4,2.7-3.2c0.7-0.6,1.4-1.1,1.8-1.6
					c0.4-0.6,0.5-1.5,0.6-2.5c0.2-1.4,0.4-2.9,1.4-3.8c1.1-0.9,2.5-1,4-1c0.9,0,1.8,0,2.5-0.3c0.6-0.3,1.2-0.9,1.9-1.6
					c1-1,2-2.1,3.4-2.3c1.4-0.1,2.6,0.7,3.7,1.5c0.8,0.5,1.5,1.1,2.3,1.2c0.7,0.2,1.7,0,2.6-0.2c1.4-0.3,2.8-0.5,4,0.2
					c1.2,0.7,1.7,2.1,2.2,3.5c0.3,0.9,0.6,1.7,1,2.2c0.5,0.5,1.3,0.9,2.1,1.3c1.3,0.6,2.6,1.2,3.2,2.5c0.6,1.3,0.1,2.7-0.3,4
					c-0.3,0.9-0.6,1.8-0.5,2.5c0.1,0.7,0.5,1.4,0.9,2.2c0.7,1.2,1.4,2.6,1.1,4l0,0c-0.3,1.4-1.6,2.4-2.7,3.2
					c-0.7,0.6-1.4,1.1-1.8,1.6c-0.4,0.6-0.5,1.5-0.6,2.5c-0.2,1.4-0.4,2.9-1.4,3.8c-1.1,0.9-2.5,1-4,1c-0.9,0-1.8,0-2.5,0.3
					c-0.6,0.3-1.2,0.9-1.9,1.6c-1,1-2,2.1-3.4,2.3c-0.1,0-0.2,0-0.3,0C116.9,84.1,115.8,83.3,114.7,82.6z M135,67.5
					c0.2-0.8-0.4-1.8-0.9-2.9c-0.5-0.9-1-1.9-1.1-2.9c-0.1-1,0.2-2.1,0.5-3.1c0.3-1.1,0.7-2.2,0.4-2.9c-0.3-0.7-1.3-1.2-2.4-1.7
					c-1-0.5-2-0.9-2.6-1.7c-0.7-0.8-1-1.8-1.4-2.8c-0.4-1.1-0.7-2.2-1.4-2.6c-0.7-0.4-1.7-0.2-2.9,0c-1.1,0.2-2.2,0.4-3.2,0.2
					c-1-0.2-2-0.9-2.8-1.5c-0.9-0.7-1.8-1.3-2.6-1.2c-0.8,0.1-1.6,0.9-2.4,1.8c-0.7,0.8-1.5,1.6-2.4,2c-0.9,0.4-2,0.4-3.1,0.4
					c-1.2,0-2.3,0-2.9,0.6c-0.6,0.5-0.7,1.6-0.9,2.8c-0.1,1.1-0.3,2.2-0.8,3.1c-0.5,0.9-1.4,1.5-2.2,2.1c-1,0.7-1.9,1.4-2.1,2.2
					c-0.2,0.8,0.4,1.8,0.9,2.9c0.5,0.9,1,1.9,1.1,2.9c0.1,1-0.2,2.1-0.5,3.1c-0.3,1.1-0.7,2.2-0.4,2.9c0.3,0.7,1.3,1.2,2.4,1.7
					c1,0.5,2,0.9,2.6,1.7c0.7,0.8,1,1.8,1.4,2.8c0.4,1.1,0.7,2.2,1.4,2.6c0.7,0.4,1.7,0.2,2.9,0c1.1-0.2,2.2-0.4,3.2-0.2
					c1,0.2,2,0.9,2.8,1.5c0.9,0.7,1.8,1.3,2.6,1.2c0.8-0.1,1.6-0.9,2.4-1.8c0.7-0.8,1.5-1.6,2.4-2c0.9-0.4,2-0.4,3.1-0.4
					c1.2,0,2.3,0,2.9-0.6c0.6-0.5,0.7-1.6,0.9-2.8c0.1-1.1,0.3-2.2,0.8-3.1c0.5-0.9,1.4-1.5,2.2-2.1C133.9,69,134.8,68.3,135,67.5
					L135,67.5z"/>
			</g>
		</g>
		<g class="st32">
			<g>
				<ellipse class="st36" cx="89.8" cy="77" rx="1.6" ry="1.1"/>
			</g>
		</g>
		<g>
			<g>
				<path class="st37" d="M60,78.9L60,78.9c0-0.3,0-0.6,0.1-0.9c0.1-1,0.4-2,0.7-3c5.8-16.7,18.8-29.4,34.6-29.4
					c14.4,0,26.8,10.1,33,24.9l0,0c1.4,3.4,2.5,7,3.2,10.9v0c0,0.2,0.1,0.5,0.1,0.7c0,0,0,0,0,0c0.1,0.6,0.3,1.2,0.5,1.8
					c0,0,0,0,0,0c0,0.1,0.1,0.2,0.1,0.3c0,0.1,0,0.1,0.1,0.2c0,0.1,0.1,0.2,0.1,0.3c0,0,0,0,0,0.1c0,0.1,0.1,0.2,0.1,0.3
					c0,0,0,0.1,0.1,0.1c0,0.1,0.1,0.1,0.1,0.2c0,0.1,0.1,0.1,0.1,0.2c0,0.1,0.1,0.2,0.1,0.3c0.3,0.5,0.6,1,1,1.5
					c0.1,0.1,0.1,0.2,0.2,0.2c0,0.1,0.1,0.1,0.1,0.2c0,0,0.1,0.1,0.1,0.1c0,0.1,0.1,0.1,0.1,0.2c0,0.1,0.1,0.1,0.1,0.2
					c0,0,0.1,0.1,0.1,0.1c0,0,0.1,0.1,0.1,0.1c0.1,0.1,0.1,0.1,0.2,0.2c0.1,0.1,0.2,0.2,0.3,0.2c0,0,0,0,0,0
					c0.1,0.1,0.2,0.2,0.3,0.3c0,0,0.1,0.1,0.1,0.1c0,0,0.1,0.1,0.1,0.1c0.1,0,0.1,0.1,0.2,0.1c0.1,0,0.1,0.1,0.2,0.1
					c0.1,0,0.1,0.1,0.2,0.1c0.5,0.3,0.9,0.6,1.4,0.8c0.1,0,0.1,0.1,0.2,0.1c0.3,0.1,0.5,0.2,0.8,0.3c0.1,0,0.1,0,0.2,0
					c0.1,0,0.1,0,0.2,0.1c0.1,0,0.1,0,0.2,0c0,0,0,0,0,0c0.1,0,0.1,0,0.2,0c0.1,0,0.1,0,0.2,0c0.3,0,0.6,0.1,0.9,0.1
					c0.1,0,0.1,0,0.2,0c0.1,0,0.2,0,0.3,0h-12.4l0,0H69.9c-0.3,0-0.7,0-1-0.1c-0.2,0-0.3,0-0.5-0.1c-0.8-0.1-1.6-0.4-2.4-0.8
					c-0.1-0.1-0.2-0.1-0.4-0.2c-0.2-0.1-0.5-0.3-0.7-0.4c-0.1-0.1-0.3-0.2-0.4-0.3c-0.3-0.2-0.5-0.4-0.8-0.6
					c-0.1-0.1-0.2-0.2-0.4-0.4c0,0-0.1-0.1-0.1-0.1c-0.1-0.1-0.2-0.2-0.3-0.3c-0.1-0.1-0.2-0.2-0.2-0.3c-0.1-0.1-0.2-0.2-0.3-0.3
					c-0.4-0.5-0.8-1.1-1.1-1.8c-0.1-0.2-0.2-0.3-0.2-0.5c-0.2-0.4-0.4-0.8-0.5-1.3c-0.5-1.4-0.7-2.9-0.7-4.4
					C60,79.4,60,79.1,60,78.9z"/>
			</g>
		</g>
		<g class="st21">
			<g>
				<path class="st22" d="M60,78.9L60,78.9c0-0.3,0-0.6,0.1-0.9c0.1-1,0.4-2,0.7-3c5.8-16.7,18.8-29.4,34.6-29.4
					c14.4,0,26.8,10.1,33,24.9l0,0c1.4,3.4,2.5,7,3.2,10.9v0c0,0.2,0.1,0.5,0.1,0.7c0,0,0,0,0,0c0,0.1,0,0.2,0.1,0.4
					c-0.1,0-0.3,0.1-0.4,0.1c-0.7-3.4-1.7-6.7-3-9.7l0,0c-6.1-14.8-18.6-24.9-33-24.9c-15.8,0-28.8,12.7-34.6,29.4
					c-0.4,1-0.6,2-0.7,3c0,0.2,0,0.4-0.1,0.6c0-0.4-0.1-0.9,0-1.4C60,79.4,60,79.1,60,78.9z"/>
			</g>
		</g>
		<g class="st26">
			<g>
				<path class="st27" d="M60.8,75c0.4-0.8,0.2,0,0,1C60.7,75.7,60.7,75.4,60.8,75z"/>
			</g>
		</g>
		<g>
			<g>
				<path class="st19" d="M128.7,92.1H69.9c-3.3,0-6.3-1.7-8.4-4.6C59,84,58.5,79.2,60,74.7c3-8.6,7.8-16,13.8-21.3
					c6.4-5.6,13.9-8.6,21.6-8.6c8.7,0,17.2,3.7,23.9,10.4c6.6,6.6,11.2,15.8,13.1,26c0,0,0,0,0,0.1c0,0.2,0.1,0.5,0.1,0.7
					c0,0,0,0,0,0v0c1,5,4.6,8.5,8.7,8.5c0.4,0,0.8,0.4,0.8,0.8c0,0.4-0.4,0.8-0.8,0.8h-12.4C128.7,92.1,128.7,92.1,128.7,92.1z
					 M130.9,82.3C130.9,82.3,130.9,82.2,130.9,82.3c-0.1-0.3-0.1-0.5-0.1-0.8c0,0,0,0,0,0c-3.7-20.3-18.5-35-35.4-35
					c-14.5,0-27.8,11.3-33.9,28.8c-1.4,4-0.9,8.2,1.3,11.3c1.7,2.5,4.3,3.9,7,3.9h58.9c0,0,0.1,0,0.1,0h7.1
					C133.5,88.8,131.6,85.9,130.9,82.3z M132.5,81.9L132.5,81.9L132.5,81.9z M132.5,81.9C132.5,81.9,132.5,81.9,132.5,81.9
					C132.5,81.9,132.5,81.9,132.5,81.9z"/>
			</g>
		</g>
		<g class="st26">
			<g>
				<path class="st22" d="M116.4,61.1c2.6,3.3,3.3,7,1.6,8.4c-1.7,1.3-3-2-5.6-5.3c-2.6-3.3-5.5-5.3-3.8-6.7
					C110.4,56.2,113.8,57.8,116.4,61.1z"/>
			</g>
		</g>
		<g class="st26">
			<g>
				<circle class="st27" cx="75.5" cy="64.1" r="0.6"/>
			</g>
		</g>
		<g class="st26">
			<g>
				<circle class="st27" cx="122.5" cy="75.9" r="0.6"/>
			</g>
		</g>
		<g class="st26">
			<g>
				<circle class="st27" cx="79.5" cy="76.6" r="0.6"/>
			</g>
		</g>
		<g class="st26">
			<g>
				<circle class="st27" cx="115" cy="85.2" r="0.6"/>
			</g>
		</g>
		<g class="st26">
			<g>
				<circle class="st27" cx="102.8" cy="51.9" r="0.6"/>
			</g>
		</g>
		<g class="st26">
			<g>
				<circle class="st27" cx="95.3" cy="61.8" r="0.6"/>
			</g>
		</g>
		<g class="st26">
			<g>
				<circle class="st27" cx="104.5" cy="81.9" r="0.6"/>
			</g>
		</g>
		<g class="st26">
			<g>
				<circle class="st27" cx="88.7" cy="56.3" r="0.6"/>
			</g>
		</g>
		<g class="st26">
			<g>
				<ellipse class="st27" cx="78.6" cy="61.3" rx="0.9" ry="0.9"/>
			</g>
		</g>
		<g class="st26">
			<g>
				<ellipse class="st27" cx="66.2" cy="83.3" rx="0.9" ry="0.9"/>
			</g>
		</g>
		<g class="st26">
			<g>
				<ellipse class="st27" cx="88.3" cy="86.9" rx="0.9" ry="0.9"/>
			</g>
		</g>
		<g>
			<g>
				<g>
					<g>
						<path class="st19" d="M82.5,73.5c1.9-0.1,3.3-2.3,3.2-5c-0.1-2.7-1.7-4.8-3.6-4.8c-1.9,0.1-3.3,2.3-3.2,5
							C79,71.4,80.6,73.5,82.5,73.5z"/>
					</g>
				</g>
			</g>
			<g>
				<g>
					<path class="st22" d="M83.2,69.4c0.7,0,1.1-0.9,1.1-1.9c0-1-0.6-1.8-1.3-1.8c-0.7,0-1.1,0.9-1.1,1.9
						C81.9,68.6,82.5,69.4,83.2,69.4z"/>
				</g>
				<g>
					<path class="st19" d="M81.8,67.6L81.8,67.6c0-1.1,0.5-1.9,1.2-2c0.4,0,0.7,0.2,1,0.5c0.2,0.3,0.4,0.8,0.4,1.3
						c0,1.1-0.5,1.9-1.2,2c0,0,0,0,0,0C82.4,69.5,81.8,68.6,81.8,67.6z M83,65.9c-0.6,0-1,0.8-1,1.7l0,0c0,0.9,0.6,1.7,1.1,1.6
						c0.6,0,1-0.8,1-1.7c0-0.5-0.2-0.9-0.4-1.2C83.6,66,83.3,65.9,83,65.9C83,65.9,83,65.9,83,65.9z"/>
				</g>
			</g>
			<g>
				<g>
					<g>
						<path class="st19" d="M97.2,70.6c0,3.3-2.1,6.8-4.3,6.8s-3.9-3.6-3.9-6.9L97.2,70.6z"/>
					</g>
				</g>
				<g>
					<g>
						<path class="st38" d="M92.9,77.3c1.2,0,2.4-1,3.2-2.5c-0.8-0.8-1.9-1.4-3.3-1.4c-1.2,0-2.3,0.4-3.1,1.1
							C90.4,76.1,91.5,77.3,92.9,77.3z"/>
					</g>
				</g>
				<g>
					<g>
						<path class="st19" d="M92.9,78.3c-1.4,0-2.7-1-3.7-2.7c-0.8-1.5-1.2-3.3-1.2-5.1c0-0.5,0.4-1,1-1c0,0,0,0,0,0l8.2,0.1
							c0.3,0,0.5,0.1,0.7,0.3c0.2,0.2,0.3,0.4,0.3,0.7C98.2,74.3,95.9,78.3,92.9,78.3C92.9,78.3,92.9,78.3,92.9,78.3z M90,71.5
							c0.1,1.1,0.4,2.3,0.9,3.2c0.6,1.1,1.3,1.7,2,1.7c0,0,0,0,0,0c1.4,0,2.9-2.3,3.2-4.8L90,71.5z"/>
					</g>
				</g>
			</g>
			<g>
				<g>
					<g>
						<path class="st19" d="M104.3,74c-1.9-0.1-3.3-2.3-3.2-5c0.1-2.7,1.7-4.8,3.6-4.8c1.9,0.1,3.3,2.3,3.2,5
							C107.7,72,106.1,74.1,104.3,74z"/>
					</g>
				</g>
			</g>
			<g>
				<g>
					<path class="st22" d="M103.6,69.9c-0.7,0-1.1-0.9-1.1-1.9c0-1,0.6-1.8,1.3-1.8c0.7,0,1.1,0.9,1.1,1.9
						C104.8,69.1,104.3,69.9,103.6,69.9z"/>
				</g>
				<g>
					<path class="st19" d="M103.6,70c-0.7,0-1.3-0.9-1.2-2c0-0.5,0.2-1,0.4-1.3c0.3-0.4,0.6-0.6,1-0.5c0.7,0,1.3,0.9,1.2,2l0,0
						C104.9,69.2,104.3,70,103.6,70C103.6,70,103.6,70,103.6,70z M104.8,68.1c0-0.9-0.4-1.7-1-1.7c-0.3,0-0.5,0.1-0.8,0.4
						c-0.2,0.3-0.4,0.7-0.4,1.2c0,0.9,0.4,1.7,1,1.7C104.2,69.8,104.7,69.1,104.8,68.1L104.8,68.1z"/>
				</g>
			</g>
		</g>
	</g>
</g>
</svg>
