<?xml version="1.0" encoding="utf-8"?>
<!-- Generator: Adobe Illustrator 24.3.0, SVG Export Plug-In . SVG Version: 6.00 Build 0)  -->
<svg version="1.1" id="Layer_1" xmlns:v="https://vecta.io/nano"
	 xmlns="http://www.w3.org/2000/svg" xmlns:xlink="http://www.w3.org/1999/xlink" x="0px" y="0px" viewBox="0 0 64 64"
	 style="enable-background:new 0 0 64 64;" xml:space="preserve">
<style type="text/css">
	.st0{fill:#FBAB3D;}
	.st1{fill:#EF3D33;}
	.st2{fill-rule:evenodd;clip-rule:evenodd;fill:#633001;}
	.st3{fill:#F8B879;}
	.st4{fill:#350E29;}
	.st5{fill:#E83C48;}
	.st6{opacity:0.55;}
	.st7{fill:#FFFFFF;}
	.st8{opacity:0.16;}
	.st9{fill:#6B184E;}
	.st10{fill:#D93541;}
	.st11{opacity:0.25;}
	.st12{fill:#6D1837;}
	.st13{fill:#FEC92B;}
	.st14{fill:none;}
	.st15{fill:#D76630;}
	.st16{fill:#611840;}
	.st17{opacity:0.3;}
	.st18{opacity:0.65;}
	.st19{fill:#72A88E;}
	.st20{fill:#85BE54;}
	.st21{fill:#E66E5F;}
	.st22{fill:#FAB615;}
	.st23{fill:#E8317A;}
	.st24{fill:#623312;}
</style>
<path class="st0" d="M61,22.5c0.6,0.6,0.7,1.7,0.2,2.4c-9.5,13.6-21.3,25.5-34.8,35.1l-1.1,0.8c-0.8,0.6-1.9,0.5-2.5-0.2L18,55.8
	c2.9-3,2.8-7.7-0.2-10.6c-2.9-2.8-7.5-2.8-10.5,0l-4.4-4.4c-0.8-0.8-0.7-2.2,0.2-2.9l1.1-0.8c13.2-9.4,24.7-21,34-34.3
	c0.6-0.8,1.7-1,2.5-0.4C40.9,2.4,41,2.5,41,2.6l4.5,4.5c-2.9,3-2.8,7.7,0.2,10.6c2.9,2.8,7.5,2.8,10.4,0L61,22.5L61,22.5z"/>
<path class="st1" d="M63.2,24.3L46,46L23.7,62.9l-4.3-4.3l-1.5-1.9l1.5-2.2l0.5-2.2l-0.3-2.4l-0.9-2.2l-1.5-1.8l-1.8-1.2L13.6,44
	h-2.4l-2.5,0.9l-1.5,1.3l-3.6-4.3l5.8-0.9c18-2.7,35.1-10,49.5-21.1L63.2,24.3L63.2,24.3z"/>
<g>
	<path class="st2" d="M15.8,56.2c0-0.6,0.3-1.2,0.7-1.7l0,0c2-2,1.9-5.3-0.2-7.3c-2-1.9-5.1-1.9-7.1,0l0,0c-0.9,0.9-2.4,0.9-3.4,0
		c0,0,0,0,0,0l-4.6-4.6c-1.7-1.7-1.7-4.4,0-6.1c0.2-0.2,0.3-0.3,0.5-0.5l1.1-0.8l1.4,1.9L3.2,38c-1,0.7-1.1,2.1-0.2,2.9l4.6,4.6l0,0
		c2.9-2.9,7.7-2.9,10.6,0c2.9,2.9,2.9,7.7,0,10.6l0,0l4.6,4.6c0.7,0.7,1.8,0.8,2.5,0.2l1.1-0.8c13.5-9.6,25.3-21.5,34.8-35.1
		c0.5-0.7,0.4-1.8-0.2-2.4l-4.8-4.8L56.1,18c-3,2.9-7.7,2.9-10.6-0.1c-2.9-2.9-2.9-7.6,0-10.5l0.1-0.1L41,2.7
		c-0.7-0.7-1.9-0.7-2.6,0c-0.1,0.1-0.1,0.2-0.2,0.2C29,16.2,17.5,27.8,4.3,37.2l-1.4-1.9c13-9.3,24.3-20.7,33.4-33.7
		c1.3-1.9,4-2.4,5.9-1c0.2,0.1,0.4,0.3,0.6,0.5l4.5,4.5c0.9,0.9,0.9,2.4,0,3.4c0,0,0,0,0,0l0,0c-2,2-1.9,5.3,0.2,7.3
		c2,1.9,5.1,1.9,7.1,0l0,0c0.9-0.9,2.4-1,3.4,0c0,0,0,0,0,0l4.8,4.8c1.5,1.5,1.7,3.8,0.5,5.4c-9.7,13.8-21.7,25.9-35.4,35.7
		l-1.1,0.8c-1.7,1.2-4.1,1-5.6-0.5l-4.6-4.6C16.1,57.4,15.8,56.8,15.8,56.2L15.8,56.2z"/>
	<g>
		<path id="A" class="st2" d="M32,11l1.1,1.1c0.5,0.5,0.5,1.2,0,1.7s-1.2,0.5-1.7,0l-1.1-1.1c-0.5-0.5-0.5-1.2,0-1.7
			S31.5,10.5,32,11z"/>
	</g>
	<g>
		<path id="A_1_" class="st2" d="M36.4,15.4l1.1,1.1c0.5,0.5,0.5,1.2,0,1.7c-0.5,0.5-1.2,0.5-1.7,0l-1.1-1.1c-0.5-0.5-0.5-1.2,0-1.7
			S35.9,15,36.4,15.4z"/>
	</g>
	<g>
		<path id="B" class="st2" d="M41.9,22.6c-0.5,0.5-1.2,0.5-1.7,0c0,0,0,0,0,0l-1.3-1.3c-0.5-0.5-0.5-1.2,0-1.7
			c0.5-0.5,1.2-0.5,1.7,0l1.3,1.3C42.3,21.4,42.3,22.1,41.9,22.6C41.9,22.6,41.9,22.6,41.9,22.6z"/>
	</g>
	<g>
		<path id="B_1_" class="st2" d="M46.3,27c-0.5,0.5-1.2,0.5-1.7,0c0,0,0,0,0,0l-1.3-1.3c-0.5-0.5-0.5-1.2,0-1.7
			c0.5-0.5,1.2-0.5,1.7,0l1.3,1.3C46.8,25.8,46.8,26.5,46.3,27C46.3,27,46.3,27,46.3,27z"/>
	</g>
	<path class="st2" d="M49.5,28.5l1.1,1.1c0.5,0.5,0.5,1.2,0,1.7c-0.5,0.5-1.2,0.5-1.7,0l-1.1-1.1c-0.5-0.5-0.5-1.2,0-1.7
		C48.2,28,49,28,49.5,28.5L49.5,28.5z"/>
	<g>
		<path id="A_2_" class="st2" d="M53.9,32.9l1.1,1.1c0.5,0.5,0.5,1.2,0,1.7s-1.2,0.5-1.7,0l-1.1-1.1c-0.5-0.5-0.5-1.2,0-1.7
			S53.4,32.4,53.9,32.9z"/>
	</g>
</g>
<g>
	<g>
		<g>
			<g>
				<path class="st3" d="M-282.7,282.2h-86c-4.2,0-7.3-4.6-6.7-9.7c3.8-29.6,24.6-52.3,49.7-52.3c25.1,0,45.9,22.7,49.7,52.3
					C-275.4,277.6-278.6,282.2-282.7,282.2z"/>
			</g>
		</g>
		<g>
			<g>
				<path class="st4" d="M-282.7,283.3h-86c-2,0-3.9-0.9-5.4-2.6c-1.9-2.1-2.8-5.2-2.4-8.3c1.9-14.6,7.9-28.1,17.1-37.8
					c9.3-9.9,21.3-15.4,33.6-15.4c12.4,0,24.3,5.5,33.6,15.4c9.2,9.8,15.3,23.2,17.1,37.8c0.4,3.1-0.5,6.2-2.4,8.3
					C-278.8,282.4-280.7,283.3-282.7,283.3z M-325.7,221.4c-24.4,0-44.8,21.6-48.6,51.3c-0.3,2.5,0.4,4.9,1.8,6.6
					c1,1.2,2.4,1.8,3.7,1.8h86c1.4,0,2.7-0.6,3.7-1.8c1.5-1.7,2.2-4.1,1.8-6.6C-280.9,243-301.4,221.4-325.7,221.4z"/>
			</g>
		</g>
		<g>
			<g>
				<circle class="st5" cx="-297.9" cy="224.1" r="12.1"/>
			</g>
		</g>
		<g class="st6">
			<g>
				<path class="st7" d="M-286.1,226.6c0-0.5,0-0.9-0.1-1.4c-0.9-6.6-6.9-11.3-13.5-10.5c-5.2,0.7-9.3,4.6-10.3,9.5
					c-0.1-6.1,4.4-11.4,10.6-12.2c6.6-0.9,12.7,3.8,13.5,10.5C-285.7,224-285.8,225.3-286.1,226.6z"/>
			</g>
		</g>
		<g>
			<g>
				<path class="st4" d="M-297.9,237.3c-2.9,0-5.7-1-8-2.8c-2.8-2.2-4.6-5.3-5-8.8s0.5-7,2.6-9.7c2.2-2.8,5.3-4.6,8.8-5
					c3.5-0.4,7,0.5,9.7,2.6c2.8,2.2,4.6,5.3,5,8.8s-0.5,7-2.6,9.7s-5.3,4.6-8.8,5C-296.8,237.3-297.4,237.3-297.9,237.3z
					 M-297.9,213.1c-0.5,0-0.9,0-1.4,0.1c-2.9,0.4-5.5,1.9-7.3,4.2c-1.8,2.3-2.6,5.2-2.2,8.1c0.4,2.9,1.9,5.5,4.2,7.3
					c2.3,1.8,5.2,2.6,8.1,2.2c2.9-0.4,5.5-1.9,7.3-4.2s2.6-5.2,2.2-8.1c-0.4-2.9-1.9-5.5-4.2-7.3
					C-293.1,213.9-295.5,213.1-297.9,213.1z"/>
			</g>
		</g>
		<g class="st8">
			<g>
				<path class="st9" d="M-282.7,282.2h-86c-4.2,0-7.3-4.6-6.7-9.7c3.8-29.6,24.6-52.3,49.7-52.3c25.1,0,45.9,22.7,49.7,52.3
					C-275.4,277.6-278.6,282.2-282.7,282.2z"/>
			</g>
		</g>
		<g>
			<g>
				<circle class="st10" cx="-355.6" cy="249.7" r="15"/>
			</g>
		</g>
		<g>
			<g>
				<circle class="st5" cx="-355.6" cy="249.7" r="15"/>
			</g>
		</g>
		<g class="st11">
			<g>
				<path class="st12" d="M-340.6,249.7c0,8.3-6.7,15-15,15s-15-6.7-15-15c0-1.6,0.2-3.1,0.7-4.6c1.9,6.1,7.6,10.6,14.3,10.6
					c6.7,0,12.4-4.4,14.3-10.4C-340.8,246.7-340.6,248.2-340.6,249.7z"/>
			</g>
		</g>
		<g class="st6">
			<g>
				<path class="st7" d="M-341.4,254.7c0.1-0.6,0.1-1.1,0.1-1.7c0-8.3-6.7-15-15-15c-6.6,0-12.1,4.2-14.2,10.1
					c0.8-7.5,7.2-13.3,14.9-13.3c8.3,0,15,6.7,15,15C-340.6,251.5-340.9,253.1-341.4,254.7z"/>
			</g>
		</g>
		<g>
			<g>
				<path class="st4" d="M-355.6,265.8c-8.9,0-16.1-7.2-16.1-16.1c0-8.9,7.2-16.1,16.1-16.1c8.9,0,16.1,7.2,16.1,16.1
					C-339.5,258.6-346.7,265.8-355.6,265.8z M-355.6,235.8c-7.7,0-13.9,6.2-13.9,13.9c0,7.7,6.2,13.9,13.9,13.9s13.9-6.2,13.9-13.9
					C-341.7,242.1-347.9,235.8-355.6,235.8z"/>
			</g>
		</g>
		<g>
			<g>
				<path class="st13" d="M-313.5,242.1l-14.2-3.2c-2.7-0.6-4.4-3.2-3.8-5.9l4-17.7c0.6-2.7,3.2-4.4,5.9-3.8l14.2,3.2
					c2.7,0.6,4.4,3.2,3.8,5.9l-4,17.7C-308.2,241-310.9,242.7-313.5,242.1z"/>
			</g>
		</g>
		<g class="st6">
			<g>
				<path class="st7" d="M-319.1,212.1c-2.7-0.6-5.3,1.1-5.9,3.8l-4,17.7c-0.6,2.7,1.1,5.3,3.8,5.9l-2.5-0.6
					c-2.7-0.6-4.4-3.2-3.8-5.9l4-17.7c0.6-2.7,3.2-4.4,5.9-3.8L-319.1,212.1z"/>
			</g>
		</g>
		<g>
			<g>
				<path class="st14" d="M-313.5,242.1l-14.2-3.2c-2.7-0.6-4.4-3.2-3.8-5.9l4-17.7c0.6-2.7,3.2-4.4,5.9-3.8l14.2,3.2
					c2.7,0.6,4.4,3.2,3.8,5.9l-4,17.7C-308.2,241-310.9,242.7-313.5,242.1z"/>
			</g>
		</g>
		<g>
			<g>
				<path class="st4" d="M-312.5,243.3c-0.4,0-0.9,0-1.3-0.1l0,0l-14.2-3.2c-3.3-0.7-5.3-4-4.6-7.2l4-17.7c0.7-3.3,4-5.3,7.2-4.6
					l14.2,3.2c3.3,0.7,5.3,4,4.6,7.2l-4,17.7C-307.2,241.4-309.7,243.3-312.5,243.3z M-313.3,241c1,0.2,2,0,2.9-0.5
					c0.9-0.6,1.5-1.4,1.7-2.4l4-17.7c0.5-2.1-0.8-4.1-2.9-4.6l-14.2-3.2c-1-0.2-2,0-2.9,0.5c-0.9,0.6-1.5,1.4-1.7,2.4l-4,17.7
					c-0.5,2.1,0.8,4.1,2.9,4.6L-313.3,241z"/>
			</g>
		</g>
		<g class="st11">
			<g>
				<path class="st9" d="M-347.6,256.4c-0.1-1.6-0.4-3.1-0.9-4.5l0.7-0.1L-347.6,256.4z"/>
			</g>
		</g>
		<g>
			<g>
				<g>
					<path class="st15" d="M-354.8,253.1c-2.8-1.2-6.9,0.7-7.2,4.4c-1.1-0.5-2.5-0.2-3.3,0.6c-0.9,0.8-1.2,2.2-0.8,3.3
						c-16.1,1.3-13.2,20.8,1,20.8l11.1,0l11.1-11.5l-1-19L-354.8,253.1z"/>
				</g>
				<g>
					<path class="st16" d="M-354.2,282.3L-354.2,282.3l-11.1,0c-7.5,0-11.8-5.5-12-10.6c-0.2-4.4,2.6-9.7,10.9-10.5
						c-0.3-1.2,0.1-2.5,0.9-3.3c0.9-0.8,2.2-1.1,3.3-0.7c0.2-1.6,1.1-3,2.5-3.8c1.5-0.9,3.4-1.1,4.9-0.5l10.8-1.3c0,0,0.1,0,0.1,0
						c0,0,0.1,0.1,0.1,0.1l1,19c0,0,0,0.1,0,0.1l-11.1,11.5C-354.1,282.3-354.1,282.3-354.2,282.3z M-363.2,257.4
						c-0.8,0-1.5,0.3-2.1,0.8c-0.8,0.8-1.2,2.1-0.8,3.1c0,0,0,0.1,0,0.1c0,0-0.1,0.1-0.1,0.1c-8.2,0.7-10.9,5.9-10.8,10.2
						c0.2,5,4.4,10.3,11.7,10.3l11.1,0l11-11.4l-1-18.7l-10.7,1.3c0,0-0.1,0-0.1,0c-1.4-0.6-3.2-0.4-4.6,0.5
						c-1.4,0.9-2.3,2.2-2.4,3.8c0,0.1,0,0.1-0.1,0.1c0,0-0.1,0-0.1,0C-362.5,257.5-362.9,257.4-363.2,257.4z"/>
				</g>
			</g>
			<g class="st11">
				<g>
					<path class="st12" d="M-343.6,270.8l-10.8,11.5l-10.8,0c-8.3,0-12.6-7.3-11.2-13.2c3.2,4.5,8.4,7.4,14.2,7.4
						c9.8,0,17.8-8.3,17.8-18.5c0-0.1,0-0.3,0-0.4L-343.6,270.8z"/>
				</g>
			</g>
			<g class="st6">
				<g>
					<path class="st7" d="M-353.6,253.2c-0.2,0.3-0.4,0.7-0.6,1.1c-2.2-0.1-4.7,1.2-5.5,3.7c-0.2,0.5-0.7,0.9-1.2,0.9
						c-0.8,0-1.7,0.3-2.3,0.8c-0.6,0.6-1,1.4-1,2.3c0,0.6-0.4,1.1-1,1.2c-11.5,1.7-12.2,13.4-5.3,18.4c-9.4-4-9.6-18.6,4.3-19.8
						c-0.4-1.1,0-2.5,0.8-3.3c0.9-0.8,2.2-1.1,3.3-0.6c0.3-3.7,4.5-5.6,7.2-4.4L-353.6,253.2z"/>
				</g>
			</g>
			<g>
				<g>
					<path class="st4" d="M-354.2,283.3L-354.2,283.3l-11.1,0c-8.1,0-12.7-5.9-13-11.5c-0.2-5,3.1-10.3,10.8-11.4
						c0-1.2,0.5-2.3,1.3-3.1c0.9-0.8,2.1-1.2,3.2-1.1c0.4-1.5,1.4-2.7,2.8-3.5c1.7-1,3.8-1.3,5.5-0.7l10.6-1.3
						c0.3,0,0.6,0.1,0.8,0.3c0.2,0.2,0.4,0.5,0.4,0.8l1,19c0,0.3-0.1,0.6-0.3,0.8l-11.1,11.5C-353.6,283.1-353.9,283.3-354.2,283.3z
						 M-363.2,258.3c-0.5,0-1.1,0.2-1.4,0.5c-0.6,0.5-0.8,1.4-0.5,2.1c0.1,0.3,0.1,0.7-0.1,1c-0.2,0.3-0.5,0.5-0.8,0.5
						c-7.6,0.6-10.1,5.3-9.9,9.2c0.2,4.6,4,9.4,10.8,9.4l10.7,0l10.5-10.8L-345,253l-9.7,1.2c-0.2,0-0.4,0-0.6-0.1
						c-1.1-0.5-2.6-0.3-3.8,0.4c-0.7,0.4-1.8,1.3-1.9,3.1c0,0.4-0.2,0.7-0.5,0.9c-0.3,0.2-0.7,0.2-1,0.1
						C-362.7,258.4-363,258.3-363.2,258.3z"/>
				</g>
			</g>
		</g>
		<g class="st17">
			<g>
				<ellipse class="st9" cx="-352.6" cy="262" rx="0.5" ry="0.5"/>
			</g>
		</g>
		<g class="st11">
			<g>
				<path class="st9" d="M-347.5,257.5l-0.1-1.1C-347.5,256.8-347.5,257.1-347.5,257.5z"/>
			</g>
		</g>
		<g class="st18">
			<g>
				<path class="st7" d="M-268.1,243.8c0-0.6,0-1.2,0.1-1.7c0.4-1.7,2.1-3.5,3.1-5.2c0,0.2,0.1,0.3,0.1,0.5
					C-264.6,239.6-267,241.7-268.1,243.8z"/>
			</g>
		</g>
		<g>
			<g>
				<g>
					<path class="st19" d="M-256.7,252.8c-0.5,2.7-4.4,4.2-5.6,6.5c-1.3,2.4-0.3,6.5-2.1,8.3c-1.9,1.9-6,0.7-8.4,1.9
						c-2.4,1.2-4,5.1-6.6,5.5c-2.6,0.4-5.2-2.9-7.9-3.4c-2.7-0.5-6.3,1.7-8.6,0.5c-2.4-1.3-2.6-5.5-4.4-7.4
						c-1.9-1.9-6.1-2.2-7.2-4.6c-1.2-2.4,1.1-5.9,0.8-8.6c-0.4-2.6-3.6-5.3-3.1-8s4.4-4.2,5.6-6.5c1.3-2.4,0.3-6.5,2.1-8.3
						c1.9-1.9,6-0.7,8.4-1.9c2.4-1.2,4-5.1,6.6-5.5c2.6-0.4,5.2,2.9,7.9,3.4c2.7,0.5,6.3-1.7,8.6-0.5c2.4,1.3,2.6,5.5,4.4,7.4
						c1.9,1.9,6.1,2.2,7.2,4.6c1.2,2.4-1.1,5.9-0.8,8.6C-259.5,247.4-256.3,250.1-256.7,252.8z"/>
				</g>
			</g>
			<g>
				<g>
					<path class="st9" d="M-279.9,276.3c-1.7,0-3.2-1-4.6-1.9c-1-0.7-2.1-1.4-3.1-1.5c-0.9-0.2-2.2,0.1-3.4,0.4
						c-1.9,0.4-3.8,0.9-5.5,0c-1.8-0.9-2.5-2.9-3.2-4.7c-0.5-1.2-0.9-2.3-1.5-2.9c-0.6-0.7-1.8-1.1-2.9-1.6
						c-1.7-0.7-3.7-1.6-4.6-3.3c-0.9-1.7-0.3-3.7,0.1-5.6c0.3-1.2,0.6-2.4,0.5-3.3c-0.1-0.9-0.7-1.9-1.4-2.9c-1-1.6-2.1-3.5-1.8-5.5
						c0.3-2,2-3.4,3.5-4.6c1-0.8,1.9-1.5,2.3-2.3c0.4-0.8,0.5-2.1,0.6-3.3c0.2-1.9,0.3-4,1.7-5.3c1.4-1.4,3.5-1.5,5.4-1.6
						c1.2-0.1,2.5-0.1,3.3-0.5c0.8-0.4,1.6-1.3,2.4-2.2c1.2-1.4,2.6-3,4.6-3.3c1.9-0.3,3.6,0.8,5.2,1.9c1,0.7,2.1,1.4,3.1,1.5
						c0.9,0.2,2.2-0.1,3.4-0.4c1.9-0.4,3.8-0.9,5.5,0c1.8,0.9,2.5,2.9,3.2,4.7c0.5,1.2,0.9,2.3,1.5,2.9c0.6,0.7,1.8,1.1,2.9,1.6
						c1.7,0.7,3.7,1.6,4.6,3.3c0.9,1.7,0.3,3.7-0.1,5.6c-0.3,1.2-0.6,2.4-0.5,3.3c0.1,0.9,0.7,1.9,1.4,2.9c1,1.6,2.1,3.5,1.8,5.5
						c-0.3,2-2,3.4-3.5,4.6c-1,0.8-1.9,1.5-2.3,2.3c-0.4,0.8-0.5,2.1-0.6,3.3c-0.2,1.9-0.3,4-1.7,5.3c-1.4,1.4-3.5,1.5-5.4,1.6
						c-1.2,0.1-2.5,0.1-3.3,0.5c-0.8,0.4-1.6,1.3-2.4,2.2c-1.2,1.4-2.6,3-4.6,3.3C-279.5,276.3-279.7,276.3-279.9,276.3z
						 M-288.2,270.3c0.3,0,0.7,0,1,0.1c1.4,0.2,2.7,1.1,4,1.9c1.3,0.8,2.5,1.6,3.5,1.5c1.1-0.2,2-1.3,3.1-2.5
						c0.9-1.1,1.9-2.2,3.2-2.9c1.3-0.6,2.8-0.7,4.2-0.8c1.6-0.1,3.1-0.2,3.8-0.9c0.7-0.7,0.9-2.2,1-3.8c0.1-1.5,0.3-3,0.9-4.2
						c0.6-1.2,1.8-2.1,2.9-3.1c1.2-1,2.4-2,2.6-3.1c0.2-1.1-0.6-2.4-1.4-3.8c-0.7-1.2-1.5-2.5-1.7-3.8c-0.2-1.4,0.2-2.9,0.6-4.3
						c0.4-1.5,0.8-3,0.3-3.9c-0.5-0.9-1.8-1.5-3.3-2.1c-1.3-0.6-2.7-1.2-3.7-2.2c-1-1-1.5-2.4-2-3.8c-0.6-1.5-1.1-2.9-2.1-3.4
						c-0.9-0.5-2.3-0.1-3.8,0.2c-1.5,0.3-3,0.7-4.4,0.4c-1.4-0.2-2.7-1.1-4-1.9c-1.3-0.8-2.5-1.6-3.5-1.5c-1.1,0.2-2,1.3-3.1,2.5
						c-0.9,1.1-1.9,2.2-3.2,2.9c-1.3,0.6-2.8,0.7-4.2,0.8c-1.6,0.1-3.1,0.2-3.8,0.9c-0.7,0.7-0.9,2.2-1,3.8c-0.1,1.5-0.3,3-0.9,4.2
						c-0.6,1.2-1.8,2.1-2.9,3.1c-1.2,1-2.4,2-2.6,3.1s0.6,2.4,1.4,3.8c0.7,1.2,1.5,2.5,1.7,3.8c0.2,1.4-0.2,2.9-0.6,4.3
						c-0.4,1.5-0.8,3-0.3,3.9c0.5,0.9,1.8,1.5,3.3,2.1c1.3,0.6,2.7,1.2,3.7,2.2c1,1,1.5,2.4,2,3.8c0.6,1.5,1.1,2.9,2.1,3.4
						c0.9,0.5,2.3,0.1,3.8-0.2C-290.5,270.6-289.3,270.3-288.2,270.3z"/>
				</g>
			</g>
		</g>
		<g>
			<g>
				<path class="st20" d="M-256.7,252.8c-0.5,2.7-4.4,4.2-5.6,6.5c-1.3,2.4-0.3,6.5-2.1,8.3c-1.9,1.9-6,0.7-8.4,1.9
					c-2.4,1.2-4,5.1-6.6,5.5c-2.6,0.4-5.2-2.9-7.9-3.4c-2.7-0.5-6.3,1.7-8.6,0.5c-2.4-1.3-2.6-5.5-4.4-7.4c-1.9-1.9-6.1-2.2-7.2-4.6
					c-1.2-2.4,1.1-5.9,0.8-8.6c-0.4-2.6-3.6-5.3-3.1-8s4.4-4.2,5.6-6.5c1.3-2.4,0.3-6.5,2.1-8.3c1.9-1.9,6-0.7,8.4-1.9
					c2.4-1.2,4-5.1,6.6-5.5c2.6-0.4,5.2,2.9,7.9,3.4c2.7,0.5,6.3-1.7,8.6-0.5c2.4,1.3,2.6,5.5,4.4,7.4c1.9,1.9,6.1,2.2,7.2,4.6
					c1.2,2.4-1.1,5.9-0.8,8.6C-259.5,247.4-256.3,250.1-256.7,252.8z"/>
			</g>
		</g>
		<g class="st6">
			<g>
				<path class="st7" d="M-258,255.1c0.1-2.5-2.8-5.1-3.2-7.5c-0.4-2.7,1.9-6.2,0.8-8.5c-1.2-2.4-5.4-2.7-7.2-4.6
					c-1.8-1.9-2-6.1-4.4-7.4c-2.3-1.2-5.9,1-8.6,0.5c-2.7-0.5-5.3-3.7-7.9-3.4c-2.7,0.4-4.3,4.3-6.6,5.5c-2.3,1.1-6.2,0.1-8.2,1.8
					c0.2-1,0.5-1.9,1.1-2.5c1.9-1.9,6-0.7,8.4-1.9c2.4-1.2,4-5.1,6.6-5.5c2.6-0.4,5.2,2.9,7.9,3.4c2.7,0.5,6.3-1.7,8.6-0.5
					c2.4,1.3,2.6,5.5,4.4,7.4c1.9,1.9,6.1,2.2,7.2,4.6c1.2,2.4-1.1,5.9-0.8,8.6c0.4,2.6,3.6,5.3,3.1,8
					C-256.9,253.7-257.4,254.4-258,255.1z"/>
			</g>
		</g>
		<g>
			<g>
				<path class="st4" d="M-279.9,276.1c-1.6,0-3.1-1-4.5-1.9c-1.1-0.7-2.2-1.4-3.1-1.6c-1-0.2-2.2,0.1-3.5,0.4
					c-1.9,0.4-3.8,0.9-5.4,0c-1.7-0.9-2.4-2.8-3.1-4.6c-0.5-1.2-0.9-2.3-1.5-3c-0.7-0.7-1.8-1.1-3-1.6c-1.8-0.8-3.6-1.5-4.5-3.2
					c-0.8-1.7-0.3-3.6,0.2-5.5c0.3-1.2,0.6-2.4,0.5-3.4c-0.1-0.9-0.7-1.9-1.4-3c-1-1.6-2.1-3.4-1.7-5.4c0.3-1.9,2-3.3,3.4-4.5
					c1-0.8,1.9-1.5,2.3-2.3c0.4-0.8,0.6-2.1,0.7-3.4c0.2-1.9,0.3-3.9,1.7-5.2c1.4-1.3,3.4-1.4,5.3-1.6c1.3-0.1,2.5-0.1,3.3-0.6
					c0.8-0.4,1.6-1.3,2.4-2.3c1.3-1.5,2.6-3,4.5-3.3c1.8-0.3,3.5,0.8,5.1,1.8c1.1,0.7,2.2,1.4,3.1,1.6c1,0.2,2.2-0.1,3.5-0.4
					c1.9-0.4,3.8-0.9,5.4,0c1.7,0.9,2.4,2.8,3.1,4.6c0.5,1.2,0.9,2.3,1.5,3c0.7,0.7,1.8,1.1,3,1.6c1.8,0.8,3.6,1.5,4.5,3.2
					c0.8,1.7,0.3,3.6-0.2,5.5c-0.3,1.2-0.6,2.4-0.5,3.4c0.1,0.9,0.7,1.9,1.4,3c1,1.6,2.1,3.4,1.7,5.4c-0.3,1.9-2,3.3-3.4,4.5
					c-1,0.8-1.9,1.5-2.3,2.3c-0.4,0.8-0.6,2.1-0.7,3.4c-0.2,1.9-0.3,3.9-1.7,5.2c-1.4,1.3-3.4,1.4-5.3,1.6c-1.3,0.1-2.5,0.1-3.3,0.6
					c-0.8,0.4-1.6,1.3-2.4,2.3c-1.3,1.5-2.6,3-4.5,3.3C-279.5,276.1-279.7,276.1-279.9,276.1z M-288.2,270.5c0.3,0,0.7,0,1,0.1
					c1.4,0.2,2.7,1.1,3.9,1.9c1.3,0.9,2.6,1.7,3.6,1.5c1.1-0.2,2.1-1.3,3.2-2.5c0.9-1.1,1.9-2.2,3.1-2.8c1.2-0.6,2.7-0.7,4.2-0.8
					c1.6-0.1,3.1-0.2,3.9-0.9c0.8-0.7,0.9-2.2,1-3.8c0.1-1.5,0.3-3,0.9-4.2c0.6-1.2,1.8-2.1,2.9-3c1.3-1,2.5-2,2.7-3.1
					c0.2-1.1-0.6-2.5-1.5-3.8c-0.7-1.2-1.5-2.5-1.7-3.8c-0.2-1.4,0.2-2.8,0.6-4.3c0.4-1.5,0.8-3,0.3-4c-0.5-1-1.9-1.6-3.4-2.2
					c-1.3-0.6-2.7-1.1-3.7-2.1c-1-1-1.5-2.4-2-3.7c-0.6-1.5-1.1-2.9-2.1-3.5c-0.9-0.5-2.4-0.1-3.9,0.2c-1.4,0.3-2.9,0.7-4.3,0.4
					c-1.4-0.2-2.7-1.1-3.9-1.9c-1.3-0.9-2.6-1.7-3.6-1.5c-1.1,0.2-2.1,1.3-3.2,2.5c-0.9,1.1-1.9,2.2-3.1,2.8
					c-1.2,0.6-2.7,0.7-4.2,0.8c-1.6,0.1-3.1,0.2-3.9,0.9c-0.8,0.7-0.9,2.2-1,3.8c-0.1,1.5-0.3,3-0.9,4.2c-0.6,1.2-1.8,2.1-2.9,3
					c-1.3,1-2.5,2-2.7,3.1c-0.2,1.1,0.6,2.5,1.5,3.8c0.7,1.2,1.5,2.5,1.7,3.8c0.2,1.4-0.2,2.8-0.6,4.3c-0.4,1.5-0.8,3-0.3,4
					c0.5,1,1.9,1.6,3.4,2.2c1.3,0.6,2.7,1.1,3.7,2.1c1,1,1.5,2.4,2,3.7c0.6,1.5,1.1,2.9,2.1,3.5c0.9,0.5,2.4,0.1,3.9-0.2
					C-290.4,270.7-289.3,270.5-288.2,270.5z"/>
			</g>
		</g>
		<g>
			<g>
				<g>
					<path class="st19" d="M-361,250.2c0.6,2.7,4.6,4,5.9,6.2c1.4,2.3,0.5,6.5,2.5,8.2c2,1.8,6,0.5,8.4,1.5c2.4,1.1,4.2,4.9,6.9,5.2
						c2.6,0.3,5.1-3.1,7.7-3.7c2.7-0.6,6.3,1.5,8.6,0.1c2.3-1.4,2.3-5.6,4.1-7.6c1.8-2,6-2.5,7-4.9c1.1-2.4-1.4-5.8-1.1-8.5
						c0.3-2.6,3.4-5.4,2.8-8.1c-0.6-2.7-4.6-4-5.9-6.2c-1.4-2.3-0.5-6.5-2.5-8.2c-2-1.8-6-0.5-8.4-1.5c-2.4-1.1-4.2-4.9-6.9-5.2
						c-2.6-0.3-5.1,3.1-7.7,3.7c-2.7,0.6-6.3-1.5-8.6-0.1c-2.3,1.4-2.3,5.6-4.1,7.6c-1.8,2-6,2.5-7,4.9c-1.1,2.4,1.4,5.8,1.1,8.5
						C-358.5,244.7-361.6,247.5-361,250.2z"/>
				</g>
			</g>
			<g>
				<g>
					<path class="st9" d="M-337,272.6c-0.1,0-0.3,0-0.4,0c-2-0.2-3.4-1.8-4.7-3.1c-0.9-0.9-1.7-1.8-2.5-2.1
						c-0.8-0.4-2.1-0.4-3.3-0.4c-1.9,0-4,0-5.5-1.4c-1.5-1.3-1.7-3.3-2-5.2c-0.2-1.2-0.3-2.5-0.8-3.3c-0.4-0.7-1.4-1.4-2.4-2.2
						c-1.5-1.1-3.3-2.4-3.7-4.4l0,0c-0.4-2,0.6-3.9,1.5-5.5c0.6-1.1,1.2-2.1,1.2-3c0.1-0.9-0.3-2.1-0.6-3.3
						c-0.6-1.9-1.2-3.8-0.4-5.6c0.8-1.8,2.7-2.7,4.4-3.5c1.1-0.5,2.2-1.1,2.8-1.7c0.6-0.7,1-1.8,1.4-3c0.6-1.8,1.3-3.8,3-4.8
						c1.6-1,3.6-0.6,5.5-0.2c1.2,0.2,2.5,0.5,3.4,0.3c0.9-0.2,2-0.9,3-1.7c1.6-1.1,3.2-2.3,5.1-2.1c2,0.2,3.4,1.8,4.7,3.1
						c0.9,0.9,1.7,1.8,2.5,2.1c0.8,0.4,2.1,0.4,3.3,0.4c1.9,0,4,0,5.5,1.4c1.5,1.3,1.7,3.3,2,5.2c0.2,1.2,0.3,2.5,0.8,3.3
						c0.4,0.7,1.4,1.4,2.4,2.2c1.5,1.1,3.3,2.4,3.7,4.4c0.4,2-0.6,3.9-1.5,5.5c-0.6,1.1-1.2,2.1-1.2,3c-0.1,0.9,0.3,2.1,0.6,3.3
						c0.6,1.9,1.2,3.8,0.4,5.6c-0.8,1.8-2.7,2.7-4.4,3.5c-1.1,0.5-2.2,1.1-2.8,1.7c-0.6,0.7-1,1.8-1.4,3c-0.6,1.8-1.3,3.8-3,4.8
						c-1.6,1-3.6,0.6-5.5,0.2c-1.2-0.2-2.5-0.5-3.4-0.3c-0.9,0.2-2,0.9-3,1.7C-333.8,271.5-335.3,272.6-337,272.6z M-359.8,250
						c0.2,1.1,1.5,2,2.7,2.9c1.2,0.9,2.3,1.7,3,2.9c0.7,1.2,0.9,2.7,1.1,4.2c0.2,1.6,0.4,3,1.2,3.7c0.8,0.7,2.3,0.7,3.9,0.7
						c1.5,0,3,0,4.3,0.6c1.3,0.6,2.3,1.7,3.3,2.7c1.1,1.2,2.1,2.3,3.2,2.4c1,0.1,2.2-0.7,3.4-1.6c1.2-0.9,2.5-1.8,3.9-2.1
						c1.4-0.3,2.9,0,4.4,0.2c1.5,0.3,3,0.5,3.8,0.1c0.9-0.5,1.4-2,1.9-3.5c0.5-1.4,0.9-2.8,1.9-3.8c0.9-1.1,2.3-1.7,3.6-2.3
						c1.4-0.7,2.8-1.3,3.2-2.3c0.4-0.9,0-2.4-0.5-3.8c-0.4-1.4-0.9-2.9-0.7-4.3c0.1-1.4,0.8-2.7,1.5-3.9c0.8-1.4,1.5-2.7,1.3-3.8
						c-0.2-1.1-1.5-2-2.7-2.9c-1.2-0.9-2.3-1.7-3-2.9c-0.7-1.2-0.9-2.7-1.1-4.2c-0.2-1.6-0.4-3-1.2-3.7c-0.8-0.7-2.3-0.7-3.9-0.7
						c-1.5,0-3,0-4.3-0.6c-1.3-0.6-2.3-1.7-3.3-2.7c-1.1-1.2-2.1-2.3-3.2-2.4c-1-0.1-2.2,0.7-3.4,1.6c-1.2,0.9-2.5,1.8-3.9,2.1
						c-1.4,0.3-2.9,0-4.4-0.2c-1.5-0.3-3-0.5-3.8-0.1c-0.9,0.5-1.4,2-1.9,3.5c-0.5,1.4-0.9,2.8-1.9,3.8c-0.9,1.1-2.3,1.7-3.6,2.3
						c-1.4,0.7-2.8,1.3-3.2,2.3c-0.4,0.9,0,2.4,0.5,3.8c0.4,1.4,0.9,2.9,0.7,4.3c-0.1,1.4-0.8,2.7-1.5,3.9
						C-359.3,247.6-360.1,248.9-359.8,250L-359.8,250z"/>
				</g>
			</g>
		</g>
		<g>
			<g>
				<path class="st20" d="M-361,250.2c0.6,2.7,4.6,4,5.9,6.2c1.4,2.3,0.5,6.5,2.5,8.2c2,1.8,6,0.5,8.4,1.5c2.4,1.1,4.2,4.9,6.9,5.2
					c2.6,0.3,5.1-3.1,7.7-3.7c2.7-0.6,6.3,1.5,8.6,0.1c2.3-1.4,2.3-5.6,4.1-7.6c1.8-2,6-2.5,7-4.9c1.1-2.4-1.4-5.8-1.1-8.5
					c0.3-2.6,3.4-5.4,2.8-8.1c-0.6-2.7-4.6-4-5.9-6.2c-1.4-2.3-0.5-6.5-2.5-8.2c-2-1.8-6-0.5-8.4-1.5c-2.4-1.1-4.2-4.9-6.9-5.2
					c-2.6-0.3-5.1,3.1-7.7,3.7c-2.7,0.6-6.3-1.5-8.6-0.1c-2.3,1.4-2.3,5.6-4.1,7.6c-1.8,2-6,2.5-7,4.9c-1.1,2.4,1.4,5.8,1.1,8.5
					C-358.5,244.7-361.6,247.5-361,250.2z"/>
			</g>
		</g>
		<g class="st6">
			<g>
				<path class="st7" d="M-359.5,252.6c-0.2-2.5,2.6-5.2,2.8-7.6c0.3-2.7-2.2-6.1-1.1-8.5c1.1-2.4,5.3-2.9,7-4.9
					c1.7-2,1.7-6.2,4.1-7.6c2.2-1.3,5.9,0.7,8.6,0.1c2.7-0.6,5.1-4,7.7-3.7c2.7,0.3,4.4,4.1,6.9,5.2c2.4,1,6.2-0.2,8.3,1.4
					c-0.2-1-0.6-1.9-1.2-2.5c-2-1.8-6-0.5-8.4-1.5c-2.4-1.1-4.2-4.9-6.9-5.2c-2.6-0.3-5.1,3.1-7.7,3.7c-2.7,0.6-6.3-1.5-8.6-0.1
					c-2.3,1.4-2.3,5.6-4.1,7.6c-1.8,2-6,2.5-7,4.9c-1.1,2.4,1.4,5.8,1.1,8.5c-0.3,2.6-3.4,5.4-2.8,8.1
					C-360.7,251.3-360.2,252-359.5,252.6z"/>
			</g>
		</g>
		<g>
			<g>
				<path class="st4" d="M-337,272.5c-0.1,0-0.3,0-0.4,0c-1.9-0.2-3.3-1.7-4.7-3.1c-0.9-0.9-1.7-1.8-2.5-2.2
					c-0.9-0.4-2.1-0.4-3.4-0.4c-1.9,0-3.9,0-5.4-1.3c-1.4-1.3-1.7-3.2-1.9-5.1c-0.2-1.2-0.3-2.5-0.8-3.3c-0.4-0.8-1.4-1.5-2.4-2.2
					c-1.5-1.1-3.2-2.4-3.6-4.3l0,0c-0.4-1.9,0.6-3.8,1.5-5.4c0.6-1.1,1.2-2.1,1.3-3c0.1-1-0.3-2.2-0.7-3.4c-0.6-1.8-1.2-3.7-0.4-5.5
					c0.8-1.8,2.6-2.6,4.3-3.4c1.2-0.6,2.3-1.1,2.9-1.8c0.6-0.7,1-1.8,1.4-3c0.6-1.9,1.3-3.8,2.9-4.7c1.6-0.9,3.5-0.6,5.4-0.2
					c1.2,0.2,2.5,0.5,3.5,0.3c1-0.2,2-1,3.1-1.7c1.6-1.1,3.2-2.2,5-2.1c1.9,0.2,3.3,1.7,4.7,3.1c0.9,0.9,1.7,1.8,2.5,2.2
					c0.9,0.4,2.1,0.4,3.4,0.4c1.9,0,3.9,0,5.4,1.3c1.4,1.3,1.7,3.2,1.9,5.1c0.2,1.2,0.3,2.5,0.8,3.3c0.4,0.8,1.4,1.5,2.4,2.2
					c1.5,1.1,3.2,2.4,3.6,4.3c0.4,1.9-0.6,3.8-1.5,5.4c-0.6,1.1-1.2,2.1-1.3,3c-0.1,1,0.3,2.2,0.7,3.4c0.6,1.8,1.2,3.7,0.4,5.5
					c-0.8,1.8-2.6,2.6-4.3,3.4c-1.2,0.6-2.3,1.1-2.9,1.8c-0.6,0.7-1,1.8-1.4,3c-0.6,1.9-1.3,3.8-2.9,4.7c-1.6,0.9-3.5,0.6-5.4,0.2
					c-1.2-0.2-2.5-0.5-3.5-0.3c-1,0.2-2,1-3.1,1.7C-333.8,271.4-335.3,272.5-337,272.5z M-360,250c0.2,1.1,1.5,2,2.8,3
					c1.1,0.8,2.3,1.7,3,2.9c0.7,1.2,0.9,2.7,1.1,4.2c0.2,1.6,0.4,3.1,1.2,3.8c0.8,0.7,2.3,0.7,3.9,0.8c1.5,0,3,0,4.2,0.6
					c1.3,0.5,2.3,1.6,3.3,2.7c1.1,1.2,2.2,2.3,3.3,2.4c1,0.1,2.3-0.8,3.5-1.7c1.2-0.9,2.5-1.7,3.9-2c1.4-0.3,2.9,0,4.4,0.2
					c1.5,0.3,3,0.6,3.9,0c1-0.6,1.4-2,2-3.5c0.5-1.4,0.9-2.8,1.8-3.8c0.9-1,2.3-1.7,3.6-2.3c1.5-0.7,2.8-1.3,3.3-2.3
					c0.4-1,0-2.4-0.5-3.9c-0.4-1.4-0.9-2.8-0.7-4.2c0.1-1.3,0.8-2.6,1.5-3.9c0.8-1.4,1.5-2.8,1.3-3.9c-0.2-1.1-1.5-2-2.8-3
					c-1.1-0.8-2.3-1.7-3-2.9c-0.7-1.2-0.9-2.7-1.1-4.2c-0.2-1.6-0.4-3.1-1.2-3.8c-0.8-0.7-2.3-0.7-3.9-0.8c-1.4,0-3,0-4.2-0.6
					c-1.3-0.5-2.3-1.6-3.3-2.7c-1.1-1.2-2.2-2.3-3.3-2.4c-1-0.1-2.3,0.8-3.5,1.7c-1.2,0.9-2.5,1.7-3.9,2c-1.4,0.3-2.9,0-4.4-0.2
					c-1.6-0.3-3-0.6-3.9,0c-1,0.6-1.4,2-2,3.5c-0.5,1.4-0.9,2.8-1.8,3.8c-0.9,1-2.3,1.7-3.6,2.3c-1.5,0.7-2.8,1.3-3.3,2.3
					c-0.4,1,0,2.4,0.5,3.9c0.4,1.4,0.9,2.8,0.7,4.2c-0.1,1.3-0.8,2.6-1.5,3.9C-359.5,247.5-360.2,248.9-360,250L-360,250z"/>
			</g>
		</g>
		<g class="st17">
			<g>
				<ellipse class="st21" cx="-298.6" cy="262.8" rx="2.1" ry="1.4"/>
			</g>
		</g>
		<g>
			<g>
				<path class="st22" d="M-258.1,266.3c0,2.1-0.3,4.1-0.9,6c-0.2,0.6-0.4,1.2-0.7,1.7c-0.1,0.2-0.2,0.4-0.3,0.7
					c-0.5,0.9-1,1.7-1.6,2.4c-0.1,0.1-0.2,0.3-0.3,0.4c-0.1,0.1-0.2,0.3-0.3,0.4c-0.1,0.1-0.2,0.3-0.4,0.4c0,0-0.1,0.1-0.1,0.1
					c-0.2,0.2-0.3,0.3-0.5,0.5c-0.3,0.3-0.7,0.6-1.1,0.9c-0.2,0.1-0.4,0.3-0.6,0.4c-0.3,0.2-0.6,0.4-1,0.6c-0.2,0.1-0.3,0.2-0.5,0.3
					c-1,0.5-2.1,0.8-3.2,1c-0.2,0-0.4,0.1-0.7,0.1c-0.5,0.1-0.9,0.1-1.4,0.1h-79.9l0,0h-16.9c0.1,0,0.3,0,0.4,0c0.1,0,0.1,0,0.2,0
					c0.4,0,0.8-0.1,1.2-0.1c0.1,0,0.2,0,0.3-0.1c0.1,0,0.2,0,0.3-0.1c0,0,0,0,0,0c0.1,0,0.2,0,0.3-0.1c0.1,0,0.2-0.1,0.3-0.1
					c0.1,0,0.2,0,0.2-0.1c0.4-0.1,0.7-0.2,1.1-0.4c0.1,0,0.2-0.1,0.3-0.1c0.7-0.3,1.3-0.7,1.9-1.1c0.1,0,0.1-0.1,0.2-0.1
					c0.1,0,0.1-0.1,0.2-0.2c0.1-0.1,0.1-0.1,0.2-0.2c0.1-0.1,0.1-0.1,0.2-0.2s0.1-0.1,0.2-0.2c0.1-0.1,0.3-0.2,0.4-0.3c0,0,0,0,0,0
					c0.1-0.1,0.2-0.2,0.4-0.3c0.1-0.1,0.2-0.2,0.3-0.3c0.1-0.1,0.1-0.1,0.2-0.2c0.1-0.1,0.1-0.1,0.2-0.2c0.1-0.1,0.1-0.1,0.2-0.2
					s0.1-0.2,0.2-0.2c0.1-0.1,0.1-0.1,0.2-0.2c0.1-0.1,0.1-0.1,0.2-0.2c0.1-0.1,0.2-0.2,0.2-0.3c0.5-0.6,0.9-1.3,1.3-2.1
					c0.1-0.1,0.1-0.2,0.2-0.4c0-0.1,0.1-0.2,0.1-0.2c0-0.1,0.1-0.2,0.1-0.3c0-0.1,0.1-0.1,0.1-0.2c0.1-0.1,0.1-0.3,0.2-0.4
					c0,0,0-0.1,0-0.1c0.1-0.1,0.1-0.3,0.2-0.4c0-0.1,0.1-0.1,0.1-0.2c0-0.1,0.1-0.2,0.1-0.3c0,0,0,0,0,0c0.3-0.8,0.5-1.6,0.7-2.5
					c0,0,0,0,0-0.1c0.1-0.3,0.1-0.7,0.2-1v0c0.9-5.2,2.4-10.1,4.3-14.7l0,0c8.3-20,25.3-33.7,44.8-33.7c21.5,0,39.1,17.2,47,39.9
					c0.5,1.4,0.8,2.8,1,4.1c0.1,0.4,0.1,0.8,0.1,1.2v0C-258.1,265.7-258.1,266-258.1,266.3z"/>
			</g>
		</g>
		<g class="st6">
			<g>
				<path class="st7" d="M-258.1,266.3c0,0.6,0,1.2-0.1,1.8c0-0.2,0-0.5-0.1-0.8c-0.2-1.3-0.5-2.7-1-4.1
					c-7.9-22.7-25.5-39.9-47-39.9c-19.5,0-36.4,13.7-44.8,33.7l0,0c-1.7,4.2-3.1,8.6-4,13.2c-0.2,0-0.4-0.1-0.6-0.1
					c0-0.2,0.1-0.3,0.1-0.5c0,0,0,0,0-0.1c0.1-0.3,0.1-0.7,0.2-1v0c0.9-5.2,2.4-10.1,4.3-14.7l0,0c8.3-20,25.3-33.7,44.8-33.7
					c21.5,0,39.1,17.2,47,39.9c0.5,1.4,0.8,2.8,1,4.1c0.1,0.4,0.1,0.8,0.1,1.2v0C-258.1,265.7-258.1,266-258.1,266.3z"/>
			</g>
		</g>
		<g class="st11">
			<g>
				<path class="st12" d="M-259.1,261.5c-0.4-1.4-0.6-2.5-0.1-1.4C-259.1,260.6-259.1,261.1-259.1,261.5z"/>
			</g>
		</g>
		<g>
			<g>
				<path class="st4" d="M-351.5,283.3h-16.9c-0.6,0-1.1-0.5-1.1-1.1c0-0.6,0.5-1.1,1.1-1.1c5.6,0,10.5-4.8,11.8-11.6v0
					c0,0,0,0,0-0.1c0.1-0.3,0.1-0.6,0.2-0.9c0,0,0,0,0-0.1c2.5-13.7,8.8-26.2,17.7-35.2c9.1-9.1,20.7-14.1,32.5-14.1
					c10.5,0,20.6,4,29.3,11.7c8.2,7.2,14.7,17.2,18.7,28.9c2.1,6.1,1.3,12.5-2.1,17.4c-2.8,3.9-6.9,6.2-11.4,6.2h-79.7
					C-351.4,283.3-351.4,283.3-351.5,283.3z M-361.4,281.1h9.7c0.1,0,0.1,0,0.2,0h79.9c3.7,0,7.2-1.9,9.6-5.2c3-4.2,3.7-10,1.8-15.4
					c-8.3-23.8-26.3-39.1-46-39.1c-22.8,0-43,20-48,47.5c0,0,0,0,0,0c-0.1,0.4-0.1,0.7-0.2,1c0,0,0,0.1,0,0.1
					C-355.4,274.9-358,278.8-361.4,281.1z M-356.5,269.5L-356.5,269.5L-356.5,269.5z M-356.5,269.5
					C-356.5,269.5-356.5,269.5-356.5,269.5C-356.5,269.5-356.5,269.5-356.5,269.5z"/>
			</g>
		</g>
		<g class="st11">
			<g>
				<path class="st7" d="M-324.2,236.5c2.3,1.8-1.6,4.6-5.2,9c-3.5,4.5-5.3,8.9-7.6,7.1c-2.3-1.8-1.3-6.9,2.2-11.4
					C-331.2,236.8-326.5,234.6-324.2,236.5z"/>
			</g>
		</g>
		<g class="st11">
			<g>
				<circle class="st12" cx="-279.2" cy="245.3" r="0.8"/>
			</g>
		</g>
		<g class="st11">
			<g>
				<circle class="st12" cx="-343" cy="261.4" r="0.8"/>
			</g>
		</g>
		<g class="st11">
			<g>
				<circle class="st12" cx="-284.6" cy="262.2" r="0.8"/>
			</g>
		</g>
		<g class="st11">
			<g>
				<circle class="st12" cx="-332.7" cy="273.9" r="0.8"/>
			</g>
		</g>
		<g class="st11">
			<g>
				<circle class="st12" cx="-316.2" cy="228.8" r="0.8"/>
			</g>
		</g>
		<g class="st11">
			<g>
				<circle class="st12" cx="-306.1" cy="242.2" r="0.8"/>
			</g>
		</g>
		<g class="st11">
			<g>
				<circle class="st12" cx="-318.5" cy="269.5" r="0.8"/>
			</g>
		</g>
		<g class="st11">
			<g>
				<circle class="st12" cx="-297" cy="234.7" r="0.8"/>
			</g>
		</g>
		<g class="st11">
			<g>
				<ellipse class="st12" cx="-283.4" cy="241.6" rx="1.2" ry="1.2"/>
			</g>
		</g>
		<g class="st11">
			<g>
				<ellipse class="st12" cx="-266.5" cy="271.4" rx="1.2" ry="1.2"/>
			</g>
		</g>
		<g class="st11">
			<g>
				<ellipse class="st12" cx="-296.5" cy="276.3" rx="1.2" ry="1.2"/>
			</g>
		</g>
		<g>
			<g>
				<g>
					<g>
						<path class="st4" d="M-283.8,251.6c0.2-3.7-1.8-6.7-4.3-6.8c-2.5-0.1-4.7,2.8-4.9,6.4c-0.2,3.7,1.8,6.7,4.3,6.8
							C-286.2,258.2-284,255.3-283.8,251.6z"/>
					</g>
				</g>
			</g>
			<g>
				<g>
					<path class="st7" d="M-287.8,250.1c0.1-1.4-0.6-2.5-1.5-2.5c-0.9,0-1.7,1-1.7,2.4c-0.1,1.3,0.6,2.5,1.5,2.5
						C-288.7,252.5-287.9,251.5-287.8,250.1z"/>
				</g>
				<g>
					<path class="st4" d="M-289.5,252.6C-289.5,252.6-289.5,252.6-289.5,252.6c-1,0-1.8-1.2-1.7-2.7c0-0.7,0.2-1.3,0.6-1.8
						c0.4-0.5,0.8-0.7,1.3-0.7c1,0,1.7,1.2,1.6,2.7l0,0C-287.8,251.5-288.6,252.6-289.5,252.6z M-289.4,247.7c-0.4,0-0.7,0.2-1,0.6
						c-0.3,0.4-0.5,1-0.5,1.6c-0.1,1.3,0.6,2.3,1.4,2.4c0.8,0,1.5-1,1.6-2.2l0,0C-287.9,248.8-288.6,247.8-289.4,247.7
						C-289.4,247.7-289.4,247.7-289.4,247.7z"/>
				</g>
			</g>
			<g>
				<g>
					<g>
						<path class="st4" d="M-297.5,254c0.1,4.5-2.2,9.3-5.3,9.3s-5.8-4.7-5.9-9.2L-297.5,254z"/>
					</g>
				</g>
				<g>
					<g>
						<path class="st23" d="M-298.5,259.4c-1.1-0.9-2.6-1.5-4.2-1.4c-1.8,0-3.4,0.8-4.5,1.9c1.1,2,2.7,3.4,4.4,3.4
							C-300.9,263.3-299.4,261.6-298.5,259.4z"/>
					</g>
				</g>
				<g>
					<g>
						<path class="st4" d="M-302.8,264.6c-4,0-7.1-5.5-7.2-10.5c0-0.4,0.1-0.7,0.4-1s0.6-0.4,0.9-0.4l11.2-0.1c0,0,0,0,0,0
							c0.7,0,1.3,0.6,1.3,1.3c0,2.4-0.6,5-1.6,7C-299,263.3-300.8,264.6-302.8,264.6C-302.8,264.6-302.8,264.6-302.8,264.6z
							 M-307.2,255.5c0.5,3.4,2.5,6.5,4.4,6.5c0,0,0,0,0,0c0.9,0,1.9-0.8,2.7-2.3c0.7-1.2,1.1-2.8,1.3-4.3L-307.2,255.5z"/>
					</g>
				</g>
			</g>
			<g>
				<g>
					<g>
						<path class="st4" d="M-323.1,252.3c-0.2-3.7,1.8-6.7,4.3-6.8c2.5-0.1,4.7,2.8,4.9,6.4c0.2,3.7-1.8,6.7-4.3,6.8
							C-320.7,258.9-322.9,256-323.1,252.3z"/>
					</g>
				</g>
			</g>
			<g>
				<g>
					<path class="st7" d="M-319,250.8c-0.1-1.4,0.6-2.5,1.5-2.5c0.9,0,1.7,1,1.7,2.4c0.1,1.3-0.6,2.5-1.5,2.5
						C-318.2,253.3-319,252.2-319,250.8z"/>
				</g>
				<g>
					<path class="st4" d="M-317.4,253.4c-0.9,0-1.8-1.1-1.8-2.5l0,0c-0.1-1.4,0.7-2.6,1.6-2.7c0.5,0,0.9,0.2,1.3,0.7
						c0.3,0.5,0.5,1.1,0.6,1.8C-315.6,252.1-316.4,253.3-317.4,253.4C-317.3,253.4-317.4,253.4-317.4,253.4z M-318.9,250.8
						c0.1,1.3,0.7,2.3,1.6,2.2c0.8,0,1.4-1.1,1.4-2.4c0-0.6-0.2-1.2-0.5-1.6c-0.3-0.4-0.7-0.6-1-0.6
						C-318.3,248.5-318.9,249.6-318.9,250.8L-318.9,250.8z"/>
				</g>
			</g>
		</g>
	</g>
</g>
<g>
	<g>
		<g>
			<g>
				<path class="st24" d="M40.8,36.7L29.8,46.9c-0.5,0.5-1.5,0.3-2-0.5c-3-4.3-3-9.6,0.2-12.6c3.2-3,8.6-2.5,12.6,0.8
					C41.2,35.2,41.4,36.2,40.8,36.7z"/>
			</g>
		</g>
		<g>
			<g>
				<path class="st24" d="M41,36.8L29.9,47c-0.3,0.2-0.6,0.4-1,0.3c-0.5-0.1-1-0.3-1.3-0.8c-1.5-2.1-2.3-4.6-2.3-6.9
					c0-2.4,0.9-4.5,2.5-6s3.8-2.2,6.2-2c2.3,0.2,4.7,1.2,6.7,2.8c0.4,0.4,0.7,0.9,0.7,1.4C41.4,36.2,41.2,36.6,41,36.8z M28.1,34
					c-3.1,2.9-3.2,8.1-0.2,12.4c0.3,0.4,0.6,0.6,1,0.6c0.3,0,0.5,0,0.7-0.2l11.1-10.2c0.2-0.2,0.3-0.4,0.3-0.7
					c0-0.4-0.2-0.8-0.5-1.1C36.4,31.4,31.2,31.1,28.1,34z"/>
			</g>
		</g>
		<g>
			<g>
				<circle class="st24" cx="32" cy="31" r="2.1"/>
			</g>
		</g>
		<g class="st6">
			<g>
				<path class="st24" d="M33.8,29.9c-0.1-0.1-0.1-0.1-0.2-0.2c-0.9-0.8-2.2-0.6-3,0.3c-0.6,0.7-0.6,1.7-0.2,2.4
					c-0.7-0.8-0.8-2-0.1-2.8c0.8-0.9,2.1-1,3-0.3C33.5,29.6,33.7,29.7,33.8,29.9z"/>
			</g>
		</g>
		<g>
			<g>
				<path class="st24" d="M33.5,32.7c-0.4,0.3-0.8,0.6-1.4,0.6c-0.6,0.1-1.2-0.1-1.7-0.5c-0.5-0.4-0.8-1-0.8-1.6
					c-0.1-0.6,0.1-1.2,0.5-1.7c0.4-0.5,1-0.8,1.6-0.8c0.6-0.1,1.2,0.1,1.7,0.5c0.5,0.4,0.8,1,0.8,1.6c0.1,0.6-0.1,1.2-0.5,1.7
					C33.7,32.6,33.6,32.7,33.5,32.7z M30.7,29.6c-0.1,0.1-0.1,0.1-0.2,0.2c-0.3,0.4-0.5,0.9-0.4,1.4s0.3,1,0.7,1.3
					c0.4,0.3,0.9,0.5,1.4,0.4c0.5,0,1-0.3,1.3-0.7c0.3-0.4,0.5-0.9,0.4-1.4c0-0.5-0.3-1-0.7-1.3c-0.4-0.3-0.9-0.5-1.4-0.4
					C31.4,29.1,31,29.3,30.7,29.6z"/>
			</g>
		</g>
		<g class="st8">
			<g>
				<path class="st24" d="M40.8,36.7L29.8,46.9c-0.5,0.5-1.5,0.3-2-0.5c-3-4.3-3-9.6,0.2-12.6c3.2-3,8.6-2.5,12.6,0.8
					C41.2,35.2,41.4,36.2,40.8,36.7z"/>
			</g>
		</g>
		<g>
			<g>
				<circle class="st24" cx="27.6" cy="41.2" r="2.6"/>
			</g>
		</g>
		<g>
			<g>
				<circle class="st24" cx="27.6" cy="41.2" r="2.6"/>
			</g>
		</g>
		<g class="st11">
			<g>
				<path class="st24" d="M29.5,39.4c1,1.1,0.9,2.7-0.2,3.7c-1.1,1-2.7,0.9-3.7-0.2c-0.2-0.2-0.3-0.4-0.5-0.7c1,0.6,2.2,0.5,3.1-0.3
					c0.9-0.8,1.1-2,0.6-3C29.1,39,29.3,39.2,29.5,39.4z"/>
			</g>
		</g>
		<g class="st6">
			<g>
				<path class="st24" d="M30,40.1C30,40,29.9,40,29.8,39.9c-1-1.1-2.6-1.1-3.7-0.2c-0.8,0.8-1.1,2-0.6,3c-0.8-1.1-0.7-2.6,0.3-3.5
					c1.1-1,2.7-0.9,3.7,0.2C29.7,39.6,29.9,39.8,30,40.1z"/>
			</g>
		</g>
		<g>
			<g>
				<path class="st24" d="M29.5,43.2c-1.1,1.1-2.9,1-4-0.2c-1.1-1.1-1-2.9,0.2-4c1.1-1.1,2.9-1,4,0.2C30.7,40.4,30.7,42.2,29.5,43.2
					z M25.9,39.4c-1,0.9-1,2.5-0.1,3.4c0.9,1,2.5,1.1,3.4,0.1c1-0.9,1-2.5,0.1-3.4C28.5,38.5,26.9,38.5,25.9,39.4z"/>
			</g>
		</g>
		<g>
			<g>
				<path class="st24" d="M32.1,35.2l-2.2,1.3c-0.4,0.2-0.9,0.1-1.2-0.3l-1.6-2.7c-0.2-0.4-0.1-0.9,0.3-1.2l2.2-1.3
					c0.4-0.2,0.9-0.1,1.2,0.3l1.6,2.7C32.7,34.4,32.5,34.9,32.1,35.2z"/>
			</g>
		</g>
		<g class="st6">
			<g>
				<path class="st24" d="M27.8,32c-0.4,0.2-0.6,0.8-0.3,1.2l1.6,2.7c0.2,0.4,0.8,0.6,1.2,0.3l-0.4,0.2c-0.4,0.2-0.9,0.1-1.2-0.3
					l-1.6-2.7c-0.2-0.4-0.1-0.9,0.3-1.2L27.8,32z"/>
			</g>
		</g>
		<g>
			<g>
				<path class="st24" d="M32.1,35.2l-2.2,1.3c-0.4,0.2-0.9,0.1-1.2-0.3l-1.6-2.7c-0.2-0.4-0.1-0.9,0.3-1.2l2.2-1.3
					c0.4-0.2,0.9-0.1,1.2,0.3l1.6,2.7C32.7,34.4,32.5,34.9,32.1,35.2z"/>
			</g>
		</g>
		<g>
			<g>
				<path class="st24" d="M32.4,35.2c-0.1,0.1-0.1,0.1-0.2,0.1l0,0L30,36.6c-0.5,0.3-1.2,0.1-1.4-0.4l-1.6-2.7
					c-0.3-0.5-0.1-1.2,0.4-1.4l2.2-1.3c0.5-0.3,1.2-0.1,1.4,0.4l1.6,2.7C32.8,34.3,32.7,34.9,32.4,35.2z M32,35
					c0.2-0.1,0.3-0.2,0.3-0.4c0-0.2,0-0.4-0.1-0.5l-1.6-2.7c-0.2-0.3-0.6-0.4-0.9-0.2l-2.2,1.3c-0.2,0.1-0.3,0.2-0.3,0.4
					c0,0.2,0,0.4,0.1,0.5l1.6,2.7c0.2,0.3,0.6,0.4,0.9,0.2L32,35z"/>
			</g>
		</g>
		<g class="st11">
			<g>
				<path class="st24" d="M29.4,41.1c-0.2-0.2-0.4-0.3-0.7-0.5l0.1-0.1L29.4,41.1z"/>
			</g>
		</g>
		<g>
			<g>
				<g>
					<path class="st24" d="M28.1,41.5c-0.5,0.2-0.8,0.9-0.4,1.4c-0.2,0.1-0.3,0.3-0.4,0.5s0.1,0.4,0.3,0.5c-1.9,2.1,0.8,4.2,2.6,2.6
						l1.4-1.3l0.1-2.8L29.3,40L28.1,41.5z"/>
				</g>
				<g>
					<path class="st24" d="M31.6,45.2L31.6,45.2l-1.4,1.3c-1,0.9-2.2,0.7-2.8,0.1c-0.5-0.5-0.8-1.6,0.2-2.6
						c-0.2-0.1-0.3-0.3-0.3-0.5c0-0.2,0.2-0.4,0.3-0.5c-0.2-0.2-0.2-0.5-0.1-0.8c0.1-0.3,0.3-0.5,0.6-0.6l1.2-1.4c0,0,0,0,0,0
						c0,0,0,0,0,0l2.4,2.3c0,0,0,0,0,0L31.6,45.2C31.7,45.2,31.7,45.2,31.6,45.2z M27.5,43.1c-0.1,0.1-0.2,0.2-0.2,0.3
						c0,0.2,0.1,0.4,0.3,0.5c0,0,0,0,0,0c0,0,0,0,0,0c-1,1.1-0.7,2.1-0.2,2.6c0.6,0.6,1.8,0.8,2.7-0.1l1.4-1.3l0.1-2.8l-2.3-2.3
						l-1.2,1.4c0,0,0,0,0,0c-0.2,0.1-0.5,0.3-0.5,0.6c-0.1,0.3,0,0.6,0.1,0.8c0,0,0,0,0,0c0,0,0,0,0,0C27.6,43,27.6,43,27.5,43.1z"
						/>
				</g>
			</g>
			<g class="st11">
				<g>
					<path class="st24" d="M31.6,42.4l0,2.8l-1.4,1.3c-1.1,1-2.5,0.6-3-0.4c0.9,0.2,2-0.1,2.7-0.7c1.3-1.2,1.3-3.2,0.1-4.5
						c0,0,0,0,0,0L31.6,42.4z"/>
				</g>
			</g>
			<g class="st6">
				<g>
					<path class="st24" d="M28.3,41.4c0,0.1,0,0.1,0,0.2c-0.3,0.3-0.5,0.7-0.3,1.1c0,0.1,0,0.2-0.1,0.3c-0.1,0.1-0.2,0.2-0.2,0.4
						c0,0.1,0,0.3,0.1,0.4c0.1,0.1,0.1,0.2,0,0.3c-1.3,1.6,0,3.2,1.5,3c-1.7,0.6-3.4-1.3-1.8-3.1c-0.2-0.1-0.3-0.3-0.3-0.5
						c0-0.2,0.2-0.4,0.4-0.5c-0.4-0.5-0.1-1.2,0.4-1.4L28.3,41.4z"/>
				</g>
			</g>
			<g>
				<g>
					<path class="st24" d="M31.8,45.3L31.8,45.3l-1.4,1.3c-1,1-2.3,0.7-3,0.1c-0.6-0.6-0.8-1.7,0-2.7c-0.1-0.2-0.2-0.4-0.2-0.6
						c0-0.2,0.1-0.4,0.3-0.5c-0.1-0.2-0.1-0.5-0.1-0.8c0.1-0.3,0.3-0.6,0.6-0.7l1.2-1.4c0,0,0.1-0.1,0.1-0.1c0.1,0,0.1,0,0.1,0.1
						l2.4,2.3c0,0,0.1,0.1,0.1,0.1l-0.1,2.8C31.8,45.2,31.8,45.3,31.8,45.3z M27.6,43.2c-0.1,0.1-0.1,0.1-0.1,0.2
						c0,0.1,0.1,0.3,0.2,0.3c0.1,0,0.1,0.1,0.1,0.1c0,0.1,0,0.1,0,0.2c-0.9,1-0.7,1.9-0.2,2.4c0.6,0.6,1.6,0.7,2.5-0.1l1.4-1.3
						l0.1-2.6l-2.2-2.1l-1.1,1.3c0,0-0.1,0-0.1,0.1c-0.2,0.1-0.4,0.3-0.4,0.5c0,0.1-0.1,0.4,0.1,0.6c0,0,0.1,0.1,0,0.2
						c0,0.1-0.1,0.1-0.1,0.1C27.7,43.1,27.7,43.1,27.6,43.2z"/>
				</g>
			</g>
		</g>
		<g class="st17">
			<g>
				
					<ellipse transform="matrix(0.7352 -0.6778 0.6778 0.7352 -20.94 31.1751)" class="st24" cx="29.4" cy="42.4" rx="0.1" ry="0.1"/>
			</g>
		</g>
		<g class="st11">
			<g>
				<path class="st24" d="M29.6,41.2l-0.1-0.1C29.5,41.1,29.5,41.2,29.6,41.2z"/>
			</g>
		</g>
		<g class="st18">
			<g>
				<path class="st24" d="M38.2,30c-0.1-0.1-0.1-0.1-0.2-0.2c-0.2-0.3-0.1-0.7-0.2-1c0,0,0,0,0.1,0.1C38.1,29.1,38,29.6,38.2,30z"/>
			</g>
		</g>
		<g>
			<g>
				<g>
					<path class="st24" d="M40.7,29.8c0.3,0.4-0.1,1.1,0,1.5c0.1,0.5,0.7,0.9,0.7,1.3c0,0.5-0.7,0.8-0.8,1.2
						c-0.2,0.4,0.1,1.1-0.2,1.5c-0.3,0.4-1,0.2-1.4,0.5c-0.4,0.3-0.6,1-1,1.1c-0.5,0.1-1-0.4-1.4-0.4c-0.5,0-1,0.4-1.5,0.3
						c-0.4-0.2-0.6-0.9-0.9-1.2c-0.4-0.3-1.1-0.3-1.4-0.7c-0.3-0.4,0.1-1.1,0-1.5C32.6,33,32,32.6,32,32.1c0-0.5,0.7-0.8,0.8-1.2
						c0.2-0.4-0.1-1.1,0.2-1.5c0.3-0.4,1-0.2,1.4-0.5c0.4-0.3,0.6-1,1-1.1c0.5-0.1,1,0.4,1.4,0.4c0.5,0,1-0.4,1.5-0.3
						c0.4,0.2,0.6,0.9,0.9,1.2C39.7,29.5,40.4,29.4,40.7,29.8z"/>
				</g>
			</g>
			<g>
				<g>
					<path class="st24" d="M40.5,35.6c-0.2,0.2-0.5,0.3-0.8,0.3c-0.2,0-0.4,0.1-0.6,0.2c-0.1,0.1-0.3,0.3-0.4,0.5
						c-0.2,0.3-0.4,0.6-0.7,0.7c-0.3,0.1-0.7-0.1-1-0.2c-0.2-0.1-0.4-0.2-0.5-0.2c-0.2,0-0.4,0.1-0.6,0.1c-0.3,0.1-0.7,0.2-1,0.1
						c-0.3-0.1-0.5-0.4-0.6-0.7c-0.1-0.2-0.2-0.4-0.3-0.5c-0.1-0.1-0.3-0.2-0.5-0.2c-0.3-0.1-0.7-0.2-0.9-0.5
						c-0.2-0.3-0.1-0.7-0.1-1c0-0.2,0.1-0.4,0-0.6c0-0.2-0.2-0.3-0.3-0.5c-0.2-0.3-0.4-0.6-0.4-0.9c0-0.3,0.3-0.6,0.5-0.8
						c0.1-0.2,0.3-0.3,0.4-0.5c0.1-0.1,0-0.4,0-0.6c0-0.3,0-0.7,0.2-1c0.2-0.3,0.6-0.3,0.9-0.4c0.2,0,0.4-0.1,0.6-0.2
						c0.1-0.1,0.3-0.3,0.4-0.5c0.2-0.3,0.4-0.6,0.7-0.7c0.3-0.1,0.7,0.1,1,0.2c0.2,0.1,0.4,0.2,0.5,0.2c0.2,0,0.4-0.1,0.6-0.1
						c0.3-0.1,0.7-0.2,1-0.1c0.3,0.1,0.5,0.4,0.6,0.7c0.1,0.2,0.2,0.4,0.3,0.5c0.1,0.1,0.3,0.2,0.5,0.2c0.3,0.1,0.7,0.2,0.9,0.5
						c0.2,0.3,0.1,0.7,0.1,1c0,0.2-0.1,0.4,0,0.6c0,0.2,0.2,0.3,0.3,0.5c0.2,0.3,0.4,0.6,0.4,0.9c0,0.3-0.3,0.6-0.5,0.8
						c-0.1,0.2-0.3,0.3-0.4,0.5c-0.1,0.1,0,0.4,0,0.6C40.8,34.9,40.8,35.2,40.5,35.6C40.5,35.5,40.5,35.6,40.5,35.6z M38.7,35.8
						c0,0,0.1-0.1,0.1-0.1c0.2-0.1,0.5-0.2,0.7-0.2c0.3,0,0.5-0.1,0.6-0.2c0.1-0.1,0.1-0.4,0.1-0.7c0-0.3,0-0.5,0.1-0.7
						c0.1-0.2,0.3-0.4,0.5-0.6c0.2-0.2,0.4-0.4,0.4-0.6c0-0.2-0.1-0.4-0.3-0.6c-0.2-0.2-0.3-0.4-0.4-0.7c-0.1-0.2,0-0.5,0-0.7
						c0-0.3,0.1-0.5,0-0.7c-0.1-0.2-0.4-0.2-0.6-0.3c-0.2-0.1-0.5-0.1-0.7-0.3c-0.2-0.2-0.3-0.4-0.4-0.6c-0.1-0.2-0.3-0.5-0.4-0.5
						c-0.2-0.1-0.4,0-0.7,0.1c-0.2,0.1-0.5,0.2-0.7,0.2c-0.2,0-0.5-0.1-0.7-0.2C36,28.1,35.7,28,35.6,28c-0.2,0-0.3,0.3-0.5,0.5
						c-0.1,0.2-0.3,0.4-0.5,0.6c-0.2,0.1-0.5,0.2-0.7,0.2c-0.3,0-0.5,0.1-0.6,0.2c-0.1,0.1-0.1,0.4-0.1,0.7c0,0.3,0,0.5-0.1,0.7
						c-0.1,0.2-0.3,0.4-0.5,0.6c-0.2,0.2-0.4,0.4-0.4,0.6c0,0.2,0.1,0.4,0.3,0.6c0.2,0.2,0.3,0.4,0.4,0.7c0.1,0.2,0,0.5,0,0.7
						c0,0.3-0.1,0.5,0,0.7c0.1,0.2,0.4,0.2,0.6,0.3c0.2,0.1,0.5,0.1,0.7,0.3c0.2,0.2,0.3,0.4,0.4,0.6c0.1,0.2,0.3,0.5,0.4,0.5
						c0.2,0.1,0.4,0,0.7-0.1c0.2-0.1,0.5-0.2,0.7-0.2c0.2,0,0.5,0.1,0.7,0.2c0.3,0.1,0.5,0.2,0.7,0.2c0.2,0,0.3-0.3,0.5-0.5
						C38.5,36.1,38.6,35.9,38.7,35.8z"/>
				</g>
			</g>
		</g>
		<g>
			<g>
				<path class="st24" d="M40.7,29.8c0.3,0.4-0.1,1.1,0,1.5c0.1,0.5,0.7,0.9,0.7,1.3c0,0.5-0.7,0.8-0.8,1.2
					c-0.2,0.4,0.1,1.1-0.2,1.5c-0.3,0.4-1,0.2-1.4,0.5c-0.4,0.3-0.6,1-1,1.1c-0.5,0.1-1-0.4-1.4-0.4c-0.5,0-1,0.4-1.5,0.3
					c-0.4-0.2-0.6-0.9-0.9-1.2c-0.4-0.3-1.1-0.3-1.4-0.7c-0.3-0.4,0.1-1.1,0-1.5C32.6,33,32,32.6,32,32.1c0-0.5,0.7-0.8,0.8-1.2
					c0.2-0.4-0.1-1.1,0.2-1.5c0.3-0.4,1-0.2,1.4-0.5c0.4-0.3,0.6-1,1-1.1c0.5-0.1,1,0.4,1.4,0.4c0.5,0,1-0.4,1.5-0.3
					c0.4,0.2,0.6,0.9,0.9,1.2C39.7,29.5,40.4,29.4,40.7,29.8z"/>
			</g>
		</g>
		<g class="st6">
			<g>
				<path class="st24" d="M40.8,30.3c-0.3-0.3-1-0.3-1.3-0.6c-0.4-0.3-0.5-1-0.9-1.2c-0.4-0.2-1,0.3-1.5,0.3c-0.5,0-1-0.5-1.4-0.4
					c-0.4,0.1-0.6,0.8-1,1.1c-0.4,0.3-1.1,0.1-1.4,0.5c-0.3,0.4,0,1.1-0.2,1.5c-0.2,0.4-0.8,0.8-0.8,1.2C32,32.5,32,32.3,32,32.1
					c0-0.5,0.7-0.8,0.9-1.2c0.2-0.4-0.1-1.1,0.2-1.5c0.3-0.4,1-0.2,1.4-0.5c0.4-0.3,0.6-1,1-1.1c0.5-0.1,1,0.4,1.4,0.4
					c0.5,0,1-0.4,1.5-0.3c0.4,0.2,0.6,0.9,0.9,1.2c0.4,0.3,1.1,0.3,1.4,0.7C40.8,30,40.8,30.1,40.8,30.3z"/>
			</g>
		</g>
		<g>
			<g>
				<path class="st24" d="M40.5,35.6c-0.2,0.2-0.5,0.2-0.8,0.3c-0.2,0-0.4,0.1-0.6,0.2c-0.1,0.1-0.3,0.3-0.4,0.5
					c-0.2,0.3-0.4,0.6-0.7,0.6c-0.3,0.1-0.6-0.1-1-0.2c-0.2-0.1-0.4-0.2-0.5-0.2c-0.2,0-0.4,0.1-0.6,0.1c-0.3,0.1-0.6,0.2-1,0.1
					c-0.3-0.1-0.5-0.4-0.6-0.7c-0.1-0.2-0.2-0.4-0.3-0.5c-0.1-0.1-0.3-0.2-0.5-0.2c-0.3-0.1-0.7-0.2-0.9-0.5s-0.1-0.7-0.1-1
					c0-0.2,0.1-0.4,0-0.6c0-0.2-0.2-0.3-0.3-0.5c-0.2-0.3-0.4-0.5-0.4-0.9c0-0.3,0.3-0.6,0.5-0.8c0.2-0.2,0.3-0.3,0.4-0.5
					c0.1-0.1,0.1-0.4,0-0.6c0-0.3,0-0.7,0.2-1c0.2-0.3,0.5-0.3,0.9-0.4c0.2,0,0.4-0.1,0.6-0.2c0.1-0.1,0.3-0.3,0.4-0.5
					c0.2-0.3,0.4-0.6,0.7-0.6c0.3-0.1,0.6,0.1,1,0.2c0.2,0.1,0.4,0.2,0.5,0.2c0.2,0,0.4-0.1,0.6-0.1c0.3-0.1,0.6-0.2,1-0.1
					c0.3,0.1,0.5,0.4,0.6,0.7c0.1,0.2,0.2,0.4,0.3,0.5c0.1,0.1,0.3,0.2,0.5,0.2c0.3,0.1,0.7,0.2,0.9,0.5c0.2,0.3,0.1,0.7,0.1,1
					c0,0.2-0.1,0.4,0,0.6c0,0.2,0.2,0.3,0.3,0.5c0.2,0.3,0.4,0.5,0.4,0.9c0,0.3-0.3,0.6-0.5,0.8c-0.2,0.2-0.3,0.3-0.4,0.5
					c-0.1,0.1-0.1,0.4,0,0.6C40.7,34.9,40.8,35.2,40.5,35.6C40.5,35.5,40.5,35.6,40.5,35.6z M38.7,35.8c0,0,0.1-0.1,0.1-0.1
					c0.2-0.1,0.5-0.2,0.7-0.2c0.3,0,0.5-0.1,0.6-0.2c0.1-0.2,0.1-0.4,0.1-0.7c0-0.3,0-0.5,0.1-0.7c0.1-0.2,0.3-0.4,0.4-0.6
					c0.2-0.2,0.4-0.4,0.4-0.6c0-0.2-0.2-0.4-0.3-0.6c-0.2-0.2-0.3-0.4-0.4-0.6c-0.1-0.2,0-0.5,0-0.7c0-0.3,0.1-0.6,0-0.7
					c-0.1-0.2-0.4-0.2-0.6-0.3c-0.2-0.1-0.5-0.1-0.7-0.3c-0.2-0.2-0.3-0.4-0.4-0.6c-0.1-0.2-0.3-0.5-0.4-0.5c-0.2-0.1-0.4,0-0.7,0.1
					c-0.2,0.1-0.5,0.2-0.7,0.2c-0.2,0-0.5-0.1-0.7-0.2C36,28.1,35.7,28,35.5,28c-0.2,0-0.3,0.3-0.5,0.5c-0.1,0.2-0.3,0.4-0.5,0.6
					c-0.2,0.1-0.5,0.2-0.7,0.2c-0.3,0-0.5,0.1-0.6,0.2c-0.1,0.2-0.1,0.4-0.1,0.7c0,0.3,0,0.5-0.1,0.7c-0.1,0.2-0.3,0.4-0.4,0.6
					c-0.2,0.2-0.4,0.4-0.4,0.6c0,0.2,0.2,0.4,0.3,0.6c0.2,0.2,0.3,0.4,0.4,0.6c0.1,0.2,0,0.5,0,0.7c0,0.3-0.1,0.6,0,0.7
					c0.1,0.2,0.4,0.2,0.6,0.3c0.2,0.1,0.5,0.1,0.7,0.3c0.2,0.2,0.3,0.4,0.4,0.6c0.1,0.2,0.3,0.5,0.4,0.5c0.2,0.1,0.4,0,0.7-0.1
					c0.2-0.1,0.5-0.2,0.7-0.2c0.2,0,0.5,0.1,0.7,0.2c0.3,0.1,0.5,0.2,0.7,0.2c0.2,0,0.3-0.3,0.5-0.5C38.5,36.1,38.6,36,38.7,35.8z"
					/>
			</g>
		</g>
		<g>
			<g>
				<g>
					<path class="st24" d="M27,41.9c0.4,0.3,1.1,0,1.5,0.1c0.5,0.1,0.8,0.8,1.3,0.8c0.5,0,0.8-0.7,1.3-0.8c0.4-0.2,1.1,0.1,1.5-0.1
						c0.4-0.3,0.3-1,0.6-1.4c0.3-0.4,1-0.6,1.1-1c0.1-0.5-0.4-1-0.4-1.5c0-0.5,0.5-1,0.3-1.5c-0.2-0.4-0.9-0.6-1.2-1
						c-0.3-0.4-0.2-1.1-0.6-1.4c-0.4-0.3-1.1,0-1.5-0.1c-0.5-0.1-0.8-0.8-1.3-0.8c-0.5,0-0.8,0.7-1.3,0.8c-0.4,0.2-1.1-0.1-1.5,0.1
						c-0.4,0.3-0.3,1-0.6,1.4c-0.3,0.4-1,0.6-1.1,1c-0.1,0.5,0.4,1,0.4,1.5c0,0.5-0.5,1-0.3,1.5c0.2,0.4,0.9,0.6,1.2,1
						C26.6,40.9,26.6,41.6,27,41.9z"/>
				</g>
			</g>
			<g>
				<g>
					<path class="st24" d="M32.7,41.9C32.7,41.9,32.7,41.9,32.7,41.9c-0.3,0.3-0.7,0.2-1,0.2c-0.2,0-0.4,0-0.6,0
						c-0.2,0.1-0.3,0.2-0.5,0.3c-0.2,0.2-0.5,0.5-0.9,0.5c-0.3,0-0.6-0.2-0.9-0.4c-0.2-0.1-0.3-0.3-0.5-0.3c-0.1,0-0.3,0-0.6,0
						c-0.3,0-0.7,0.1-1-0.1l0,0c-0.3-0.2-0.4-0.6-0.5-0.9c-0.1-0.2-0.1-0.4-0.2-0.5c-0.1-0.1-0.3-0.2-0.5-0.3
						c-0.3-0.2-0.6-0.3-0.7-0.7c-0.1-0.3,0-0.7,0.1-1c0.1-0.2,0.2-0.4,0.2-0.6c0-0.2-0.1-0.3-0.2-0.5c-0.1-0.3-0.3-0.6-0.2-1
						c0.1-0.3,0.4-0.5,0.7-0.7c0.2-0.1,0.4-0.2,0.5-0.4c0.1-0.1,0.1-0.4,0.2-0.6c0.1-0.3,0.1-0.7,0.4-0.9c0.3-0.2,0.7-0.2,1-0.2
						c0.2,0,0.4,0,0.6,0c0.2-0.1,0.3-0.2,0.5-0.3c0.2-0.2,0.5-0.5,0.9-0.5c0.3,0,0.6,0.2,0.9,0.4c0.2,0.1,0.3,0.3,0.5,0.3
						c0.1,0,0.3,0,0.6,0c0.3,0,0.7-0.1,1,0.1c0.3,0.2,0.4,0.6,0.5,0.9c0.1,0.2,0.1,0.4,0.2,0.5c0.1,0.1,0.3,0.2,0.5,0.3
						c0.3,0.2,0.6,0.3,0.7,0.7c0.1,0.3,0,0.7-0.1,1c-0.1,0.2-0.2,0.4-0.2,0.6c0,0.2,0.1,0.3,0.2,0.5c0.1,0.3,0.3,0.6,0.2,1
						c-0.1,0.3-0.4,0.5-0.7,0.7c-0.2,0.1-0.4,0.2-0.5,0.4c-0.1,0.1-0.1,0.4-0.2,0.6C33,41.4,32.9,41.7,32.7,41.9z M27.1,41.7
						c0.2,0.1,0.4,0.1,0.7,0.1c0.2,0,0.5-0.1,0.7,0c0.2,0.1,0.4,0.2,0.6,0.4c0.2,0.2,0.4,0.3,0.6,0.3c0.2,0,0.4-0.2,0.6-0.4
						c0.2-0.2,0.4-0.3,0.6-0.4c0.2-0.1,0.5-0.1,0.7,0c0.3,0,0.5,0,0.7-0.1c0.1-0.1,0.2-0.4,0.2-0.6c0.1-0.3,0.1-0.5,0.3-0.7
						c0.1-0.2,0.4-0.4,0.6-0.5c0.2-0.1,0.4-0.3,0.5-0.4c0.1-0.2-0.1-0.4-0.2-0.7c-0.1-0.2-0.2-0.5-0.2-0.7c0-0.2,0.1-0.5,0.2-0.7
						c0.1-0.3,0.2-0.5,0.1-0.7c-0.1-0.2-0.3-0.3-0.5-0.4c-0.2-0.1-0.5-0.3-0.6-0.5c-0.1-0.2-0.2-0.4-0.3-0.7
						c-0.1-0.3-0.1-0.5-0.3-0.6s-0.4-0.1-0.7-0.1c-0.2,0-0.5,0.1-0.7,0c-0.2-0.1-0.4-0.2-0.6-0.4c-0.2-0.2-0.4-0.3-0.6-0.3
						c-0.2,0-0.4,0.2-0.6,0.4c-0.2,0.2-0.4,0.3-0.6,0.4c-0.2,0.1-0.5,0.1-0.7,0c-0.3,0-0.5,0-0.7,0.1c-0.1,0.1-0.2,0.4-0.2,0.6
						c-0.1,0.3-0.1,0.5-0.3,0.7c-0.1,0.2-0.4,0.4-0.6,0.5c-0.2,0.1-0.4,0.3-0.5,0.4c-0.1,0.2,0.1,0.4,0.2,0.7
						c0.1,0.2,0.2,0.5,0.2,0.7c0,0.2-0.1,0.5-0.2,0.7c-0.1,0.3-0.2,0.5-0.1,0.7c0.1,0.2,0.3,0.3,0.5,0.4c0.2,0.1,0.5,0.3,0.6,0.5
						c0.1,0.2,0.2,0.4,0.3,0.7C26.9,41.3,26.9,41.6,27.1,41.7L27.1,41.7z"/>
				</g>
			</g>
		</g>
		<g>
			<g>
				<path class="st24" d="M27,41.9c0.4,0.3,1.1,0,1.5,0.1c0.5,0.1,0.8,0.8,1.3,0.8c0.5,0,0.8-0.7,1.3-0.8c0.4-0.2,1.1,0.1,1.5-0.1
					c0.4-0.3,0.3-1,0.6-1.4c0.3-0.4,1-0.6,1.1-1c0.1-0.5-0.4-1-0.4-1.5c0-0.5,0.5-1,0.3-1.5c-0.2-0.4-0.9-0.6-1.2-1
					c-0.3-0.4-0.2-1.1-0.6-1.4c-0.4-0.3-1.1,0-1.5-0.1c-0.5-0.1-0.8-0.8-1.3-0.8c-0.5,0-0.8,0.7-1.3,0.8c-0.4,0.2-1.1-0.1-1.5,0.1
					c-0.4,0.3-0.3,1-0.6,1.4c-0.3,0.4-1,0.6-1.1,1c-0.1,0.5,0.4,1,0.4,1.5c0,0.5-0.5,1-0.3,1.5c0.2,0.4,0.9,0.6,1.2,1
					C26.6,40.9,26.6,41.6,27,41.9z"/>
			</g>
		</g>
		<g class="st6">
			<g>
				<path class="st24" d="M27.4,42c-0.3-0.3-0.3-1-0.5-1.3c-0.3-0.4-1-0.5-1.2-1c-0.2-0.4,0.3-1,0.3-1.5c0-0.5-0.5-1-0.4-1.5
					c0.1-0.4,0.8-0.6,1.1-1c0.3-0.4,0.2-1.1,0.6-1.4c0.4-0.3,1.1,0,1.5-0.1c0.4-0.1,0.8-0.8,1.2-0.8c-0.1-0.1-0.3-0.2-0.5-0.2
					c-0.5,0-0.8,0.7-1.3,0.8c-0.4,0.2-1.1-0.1-1.5,0.1c-0.4,0.3-0.3,1-0.6,1.4c-0.3,0.4-1,0.6-1.1,1c-0.1,0.5,0.4,1,0.4,1.5
					c0,0.5-0.5,1-0.3,1.5c0.2,0.4,0.9,0.6,1.2,1c0.3,0.4,0.2,1.1,0.6,1.4C27.1,42,27.3,42,27.4,42z"/>
			</g>
		</g>
		<g>
			<g>
				<path class="st24" d="M32.7,41.9C32.7,41.9,32.7,41.9,32.7,41.9c-0.3,0.2-0.7,0.2-1,0.2c-0.2,0-0.4,0-0.6,0
					c-0.2,0.1-0.3,0.2-0.5,0.3c-0.3,0.2-0.5,0.5-0.8,0.5c-0.3,0-0.6-0.2-0.9-0.4c-0.2-0.1-0.3-0.3-0.5-0.3c-0.1,0-0.4,0-0.6,0
					c-0.3,0-0.7,0.1-1-0.1l0,0c-0.3-0.2-0.4-0.6-0.5-0.9c-0.1-0.2-0.1-0.4-0.2-0.5c-0.1-0.1-0.3-0.2-0.5-0.4
					c-0.3-0.2-0.6-0.3-0.7-0.7c-0.1-0.3,0-0.6,0.1-1c0.1-0.2,0.2-0.4,0.2-0.6c0-0.2-0.1-0.4-0.2-0.6c-0.1-0.3-0.3-0.6-0.2-1
					c0.1-0.3,0.4-0.5,0.7-0.7c0.2-0.1,0.4-0.2,0.5-0.4c0.1-0.1,0.1-0.4,0.2-0.6c0.1-0.3,0.1-0.7,0.4-0.9c0.3-0.2,0.6-0.2,1-0.2
					c0.2,0,0.4,0,0.6,0c0.2-0.1,0.3-0.2,0.5-0.3c0.3-0.2,0.5-0.5,0.8-0.5c0.3,0,0.6,0.2,0.9,0.4c0.2,0.1,0.3,0.3,0.5,0.3
					c0.1,0,0.4,0,0.6,0c0.3,0,0.7-0.1,1,0.1c0.3,0.2,0.4,0.6,0.5,0.9c0.1,0.2,0.1,0.4,0.2,0.5c0.1,0.1,0.3,0.2,0.5,0.4
					c0.3,0.2,0.6,0.3,0.7,0.7c0.1,0.3,0,0.6-0.1,1c-0.1,0.2-0.2,0.4-0.2,0.6c0,0.2,0.1,0.4,0.2,0.6c0.1,0.3,0.3,0.6,0.2,1
					c-0.1,0.3-0.4,0.5-0.7,0.7c-0.2,0.1-0.4,0.2-0.5,0.4c-0.1,0.1-0.1,0.4-0.2,0.6C33,41.4,32.9,41.7,32.7,41.9z M27.1,41.7
					c0.2,0.1,0.4,0.1,0.7,0.1c0.2,0,0.5-0.1,0.7,0c0.2,0.1,0.4,0.2,0.6,0.4c0.2,0.2,0.4,0.3,0.6,0.3c0.2,0,0.4-0.2,0.6-0.4
					c0.2-0.2,0.4-0.3,0.6-0.4c0.2-0.1,0.5-0.1,0.7,0c0.3,0,0.5,0,0.7-0.1c0.1-0.1,0.2-0.4,0.3-0.6c0.1-0.3,0.1-0.5,0.3-0.7
					c0.1-0.2,0.4-0.3,0.6-0.5c0.2-0.1,0.5-0.3,0.5-0.5c0.1-0.2-0.1-0.4-0.2-0.7c-0.1-0.2-0.2-0.5-0.2-0.7c0-0.2,0.1-0.5,0.2-0.7
					c0.1-0.3,0.2-0.5,0.1-0.7c-0.1-0.2-0.3-0.3-0.5-0.4c-0.2-0.1-0.4-0.3-0.6-0.5c-0.1-0.2-0.2-0.4-0.3-0.7
					c-0.1-0.3-0.1-0.5-0.3-0.7c-0.2-0.1-0.4-0.1-0.7-0.1c-0.2,0-0.5,0.1-0.7,0c-0.2-0.1-0.4-0.2-0.6-0.4c-0.2-0.2-0.4-0.3-0.6-0.3
					c-0.2,0-0.4,0.2-0.6,0.4c-0.2,0.2-0.4,0.3-0.6,0.4c-0.2,0.1-0.5,0.1-0.7,0c-0.3,0-0.5,0-0.7,0.1c-0.1,0.1-0.2,0.4-0.3,0.6
					c-0.1,0.3-0.1,0.5-0.3,0.7c-0.1,0.2-0.4,0.3-0.6,0.5c-0.2,0.1-0.5,0.3-0.5,0.5c-0.1,0.2,0.1,0.4,0.2,0.7
					c0.1,0.2,0.2,0.5,0.2,0.7c0,0.2-0.1,0.5-0.2,0.7c-0.1,0.3-0.2,0.5-0.1,0.7c0.1,0.2,0.3,0.3,0.5,0.4c0.2,0.1,0.4,0.3,0.6,0.5
					c0.1,0.2,0.2,0.4,0.3,0.7C26.8,41.3,26.9,41.6,27.1,41.7L27.1,41.7z"/>
			</g>
		</g>
		<g class="st17">
			<g>
				
					<ellipse transform="matrix(0.7352 -0.6778 0.6778 0.7352 -14.7983 34.281)" class="st24" cx="36.5" cy="36.1" rx="0.4" ry="0.2"/>
			</g>
		</g>
		<g>
			<g>
				<path class="st24" d="M42.1,31.7c0.3,0.3,0.5,0.6,0.6,0.9c0,0.1,0.1,0.2,0.1,0.3c0,0,0,0.1,0,0.1c0,0.2,0.1,0.3,0.1,0.5
					c0,0,0,0.1,0,0.1c0,0,0,0.1,0,0.1c0,0,0,0.1,0,0.1c0,0,0,0,0,0c0,0,0,0.1,0,0.1c0,0.1,0,0.2,0,0.2c0,0,0,0.1,0,0.1
					c0,0.1,0,0.1-0.1,0.2c0,0,0,0.1,0,0.1c-0.1,0.2-0.2,0.4-0.3,0.5c0,0,0,0.1-0.1,0.1c-0.1,0.1-0.1,0.1-0.2,0.2L32,44.9l0,0l-2.2,2
					c0,0,0,0,0,0c0,0,0,0,0,0c0,0,0.1-0.1,0.1-0.2c0,0,0,0,0,0c0,0,0,0,0,0c0,0,0,0,0,0c0,0,0,0,0,0c0,0,0,0,0,0c0,0,0,0,0,0
					c0-0.1,0.1-0.1,0.1-0.2c0,0,0,0,0,0c0.1-0.1,0.1-0.2,0.1-0.4c0,0,0,0,0,0c0,0,0,0,0,0c0,0,0,0,0,0c0,0,0,0,0,0c0,0,0,0,0,0
					c0,0,0-0.1,0-0.1c0,0,0,0,0,0c0,0,0-0.1,0-0.1c0,0,0,0,0-0.1c0,0,0,0,0,0c0,0,0,0,0,0c0,0,0,0,0-0.1c0,0,0,0,0-0.1c0,0,0,0,0,0
					c0,0,0,0,0,0c0,0,0,0,0-0.1c0-0.1,0-0.3-0.1-0.4c0,0,0,0,0-0.1c0,0,0,0,0,0c0,0,0,0,0-0.1c0,0,0,0,0,0c0,0,0,0,0-0.1
					c0,0,0,0,0,0c0,0,0,0,0-0.1c0,0,0,0,0,0c0,0,0,0,0-0.1c0,0,0,0,0,0c-0.1-0.1-0.1-0.3-0.2-0.4c0,0,0,0,0,0c0-0.1-0.1-0.1-0.1-0.1
					l0,0c-0.5-0.8-0.9-1.6-1.2-2.4l0,0c-1.3-3.6-0.7-7.3,1.8-9.7c2.8-2.5,7.1-2.4,10.8-0.4c0.2,0.1,0.4,0.3,0.6,0.4
					c0.1,0,0.1,0.1,0.2,0.1l0,0C42,31.6,42.1,31.7,42.1,31.7z"/>
			</g>
		</g>
		<g class="st6">
			<g>
				<path class="st24" d="M42.1,31.7c0.1,0.1,0.1,0.2,0.2,0.2c0,0-0.1-0.1-0.1-0.1c-0.2-0.2-0.4-0.3-0.6-0.4c-3.7-2-8-2.1-10.8,0.4
					c-2.5,2.3-3.1,6.1-1.8,9.7l0,0c0.3,0.7,0.6,1.5,1,2.2c0,0-0.1,0-0.1,0.1c0,0,0,0,0-0.1c0,0,0,0,0,0c0-0.1-0.1-0.1-0.1-0.1l0,0
					c-0.5-0.8-0.9-1.6-1.2-2.4l0,0c-1.3-3.6-0.7-7.3,1.8-9.7c2.8-2.5,7.1-2.4,10.8-0.4c0.2,0.1,0.4,0.3,0.6,0.4
					c0.1,0,0.1,0.1,0.2,0.1l0,0C42,31.6,42.1,31.7,42.1,31.7z"/>
			</g>
		</g>
		<g class="st11">
			<g>
				<path class="st24" d="M41.4,31.2c-0.2-0.1-0.4-0.3-0.2-0.2C41.3,31.1,41.4,31.2,41.4,31.2z"/>
			</g>
		</g>
		<g>
			<g>
				<path class="st24" d="M32.1,45l-2.2,2c-0.1,0.1-0.2,0.1-0.3,0c-0.1-0.1-0.1-0.2,0-0.3c0.7-0.7,0.8-1.9,0.2-2.9l0,0c0,0,0,0,0,0
					c0,0-0.1-0.1-0.1-0.1c0,0,0,0,0,0c-1.3-2.1-2-4.4-1.9-6.6c0.1-2.3,1-4.3,2.5-5.7c1.4-1.2,3.1-1.9,5.2-2c1.9,0,3.9,0.5,5.8,1.5
					c1,0.5,1.7,1.5,1.8,2.5c0.1,0.8-0.2,1.6-0.7,2.1L32.1,45C32.1,45,32.1,45,32.1,45z M30.6,45.9l1.2-1.1c0,0,0,0,0,0l10.3-9.5
					c0.5-0.4,0.7-1.1,0.6-1.8c-0.1-0.9-0.7-1.7-1.6-2.2c-3.9-2.1-8-1.9-10.6,0.4c-2.9,2.7-3.2,7.7-0.5,11.8c0,0,0,0,0,0
					c0,0.1,0.1,0.1,0.1,0.2c0,0,0,0,0,0C30.6,44.4,30.7,45.2,30.6,45.9z M29.8,43.8L29.8,43.8L29.8,43.8z M29.8,43.8
					C29.8,43.8,29.8,43.8,29.8,43.8C29.8,43.8,29.8,43.8,29.8,43.8z"/>
			</g>
		</g>
		<g class="st11">
			<g>
				<path class="st24" d="M30.1,35.7c0.5,0,0.3,0.8,0.4,1.8c0.1,1,0.4,1.8-0.1,1.8c-0.5,0-1-0.7-1.1-1.7
					C29.2,36.6,29.6,35.8,30.1,35.7z"/>
			</g>
		</g>
		<g class="st11">
			<g>
				<circle class="st24" cx="36.9" cy="31.5" r="0.1"/>
			</g>
		</g>
		<g class="st11">
			<g>
				<circle class="st24" cx="30.6" cy="41.2" r="0.1"/>
			</g>
		</g>
		<g class="st11">
			<g>
				<circle class="st24" cx="38.2" cy="34.3" r="0.1"/>
			</g>
		</g>
		<g class="st11">
			<g>
				<circle class="st24" cx="33.4" cy="41.6" r="0.1"/>
			</g>
		</g>
		<g class="st11">
			<g>
				<circle class="st24" cx="30.2" cy="33.8" r="0.1"/>
			</g>
		</g>
		<g class="st11">
			<g>
				<circle class="st24" cx="33.1" cy="34.3" r="0.1"/>
			</g>
		</g>
		<g class="st11">
			<g>
				<circle class="st24" cx="34.7" cy="39.3" r="0.1"/>
			</g>
		</g>
		<g class="st11">
			<g>
				<circle class="st24" cx="33.4" cy="32.3" r="0.1"/>
			</g>
		</g>
		<g class="st11">
			<g>
				<ellipse class="st24" cx="35.9" cy="31.5" rx="0.2" ry="0.2"/>
			</g>
		</g>
		<g class="st11">
			<g>
				<ellipse class="st24" cx="41.6" cy="33.4" rx="0.2" ry="0.2"/>
			</g>
		</g>
		<g class="st11">
			<g>
				<ellipse class="st24" cx="38.4" cy="37.6" rx="0.2" ry="0.2"/>
			</g>
		</g>
		<g>
			<g>
				<g>
					<g>
						<path class="st0" d="M37.1,32.9c-0.4-0.5-1-0.7-1.4-0.4c-0.3,0.3-0.3,0.9,0.1,1.4c0.4,0.5,1,0.7,1.4,0.4
							C37.5,34,37.5,33.4,37.1,32.9z"/>
					</g>
				</g>
			</g>
			<g>
				<g>
					<path class="st0" d="M36.4,33.2C36.2,33,36,32.9,35.9,33s-0.1,0.3,0.1,0.5c0.2,0.2,0.4,0.2,0.5,0.1
						C36.5,33.6,36.5,33.3,36.4,33.2z"/>
				</g>
				<g>
					<path class="st0" d="M36.4,33.7C36.4,33.7,36.4,33.7,36.4,33.7c-0.1,0.1-0.4,0-0.5-0.1c-0.1-0.1-0.1-0.2-0.1-0.3
						c0-0.1,0-0.2,0.1-0.2c0.1-0.1,0.4,0,0.5,0.1l0,0C36.5,33.3,36.6,33.6,36.4,33.7z M35.9,33c0,0-0.1,0.1-0.1,0.2
						c0,0.1,0.1,0.2,0.1,0.3c0.1,0.2,0.3,0.2,0.5,0.1c0.1-0.1,0.1-0.3-0.1-0.5l0,0C36.2,33,36,33,35.9,33C35.9,33,35.9,33,35.9,33z"
						/>
				</g>
			</g>
			<g>
				<g>
					<g>
						<path class="st0" d="M35.6,34.8c0.5,0.6,0.8,1.5,0.4,1.8c-0.4,0.4-1.3,0.1-1.8-0.5L35.6,34.8z"/>
					</g>
				</g>
				<g>
					<g>
						<path class="st0" d="M36.1,35.6c-0.2,0-0.5,0.1-0.7,0.3c-0.2,0.2-0.3,0.5-0.3,0.8c0.4,0.1,0.8,0.1,1-0.1
							C36.2,36.4,36.2,36,36.1,35.6z"/>
					</g>
				</g>
				<g>
					<g>
						<path class="st0" d="M36.2,36.8c-0.5,0.5-1.6,0.1-2.2-0.5c0,0-0.1-0.1-0.1-0.2S34,36,34,36l1.4-1.3c0,0,0,0,0,0
							c0.1-0.1,0.2-0.1,0.3,0c0.3,0.3,0.5,0.7,0.6,1.1C36.5,36.2,36.4,36.6,36.2,36.8C36.2,36.8,36.2,36.8,36.2,36.8z M34.5,36.2
							c0.5,0.4,1.1,0.5,1.3,0.3c0,0,0,0,0,0c0.1-0.1,0.1-0.3,0.1-0.6c-0.1-0.2-0.2-0.5-0.4-0.7L34.5,36.2z"/>
					</g>
				</g>
			</g>
			<g>
				<g>
					<g>
						<path class="st0" d="M32.1,37.6c-0.5-0.5-0.6-1.1-0.3-1.4c0.3-0.3,0.9-0.2,1.4,0.3c0.5,0.5,0.6,1.1,0.3,1.4
							C33.2,38.2,32.5,38.1,32.1,37.6z"/>
					</g>
				</g>
			</g>
			<g>
				<g>
					<path class="st0" d="M32.4,37c-0.2-0.2-0.2-0.4-0.1-0.5c0.1-0.1,0.3-0.1,0.5,0.1c0.2,0.2,0.2,0.4,0.1,0.5S32.6,37.1,32.4,37z"
						/>
				</g>
				<g>
					<path class="st0" d="M32.9,37.1c-0.1,0.1-0.4,0.1-0.5-0.1l0,0c-0.2-0.2-0.2-0.4-0.1-0.5c0.1-0.1,0.1-0.1,0.3-0.1
						c0.1,0,0.2,0.1,0.3,0.2C33,36.7,33.1,37,32.9,37.1C33,37.1,32.9,37.1,32.9,37.1z M32.5,36.9c0.2,0.2,0.4,0.2,0.5,0.1
						c0.1-0.1,0.1-0.3-0.1-0.5c-0.1-0.1-0.2-0.1-0.3-0.1c-0.1,0-0.2,0-0.2,0C32.2,36.6,32.3,36.8,32.5,36.9L32.5,36.9z"/>
				</g>
			</g>
		</g>
	</g>
</g>
</svg>
