<?xml version="1.0" encoding="utf-8"?>
<!-- Generator: Adobe Illustrator 24.3.0, SVG Export Plug-In . SVG Version: 6.00 Build 0)  -->
<svg version="1.1" id="Layer_1" xmlns:v="https://vecta.io/nano" opacity="0.1"
	 xmlns="http://www.w3.org/2000/svg" xmlns:xlink="http://www.w3.org/1999/xlink" x="0px" y="0px" viewBox="0 0 193 230"
	 style="enable-background:new 0 0 193 230;" xml:space="preserve">
<style type="text/css">
	.st0{display:none;fill:#DBCDF9;}
	.st1{display:none;fill:#A28BD4;}
	.st2{display:none;}
	.st3{display:inline;fill-rule:evenodd;clip-rule:evenodd;fill:#633001;}
	.st4{display:inline;fill:#DBCDF9;}
	.st5{fill:#FBAB3D;}
	.st6{fill:#EF3D33;}
	.st7{fill-rule:evenodd;clip-rule:evenodd;fill:#633001;}
	.st8{fill:#623312;}
	.st9{opacity:0.55;}
	.st10{opacity:0.16;}
	.st11{opacity:0.25;}
	.st12{opacity:0.3;}
	.st13{opacity:0.65;}
</style>
<path class="st0" d="M219.3,82.4c2.3,2.3,2.6,5.9,0.8,8.6c-34.2,48.9-76.6,91.6-125.2,126.3L91,220c-2.8,2-6.7,1.7-9.1-0.8L64.6,202
	c10.2-10.6,10.1-27.4-0.3-37.8s-27.3-10.5-37.8-0.3l-15.9-15.9c-2.7-2.7-2.7-7.1,0-9.8c0.3-0.3,0.6-0.5,0.9-0.7l3.8-2.7
	c47.4-33.8,88.8-75.5,122.2-123.3c2.3-3.3,7.1-3.8,10-0.9l16.2,16.2c-10.2,10.6-10,27.4,0.4,37.8s27.2,10.5,37.8,0.4L219.3,82.4
	L219.3,82.4z"/>
<path class="st1" d="M227,87.2l-61.8,78.2l-79.9,60.5l-15.4-15.5l-5.5-6.7l5.5-8l1.9-8l-1.1-8.6l-3.2-8l-5.3-6.4l-6.4-4.3l-7-2.1
	h-8.6l-9.1,3.2l-5.4,4.8L13,150.7l20.9-3.1c64.8-9.7,126-35.8,177.7-75.9L227,87.2L227,87.2z"/>
<g class="st2">
	<path class="st3" d="M56.8,202.7c0-2.3,0.9-4.5,2.5-6.1l0,0c7.2-7.2,7.2-18.9,0-26.1s-18.9-7.2-26.1,0l0,0c-3.3,3.3-8.8,3.4-12.1,0
		c0,0,0,0,0,0L4.5,154c-6.8-6.8-5.8-18,2-23.5l3.8-2.7l5,7l-3.8,2.7c-3.1,2.2-3.8,6.5-1.6,9.7c0.2,0.3,0.5,0.6,0.7,0.9l16.6,16.6
		l0.1-0.1c10.5-10.5,27.6-10.5,38.1,0s10.5,27.6,0,38.1l0,0l0,0l16.5,16.5c2.4,2.4,6.3,2.8,9.1,0.8l3.8-2.7
		c48.6-34.7,91-77.4,125.2-126.3c1.9-2.7,1.6-6.3-0.8-8.6L202,65l-0.2,0.2l-0.2,0.2c-10.6,10.3-27.5,10.3-38-0.2s-10.5-27.4-0.2-38
		l0.2-0.2l0.2-0.2l-16.3-16.3c-2.6-2.6-6.7-2.6-9.3,0c-0.3,0.3-0.5,0.6-0.7,0.9c-33.4,47.7-74.7,89.4-122.2,123.3l-5-7
		C57,94.4,97.6,53.4,130.5,6.5c5.4-7.7,16.4-8.7,23.1-2l16.3,16.3c3.3,3.3,3.3,8.8,0,12.1c0,0,0,0-0.1,0.1l-0.1,0.1
		c-7.2,7.2-7.2,18.9,0,26.1s18.9,7.2,26.1,0l0.1-0.1c3.3-3.4,8.7-3.4,12.1-0.1c0,0,0,0,0.1,0.1l17.4,17.4c5.2,5.2,6,13.5,1.7,19.6
		c-34.8,49.7-77.8,93.1-127.2,128.4L96,227c-6.2,4.4-14.7,3.7-20.1-1.7l-16.5-16.5C57.7,207.2,56.8,205,56.8,202.7L56.8,202.7z"/>
	<path class="st3" d="M115,40.4l3.8,3.8c1.6,1.7,1.6,4.4-0.1,6.1c-1.7,1.6-4.3,1.6-6,0l-3.8-3.8c-1.6-1.7-1.6-4.4,0.1-6.1
		C110.7,38.9,113.3,38.9,115,40.4z M130.9,56.3l3.8,3.8c1.6,1.7,1.6,4.4-0.1,6.1c-1.7,1.6-4.2,1.6-5.9,0l-3.8-3.8
		c-1.6-1.7-1.6-4.4,0.1-6.1C126.6,54.7,129.2,54.7,130.9,56.3L130.9,56.3z M150.5,82c-1.7,1.7-4.4,1.7-6.1,0l-4.5-4.5
		c-1.6-1.7-1.6-4.4,0.1-6.1c1.7-1.6,4.3-1.6,5.9,0l4.5,4.5C152.2,77.7,152.2,80.4,150.5,82L150.5,82z M166.4,97.9
		c-1.7,1.7-4.4,1.7-6.1,0l-4.5-4.5c-1.6-1.7-1.6-4.4,0.1-6.1c1.7-1.6,4.3-1.6,6,0l4.5,4.5C168.1,93.6,168.1,96.3,166.4,97.9z
		 M177.8,103.2l3.8,3.8c1.6,1.7,1.6,4.4-0.1,6.1c-1.7,1.6-4.3,1.6-5.9,0l-3.8-3.8c-1.6-1.7-1.6-4.4,0.1-6.1
		C173.5,101.6,176.1,101.6,177.8,103.2z M193.6,119.1l3.8,3.8c1.6,1.7,1.6,4.4-0.1,6.1c-1.7,1.6-4.3,1.6-5.9,0l-3.8-3.8
		c-1.6-1.7-1.6-4.4,0.1-6.1C189.4,117.5,192,117.5,193.6,119.1z M92.8,106.7c-4.6-4.6-4.6-12.1,0-16.6c5.2-5.2,13.9-4.4,18,1.7
		l10.5,15.3c9.2-2.9,18.9-2.5,25.3,3.9c5.8,5.8,6.7,14.3,4.7,22.4c-2,8.2-7,16.9-14.4,24.2s-16,12.4-24.2,14.4
		c-8.1,2-16.7,1.1-22.4-4.7c-6.4-6.4-6.8-16-3.9-25.1L71,131.7c-6.1-4.2-6.9-12.8-1.7-18c4.6-4.6,12.1-4.6,16.6,0l10.6,10.6
		c1.1-1.2,2.2-2.4,3.4-3.6c1.1-1.1,2.3-2.2,3.5-3.2L92.8,106.7L92.8,106.7z"/>
</g>
<g class="st2">
	
		<ellipse transform="matrix(0.7071 -0.7071 0.7071 0.7071 -71.7291 117.6007)" class="st4" cx="106.1" cy="145.4" rx="5.1" ry="7.5"/>
	
		<ellipse transform="matrix(0.7071 -0.7071 0.7071 0.7071 -52.5401 125.5489)" class="st4" cx="125.3" cy="126.2" rx="5.1" ry="7.5"/>
</g>
<path class="st5" d="M224,78.3c2.3,2.3,2.7,6,0.8,8.7c-34.6,49.4-77.4,92.6-126.5,127.7l-8.9,2.8c-2.8,2-6.7,1.7-9.2-0.8l-12.5-17.5
	c10.5-10.8,10.2-28.1-0.6-38.6c-10.6-10.3-27.4-10.3-38,0L13,144.6c-3.1-3.1-2.6-8.1,0.9-10.6l3.9-2.8C65.7,97,107.5,54.8,141.2,6.6
	c2.1-3,6.3-3.7,9.3-1.6c0.3,0.2,0.6,0.5,0.9,0.7L167.7,22c-10.5,10.8-10.1,28.1,0.7,38.6c10.6,10.2,27.3,10.2,37.9,0L224,78.3
	L224,78.3z"/>
<path class="st6" d="M231.7,84.5l-62.5,79.1l-85.8,61.1L73,209.1l-5.6-6.8l5.6-8.1l2-8.1l-1.1-8.6l-3.2-8.1l-5.4-6.5l-6.5-4.3
	l-7-2.2H43l-9.2,3.2l-5.4,4.9l-13-15.7l21.1-3.1c65.5-9.8,127.3-36.2,179.6-76.8L231.7,84.5L231.7,84.5z"/>
<g>
	<path class="st7" d="M59.7,200.4c0-2.3,0.9-4.5,2.5-6.1l0,0c7.1-7.4,6.8-19.2-0.6-26.3c-7.2-6.9-18.5-6.9-25.7,0l0,0
		c-3.4,3.4-8.8,3.4-12.2,0c0,0,0,0,0,0L6.9,151.1c-6.1-6.1-6.1-16,0-22.1c0.6-0.6,1.3-1.2,2-1.7l3.9-2.8l5,7l-3.9,2.8
		c-3.5,2.5-3.9,7.6-0.9,10.6l16.8,16.8l0,0c10.7-10.7,27.9-10.6,38.6,0c10.6,10.6,10.7,27.9,0,38.5l-0.1,0.1l11.7,16.7
		c2.5,2.5,6.4,2.8,9.2,0.8l3.9-2.8c49.1-35,96.9-78.2,131.5-127.7c1.9-2.7,1.6-6.4-0.8-8.7l-17.5-17.5l-0.4,0.4
		c-10.7,10.6-28,10.5-38.6-0.3C157,50.7,157,33.7,167.5,23l0.4-0.4L151.4,6.2c-2.6-2.6-6.8-2.6-9.4,0c-0.3,0.3-0.5,0.6-0.7,0.9
		C107.5,55.3,65.7,97.4,17.8,131.6l-5-7C59.9,91,100.9,49.5,134.2,2.1c4.8-6.9,14.4-8.6,21.3-3.7c0.7,0.5,1.4,1.1,2,1.7L174,16.5
		c3.4,3.4,3.4,8.8,0,12.2c0,0,0,0-0.1,0.1l-0.1,0.1c-7.1,7.4-6.8,19.2,0.6,26.3c7.2,6.9,18.5,6.9,25.7,0l0.1-0.1
		c3.3-3.4,8.8-3.5,12.2-0.1c0,0,0,0,0.1,0.1l17.5,17.5c5.3,5.3,6,13.6,1.7,19.8c-35.2,50.3-83.7,94.1-133.6,129.8l-3.9,2.8
		c-6.3,4.5-14.9,3.8-20.4-1.7l-11.7-16.7C60.7,204.9,59.8,202.7,59.7,200.4L59.7,200.4z"/>
	<g>
		<path id="A" class="st7" d="M118.5,36.4l3.8,3.8c1.7,1.7,1.7,4.4,0,6.1c-1.7,1.7-4.4,1.7-6.1,0l-3.8-3.8c-1.7-1.7-1.7-4.4,0-6.1
			C114.1,34.7,116.8,34.7,118.5,36.4z"/>
	</g>
	<g>
		<path id="A_1_" class="st7" d="M134.5,52.4l3.8,3.8c1.7,1.7,1.7,4.4,0,6.1c-1.7,1.7-4.4,1.7-6.1,0l-3.8-3.8
			c-1.7-1.7-1.7-4.4,0-6.1C130.1,50.8,132.9,50.8,134.5,52.4z"/>
	</g>
	<g>
		<path id="B" class="st7" d="M154.4,78.4c-1.7,1.7-4.4,1.7-6.1,0c0,0,0,0,0,0l-4.6-4.6c-1.7-1.7-1.7-4.4,0-6.1
			c1.7-1.7,4.4-1.7,6.1,0l4.6,4.6C156.1,74,156.1,76.7,154.4,78.4C154.4,78.4,154.4,78.4,154.4,78.4z"/>
	</g>
	<g>
		<path id="B_1_" class="st7" d="M170.5,94.5c-1.7,1.7-4.4,1.7-6.1,0c0,0,0,0,0,0l-4.6-4.6c-1.7-1.7-1.7-4.4,0-6.1s4.4-1.7,6.1,0
			l4.6,4.6C172.2,90.1,172.2,92.8,170.5,94.5C170.5,94.5,170.5,94.5,170.5,94.5z"/>
	</g>
	<path class="st7" d="M182,99.8l3.8,3.8c1.7,1.7,1.7,4.4,0,6.1c-1.7,1.7-4.4,1.7-6.1,0l-3.8-3.8c-1.7-1.7-1.7-4.4,0-6.1
		C177.5,98.2,180.3,98.2,182,99.8L182,99.8z"/>
	<g>
		<path id="A_2_" class="st7" d="M198,115.9l3.8,3.8c1.7,1.7,1.7,4.4,0,6.1c-1.7,1.7-4.4,1.7-6.1,0l-3.8-3.8c-1.7-1.7-1.7-4.4,0-6.1
			C193.6,114.2,196.3,114.2,198,115.9z"/>
	</g>
</g>
<g>
	<g>
		<g>
			<g>
				<path class="st8" d="M150.6,129.7l-40.2,37.1c-1.9,1.8-5.4,1-7.3-1.6c-11-15.5-11-35,0.7-45.8s31.2-9.2,45.8,3
					C152.1,124.4,152.6,127.9,150.6,129.7z"/>
			</g>
		</g>
		<g>
			<g>
				<path class="st8" d="M151.1,130.2l-40.2,37.1c-0.9,0.9-2.2,1.3-3.6,1.1c-1.8-0.2-3.6-1.3-4.7-2.9c-5.4-7.7-8.4-16.6-8.3-25.1
					c0.1-8.7,3.3-16.4,9.1-21.7c5.8-5.3,13.7-7.9,22.4-7.3c8.5,0.6,17.1,4.3,24.3,10.3c1.5,1.3,2.4,3.1,2.5,4.9
					C152.5,128.1,152,129.3,151.1,130.2z M104.3,119.8c-11.4,10.5-11.7,29.4-0.6,44.9c0.9,1.3,2.3,2.1,3.7,2.3
					c1,0.1,1.9-0.2,2.5-0.8l40.2-37.1c0.6-0.6,1-1.5,1-2.5c0-1.4-0.8-2.9-2-3.9C134.5,110.6,115.7,109.3,104.3,119.8z"/>
			</g>
		</g>
		<g>
			<g>
				<circle class="st8" cx="118.5" cy="109.1" r="7.7"/>
			</g>
		</g>
		<g class="st9">
			<g>
				<path class="st8" d="M125.1,105.1c-0.2-0.2-0.4-0.4-0.6-0.6c-3.3-2.7-8.1-2.3-10.8,0.9c-2.2,2.6-2.3,6.2-0.7,8.9
					c-2.7-2.8-2.9-7.2-0.3-10.2c2.7-3.3,7.6-3.7,10.8-0.9C124.1,103.8,124.7,104.4,125.1,105.1z"/>
			</g>
		</g>
		<g>
			<g>
				<path class="st8" d="M124.2,115.3c-1.4,1.3-3.1,2-4.9,2.2c-2.2,0.2-4.4-0.5-6.1-1.9s-2.8-3.5-3-5.7c-0.2-2.2,0.5-4.4,1.9-6.1
					c1.4-1.7,3.5-2.8,5.7-3c2.2-0.2,4.4,0.5,6.1,1.9c1.7,1.4,2.8,3.5,3,5.7c0.2,2.2-0.5,4.4-1.9,6.1
					C124.7,114.8,124.4,115,124.2,115.3z M113.8,103.9c-0.2,0.2-0.4,0.4-0.6,0.7c-1.2,1.4-1.8,3.2-1.6,5.1c0.2,1.9,1,3.5,2.5,4.7
					c1.4,1.2,3.2,1.8,5.1,1.6c1.9-0.2,3.5-1,4.7-2.5c1.2-1.4,1.8-3.2,1.6-5.1c-0.2-1.9-1-3.5-2.5-4.7c-1.4-1.2-3.2-1.8-5.1-1.6
					C116.3,102.2,114.9,102.9,113.8,103.9z"/>
			</g>
		</g>
		<g class="st10">
			<g>
				<path class="st8" d="M150.6,129.7l-40.2,37.1c-1.9,1.8-5.4,1-7.3-1.6c-11-15.5-11-35,0.7-45.8s31.2-9.2,45.8,3
					C152.1,124.4,152.6,127.9,150.6,129.7z"/>
			</g>
		</g>
		<g>
			<g>
				<circle class="st8" cx="102.5" cy="145.9" r="9.5"/>
			</g>
		</g>
		<g>
			<g>
				<circle class="st8" cx="102.5" cy="145.9" r="9.5"/>
			</g>
		</g>
		<g class="st11">
			<g>
				<path class="st8" d="M109.6,139.4c3.6,3.9,3.3,9.9-0.5,13.5s-9.9,3.3-13.5-0.5c-0.7-0.7-1.2-1.6-1.6-2.4
					c3.5,2.1,8.1,1.7,11.3-1.2c3.1-2.9,3.9-7.4,2.2-11C108.2,138.1,108.9,138.7,109.6,139.4z"/>
			</g>
		</g>
		<g class="st9">
			<g>
				<path class="st8" d="M111.3,142.1c-0.2-0.3-0.4-0.6-0.7-0.8c-3.6-3.9-9.6-4.1-13.5-0.5c-3.1,2.8-3.9,7.2-2.3,10.8
					c-2.8-3.9-2.4-9.3,1.2-12.7c3.9-3.6,9.9-3.3,13.5,0.5C110.3,140.2,110.9,141.1,111.3,142.1z"/>
			</g>
		</g>
		<g>
			<g>
				<path class="st8" d="M109.5,153.4c-4.2,3.8-10.6,3.6-14.5-0.6s-3.6-10.6,0.6-14.5c4.2-3.8,10.6-3.6,14.5,0.6
					S113.6,149.6,109.5,153.4z M96.5,139.4c-3.6,3.3-3.8,8.9-0.5,12.5c3.3,3.6,8.9,3.8,12.5,0.5c3.6-3.3,3.8-8.9,0.5-12.5
					C105.7,136.3,100.1,136.1,96.5,139.4z"/>
			</g>
		</g>
		<g>
			<g>
				<path class="st8" d="M118.9,124.2l-8,4.6c-1.5,0.9-3.4,0.4-4.3-1.1l-5.8-10c-0.9-1.5-0.4-3.4,1.1-4.3l8-4.6
					c1.5-0.9,3.4-0.4,4.3,1.1l5.8,10C120.9,121.4,120.4,123.3,118.9,124.2z"/>
			</g>
		</g>
		<g class="st9">
			<g>
				<path class="st8" d="M103.4,112.6c-1.5,0.9-2,2.8-1.1,4.3l5.8,10c0.9,1.5,2.8,2,4.3,1.1l-1.4,0.8c-1.5,0.9-3.4,0.4-4.3-1.1
					l-5.8-10c-0.9-1.5-0.4-3.4,1.1-4.3L103.4,112.6z"/>
			</g>
		</g>
		<g>
			<g>
				<path class="st8" d="M118.9,124.2l-8,4.6c-1.5,0.9-3.4,0.4-4.3-1.1l-5.8-10c-0.9-1.5-0.4-3.4,1.1-4.3l8-4.6
					c1.5-0.9,3.4-0.4,4.3,1.1l5.8,10C120.9,121.4,120.4,123.3,118.9,124.2z"/>
			</g>
		</g>
		<g>
			<g>
				<path class="st8" d="M119.9,124.3c-0.2,0.2-0.4,0.4-0.7,0.5l0,0l-8,4.6c-1.8,1.1-4.2,0.4-5.3-1.4l-5.8-10
					c-1.1-1.8-0.4-4.2,1.4-5.3l8-4.6c1.8-1.1,4.2-0.4,5.3,1.4l5.8,10C121.6,121.1,121.2,123.1,119.9,124.3z M118.5,123.6
					c0.6-0.3,1-0.9,1.1-1.5c0.2-0.6,0.1-1.3-0.2-1.9l-5.8-10c-0.7-1.2-2.2-1.6-3.4-0.9l-8,4.6c-0.6,0.3-1,0.9-1.1,1.5
					c-0.2,0.6-0.1,1.3,0.2,1.9l5.8,10c0.7,1.2,2.2,1.6,3.4,0.9L118.5,123.6z"/>
			</g>
		</g>
		<g class="st11">
			<g>
				<path class="st8" d="M109.2,145.6c-0.7-0.7-1.5-1.3-2.4-1.7l0.3-0.3L109.2,145.6z"/>
			</g>
		</g>
		<g>
			<g>
				<g>
					<path class="st8" d="M104.3,147.1c-1.8,0.6-3,3.3-1.5,5.2c-0.7,0.3-1.2,1-1.3,1.7c-0.1,0.8,0.4,1.5,1,1.9
						c-7,7.6,2.8,15.4,9.4,9.3l5.2-4.8l0.3-10.2l-8.6-8.4L104.3,147.1z"/>
				</g>
				<g>
					<path class="st8" d="M117.3,160.5L117.3,160.5l-5.2,4.8c-3.5,3.2-7.9,2.5-10.2,0.2c-2-2-3-5.7,0.6-9.6c-0.6-0.4-1-1.2-1-1.9
						c0.1-0.8,0.6-1.5,1.2-1.8c-0.6-0.8-0.8-1.8-0.5-2.9c0.3-1.1,1.1-2,2.1-2.3l4.5-5.3c0,0,0,0,0.1,0c0,0,0.1,0,0.1,0l8.6,8.4
						c0,0,0,0,0,0.1L117.3,160.5C117.3,160.5,117.3,160.5,117.3,160.5z M102.3,152.8c-0.4,0.3-0.6,0.8-0.6,1.3
						c-0.1,0.7,0.3,1.5,1,1.8c0,0,0,0,0.1,0.1c0,0,0,0.1,0,0.1c-3.6,3.9-2.6,7.5-0.6,9.4c2.2,2.2,6.5,2.9,9.9-0.2l5.2-4.8l0.3-10.1
						l-8.5-8.3l-4.4,5.2c0,0,0,0,0,0c-0.9,0.3-1.7,1.2-2,2.2c-0.3,1-0.1,2,0.5,2.8c0,0,0,0.1,0,0.1c0,0,0,0.1-0.1,0.1
						C102.6,152.5,102.4,152.6,102.3,152.8z"/>
				</g>
			</g>
			<g class="st11">
				<g>
					<path class="st8" d="M117.2,150.6l-0.1,10l-5,4.6c-3.9,3.6-9,2.1-10.9-1.4c3.4,0.7,7.1-0.2,9.8-2.7c4.6-4.2,4.8-11.5,0.4-16.3
						c-0.1-0.1-0.1-0.1-0.2-0.2L117.2,150.6z"/>
				</g>
			</g>
			<g class="st9">
				<g>
					<path class="st8" d="M105,146.7c0.1,0.2,0.1,0.5,0.2,0.8c-1.1,0.9-1.7,2.6-1,4.1c0.2,0.3,0.1,0.7-0.2,0.9
						c-0.4,0.3-0.7,0.9-0.7,1.4c0,0.5,0.2,1.1,0.5,1.5c0.2,0.3,0.3,0.7,0,1c-4.7,5.8,0.1,11.5,5.4,10.9c-6.1,2.1-12.5-4.6-6.5-11.1
						c-0.7-0.4-1.1-1.1-1-1.9c0.1-0.8,0.6-1.5,1.3-1.7c-1.5-1.9-0.3-4.5,1.5-5.2L105,146.7z"/>
				</g>
			</g>
			<g>
				<g>
					<path class="st8" d="M117.7,161L117.7,161l-5.2,4.8c-3.8,3.5-8.5,2.7-11,0.2c-2.2-2.2-3-6.1,0.1-9.9c-0.5-0.5-0.8-1.3-0.7-2
						s0.4-1.5,1-1.9c-0.4-0.9-0.5-1.9-0.2-2.9c0.4-1.2,1.2-2.2,2.3-2.7l4.4-5.2c0.1-0.1,0.3-0.2,0.5-0.2s0.4,0.1,0.5,0.2l8.6,8.4
						c0.1,0.1,0.2,0.3,0.2,0.5l-0.3,10.2C117.9,160.7,117.8,160.8,117.7,161z M102.7,153.2c-0.2,0.2-0.4,0.5-0.4,0.9
						c0,0.5,0.2,1,0.7,1.2c0.2,0.1,0.3,0.3,0.4,0.5c0,0.2,0,0.4-0.2,0.6c-3.3,3.5-2.4,6.8-0.7,8.6c2.1,2,5.9,2.7,9.1-0.2l5-4.6
						l0.3-9.6l-7.9-7.7l-4,4.7c-0.1,0.1-0.2,0.2-0.3,0.2c-0.7,0.3-1.3,1-1.6,1.8c-0.1,0.5-0.3,1.4,0.4,2.3c0.1,0.2,0.2,0.4,0.1,0.6
						c-0.1,0.2-0.2,0.4-0.4,0.5C102.9,153,102.8,153.1,102.7,153.2z"/>
				</g>
			</g>
		</g>
		<g class="st12">
			<g>
				
					<ellipse transform="matrix(0.7352 -0.6778 0.6778 0.7352 -73.0209 113.8451)" class="st8" cx="109.2" cy="150.4" rx="0.3" ry="0.3"/>
			</g>
		</g>
		<g class="st11">
			<g>
				<path class="st8" d="M109.7,146.1l-0.5-0.5C109.3,145.7,109.5,145.9,109.7,146.1z"/>
			</g>
		</g>
		<g class="st13">
			<g>
				<path class="st8" d="M140.9,105.4c-0.3-0.3-0.5-0.5-0.7-0.8c-0.6-1-0.5-2.5-0.8-3.8c0.1,0.1,0.2,0.1,0.2,0.2
					C140.7,102,140.5,104,140.9,105.4z"/>
			</g>
		</g>
		<g>
			<g>
				<g>
					<path class="st8" d="M150.1,104.7c0.9,1.5-0.3,3.9,0.2,5.5c0.4,1.7,2.7,3.1,2.6,4.8c-0.1,1.7-2.5,2.9-3.1,4.5
						c-0.6,1.6,0.3,4.1-0.7,5.4c-1,1.3-3.7,0.9-5.1,1.8c-1.5,0.9-2.2,3.5-3.8,3.9c-1.7,0.4-3.6-1.5-5.2-1.5c-1.7-0.1-3.8,1.6-5.4,1
						c-1.6-0.6-2-3.2-3.3-4.3c-1.3-1-4-0.9-4.9-2.4c-0.9-1.5,0.3-3.9-0.2-5.5c-0.4-1.7-2.7-3.1-2.6-4.8c0.1-1.7,2.5-2.9,3.1-4.5
						c0.6-1.6-0.3-4.1,0.7-5.4c1-1.3,3.7-0.9,5.1-1.8c1.5-0.9,2.2-3.5,3.8-3.9c1.7-0.4,3.6,1.5,5.2,1.5c1.7,0.1,3.8-1.6,5.4-1
						c1.6,0.6,2,3.2,3.3,4.3C146.5,103.4,149.2,103.3,150.1,104.7z"/>
				</g>
			</g>
			<g>
				<g>
					<path class="st8" d="M149.4,125.7c-0.8,0.7-1.9,0.9-3,1.1c-0.8,0.1-1.6,0.3-2.1,0.6c-0.5,0.3-1,1-1.4,1.7
						c-0.7,1-1.4,2.1-2.6,2.4c-1.2,0.3-2.4-0.3-3.5-0.8c-0.7-0.4-1.4-0.7-2-0.7c-0.6,0-1.3,0.2-2.1,0.5c-1.1,0.4-2.4,0.9-3.6,0.4
						c-1.2-0.4-1.8-1.6-2.3-2.7c-0.4-0.7-0.7-1.4-1.2-1.8c-0.4-0.3-1.1-0.6-1.9-0.8c-1.2-0.3-2.5-0.7-3.2-1.8
						c-0.7-1.1-0.5-2.4-0.3-3.6c0.1-0.8,0.2-1.5,0.1-2c-0.2-0.6-0.6-1.2-1.1-1.8c-0.8-1-1.5-2-1.5-3.2c0.1-1.2,1-2.2,1.8-3.1
						c0.5-0.6,1.1-1.1,1.3-1.7c0.2-0.5,0.2-1.3,0.1-2.1c0-1.2-0.1-2.6,0.7-3.5c0.8-0.9,2-1.2,3.2-1.4c0.8-0.1,1.6-0.3,2.1-0.6
						c0.5-0.3,1-1,1.4-1.7c0.7-1,1.4-2.1,2.6-2.4c1.2-0.3,2.4,0.3,3.5,0.8c0.7,0.4,1.4,0.7,2,0.7c0.6,0,1.3-0.2,2.1-0.5
						c1.1-0.4,2.4-0.9,3.6-0.4c1.2,0.4,1.8,1.6,2.3,2.7c0.4,0.7,0.7,1.4,1.2,1.8c0.4,0.3,1.1,0.6,1.9,0.8c1.2,0.3,2.5,0.7,3.2,1.8
						c0.7,1.1,0.5,2.4,0.3,3.6c-0.1,0.8-0.2,1.5-0.1,2c0.2,0.6,0.6,1.2,1.1,1.8c0.8,1,1.5,2,1.5,3.2c-0.1,1.2-1,2.2-1.8,3.1
						c-0.5,0.6-1.1,1.1-1.3,1.7c-0.2,0.5-0.2,1.3-0.1,2.1c0,1.2,0.1,2.6-0.7,3.5C149.5,125.5,149.4,125.6,149.4,125.7z M142.9,126.5
						c0.2-0.1,0.3-0.3,0.5-0.4c0.8-0.5,1.7-0.7,2.7-0.8c1-0.2,1.9-0.3,2.3-0.8c0.4-0.5,0.4-1.5,0.4-2.5c0-0.9-0.1-1.9,0.3-2.7
						c0.3-0.8,1-1.5,1.6-2.2c0.7-0.7,1.4-1.4,1.4-2.1c0-0.6-0.5-1.4-1.2-2.2c-0.6-0.7-1.2-1.5-1.4-2.4c-0.2-0.8-0.1-1.8,0-2.7
						c0.1-1,0.3-2-0.1-2.6c-0.4-0.6-1.3-0.9-2.3-1.1c-0.9-0.3-1.8-0.5-2.5-1.1c-0.7-0.6-1.2-1.4-1.6-2.3c-0.5-0.9-0.9-1.7-1.5-1.9
						c-0.6-0.2-1.5,0.1-2.5,0.4c-0.9,0.3-1.8,0.6-2.7,0.6c-0.9,0-1.7-0.5-2.6-0.9c-0.9-0.4-1.8-0.9-2.4-0.7
						c-0.6,0.2-1.1,0.9-1.7,1.7c-0.5,0.8-1.1,1.6-1.9,2.1c-0.8,0.5-1.7,0.7-2.7,0.8c-1,0.2-1.9,0.3-2.3,0.8
						c-0.4,0.5-0.4,1.5-0.4,2.5c0,0.9,0.1,1.9-0.3,2.7c-0.3,0.8-1,1.5-1.6,2.2c-0.7,0.7-1.4,1.4-1.4,2.1c0,0.6,0.5,1.4,1.2,2.2
						c0.6,0.7,1.2,1.5,1.4,2.4c0.2,0.8,0.1,1.8,0,2.7c-0.1,1-0.3,2,0.1,2.6c0.4,0.6,1.3,0.9,2.3,1.1c0.9,0.3,1.8,0.5,2.5,1.1
						c0.7,0.6,1.2,1.4,1.6,2.3c0.5,0.9,0.9,1.7,1.5,1.9c0.6,0.2,1.5-0.1,2.5-0.4c0.9-0.3,1.8-0.6,2.7-0.6c0.9,0,1.7,0.5,2.6,0.9
						c0.9,0.4,1.8,0.9,2.4,0.7c0.6-0.2,1.1-0.9,1.7-1.7C142,127.6,142.4,127,142.9,126.5z"/>
				</g>
			</g>
		</g>
		<g>
			<g>
				<path class="st8" d="M150.1,104.7c0.9,1.5-0.3,3.9,0.2,5.5c0.4,1.7,2.7,3.1,2.6,4.8c-0.1,1.7-2.5,2.9-3.1,4.5
					c-0.6,1.6,0.3,4.1-0.7,5.4c-1,1.3-3.7,0.9-5.1,1.8c-1.5,0.9-2.2,3.5-3.8,3.9c-1.7,0.4-3.6-1.5-5.2-1.5c-1.7-0.1-3.8,1.6-5.4,1
					c-1.6-0.6-2-3.2-3.3-4.3c-1.3-1-4-0.9-4.9-2.4c-0.9-1.5,0.3-3.9-0.2-5.5c-0.4-1.7-2.7-3.1-2.6-4.8c0.1-1.7,2.5-2.9,3.1-4.5
					c0.6-1.6-0.3-4.1,0.7-5.4c1-1.3,3.7-0.9,5.1-1.8c1.5-0.9,2.2-3.5,3.8-3.9c1.7-0.4,3.6,1.5,5.2,1.5c1.7,0.1,3.8-1.6,5.4-1
					c1.6,0.6,2,3.2,3.3,4.3C146.5,103.4,149.2,103.3,150.1,104.7z"/>
			</g>
		</g>
		<g class="st9">
			<g>
				<path class="st8" d="M150.5,106.3c-1.1-1.2-3.5-1.2-4.7-2.1c-1.3-1.1-1.8-3.7-3.3-4.3c-1.6-0.6-3.7,1.1-5.4,1
					c-1.7-0.1-3.6-2-5.2-1.5c-1.6,0.4-2.3,3-3.8,3.9c-1.5,0.9-4.1,0.5-5.1,1.8c-1.1,1.3-0.1,3.8-0.7,5.4c-0.6,1.5-2.9,2.7-3.1,4.4
					c-0.4-0.5-0.6-1.1-0.6-1.7c0.1-1.7,2.5-2.9,3.1-4.5c0.6-1.6-0.3-4.1,0.7-5.4c1-1.3,3.7-0.9,5.1-1.8c1.5-0.9,2.2-3.5,3.8-3.9
					c1.7-0.4,3.6,1.5,5.2,1.5c1.7,0.1,3.8-1.6,5.4-1c1.6,0.6,2,3.2,3.3,4.3c1.3,1,4,0.9,4.9,2.4
					C150.4,105.2,150.5,105.7,150.5,106.3z"/>
			</g>
		</g>
		<g>
			<g>
				<path class="st8" d="M149.3,125.6c-0.8,0.7-1.9,0.9-2.9,1.1c-0.8,0.1-1.6,0.3-2.1,0.6c-0.5,0.3-1,1-1.4,1.7
					c-0.7,1-1.4,2-2.5,2.3c-1.2,0.3-2.3-0.2-3.5-0.8c-0.7-0.4-1.4-0.7-2-0.7c-0.6,0-1.3,0.2-2.1,0.5c-1.2,0.4-2.4,0.9-3.5,0.4
					c-1.1-0.4-1.7-1.6-2.3-2.6c-0.4-0.7-0.8-1.4-1.2-1.8c-0.4-0.4-1.2-0.6-1.9-0.8c-1.1-0.3-2.4-0.7-3.1-1.8
					c-0.7-1.1-0.5-2.4-0.3-3.6c0.1-0.8,0.2-1.5,0.1-2.1c-0.2-0.6-0.7-1.2-1.1-1.9c-0.8-1-1.5-2-1.5-3.2c0.1-1.2,1-2.1,1.8-3
					c0.6-0.6,1.1-1.1,1.3-1.7c0.2-0.5,0.2-1.3,0.2-2.1c0-1.2-0.1-2.5,0.7-3.5c0.7-0.9,2-1.1,3.2-1.3c0.8-0.1,1.6-0.3,2.1-0.6
					c0.5-0.3,1-1,1.4-1.7c0.7-1,1.4-2,2.5-2.3c1.2-0.3,2.3,0.2,3.5,0.8c0.7,0.4,1.4,0.7,2,0.7c0.6,0,1.3-0.2,2.1-0.5
					c1.2-0.4,2.4-0.9,3.5-0.4c1.1,0.4,1.7,1.6,2.3,2.6c0.4,0.7,0.8,1.4,1.2,1.8c0.4,0.4,1.2,0.6,1.9,0.8c1.1,0.3,2.4,0.7,3.1,1.8
					s0.5,2.4,0.3,3.6c-0.1,0.8-0.2,1.5-0.1,2.1c0.2,0.6,0.7,1.2,1.1,1.9c0.8,1,1.5,2,1.5,3.2c-0.1,1.2-1,2.1-1.8,3
					c-0.6,0.6-1.1,1.1-1.3,1.7c-0.2,0.5-0.2,1.3-0.2,2.1c0,1.2,0.1,2.5-0.7,3.5C149.5,125.5,149.4,125.6,149.3,125.6z M143,126.6
					c0.2-0.1,0.3-0.3,0.5-0.4c0.8-0.5,1.7-0.7,2.6-0.8c1-0.2,1.9-0.3,2.3-0.9c0.4-0.6,0.4-1.5,0.4-2.6c0-0.9-0.1-1.9,0.2-2.7
					c0.3-0.8,1-1.5,1.6-2.2c0.7-0.7,1.4-1.4,1.4-2.1c0-0.7-0.5-1.4-1.2-2.2c-0.6-0.7-1.2-1.5-1.4-2.4c-0.2-0.8-0.1-1.7,0-2.6
					c0.1-1,0.3-2-0.1-2.6c-0.4-0.6-1.3-0.9-2.3-1.2c-0.9-0.2-1.8-0.5-2.4-1c-0.7-0.6-1.1-1.4-1.6-2.2c-0.5-0.9-0.9-1.7-1.6-2
					c-0.6-0.2-1.6,0.1-2.5,0.4c-0.9,0.3-1.8,0.6-2.6,0.6c-0.9,0-1.7-0.5-2.5-0.9c-0.9-0.5-1.8-0.9-2.5-0.7c-0.6,0.2-1.2,1-1.7,1.8
					c-0.5,0.8-1.1,1.6-1.8,2.1c-0.8,0.5-1.7,0.7-2.6,0.8c-1,0.2-1.9,0.3-2.3,0.9c-0.4,0.6-0.4,1.5-0.4,2.6c0,0.9,0.1,1.9-0.2,2.7
					c-0.3,0.8-1,1.5-1.6,2.2c-0.7,0.7-1.4,1.4-1.4,2.1c0,0.7,0.5,1.4,1.2,2.2c0.6,0.7,1.2,1.5,1.4,2.4c0.2,0.8,0.1,1.7,0,2.6
					c-0.1,1-0.3,2,0.1,2.6c0.4,0.6,1.3,0.9,2.3,1.2c0.9,0.2,1.8,0.5,2.4,1c0.7,0.6,1.1,1.4,1.6,2.2c0.5,0.9,0.9,1.7,1.6,2
					c0.6,0.2,1.6-0.1,2.5-0.4c0.9-0.3,1.8-0.6,2.6-0.6c0.9,0,1.7,0.5,2.5,0.9c0.9,0.5,1.8,0.9,2.5,0.7c0.6-0.2,1.2-1,1.7-1.8
					C142,127.6,142.5,127,143,126.6z"/>
			</g>
		</g>
		<g>
			<g>
				<g>
					<path class="st8" d="M100.2,148.5c1.4,1,3.9-0.1,5.4,0.4c1.6,0.5,3,2.8,4.7,2.7c1.7,0,3-2.4,4.6-2.9c1.6-0.5,4.1,0.5,5.4-0.5
						c1.3-1,1-3.7,2-5.1c1-1.4,3.6-2.1,4.1-3.6c0.5-1.6-1.3-3.6-1.4-5.3c0-1.7,1.7-3.7,1.2-5.3c-0.5-1.6-3.2-2.1-4.2-3.5
						c-1-1.3-0.8-4-2.2-5c-1.4-1-3.9,0.1-5.4-0.4c-1.6-0.5-3-2.8-4.7-2.7c-1.7,0-3,2.4-4.6,2.9c-1.6,0.5-4.1-0.5-5.4,0.5
						c-1.3,1-1,3.7-2,5.1c-1,1.4-3.6,2.1-4.1,3.6c-0.5,1.6,1.3,3.6,1.4,5.3c0,1.7-1.7,3.7-1.2,5.3c0.5,1.6,3.2,2.1,4.2,3.5
						C99,144.8,98.8,147.5,100.2,148.5z"/>
				</g>
			</g>
			<g>
				<g>
					<path class="st8" d="M121.1,148.6c-0.1,0.1-0.1,0.1-0.2,0.2c-1,0.8-2.4,0.7-3.6,0.6c-0.8-0.1-1.6-0.1-2.1,0.1
						c-0.5,0.2-1.1,0.7-1.7,1.2c-0.9,0.8-1.9,1.7-3.1,1.7c-1.2,0-2.2-0.8-3.2-1.6c-0.6-0.5-1.2-1-1.8-1.2c-0.5-0.2-1.3-0.1-2,0
						c-1.2,0.1-2.6,0.3-3.6-0.5l0,0c-1.1-0.7-1.4-2.1-1.7-3.2c-0.2-0.8-0.4-1.5-0.7-1.9c-0.4-0.5-1.1-0.9-1.7-1.3
						c-1.1-0.6-2.2-1.3-2.6-2.4c-0.4-1.2,0.1-2.4,0.5-3.5c0.3-0.7,0.6-1.5,0.6-2c0-0.6-0.3-1.3-0.6-2c-0.5-1.1-1-2.3-0.7-3.5
						c0.4-1.2,1.4-1.8,2.5-2.5c0.7-0.4,1.4-0.9,1.7-1.4c0.3-0.5,0.5-1.3,0.7-2.1c0.3-1.2,0.5-2.4,1.5-3.2c1-0.8,2.4-0.7,3.6-0.6
						c0.8,0.1,1.6,0.1,2.1-0.1c0.5-0.2,1.1-0.7,1.7-1.2c0.9-0.8,1.9-1.7,3.1-1.7c1.2,0,2.2,0.8,3.2,1.6c0.6,0.5,1.2,1,1.8,1.2
						c0.5,0.2,1.3,0.1,2,0c1.2-0.1,2.6-0.3,3.6,0.5c1.1,0.7,1.4,2.1,1.7,3.2c0.2,0.8,0.4,1.5,0.7,1.9c0.4,0.5,1.1,0.9,1.7,1.3
						c1.1,0.6,2.2,1.3,2.6,2.4c0.4,1.2-0.1,2.4-0.5,3.5c-0.3,0.7-0.6,1.5-0.6,2c0,0.6,0.3,1.3,0.6,2c0.5,1.1,1,2.3,0.7,3.5
						c-0.4,1.2-1.4,1.8-2.5,2.5c-0.7,0.4-1.4,0.9-1.7,1.4s-0.5,1.3-0.7,2.1C122.1,146.7,121.9,147.8,121.1,148.6z M100.7,147.8
						c0.6,0.4,1.5,0.3,2.5,0.2c0.9-0.1,1.8-0.2,2.7,0.1c0.9,0.3,1.6,0.9,2.3,1.5c0.8,0.6,1.5,1.2,2.1,1.2c0.7,0,1.4-0.6,2.1-1.3
						c0.7-0.6,1.4-1.3,2.3-1.6c0.8-0.3,1.8-0.2,2.7-0.2c1,0.1,2,0.1,2.5-0.3c0.5-0.4,0.7-1.3,0.9-2.3c0.2-0.9,0.4-1.9,0.9-2.6
						c0.5-0.8,1.4-1.3,2.2-1.8c0.8-0.5,1.6-1,1.8-1.6c0.2-0.6-0.2-1.5-0.6-2.4c-0.4-0.8-0.8-1.7-0.8-2.6c0-0.9,0.3-1.8,0.7-2.7
						c0.4-0.9,0.7-1.8,0.5-2.4c-0.2-0.6-1-1.1-1.9-1.6c-0.8-0.5-1.6-1-2.2-1.7c-0.5-0.7-0.8-1.6-1-2.5c-0.2-1-0.5-1.9-1.1-2.3
						c-0.6-0.4-1.5-0.3-2.5-0.2c-0.9,0.1-1.8,0.2-2.7-0.1c-0.9-0.3-1.6-0.9-2.3-1.5c-0.8-0.6-1.5-1.2-2.1-1.2
						c-0.7,0-1.4,0.6-2.1,1.3c-0.7,0.6-1.4,1.3-2.3,1.6c-0.8,0.3-1.8,0.2-2.7,0.2c-1-0.1-2-0.1-2.5,0.3c-0.5,0.4-0.7,1.3-0.9,2.3
						c-0.2,0.9-0.4,1.9-0.9,2.6c-0.5,0.8-1.4,1.3-2.2,1.8c-0.8,0.5-1.6,1-1.8,1.6c-0.2,0.6,0.2,1.5,0.6,2.4c0.4,0.8,0.8,1.7,0.8,2.6
						c0,0.9-0.3,1.8-0.7,2.7c-0.4,0.9-0.7,1.8-0.5,2.4c0.2,0.6,1,1.1,1.9,1.6c0.8,0.5,1.6,1,2.2,1.7c0.5,0.7,0.8,1.6,1,2.5
						C99.8,146.5,100.1,147.4,100.7,147.8L100.7,147.8z"/>
				</g>
			</g>
		</g>
		<g>
			<g>
				<path class="st8" d="M100.2,148.5c1.4,1,3.9-0.1,5.4,0.4c1.6,0.5,3,2.8,4.7,2.7c1.7,0,3-2.4,4.6-2.9c1.6-0.5,4.1,0.5,5.4-0.5
					c1.3-1,1-3.7,2-5.1c1-1.4,3.6-2.1,4.1-3.6c0.5-1.6-1.3-3.6-1.4-5.3c0-1.7,1.7-3.7,1.2-5.3c-0.5-1.6-3.2-2.1-4.2-3.5
					c-1-1.3-0.8-4-2.2-5c-1.4-1-3.9,0.1-5.4-0.4c-1.6-0.5-3-2.8-4.7-2.7c-1.7,0-3,2.4-4.6,2.9c-1.6,0.5-4.1-0.5-5.4,0.5
					c-1.3,1-1,3.7-2,5.1c-1,1.4-3.6,2.1-4.1,3.6c-0.5,1.6,1.3,3.6,1.4,5.3c0,1.7-1.7,3.7-1.2,5.3c0.5,1.6,3.2,2.1,4.2,3.5
					C99,144.8,98.8,147.5,100.2,148.5z"/>
			</g>
		</g>
		<g class="st9">
			<g>
				<path class="st8" d="M101.9,149c-1.2-1.1-1-3.6-2-4.8c-1-1.4-3.7-1.9-4.2-3.5c-0.6-1.6,1.2-3.6,1.2-5.3c0-1.7-1.9-3.7-1.4-5.3
					c0.5-1.6,3.1-2.2,4.1-3.6c1-1.4,0.7-4.1,2-5.1c1.4-1,3.8,0,5.4-0.5c1.6-0.5,2.8-2.8,4.5-2.9c-0.5-0.4-1.1-0.6-1.7-0.6
					c-1.7,0-3,2.4-4.6,2.9c-1.6,0.5-4.1-0.5-5.4,0.5c-1.3,1-1,3.7-2,5.1c-1,1.4-3.6,2.1-4.1,3.6c-0.5,1.6,1.3,3.6,1.4,5.3
					c0,1.7-1.7,3.7-1.2,5.3c0.5,1.6,3.2,2.1,4.2,3.5c1,1.3,0.8,4,2.2,5C100.8,148.8,101.4,148.9,101.9,149z"/>
			</g>
		</g>
		<g>
			<g>
				<path class="st8" d="M121,148.5c-0.1,0.1-0.1,0.1-0.2,0.2c-1,0.7-2.3,0.7-3.5,0.6c-0.8-0.1-1.6-0.1-2.1,0.1
					c-0.6,0.2-1.1,0.7-1.7,1.3c-0.9,0.8-1.9,1.7-3.1,1.7c-1.2,0-2.2-0.8-3.1-1.6c-0.6-0.5-1.2-1-1.8-1.2c-0.5-0.2-1.3-0.1-2.1,0
					c-1.2,0.1-2.5,0.3-3.6-0.4l0,0c-1-0.7-1.4-2-1.6-3.2c-0.2-0.8-0.4-1.5-0.7-2c-0.4-0.5-1.1-0.9-1.8-1.3c-1.1-0.6-2.2-1.3-2.6-2.4
					c-0.4-1.2,0.1-2.3,0.5-3.5c0.3-0.8,0.6-1.5,0.6-2.1c0-0.6-0.3-1.3-0.7-2c-0.5-1.1-1-2.3-0.7-3.5c0.3-1.1,1.4-1.8,2.4-2.4
					c0.7-0.4,1.4-0.9,1.7-1.4c0.4-0.5,0.5-1.3,0.7-2.1c0.3-1.2,0.5-2.4,1.5-3.1c1-0.7,2.3-0.7,3.5-0.6c0.8,0.1,1.6,0.1,2.1-0.1
					c0.6-0.2,1.1-0.7,1.7-1.3c0.9-0.8,1.9-1.7,3.1-1.7c1.2,0,2.2,0.8,3.1,1.6c0.6,0.5,1.2,1,1.8,1.2c0.5,0.2,1.3,0.1,2.1,0
					c1.2-0.1,2.5-0.3,3.6,0.4c1,0.7,1.4,2,1.6,3.2c0.2,0.8,0.4,1.5,0.7,2c0.4,0.5,1.1,0.9,1.8,1.3c1.1,0.6,2.2,1.3,2.6,2.4
					c0.4,1.2-0.1,2.3-0.5,3.5c-0.3,0.8-0.6,1.5-0.6,2.1c0,0.6,0.3,1.3,0.7,2c0.5,1.1,1,2.3,0.7,3.5c-0.3,1.1-1.4,1.8-2.4,2.4
					c-0.7,0.4-1.4,0.9-1.7,1.4c-0.4,0.5-0.5,1.3-0.7,2.1C122.1,146.7,121.8,147.8,121,148.5z M100.6,147.9c0.6,0.4,1.6,0.3,2.6,0.2
					c0.9-0.1,1.8-0.2,2.6,0.1c0.9,0.3,1.6,0.9,2.3,1.5c0.8,0.6,1.5,1.3,2.2,1.3c0.7,0,1.4-0.7,2.2-1.3c0.7-0.6,1.4-1.3,2.2-1.5
					c0.8-0.3,1.8-0.2,2.7-0.2c1,0.1,2,0.1,2.6-0.3c0.5-0.4,0.7-1.3,0.9-2.3c0.2-0.9,0.4-1.9,0.9-2.6c0.5-0.7,1.3-1.3,2.1-1.8
					c0.8-0.5,1.6-1,1.8-1.7c0.2-0.7-0.2-1.6-0.6-2.5c-0.4-0.8-0.8-1.7-0.8-2.6c0-0.9,0.3-1.8,0.7-2.6c0.4-0.9,0.7-1.8,0.5-2.5
					c-0.2-0.6-1.1-1.1-1.9-1.6c-0.8-0.5-1.6-0.9-2.2-1.7c-0.5-0.7-0.7-1.6-1-2.5c-0.3-1-0.5-2-1.1-2.4c-0.6-0.4-1.6-0.3-2.6-0.2
					c-0.9,0.1-1.8,0.2-2.6-0.1c-0.9-0.3-1.6-0.9-2.3-1.5c-0.8-0.6-1.5-1.3-2.2-1.3c-0.7,0-1.4,0.7-2.2,1.3c-0.7,0.6-1.4,1.3-2.2,1.5
					c-0.8,0.3-1.8,0.2-2.7,0.2c-1-0.1-2-0.1-2.6,0.3c-0.5,0.4-0.7,1.3-0.9,2.3c-0.2,0.9-0.4,1.9-0.9,2.6c-0.5,0.7-1.3,1.3-2.1,1.8
					c-0.8,0.5-1.6,1-1.8,1.7c-0.2,0.7,0.2,1.6,0.6,2.5c0.4,0.8,0.8,1.7,0.8,2.6c0,0.9-0.3,1.8-0.7,2.6c-0.4,0.9-0.7,1.8-0.5,2.5
					c0.2,0.6,1.1,1.1,1.9,1.6c0.8,0.5,1.6,0.9,2.2,1.7c0.5,0.7,0.7,1.6,1,2.5C99.8,146.5,100,147.5,100.6,147.9L100.6,147.9z"/>
			</g>
		</g>
		<g class="st12">
			<g>
				
					<ellipse transform="matrix(0.7352 -0.6778 0.6778 0.7352 -50.7113 125.1274)" class="st8" cx="134.8" cy="127.5" rx="1.3" ry="0.9"/>
			</g>
		</g>
		<g>
			<g>
				<path class="st8" d="M155.3,111.6c0.9,1,1.6,2.1,2.1,3.2c0.2,0.4,0.3,0.7,0.4,1.1c0,0.1,0.1,0.3,0.1,0.4
					c0.2,0.6,0.3,1.2,0.3,1.8c0,0.1,0,0.2,0,0.3c0,0.1,0,0.2,0,0.3c0,0.1,0,0.2,0,0.3c0,0,0,0.1,0,0.1c0,0.1,0,0.3,0,0.4
					c0,0.3-0.1,0.6-0.1,0.9c0,0.1-0.1,0.3-0.1,0.4c-0.1,0.2-0.1,0.5-0.2,0.7c0,0.1-0.1,0.2-0.1,0.3c-0.3,0.7-0.6,1.3-1,1.9
					c-0.1,0.1-0.2,0.2-0.3,0.3c-0.2,0.2-0.4,0.4-0.6,0.6l-37.4,34.4l0,0l-7.9,7.3c0.1-0.1,0.1-0.1,0.2-0.2c0,0,0.1-0.1,0.1-0.1
					c0.2-0.2,0.3-0.4,0.5-0.6c0,0,0.1-0.1,0.1-0.1c0,0,0.1-0.1,0.1-0.1c0,0,0,0,0,0c0,0,0.1-0.1,0.1-0.2c0-0.1,0.1-0.1,0.1-0.2
					c0,0,0.1-0.1,0.1-0.1c0.1-0.2,0.2-0.4,0.3-0.7c0-0.1,0.1-0.1,0.1-0.2c0.2-0.4,0.3-0.9,0.4-1.3c0-0.1,0-0.1,0-0.2
					c0-0.1,0-0.1,0-0.2c0-0.1,0-0.1,0-0.2c0-0.1,0-0.1,0-0.2c0-0.1,0-0.1,0-0.2c0-0.1,0-0.2,0-0.3c0,0,0,0,0,0c0-0.1,0-0.2,0-0.3
					c0-0.1,0-0.2,0-0.2c0,0,0-0.1,0-0.1c0-0.1,0-0.1,0-0.2c0-0.1,0-0.1,0-0.2c0-0.1,0-0.1,0-0.2c0-0.1,0-0.1,0-0.2
					c0-0.1,0-0.1,0-0.2c0-0.1,0-0.2,0-0.2c-0.1-0.5-0.2-1-0.3-1.5c0-0.1,0-0.2-0.1-0.3c0-0.1,0-0.1,0-0.2c0-0.1,0-0.1-0.1-0.2
					c0,0,0-0.1,0-0.1c0-0.1-0.1-0.2-0.1-0.3c0,0,0,0,0-0.1c0-0.1-0.1-0.2-0.1-0.3c0,0,0-0.1-0.1-0.1c0-0.1-0.1-0.1-0.1-0.2
					c0,0,0,0,0,0c-0.2-0.5-0.5-1-0.7-1.4c0,0,0,0,0,0c-0.1-0.2-0.2-0.4-0.3-0.5l0,0c-1.8-2.8-3.2-5.8-4.3-8.7l0,0
					c-4.7-12.9-2.7-26.6,6.4-35.1c10-9.3,25.7-8.8,39.2-1.6c0.8,0.4,1.6,0.9,2.2,1.5c0.2,0.2,0.4,0.3,0.6,0.5l0,0
					C155,111.4,155.1,111.5,155.3,111.6z"/>
			</g>
		</g>
		<g class="st9">
			<g>
				<path class="st8" d="M155.3,111.6c0.3,0.3,0.5,0.6,0.8,0.9c-0.1-0.1-0.2-0.2-0.4-0.3c-0.7-0.6-1.4-1.1-2.2-1.5
					c-13.5-7.2-29.1-7.6-39.2,1.6c-9.1,8.4-11.1,22.1-6.4,35.1l0,0c1,2.7,2.3,5.3,3.8,7.9c-0.1,0.1-0.2,0.1-0.3,0.2
					c0-0.1-0.1-0.2-0.2-0.3c0,0,0,0,0,0c-0.1-0.2-0.2-0.4-0.3-0.5l0,0c-1.8-2.8-3.2-5.8-4.3-8.7l0,0c-4.7-12.9-2.7-26.6,6.4-35.1
					c10-9.2,25.7-8.8,39.2-1.6c0.8,0.4,1.6,0.9,2.2,1.5c0.2,0.2,0.4,0.3,0.6,0.5l0,0C155,111.4,155.1,111.5,155.3,111.6z"/>
			</g>
		</g>
		<g class="st11">
			<g>
				<path class="st8" d="M152.7,109.9c-0.8-0.5-1.3-0.9-0.6-0.6C152.3,109.4,152.5,109.6,152.7,109.9z"/>
			</g>
		</g>
		<g>
			<g>
				<path class="st8" d="M118.9,159.9l-7.9,7.3c-0.3,0.3-0.7,0.2-1,0c-0.3-0.3-0.2-0.7,0-1c2.6-2.4,2.8-6.7,0.5-10.5l0,0
					c0,0,0,0,0,0c-0.1-0.2-0.2-0.3-0.3-0.5c0,0,0,0,0,0c-4.8-7.5-7.2-16.1-6.9-24.1c0.3-8.2,3.6-15.5,9.1-20.6
					c4.9-4.5,11.4-7,18.8-7.2c6.9-0.2,14.3,1.7,21.2,5.4c3.6,1.9,6,5.3,6.5,9c0.4,3-0.6,5.9-2.6,7.8L118.9,159.9
					C119,159.8,119,159.8,118.9,159.9z M113.4,163.1l4.5-4.2c0,0,0.1-0.1,0.1-0.1l37.4-34.4c1.7-1.6,2.5-4,2.2-6.6
					c-0.4-3.3-2.6-6.3-5.8-8c-14.1-7.6-29.2-7-38.4,1.5c-10.7,9.8-11.5,27.9-2,42.9c0,0,0,0,0,0c0.1,0.2,0.3,0.4,0.4,0.6
					c0,0,0,0,0,0C113.5,157.6,114,160.5,113.4,163.1z M110.6,155.6L110.6,155.6L110.6,155.6z M110.6,155.6
					C110.6,155.6,110.6,155.6,110.6,155.6C110.6,155.6,110.6,155.6,110.6,155.6z"/>
			</g>
		</g>
		<g class="st11">
			<g>
				<path class="st8" d="M111.5,126.2c1.9-0.1,1.2,2.8,1.5,6.5c0.3,3.6,1.4,6.5-0.5,6.6c-1.9,0.1-3.6-2.7-3.9-6.3
					C108.4,129.3,109.6,126.3,111.5,126.2z"/>
			</g>
		</g>
		<g class="st11">
			<g>
				<circle class="st8" cx="136.4" cy="110.9" r="0.5"/>
			</g>
		</g>
		<g class="st11">
			<g>
				<circle class="st8" cx="113.4" cy="145.9" r="0.5"/>
			</g>
		</g>
		<g class="st11">
			<g>
				<circle class="st8" cx="141.1" cy="121.1" r="0.5"/>
			</g>
		</g>
		<g class="st11">
			<g>
				<circle class="st8" cx="123.7" cy="147.4" r="0.5"/>
			</g>
		</g>
		<g class="st11">
			<g>
				<circle class="st8" cx="112" cy="119.2" r="0.5"/>
			</g>
		</g>
		<g class="st11">
			<g>
				<circle class="st8" cx="122.4" cy="121" r="0.5"/>
			</g>
		</g>
		<g class="st11">
			<g>
				<circle class="st8" cx="128.4" cy="139.2" r="0.5"/>
			</g>
		</g>
		<g class="st11">
			<g>
				<circle class="st8" cx="123.4" cy="113.7" r="0.5"/>
			</g>
		</g>
		<g class="st11">
			<g>
				<ellipse class="st8" cx="132.8" cy="111" rx="0.8" ry="0.8"/>
			</g>
		</g>
		<g class="st11">
			<g>
				<ellipse class="st8" cx="153.5" cy="117.6" rx="0.8" ry="0.8"/>
			</g>
		</g>
		<g class="st11">
			<g>
				<ellipse class="st8" cx="141.6" cy="132.9" rx="0.8" ry="0.8"/>
			</g>
		</g>
		<g>
			<g>
				<g>
					<g>
						<path class="st5" d="M136.9,115.9c-1.5-1.8-3.7-2.4-5-1.3c-1.2,1-1,3.3,0.5,5.1c1.5,1.8,3.7,2.4,5,1.3
							C138.6,119.9,138.4,117.6,136.9,115.9z"/>
					</g>
				</g>
			</g>
			<g>
				<g>
					<path class="st5" d="M134.4,116.9c-0.6-0.7-1.4-0.9-1.8-0.5c-0.4,0.4-0.3,1.2,0.2,1.8c0.6,0.7,1.4,0.9,1.8,0.5
						C135,118.4,134.9,117.5,134.4,116.9z"/>
				</g>
				<g>
					<path class="st5" d="M134.7,118.8C134.7,118.8,134.7,118.8,134.7,118.8c-0.5,0.4-1.4,0.2-1.9-0.5c-0.3-0.3-0.5-0.7-0.5-1.1
						c0-0.4,0.1-0.7,0.3-0.9c0.5-0.4,1.3-0.2,1.9,0.5l0,0C135,117.5,135.1,118.4,134.7,118.8z M132.6,116.4
						c-0.2,0.2-0.2,0.4-0.2,0.7c0,0.3,0.2,0.7,0.5,1c0.5,0.6,1.3,0.8,1.7,0.5c0.4-0.3,0.3-1.1-0.2-1.7l0,0
						C133.8,116.3,133,116.1,132.6,116.4C132.6,116.4,132.6,116.4,132.6,116.4z"/>
				</g>
			</g>
			<g>
				<g>
					<g>
						<path class="st5" d="M131.6,122.9c2,2.1,3,5.3,1.5,6.6s-4.8,0.3-6.7-1.8L131.6,122.9z"/>
					</g>
				</g>
				<g>
					<g>
						<path class="st5" d="M133.4,125.8c-0.9,0-1.8,0.4-2.6,1.1c-0.8,0.8-1.3,1.8-1.2,2.8c1.4,0.5,2.7,0.5,3.5-0.3
							C133.9,128.7,133.9,127.3,133.4,125.8z"/>
					</g>
				</g>
				<g>
					<g>
						<path class="st5" d="M133.6,130.1c-1.9,1.7-5.7,0.5-7.9-1.8c-0.2-0.2-0.2-0.4-0.2-0.6c0-0.2,0.1-0.4,0.3-0.6l5.2-4.9
							c0,0,0,0,0,0c0.3-0.3,0.9-0.3,1.2,0c1.1,1.1,1.9,2.6,2.2,4C134.8,127.9,134.6,129.2,133.6,130.1
							C133.7,130.1,133.7,130.1,133.6,130.1z M127.6,127.7c1.7,1.4,4,2,4.9,1.1c0,0,0,0,0,0c0.4-0.4,0.5-1.2,0.3-2.2
							c-0.2-0.9-0.7-1.8-1.3-2.6L127.6,127.7z"/>
					</g>
				</g>
			</g>
			<g>
				<g>
					<g>
						<path class="st5" d="M118.9,133.1c-1.7-1.6-2.1-3.9-0.9-5.1c1.1-1.1,3.4-0.7,5.1,0.9c1.7,1.6,2.1,3.9,0.9,5.1
							C122.8,135.2,120.5,134.8,118.9,133.1z"/>
					</g>
				</g>
			</g>
			<g>
				<g>
					<path class="st5" d="M120.1,130.7c-0.6-0.6-0.8-1.4-0.4-1.8c0.4-0.4,1.2-0.2,1.8,0.4c0.6,0.6,0.8,1.4,0.4,1.8
						C121.5,131.5,120.7,131.3,120.1,130.7z"/>
				</g>
				<g>
					<path class="st5" d="M122,131.1c-0.4,0.4-1.3,0.2-1.9-0.4l0,0c-0.6-0.6-0.8-1.5-0.4-2c0.2-0.2,0.5-0.3,0.9-0.2
						c0.4,0.1,0.7,0.3,1,0.6C122.3,129.8,122.4,130.7,122,131.1C122,131.1,122,131.1,122,131.1z M120.2,130.6
						c0.6,0.6,1.3,0.7,1.7,0.4c0.4-0.4,0.2-1.1-0.4-1.7c-0.3-0.3-0.6-0.5-0.9-0.5c-0.3-0.1-0.6,0-0.7,0.2
						C119.4,129.3,119.6,130,120.2,130.6L120.2,130.6z"/>
				</g>
			</g>
		</g>
	</g>
</g>
</svg>
