<?xml version="1.0" standalone="no"?>
<!DOCTYPE svg PUBLIC "-//W3C//DTD SVG 20010904//EN"
 "http://www.w3.org/TR/2001/REC-SVG-20010904/DTD/svg10.dtd">
<svg version="1.0" xmlns="http://www.w3.org/2000/svg"
 width="128.000000pt" height="128.000000pt" viewBox="0 0 128.000000 128.000000"
 preserveAspectRatio="xMidYMid meet">
<metadata>
Created by potrace 1.14, written by Peter Selinger 2001-2017
</metadata>
<g transform="translate(0.000000,128.000000) scale(0.100000,-0.100000)"
fill="#000000" stroke="none">
<path d="M638 1185 c-3 -3 -15 -7 -26 -10 -27 -5 -87 -39 -192 -109 -46 -31
-88 -56 -93 -56 -5 0 -23 -6 -40 -14 -18 -8 -45 -17 -62 -19 -141 -24 -175
-32 -175 -39 0 -4 -11 -8 -25 -8 l-25 0 0 -465 0 -465 640 0 640 0 0 465 0
465 -58 0 c-32 0 -63 5 -69 11 -5 5 -30 12 -53 14 -24 3 -48 9 -54 15 -5 5
-18 10 -27 10 -10 0 -48 29 -86 66 -37 36 -81 72 -98 81 -16 9 -35 22 -40 30
-6 7 -22 16 -37 18 -27 5 -27 4 -17 -22 14 -36 5 -86 -26 -157 -14 -31 -25
-65 -25 -76 0 -17 3 -18 19 -8 29 18 51 62 51 102 0 44 10 45 45 4 24 -29 26
-37 20 -83 -16 -119 -16 -134 -6 -152 9 -15 10 -12 11 19 0 25 8 46 25 65 l24
28 1 -43 c0 -25 10 -63 25 -92 14 -27 25 -56 25 -65 0 -19 -2 -19 45 5 44 23
51 21 35 -10 -15 -27 -9 -95 16 -182 17 -62 17 -71 4 -110 -12 -33 -27 -50
-65 -75 -63 -41 -89 -44 -52 -5 28 30 35 69 17 103 -6 10 -15 19 -21 19 -6 0
-7 -5 -4 -11 15 -24 -11 -66 -97 -156 l-90 -95 4 -54 c4 -47 3 -52 -13 -44
-33 18 -109 112 -119 148 -20 74 -4 136 19 71 13 -36 30 -34 50 6 13 27 15 28
22 10 6 -17 8 -15 8 9 1 16 -7 35 -16 42 -26 19 -77 17 -104 -5 -32 -25 -32
-98 0 -158 12 -24 19 -43 16 -43 -3 0 -33 13 -68 28 -122 56 -164 114 -178
247 -12 112 -27 161 -60 197 -16 16 -29 32 -29 35 0 14 75 -9 96 -28 l24 -22
0 29 c0 55 -22 108 -61 147 -21 22 -39 41 -39 43 0 8 59 4 83 -5 13 -5 33 -24
44 -41 25 -39 34 -29 42 49 l6 55 19 -29 c28 -42 33 -125 11 -159 l-17 -26 30
0 c16 0 41 -9 56 -21 14 -11 26 -16 26 -10 0 6 5 11 10 11 17 0 11 -36 -12
-65 -20 -26 -22 -26 -29 -8 -7 19 -75 47 -91 37 -27 -17 6 -94 41 -94 8 0 10
-11 5 -35 -5 -28 -3 -35 10 -35 19 0 22 -20 4 -20 -8 0 -5 -7 6 -15 11 -8 14
-15 8 -15 -7 0 -12 -4 -12 -10 0 -15 47 -12 80 5 39 20 38 38 -5 71 -45 34
-44 44 3 38 42 -5 44 -5 90 0 41 5 42 -14 2 -37 -36 -21 -39 -50 -8 -71 25
-18 78 -22 78 -6 0 6 -6 10 -12 11 -7 0 -2 5 12 11 22 10 23 12 6 16 -18 4
-18 5 5 23 21 16 22 21 12 38 -17 27 -16 31 6 31 10 0 23 6 29 13 15 18 23 60
14 74 -11 18 -84 -6 -90 -29 -6 -24 -18 -23 -36 4 -21 29 -22 76 -3 59 11 -8
18 -6 32 9 10 11 31 20 47 20 17 0 28 5 28 14 0 19 -53 72 -79 79 -28 7 -68
-26 -76 -63 l-7 -30 -33 33 c-18 17 -46 42 -63 55 -58 43 -66 180 -16 257 23
35 34 31 34 -12 0 -21 4 -45 10 -53 7 -11 11 -8 21 15 17 45 23 113 10 128 -6
8 -8 17 -4 21 9 8 53 -34 53 -51 0 -34 33 -4 44 40 10 43 -2 77 -28 77 -13 0
-25 -2 -28 -5z"/>
</g>
</svg>
